<svg width="583" height="525" viewBox="0 0 583 525" fill="none" xmlns="http://www.w3.org/2000/svg">
<g opacity="0.8">
<path opacity="0.8" d="M288.143 146.41C336.29 146.41 375.322 116.148 375.322 78.8191C375.322 41.4898 336.29 11.2285 288.143 11.2285C239.996 11.2285 200.964 41.4898 200.964 78.8191C200.964 116.148 239.996 146.41 288.143 146.41Z" fill="url(#paint0_linear)"/>
</g>
<path d="M288.143 144.909C335.222 144.909 373.387 115.32 373.387 78.8198C373.387 42.3197 335.222 12.7305 288.143 12.7305C241.064 12.7305 202.899 42.3197 202.899 78.8198C202.899 115.32 241.064 144.909 288.143 144.909Z" fill="#006AD8"/>
<path opacity="0.1" d="M216.679 86.1638C216.679 49.6639 254.839 20.0744 301.917 20.0744C316.533 19.9939 331.003 22.9833 344.393 28.8494C329.411 18.7222 309.81 12.5684 288.357 12.5684C241.28 12.5684 203.113 42.1578 203.113 78.6577C203.113 103.166 220.322 124.558 245.887 135.972C227.988 123.855 216.679 106.037 216.679 86.1638Z" fill="white"/>
<path opacity="0.2" d="M288 105L365 315.004L442 525H288H134L211 315.004L288 105Z" fill="#006AD8"/>
<g opacity="0.3">
<path opacity="0.3" d="M310.565 337.307L317.905 315.51C320.429 307.919 320.449 299.717 317.963 292.114C315.476 284.511 310.615 277.908 304.095 273.279L304.155 273.243C301.268 271.209 298.102 269.604 294.756 268.478L294.655 268.442L294.542 268.406C291.294 267.307 287.907 266.669 284.482 266.512C283.271 266.449 282.057 266.449 280.845 266.512C278.743 266.622 276.654 266.911 274.601 267.376C274.006 267.507 273.411 267.656 272.869 267.816C272.327 267.977 271.72 268.15 271.155 268.335C270.024 268.71 268.911 269.133 267.821 269.615C267.274 269.854 266.732 270.104 266.202 270.372C264.6 271.164 263.059 272.072 261.589 273.089C261.095 273.428 260.613 273.78 260.137 274.137C254.253 278.615 249.849 284.758 247.494 291.77L235.958 326.114C234.143 331.5 233.597 337.233 234.363 342.865C234.482 343.729 234.631 344.587 234.804 345.439C234.976 346.291 235.19 347.131 235.399 347.965C235.559 348.519 235.726 349.073 235.911 349.621C236.184 350.437 236.506 351.253 236.809 352.051C237.03 352.582 237.262 353.112 237.506 353.636C237.988 354.679 238.524 355.697 239.101 356.692C239.678 357.687 240.292 358.658 240.982 359.599C241.482 360.302 242.012 360.993 242.559 361.66C243.298 362.554 244.071 363.448 244.893 364.24C248.448 367.827 252.703 370.644 257.393 372.514L257.595 372.598C257.847 372.151 258.125 371.719 258.429 371.305C260.214 368.857 263.321 367.135 266.28 367.778C266.494 367.826 266.708 367.892 266.923 367.957C268.423 368.487 269.899 369.435 271.345 369.899C271.871 370.136 272.443 370.255 273.019 370.247C273.596 370.24 274.164 370.107 274.684 369.857C277.577 368.315 276.506 363.448 278.988 361.315C279.104 361.216 279.225 361.125 279.351 361.041C279.316 360.998 279.284 360.952 279.256 360.904C281.173 359.712 283.827 360.505 286.036 361.273C288.417 362.113 291.524 362.679 293.179 360.731C294.298 359.397 294.214 357.365 295.28 355.965C296.518 354.357 298.851 354.178 300.869 354.464L300.97 354.494C304.839 356.09 309.065 353.439 308.768 349.263C308.417 343.693 310.167 338.445 310.565 337.307Z" fill="url(#paint1_linear)"/>
</g>
<path d="M263.398 453.999C265.136 451.616 268.118 449.948 270.976 450.597C273.833 451.246 276.541 453.969 279.083 452.605C282.559 450.746 280.095 443.913 285.737 443.407C286.913 443.329 288.091 443.533 289.172 444.002C291.553 444.973 295.279 446.07 297.112 443.883C298.19 442.596 298.112 440.637 299.142 439.302C300.333 437.753 302.601 437.557 304.535 437.855L304.63 437.884C308.362 439.427 312.446 436.866 312.154 432.839C311.779 427.477 313.481 422.425 313.85 421.329L320.922 400.294C323.93 391.277 323.248 381.434 319.027 372.918C314.805 364.402 307.386 357.905 298.392 354.847C289.383 351.84 279.551 352.525 271.044 356.751C262.537 360.977 256.048 368.401 252.993 377.401L241.845 410.481C238.947 419.181 239.479 428.661 243.331 436.982C247.183 445.303 254.065 451.837 262.571 455.25C262.822 454.817 263.098 454.399 263.398 453.999Z" fill="white"/>
<path opacity="0.2" d="M276.577 377.971C278.717 377.971 280.452 376.235 280.452 374.093C280.452 371.951 278.717 370.215 276.577 370.215C274.437 370.215 272.702 371.951 272.702 374.093C272.702 376.235 274.437 377.971 276.577 377.971Z" fill="black"/>
<path opacity="0.2" d="M298.612 385.389C300.752 385.389 302.487 383.653 302.487 381.511C302.487 379.369 300.752 377.633 298.612 377.633C296.472 377.633 294.737 379.369 294.737 381.511C294.737 383.653 296.472 385.389 298.612 385.389Z" fill="black"/>
<path d="M286.339 393.778C287.363 390.734 286.548 387.713 284.52 387.03C282.491 386.347 280.017 388.261 278.994 391.304C277.971 394.347 278.785 397.368 280.814 398.051C282.842 398.735 285.316 396.821 286.339 393.778Z" fill="#E0E0E0"/>
<path d="M364.184 380.765C367.392 380.765 369.993 378.162 369.993 374.951C369.993 371.74 367.392 369.137 364.184 369.137C360.975 369.137 358.374 371.74 358.374 374.951C358.374 378.162 360.975 380.765 364.184 380.765Z" fill="white"/>
<path d="M378.291 284.187C379.896 284.187 381.196 282.886 381.196 281.28C381.196 279.675 379.896 278.373 378.291 278.373C376.687 278.373 375.387 279.675 375.387 281.28C375.387 282.886 376.687 284.187 378.291 284.187Z" fill="white"/>
<g opacity="0.5">
<g opacity="0.3">
<path opacity="0.3" d="M318.304 103.19L325.643 81.3927C328.167 73.8017 328.187 65.6002 325.701 57.9969C323.214 50.3935 318.353 43.7908 311.833 39.162L311.893 39.1262C309.006 37.0922 305.84 35.487 302.494 34.3605L302.393 34.3247L302.28 34.289C299.032 33.1895 295.646 32.5518 292.22 32.3946C291.009 32.332 289.795 32.332 288.583 32.3946C286.481 32.5047 284.392 32.7937 282.339 33.2584C281.744 33.3894 281.149 33.5384 280.607 33.6992C280.066 33.8601 279.458 34.0328 278.893 34.2175C277.762 34.5928 276.649 35.0158 275.56 35.4983C275.012 35.7366 274.47 35.9868 273.941 36.2549C272.339 37.0464 270.797 37.9544 269.328 38.9714C268.833 39.3109 268.351 39.6624 267.875 40.0198C261.991 44.4978 257.587 50.6409 255.232 57.6532L243.697 91.9965C241.881 97.3825 241.335 103.116 242.101 108.748C242.22 109.612 242.369 110.47 242.542 111.322C242.714 112.174 242.929 113.014 243.137 113.848C243.298 114.402 243.464 114.956 243.649 115.504C243.923 116.32 244.244 117.136 244.548 117.934C244.768 118.464 245 118.995 245.244 119.519C245.726 120.561 246.262 121.58 246.839 122.575C247.417 123.57 248.03 124.541 248.72 125.482C249.22 126.185 249.75 126.876 250.298 127.543C251.036 128.437 251.81 129.301 252.631 130.123C256.186 133.71 260.441 136.527 265.131 138.397L265.333 138.481C265.585 138.034 265.864 137.602 266.167 137.188C267.953 134.739 271.06 133.018 274.018 133.661C274.232 133.709 274.447 133.774 274.661 133.84C276.161 134.37 277.637 135.317 279.083 135.782C279.61 136.019 280.181 136.137 280.758 136.13C281.334 136.123 281.903 135.99 282.423 135.74C285.316 134.197 284.244 129.33 286.726 127.198C286.842 127.099 286.963 127.008 287.089 126.924C287.054 126.88 287.022 126.835 286.994 126.787C288.911 125.595 291.566 126.387 293.774 127.156C296.155 127.996 299.262 128.562 300.917 126.614C302.036 125.279 301.952 123.248 303.018 121.848C304.256 120.24 306.589 120.061 308.607 120.347H308.708C312.577 121.943 316.804 119.292 316.506 115.116C316.155 109.576 317.905 104.328 318.304 103.19Z" fill="url(#paint2_linear)"/>
</g>
<path opacity="0.5" d="M266.839 135.352C268.577 132.969 271.56 131.301 274.417 131.951C277.274 132.6 279.982 135.322 282.524 133.958C286 132.099 283.536 125.267 289.179 124.76C290.354 124.682 291.532 124.887 292.613 125.356C294.994 126.327 298.72 127.423 300.554 125.237C301.631 123.95 301.554 121.99 302.583 120.656C303.774 119.107 306.042 118.91 307.976 119.208L308.071 119.238C311.804 120.781 315.887 118.219 315.595 114.192C315.22 108.831 316.923 103.779 317.292 102.683L324.363 81.6479C327.371 72.6304 326.69 62.7879 322.468 54.2717C318.246 45.7556 310.827 39.2584 301.833 36.2003C292.824 33.1939 282.992 33.8786 274.485 38.1046C265.979 42.3307 259.489 49.7546 256.435 58.7543L245.286 91.8347C242.388 100.535 242.92 110.014 246.772 118.335C250.624 126.656 257.507 133.191 266.012 136.603C266.263 136.17 266.539 135.753 266.839 135.352Z" fill="white"/>
<path opacity="0.2" d="M280.018 59.3266C282.158 59.3266 283.893 57.5903 283.893 55.4485C283.893 53.3066 282.158 51.5703 280.018 51.5703C277.878 51.5703 276.143 53.3066 276.143 55.4485C276.143 57.5903 277.878 59.3266 280.018 59.3266Z" fill="black"/>
<path opacity="0.2" d="M302.054 66.7446C304.194 66.7446 305.929 65.0083 305.929 62.8664C305.929 60.7246 304.194 58.9883 302.054 58.9883C299.914 58.9883 298.179 60.7246 298.179 62.8664C298.179 65.0083 299.914 66.7446 302.054 66.7446Z" fill="black"/>
</g>
<path opacity="0.1" d="M370 59.2324C371.107 63.5129 371.665 67.9169 371.661 72.3383C371.661 108.838 333.5 138.428 286.423 138.428C247.893 138.404 215.339 118.59 204.81 91.4014C212.631 121.646 247.071 144.421 288.387 144.421C335.464 144.421 373.631 114.831 373.631 78.3312C373.619 71.7943 372.387 65.3171 370 59.2324Z" fill="black"/>
<g opacity="0.8">
<path opacity="0.8" d="M288.143 153.749C385.509 153.749 464.44 133.103 464.44 107.634C464.44 82.1658 385.509 61.5195 288.143 61.5195C190.776 61.5195 111.845 82.1658 111.845 107.634C111.845 133.103 190.776 153.749 288.143 153.749Z" fill="url(#paint3_linear)"/>
</g>
<path d="M288.143 63.0449C193.988 63.0449 117.655 83.0076 117.655 107.641H458.631C458.631 83.0076 382.298 63.0449 288.143 63.0449Z" fill="white"/>
<path d="M288.143 152.23C382.298 152.23 458.631 132.268 458.631 107.641H117.655C117.655 132.268 193.988 152.23 288.143 152.23Z" fill="white"/>
<path opacity="0.05" d="M288.143 152.23C382.298 152.23 458.631 132.268 458.631 107.641H117.655C117.655 132.268 193.988 152.23 288.143 152.23Z" fill="black"/>
<path opacity="0.05" d="M359.262 96H217.024C211.363 96 206.774 100.593 206.774 106.258V109.011C206.774 114.676 211.363 119.269 217.024 119.269H359.262C364.923 119.269 369.512 114.676 369.512 109.011V106.258C369.512 100.593 364.923 96 359.262 96Z" fill="black"/>
<path opacity="0.5" d="M110.696 34.4368C110.205 34.222 109.809 33.834 109.584 33.3465C109.359 32.8589 109.321 32.3057 109.476 31.7918C109.501 31.7124 109.517 31.6305 109.524 31.5475C109.539 31.3118 109.478 31.0774 109.349 30.8794C109.22 30.6813 109.031 30.5302 108.81 30.4485C108.588 30.3668 108.346 30.3589 108.12 30.426C107.893 30.4931 107.695 30.6315 107.554 30.8208C107.506 30.8875 107.466 30.9594 107.434 31.0352C107.221 31.5283 106.833 31.9253 106.346 32.1506C105.858 32.3758 105.305 32.4135 104.792 32.2564C104.712 32.2321 104.63 32.2161 104.548 32.2088C104.312 32.1936 104.078 32.2549 103.88 32.3837C103.682 32.5125 103.531 32.7019 103.449 32.9236C103.368 33.1452 103.36 33.3874 103.427 33.6139C103.494 33.8404 103.632 34.0392 103.821 34.1806C103.887 34.2314 103.959 34.2734 104.036 34.3057C104.527 34.5205 104.923 34.9085 105.148 35.396C105.373 35.8836 105.411 36.4368 105.256 36.9507C105.231 37.0282 105.216 37.1081 105.208 37.189C105.192 37.4253 105.252 37.6606 105.38 37.8597C105.508 38.0589 105.697 38.2111 105.919 38.2936C106.141 38.3761 106.384 38.3845 106.611 38.3174C106.838 38.2504 107.037 38.1116 107.179 37.9218C107.227 37.8537 107.267 37.7796 107.298 37.7013C107.516 37.2137 107.906 36.8233 108.393 36.6037C108.88 36.3842 109.431 36.3508 109.94 36.5099C110.02 36.5343 110.102 36.5502 110.184 36.5576C110.42 36.5728 110.654 36.5114 110.852 36.3826C111.05 36.2538 111.201 36.0644 111.283 35.8428C111.364 35.6211 111.372 35.379 111.305 35.1525C111.238 34.9259 111.1 34.7272 110.911 34.5857C110.846 34.5266 110.774 34.4765 110.696 34.4368Z" fill="#4D8AF0"/>
<path opacity="0.5" d="M413.672 216.728C413.186 216.508 412.797 216.118 412.578 215.631C412.358 215.144 412.324 214.593 412.482 214.083C412.507 214.003 412.523 213.921 412.53 213.839C412.545 213.603 412.483 213.368 412.355 213.17C412.226 212.972 412.037 212.821 411.815 212.74C411.594 212.658 411.352 212.65 411.126 212.717C410.899 212.784 410.701 212.923 410.559 213.112C410.512 213.179 410.472 213.25 410.44 213.326C410.227 213.819 409.839 214.216 409.352 214.442C408.864 214.667 408.311 214.705 407.797 214.547C407.718 214.523 407.636 214.507 407.553 214.5C407.318 214.485 407.084 214.546 406.886 214.675C406.688 214.804 406.537 214.993 406.455 215.215C406.374 215.436 406.366 215.678 406.433 215.905C406.5 216.131 406.638 216.33 406.827 216.472C406.893 216.522 406.965 216.564 407.042 216.597C407.528 216.817 407.917 217.207 408.136 217.694C408.356 218.181 408.39 218.731 408.232 219.242C408.208 219.319 408.192 219.399 408.184 219.48C408.168 219.716 408.228 219.952 408.356 220.151C408.484 220.35 408.674 220.502 408.895 220.585C409.117 220.667 409.36 220.675 409.587 220.608C409.814 220.541 410.013 220.403 410.155 220.213C410.204 220.145 410.244 220.071 410.274 219.992C410.492 219.505 410.882 219.114 411.369 218.895C411.856 218.675 412.407 218.642 412.917 218.801C412.996 218.825 413.078 218.841 413.161 218.849C413.396 218.864 413.63 218.802 413.828 218.674C414.026 218.545 414.177 218.355 414.259 218.134C414.34 217.912 414.348 217.67 414.281 217.443C414.214 217.217 414.076 217.018 413.887 216.877C413.822 216.818 413.75 216.767 413.672 216.728Z" fill="#4D8AF0"/>
<path opacity="0.5" d="M79.149 301.322C78.6572 301.107 78.2613 300.719 78.0364 300.231C77.8115 299.744 77.7732 299.19 77.9288 298.677C77.9538 298.597 77.9697 298.515 77.9764 298.432C77.9916 298.197 77.9303 297.962 77.8016 297.764C77.6729 297.566 77.4837 297.415 77.2622 297.333C77.0407 297.252 76.7988 297.244 76.5724 297.311C76.3461 297.378 76.1475 297.516 76.0062 297.706C75.9585 297.772 75.9186 297.844 75.8871 297.92C75.6735 298.413 75.286 298.81 74.7985 299.035C74.311 299.261 73.7577 299.298 73.2442 299.141C73.1648 299.117 73.083 299.101 73.0002 299.094C72.7646 299.078 72.5305 299.14 72.3326 299.269C72.1347 299.397 71.9837 299.587 71.9021 299.808C71.8204 300.03 71.8125 300.272 71.8796 300.499C71.9466 300.725 72.0849 300.924 72.274 301.065C72.3398 301.116 72.4118 301.158 72.4883 301.19C72.9801 301.405 73.376 301.793 73.6009 302.281C73.8258 302.768 73.8641 303.322 73.7085 303.835C73.6841 303.913 73.6682 303.993 73.6609 304.074C73.6443 304.31 73.7045 304.545 73.8327 304.744C73.9609 304.944 74.1501 305.096 74.3719 305.178C74.5938 305.261 74.8364 305.269 75.0634 305.202C75.2904 305.135 75.4896 304.996 75.6311 304.806C75.6801 304.738 75.7201 304.664 75.7502 304.586C75.969 304.098 76.3588 303.708 76.8457 303.488C77.3327 303.269 77.8832 303.236 78.3931 303.395C78.4725 303.419 78.5543 303.435 78.6371 303.442C78.8727 303.457 79.1068 303.396 79.3047 303.267C79.5026 303.139 79.6536 302.949 79.7352 302.728C79.8169 302.506 79.8248 302.264 79.7578 302.037C79.6907 301.811 79.5524 301.612 79.3633 301.47C79.2989 301.411 79.2269 301.361 79.149 301.322Z" fill="#4D8AF0"/>
<path opacity="0.5" d="M46.4108 104.138C45.9244 103.918 45.5351 103.528 45.3159 103.041C45.0967 102.554 45.0627 102.003 45.2203 101.493C45.2453 101.414 45.2612 101.332 45.2679 101.249C45.2831 101.013 45.2218 100.779 45.0931 100.581C44.9644 100.382 44.7752 100.231 44.5537 100.15C44.3322 100.068 44.0903 100.06 43.8639 100.127C43.6376 100.194 43.439 100.333 43.2977 100.522C43.25 100.589 43.2101 100.661 43.1786 100.736C42.9651 101.229 42.5775 101.626 42.09 101.852C41.6025 102.077 41.0492 102.115 40.5358 101.958C40.4563 101.933 40.3745 101.917 40.2917 101.91C40.0561 101.895 39.822 101.956 39.6241 102.085C39.4262 102.214 39.2752 102.403 39.1936 102.625C39.1119 102.846 39.104 103.089 39.1711 103.315C39.2381 103.542 39.3764 103.74 39.5655 103.882C39.6313 103.933 39.7033 103.975 39.7798 104.007C40.2716 104.222 40.6675 104.61 40.8924 105.097C41.1173 105.585 41.1556 106.138 41 106.652C40.9756 106.729 40.9597 106.809 40.9524 106.89C40.9358 107.126 40.9961 107.362 41.1242 107.561C41.2524 107.76 41.4416 107.912 41.6634 107.995C41.8853 108.077 42.1279 108.086 42.3549 108.019C42.5819 107.952 42.7811 107.813 42.9227 107.623C42.9716 107.555 43.0116 107.481 43.0417 107.402C43.2605 106.915 43.6503 106.524 44.1372 106.305C44.6242 106.085 45.1747 106.052 45.6846 106.211C45.764 106.235 45.8458 106.251 45.9286 106.259C46.1642 106.274 46.3983 106.213 46.5962 106.084C46.7941 105.955 46.9451 105.766 47.0268 105.544C47.1084 105.322 47.1163 105.08 47.0493 104.854C46.9822 104.627 46.8439 104.428 46.6548 104.287C46.5813 104.225 46.499 104.175 46.4108 104.138Z" fill="#4D8AF0"/>
<path opacity="0.5" d="M407.72 4.05592C407.234 3.83589 406.845 3.44571 406.626 2.95867C406.406 2.47164 406.372 1.92127 406.53 1.41092C406.555 1.33156 406.571 1.24962 406.578 1.16667C406.593 0.93092 406.531 0.696561 406.403 0.498516C406.274 0.30047 406.085 0.149339 405.863 0.0676366C405.642 -0.0140656 405.4 -0.0219643 405.174 0.0451161C404.947 0.112197 404.749 0.250665 404.607 0.439894C404.56 0.506643 404.52 0.57859 404.488 0.654354C404.269 1.14195 403.88 1.53242 403.393 1.75196C402.906 1.97149 402.355 2.00487 401.845 1.8458C401.766 1.82143 401.684 1.80545 401.601 1.79814C401.345 1.74427 401.077 1.7843 400.848 1.91095C400.618 2.03761 400.442 2.24248 400.35 2.48835C400.259 2.73423 400.258 3.00479 400.349 3.2509C400.44 3.497 400.616 3.70232 400.845 3.82955C400.911 3.88031 400.983 3.92236 401.06 3.95465C401.546 4.17469 401.935 4.56486 402.155 5.0519C402.374 5.53893 402.408 6.08931 402.25 6.59965C402.226 6.67713 402.21 6.75703 402.203 6.83794C402.177 7.08325 402.236 7.32987 402.368 7.53797C402.5 7.74606 402.698 7.90347 402.931 7.98475C403.164 8.06602 403.417 8.06643 403.65 7.98589C403.883 7.90535 404.082 7.74857 404.214 7.5409C404.263 7.47281 404.303 7.39873 404.333 7.32048C404.552 6.83288 404.942 6.44241 405.429 6.22287C405.916 6.00334 406.466 5.96996 406.976 6.12903C407.056 6.1534 407.138 6.16938 407.22 6.17669C407.456 6.1919 407.69 6.13053 407.888 6.00172C408.086 5.87292 408.237 5.68359 408.319 5.46192C408.4 5.24025 408.408 4.99812 408.341 4.7716C408.274 4.54508 408.136 4.34629 407.947 4.20485C407.879 4.14481 407.802 4.09467 407.72 4.05592Z" fill="#4D8AF0"/>
<g opacity="0.5">
<path opacity="0.5" d="M98.2619 153.605H96.4762V163.733H98.2619V153.605Z" fill="#47E6B1"/>
<path opacity="0.5" d="M102.429 159.563V157.775H92.3096V159.563H102.429Z" fill="#47E6B1"/>
</g>
<g opacity="0.5">
<path opacity="0.5" d="M526.833 105.947H525.047V116.075H526.833V105.947Z" fill="#47E6B1"/>
<path opacity="0.5" d="M531 111.904V110.117H520.881V111.904H531Z" fill="#47E6B1"/>
</g>
<g opacity="0.5">
<path opacity="0.5" d="M467.309 272.154H465.524V282.282H467.309V272.154Z" fill="#47E6B1"/>
<path opacity="0.5" d="M471.476 278.111V276.324H461.357V278.111H471.476Z" fill="#47E6B1"/>
</g>
<path opacity="0.5" d="M461.357 52.3323C463.33 52.3323 464.929 50.732 464.929 48.7579C464.929 46.7839 463.33 45.1836 461.357 45.1836C459.385 45.1836 457.786 46.7839 457.786 48.7579C457.786 50.732 459.385 52.3323 461.357 52.3323Z" fill="#F55F44"/>
<path opacity="0.5" d="M34.5714 11.2287C36.5439 11.2287 38.1429 9.62845 38.1429 7.65441C38.1429 5.68036 36.5439 4.08008 34.5714 4.08008C32.599 4.08008 31 5.68036 31 7.65441C31 9.62845 32.599 11.2287 34.5714 11.2287Z" fill="#F55F44"/>
<path opacity="0.5" d="M141.714 216.752C143.687 216.752 145.286 215.152 145.286 213.178C145.286 211.204 143.687 209.604 141.714 209.604C139.742 209.604 138.143 211.204 138.143 213.178C138.143 215.152 139.742 216.752 141.714 216.752Z" fill="#F55F44"/>
<path opacity="0.05" d="M170.286 96.1663C181.463 96.1663 190.524 94.2993 190.524 91.9962C190.524 89.6932 181.463 87.8262 170.286 87.8262C159.109 87.8262 150.048 89.6932 150.048 91.9962C150.048 94.2993 159.109 96.1663 170.286 96.1663Z" fill="black"/>
<path opacity="0.05" d="M170.286 127.739C181.463 127.739 190.524 125.872 190.524 123.568C190.524 121.265 181.463 119.398 170.286 119.398C159.109 119.398 150.048 121.265 150.048 123.568C150.048 125.872 159.109 127.739 170.286 127.739Z" fill="black"/>
<path opacity="0.05" d="M400.643 96.1663C411.82 96.1663 420.881 94.2993 420.881 91.9962C420.881 89.6932 411.82 87.8262 400.643 87.8262C389.466 87.8262 380.405 89.6932 380.405 91.9962C380.405 94.2993 389.466 96.1663 400.643 96.1663Z" fill="black"/>
<path opacity="0.05" d="M400.643 127.739C411.82 127.739 420.881 125.872 420.881 123.568C420.881 121.265 411.82 119.398 400.643 119.398C389.466 119.398 380.405 121.265 380.405 123.568C380.405 125.872 389.466 127.739 400.643 127.739Z" fill="black"/>
<path opacity="0.05" d="M288.143 78.2952C299.32 78.2952 308.381 76.4282 308.381 74.1251C308.381 71.8221 299.32 69.9551 288.143 69.9551C276.966 69.9551 267.905 71.8221 267.905 74.1251C267.905 76.4282 276.966 78.2952 288.143 78.2952Z" fill="black"/>
<path opacity="0.05" d="M303.024 34.8069C314.201 34.8069 323.262 32.9399 323.262 30.6368C323.262 28.3338 314.201 26.4668 303.024 26.4668C291.847 26.4668 282.786 28.3338 282.786 30.6368C282.786 32.9399 291.847 34.8069 303.024 34.8069Z" fill="black"/>
<path opacity="0.05" d="M264.333 52.678C275.511 52.678 284.571 50.811 284.571 48.5079C284.571 46.2049 275.511 44.3379 264.333 44.3379C253.156 44.3379 244.095 46.2049 244.095 48.5079C244.095 50.811 253.156 52.678 264.333 52.678Z" fill="black"/>
<path opacity="0.05" d="M338.738 60.4221C349.915 60.4221 358.976 58.5551 358.976 56.2521C358.976 53.949 349.915 52.082 338.738 52.082C327.561 52.082 318.5 53.949 318.5 56.2521C318.5 58.5551 327.561 60.4221 338.738 60.4221Z" fill="black"/>
<path opacity="0.05" d="M288.143 140.25C299.32 140.25 308.381 138.383 308.381 136.08C308.381 133.777 299.32 131.91 288.143 131.91C276.966 131.91 267.905 133.777 267.905 136.08C267.905 138.383 276.966 140.25 288.143 140.25Z" fill="black"/>
<path d="M66.6806 400.992H0.844618V379.628L62.3206 280.656H87.6086V382.68H109.409V400.992H87.6086V435H66.6806V400.992ZM66.6806 305.508H66.2446L19.1566 382.68H66.6806V305.508Z" fill="#CCE1F7"/>
<path d="M540.248 400.992H474.412V379.628L535.888 280.656H561.176V382.68H582.976V400.992H561.176V435H540.248V400.992ZM540.248 305.508H539.812L492.724 382.68H540.248V305.508Z" fill="#CCE1F7"/>
<defs>
<linearGradient id="paint0_linear" x1="288.143" y1="146.416" x2="288.143" y2="11.2285" gradientUnits="userSpaceOnUse">
<stop stop-color="#808080" stop-opacity="0.25"/>
<stop offset="0.54" stop-color="#808080" stop-opacity="0.12"/>
<stop offset="1" stop-color="#808080" stop-opacity="0.1"/>
</linearGradient>
<linearGradient id="paint1_linear" x1="-28003.9" y1="205081" x2="-21702.1" y2="186388" gradientUnits="userSpaceOnUse">
<stop stop-color="#808080" stop-opacity="0.25"/>
<stop offset="0.54" stop-color="#808080" stop-opacity="0.12"/>
<stop offset="1" stop-color="#808080" stop-opacity="0.1"/>
</linearGradient>
<linearGradient id="paint2_linear" x1="-24349.8" y1="163782" x2="-18048.1" y2="145089" gradientUnits="userSpaceOnUse">
<stop stop-color="#808080" stop-opacity="0.25"/>
<stop offset="0.54" stop-color="#808080" stop-opacity="0.12"/>
<stop offset="1" stop-color="#808080" stop-opacity="0.1"/>
</linearGradient>
<linearGradient id="paint3_linear" x1="152433" y1="23865" x2="152433" y2="9586.07" gradientUnits="userSpaceOnUse">
<stop stop-color="#808080" stop-opacity="0.25"/>
<stop offset="0.54" stop-color="#808080" stop-opacity="0.12"/>
<stop offset="1" stop-color="#808080" stop-opacity="0.1"/>
</linearGradient>
</defs>
</svg>
