<svg width="338" height="224" viewBox="0 0 338 224" fill="none" xmlns="http://www.w3.org/2000/svg">
<g clip-path="url(#clip0)">
<path opacity="0.1" d="M313.44 183.805C312.385 184.74 311.306 185.648 310.204 186.53C310.019 186.681 309.828 186.826 309.64 186.98C305.709 190.054 301.582 192.864 297.286 195.392L296.483 195.863C296.289 195.982 296.098 196.092 295.895 196.201C291.406 198.813 286.75 201.218 282.038 203.495L281.988 203.521L281.632 203.691C277.832 205.527 273.974 207.284 270.06 208.962L269.966 208.998C268.202 209.747 266.437 210.476 264.672 211.186C263.951 211.482 263.228 211.758 262.504 212.04C261.142 212.564 259.777 213.08 258.401 213.575L258.23 213.641L257.936 213.744L257.568 213.881C253.978 215.174 250.339 216.367 246.653 217.462L246.588 217.48C244.017 218.235 241.43 218.934 238.826 219.576L238.47 219.665C234.646 220.596 230.761 221.397 226.852 222.037L225.952 222.182C223.092 222.635 220.214 223.005 217.316 223.291C201.023 224.878 184.537 223.588 168.345 221.376C135.648 216.905 103.384 208.523 73.9586 195.386C68.3111 192.866 62.7735 190.168 57.3457 187.292C57.3015 187.268 57.2633 187.244 57.2192 187.224C53.9699 185.502 50.7648 183.708 47.6038 181.842C46.6773 181.303 45.7566 180.751 44.8419 180.197C43.7163 179.513 42.5956 178.821 41.4799 178.121C40.0092 177.196 38.5385 176.248 37.0678 175.278L36.3795 174.815L36.1148 174.635C35.7412 174.383 35.3736 174.131 35.0029 173.876C21.1784 164.388 8.85112 152.89 3.02719 138.502C-3.70269 121.898 0.603489 100.848 17.2723 91.0338C23.0021 87.6538 29.6614 85.8185 36.3913 84.3035L37.0796 84.1493C38.2179 83.8973 39.3562 83.6542 40.4886 83.4111C44.4565 82.5631 48.4451 81.7211 52.3953 80.7812C54.4543 80.292 56.4927 79.7791 58.5193 79.2246L59.3488 78.9934C64.2363 77.6717 69.0163 75.9747 73.6468 73.9175H73.6762C74.1733 73.6951 74.6645 73.4639 75.1469 73.2267C75.4587 73.0784 75.7705 72.9302 76.0823 72.7671C81.0826 70.2588 86.3771 66.781 90.4509 62.6361C90.7774 62.304 91.0951 61.966 91.4039 61.628C91.6422 61.3642 91.8775 61.0973 92.104 60.8305C94.9601 57.4742 96.9367 53.7474 97.3132 49.7922C97.4399 48.4632 97.3805 47.1227 97.1367 45.8104C96.6749 43.3228 96.2278 40.8887 95.8984 38.5138C95.2836 34.0516 95.0748 29.7852 95.9278 25.6729C96.7955 21.4805 98.7633 17.4453 102.519 13.5317C103.086 12.9387 103.697 12.3457 104.352 11.7527C107.39 9.06644 110.827 6.87741 114.538 5.26558C114.997 5.06792 115.459 4.87026 115.923 4.6726C126.242 0.462467 138.64 -0.415138 150.223 0.16598C161.044 0.727345 171.797 2.23522 182.36 4.6726C183.199 4.86236 184.037 5.061 184.869 5.26558C193.855 7.45962 202.696 10.2154 211.342 13.5169C233.808 22.035 255.012 33.8619 274.823 46.9133C275.017 47.0408 275.211 47.1683 275.411 47.2988C276.238 47.8423 277.061 48.3879 277.879 48.9354C279.461 49.9928 281.03 51.0572 282.585 52.1286L283.635 52.849C284.153 53.2048 284.667 53.5616 285.179 53.9193L286.756 55.0193C286.83 55.0643 286.901 55.1148 286.968 55.1705L288.309 56.1074C289.085 56.653 289.856 57.2015 290.63 57.7529L292.288 58.9389C292.633 59.1879 292.98 59.434 293.324 59.686L295.089 60.9847L295.483 61.2812C295.565 61.3404 295.648 61.3997 295.727 61.465L295.777 61.4976C300.56 65.0347 305.228 68.7023 309.601 72.5892L310.166 73.0933L310.225 73.1466C310.702 73.5736 311.178 74.0064 311.646 74.4423C317.358 79.6842 322.476 85.3175 326.659 91.5437C345.872 120.303 340.168 160.124 313.44 183.805Z" fill="#2D47FE"/>
<path d="M238.711 104.886C238.711 104.886 240.423 95.8433 245.924 95.7959L249.948 104.139L247.241 105.992C247.241 105.992 241.429 106.179 238.711 104.886Z" fill="#65617D"/>
<path opacity="0.1" d="M249.936 104.127L247.241 105.992C247.241 105.992 243.141 106.122 240.212 105.399C239.696 105.278 239.193 105.107 238.711 104.886C238.711 104.886 238.711 104.836 238.741 104.741C238.74 104.729 238.74 104.717 238.741 104.705C238.994 103.571 239.343 102.46 239.782 101.385C239.95 100.978 240.144 100.56 240.35 100.142C241.156 98.5798 242.288 97.047 243.838 96.288C244.411 96.005 245.034 95.8407 245.671 95.8047H245.835H245.915L246.006 95.9885L247.365 98.8081L249.936 104.127Z" fill="black"/>
<path d="M295.621 141.695C295.621 141.695 301.401 141.137 301.909 141.556C302.418 141.974 305.701 144.12 307.645 142.768C309.589 141.416 308.292 136.708 308.292 136.521C308.292 136.334 308.107 129.669 308.107 129.669L304.639 124.961L300.292 116.713L291.415 115.823L291.644 128.922L291.6 135.635L295.621 141.695Z" fill="#65617D"/>
<path opacity="0.1" d="M295.621 141.695C295.621 141.695 301.401 141.137 301.909 141.556C302.418 141.974 305.701 144.12 307.645 142.768C309.589 141.416 308.292 136.708 308.292 136.521C308.292 136.334 308.107 129.669 308.107 129.669L304.639 124.961L300.292 116.713L291.415 115.823L291.644 128.922L291.6 135.635L295.621 141.695Z" fill="black"/>
<path d="M244.755 95.5524C244.755 95.5524 244.299 101.239 240.77 101.328C240.77 101.328 239.776 100.735 238.434 99.7121C235.346 97.3847 230.448 92.9077 231.801 88.7421C233.743 82.7767 243.176 93.7824 243.176 93.7824L243.902 94.6007L244.755 95.5524Z" fill="#A5636D"/>
<path opacity="0.1" d="M244.755 95.5534C244.755 95.5534 244.299 101.24 240.769 101.329C240.769 101.329 239.775 100.736 238.434 99.7131L238.14 99.3247C238.736 99.6398 239.394 99.819 240.066 99.8495C240.949 99.8673 241.943 99.553 242.581 98.2514C242.95 97.5196 243.275 96.7661 243.555 95.9951C243.721 95.5426 243.84 95.0735 243.908 94.5957L244.755 95.5534Z" fill="black"/>
<path d="M243.229 105.853L242.438 104.827L239.791 101.373L238.417 99.6088C239.013 99.9225 239.669 100.101 240.341 100.131C241.223 100.151 242.217 99.8341 242.856 98.5325C243.226 97.8013 243.551 97.0478 243.829 96.2763C244.267 95.0191 244.259 94.3728 244.103 94.1534C243.947 93.934 245.085 94.9984 245.632 95.5232L245.653 95.541L245.906 95.7841L246.003 95.9738L247.341 98.6748C247.341 98.6748 247.341 98.7134 247.341 98.7875C247.465 99.6444 247.915 105.082 243.229 105.853Z" fill="#E7EFFD"/>
<path d="M294.327 68.8892L287.482 76.2569C287.482 76.2569 278.699 72.6991 279.623 71.5131C279.982 71.0447 279.917 69.5652 279.717 67.9315C279.393 65.3491 278.699 62.3753 278.699 62.3753C278.699 62.3753 294.05 59.8582 292.753 62.4702C292.282 63.4219 292.362 64.5456 292.656 65.5656C293.034 66.756 293.598 67.8781 294.327 68.8892Z" fill="#A5636D"/>
<path opacity="0.1" d="M292.753 62.4587C292.283 63.4104 292.056 63.5023 292.35 64.5341C290.344 66.7044 287.791 69.0793 284.617 69.0793C282.917 69.0824 281.239 68.6865 279.717 67.923C279.393 65.3405 278.699 62.3668 278.699 62.3668C278.699 62.3668 294.05 59.8466 292.753 62.4587Z" fill="black"/>
<path d="M295.624 57.7033C295.624 60.6458 294.464 63.4678 292.4 65.5484C290.336 67.629 287.536 68.7979 284.617 68.7979C281.698 68.7979 278.898 67.629 276.834 65.5484C274.77 63.4678 273.61 60.6458 273.61 57.7033C273.61 57.65 273.61 57.5966 273.61 57.5432C273.674 54.6296 274.872 51.8581 276.946 49.8276C279.019 47.7971 281.803 46.6707 284.694 46.6917C287.585 46.7127 290.352 47.8795 292.396 49.94C294.441 52.0005 295.599 54.7891 295.621 57.7033H295.624Z" fill="#A5636D"/>
<path opacity="0.1" d="M297.215 130.887C295.745 130.887 290.903 130.941 285.479 131.027H285.412L283.62 131.056H283.564C277.132 131.16 270.793 129.894 268.249 130.134C262.837 130.647 270.19 125.094 270.19 125.094C274.222 126.08 278.369 126.503 282.514 126.351L284.07 126.268C288.985 125.989 293.927 125.524 296.509 124.741C296.689 126.188 296.951 128.284 297.215 130.887Z" fill="black"/>
<path d="M297.215 130.609C295.745 130.609 290.903 130.66 285.479 130.748H285.412L283.62 130.778H283.564C277.132 130.882 270.793 129.616 268.249 129.856C262.837 130.366 270.19 124.816 270.19 124.816C274.222 125.802 278.369 126.224 282.514 126.07L284.07 125.99C288.985 125.711 293.927 125.243 296.509 124.463C296.689 125.91 296.951 128.012 297.215 130.609Z" fill="#5F5D7E"/>
<path opacity="0.1" d="M281.654 71.9751L273.145 75.9836L266.583 127.152C266.583 127.152 270.465 125.373 272.686 126.499C274.907 127.626 281.748 126.594 281.748 126.594C281.748 126.594 286.749 126.298 287.481 126.873C288.213 127.448 296.917 124.542 296.917 124.542C296.917 124.542 298.488 120.999 297.285 120.442C296.082 119.885 297.655 114.373 297.655 114.373L296.917 77.4571L295.446 72.7133L291.47 70.291L287.402 73.5524L285.46 73.834L281.654 71.9751Z" fill="black"/>
<path d="M281.654 71.4065L273.148 75.4151L266.583 126.595C266.583 126.595 270.465 124.816 272.686 125.943C274.907 127.069 281.748 126.034 281.748 126.034C281.748 126.034 286.749 125.756 287.481 126.313C288.213 126.871 296.917 123.983 296.917 123.983C296.917 123.983 298.488 120.443 297.285 119.882C296.082 119.322 297.655 113.822 297.655 113.822L296.917 76.9064L295.446 72.1626L291.47 69.7373L287.402 72.9987L285.46 73.2774L281.654 71.4065Z" fill="#E7EFFD"/>
<path opacity="0.1" d="M281.516 73.7843C281.516 73.7843 283.97 76.7195 283.923 77.3273C283.875 77.9351 283.784 79.376 283.784 79.376L281.949 83.1533C281.949 83.1533 280.931 87.8615 280.931 88.8399C280.931 89.8183 279.313 98.3009 279.313 98.3009L277.372 111.346L274.919 128.454L277.416 132.788L280.375 130.271L284.302 99.7922L285.134 93.7794C285.134 93.7794 286.017 82.9665 286.017 81.8487C286.017 80.731 285.508 77.7928 285.508 77.7928C285.508 77.7928 286.111 74.9969 288.608 74.3446C291.105 73.6923 288.423 74.2023 288.423 74.2023L286.99 73.0371L285.74 73.55C285.74 73.55 282.258 72.4797 281.516 73.7843Z" fill="black"/>
<path d="M281.24 73.505C281.24 73.505 283.69 76.4402 283.646 77.045C283.602 77.6499 283.505 79.0967 283.505 79.0967L281.655 82.874C281.655 82.874 280.637 87.5792 280.637 88.5577C280.637 89.5361 279.019 98.0216 279.019 98.0216L277.075 111.067L274.625 128.171L277.122 132.506L280.081 129.989L284.008 99.5129L284.84 93.5001C284.84 93.5001 285.723 82.6872 285.723 81.5665C285.723 80.4457 285.214 77.5135 285.214 77.5135C285.214 77.5135 285.802 74.7146 288.311 74.0624C290.82 73.4101 288.129 73.923 288.129 73.923L286.693 72.7578L285.446 73.2707C285.446 73.2707 281.981 72.1974 281.24 73.505Z" fill="#2D47FE"/>
<path opacity="0.1" d="M279.622 68.6104C279.622 68.6104 279.251 68.8891 279.16 70.754C279.069 72.6189 277.771 76.8142 277.771 76.8142C277.771 76.8142 282.581 73.4579 284.987 73.8315L279.622 68.6104Z" fill="black"/>
<path d="M279.622 68.0508C279.622 68.0508 279.251 68.3324 279.16 70.1944C279.069 72.0563 277.771 76.2546 277.771 76.2546C277.771 76.2546 282.581 72.8984 284.987 73.272L279.622 68.0508Z" fill="#E7EFFD"/>
<path opacity="0.1" d="M292.757 67.1191L285.186 73.8316C285.186 73.8316 291.568 77.6534 292.401 78.5755C293.233 79.4975 294.066 69.4407 294.066 69.4407L292.757 67.1191Z" fill="black"/>
<path d="M293.032 66.5586L285.449 73.2711C285.449 73.2711 291.829 77.0928 292.662 78.0149C293.494 78.937 294.326 68.8771 294.326 68.8771L293.032 66.5586Z" fill="#E7EFFD"/>
<path opacity="0.1" d="M279.89 68.6098C279.89 68.6098 279.058 68.1888 278.273 69.4014C277.487 70.614 276.008 71.1803 276.008 71.1803C276.008 71.1803 267.59 72.5323 267.266 73.6501L263.336 73.8813C263.336 73.8813 261.948 74.0503 261.819 77.0152C261.689 79.9801 260.936 80.2292 260.936 80.2292C260.936 80.2292 259.315 83.1199 259.465 84.6113C259.615 86.1026 258.215 86.8497 258.215 86.8497L264.007 101.983C264.007 101.983 264.192 108.23 263.125 110.512C262.057 112.795 260.071 122.912 260.071 122.912C260.071 122.912 260.904 122.725 260.857 123.285C260.81 123.846 259.839 129.95 259.839 129.95C259.839 129.95 259.563 132.373 259.101 133.212C258.639 134.051 258.592 138.433 258.592 138.433L257.83 141.602C257.83 141.602 259.595 145.563 262.272 145.003C264.948 144.443 269.807 133.864 269.807 133.864L272.905 122.446L275.311 111.165L276.005 103.521L277.114 86.6007L278.732 75.4142C278.732 75.4142 280.546 69.4014 279.89 68.6098Z" fill="black"/>
<path d="M279.622 68.0501C279.622 68.0501 278.79 67.632 278.005 68.8447C277.219 70.0573 275.737 70.6236 275.737 70.6236C275.737 70.6236 267.321 71.9756 266.998 73.0934L263.068 73.3276C263.068 73.3276 261.68 73.5144 261.542 76.4496C261.403 79.3848 260.659 79.6665 260.659 79.6665C260.659 79.6665 259.042 82.5573 259.189 84.0486C259.336 85.5399 257.941 86.2841 257.941 86.2841L263.712 101.423C263.712 101.423 263.898 107.67 262.83 109.953C261.762 112.236 259.78 122.352 259.78 122.352C259.78 122.352 260.612 122.165 260.565 122.726C260.518 123.286 259.547 129.391 259.547 129.391C259.547 129.391 259.271 131.813 258.809 132.652C258.347 133.491 258.3 137.873 258.3 137.873L257.565 141.057C257.565 141.057 259.33 145.018 262.003 144.461C264.677 143.904 269.542 133.319 269.542 133.319L272.64 121.901L275.046 110.635L275.737 102.991L276.849 86.0736L278.466 74.8871C278.466 74.8871 280.269 68.8447 279.622 68.0501Z" fill="#65617D"/>
<path opacity="0.1" d="M249.935 104.127L247.241 105.992C247.241 105.992 243.14 106.122 240.211 105.399L238.717 104.732L238.422 104.598L238.731 104.696C240.278 105.159 241.487 105.15 242.431 104.829C246.229 103.543 245.808 97.2245 245.667 95.7954C245.667 95.6531 245.643 95.5612 245.638 95.5256C245.637 95.5197 245.637 95.5137 245.638 95.5078L245.661 95.5434C245.712 95.6305 245.77 95.7128 245.835 95.7895C245.888 95.8533 245.945 95.9137 246.005 95.9703L247.344 98.6713C247.344 98.6713 247.344 98.7099 247.344 98.784L249.935 104.127Z" fill="black"/>
<path d="M259.231 85.9111L257.936 86.2847L257.751 88.9531C257.751 88.9531 256.224 88.7218 255.81 90.5393C255.395 92.3568 254.654 93.2077 254.654 93.2077C254.654 93.2077 252.109 95.3513 251.971 97.1688L250.398 98.1472C250.398 98.1472 246.744 97.3081 245.912 95.8168C245.912 95.8168 247.577 107.842 238.7 104.907C238.7 104.907 248.642 109.289 249.103 109.894C249.565 110.499 252.618 112.266 255.392 110.784C258.166 109.301 258.769 106.962 258.769 106.962C258.769 106.962 261.451 103.188 261.542 102.627C261.634 102.067 263.716 101.415 263.716 101.415L267.693 91.7223L259.231 85.9111Z" fill="#65617D"/>
<path opacity="0.1" d="M291.691 72.7107L293.032 66.5586C293.032 66.5586 293.621 68.5629 294.235 69.0283C294.85 69.4938 296.224 70.5671 296.224 70.5671C296.224 70.5671 298.212 71.5011 298.903 71.5011C299.595 71.5011 303.345 72.4795 303.807 72.9835C304.269 73.4875 306.119 73.1228 306.119 73.1228C306.119 73.1228 307.645 73.6358 308.986 73.9619C310.328 74.2881 310.975 76.5265 310.695 77.4101C310.584 77.8506 310.585 78.3124 310.698 78.7525C310.811 79.1927 311.033 79.5968 311.343 79.9273C311.898 80.4876 312.175 82.2992 312.175 82.2992C312.856 82.5227 313.422 83.0087 313.749 83.6512C314.21 84.677 314.072 86.9125 314.072 86.9125L307.183 96.6967C307.183 96.6967 307.275 100.471 306.998 101.31C306.722 102.149 307.969 116.413 307.969 116.413L309.401 140.93C309.401 140.93 307.507 142.56 307.089 142.747C306.672 142.934 306.257 134.078 306.257 133.752C306.257 133.426 295.577 117.623 295.577 117.623C295.577 117.623 294.141 115.292 294.141 114.779C294.141 114.267 292.8 109.561 292.8 109.561L290.773 100.492L291.691 72.7107Z" fill="black"/>
<path d="M314.645 86.3938C314.645 86.714 314.628 86.9275 314.628 86.9275L307.742 96.7116C307.742 96.7116 307.836 100.489 307.56 101.328C307.398 101.814 307.751 106.831 308.077 110.949C308.31 113.914 308.53 116.428 308.53 116.428L309.136 126.829L309.96 140.948C309.96 140.948 308.065 142.578 307.651 142.765C307.236 142.952 306.818 134.096 306.818 133.767C306.818 133.438 296.129 117.635 296.129 117.635C296.129 117.635 294.697 115.301 294.697 114.789C294.697 114.276 293.356 109.567 293.356 109.567L291.323 100.48L292.247 72.699L293.032 66.5469C293.032 66.5469 294.188 68.5541 294.797 69.0166C295.406 69.4791 296.782 70.5554 296.782 70.5554C296.782 70.5554 298.771 71.4893 299.465 71.4893C300.159 71.4893 303.903 72.4677 304.368 72.9718C304.833 73.4758 306.68 73.1111 306.68 73.1111C306.68 73.1111 308.204 73.6241 309.545 73.9502C310.886 74.2763 311.533 76.5148 311.257 77.3984C311.145 77.8388 311.145 78.3009 311.258 78.7411C311.371 79.1814 311.594 79.5855 311.904 79.9155C312.457 80.4729 312.736 82.2874 312.736 82.2874C313.417 82.5118 313.982 82.9976 314.31 83.6394C314.625 84.3747 314.654 85.6674 314.645 86.3938Z" fill="#65617D"/>
<path opacity="0.1" d="M264.674 211.187C263.954 211.483 263.23 211.759 262.507 212.041C260.239 211.374 258.121 210.588 258.121 210.588C260.315 210.667 262.502 210.867 264.674 211.187Z" fill="black"/>
<path opacity="0.1" d="M286.557 186.301C286.557 186.301 292.06 187.605 292.384 188.492L286.557 186.301Z" fill="black"/>
<path opacity="0.1" d="M265.333 190.311C265.333 190.311 262.465 191.15 265.242 192.828C268.018 194.506 265.333 190.311 265.333 190.311Z" fill="black"/>
<path opacity="0.1" d="M278.049 145.505C278.372 145.505 283.414 143.826 285.17 144.574C286.926 145.321 289.103 145.318 289.103 145.318L278.049 145.505Z" fill="black"/>
<path opacity="0.1" d="M278.714 150.841L278.664 151.304L274.351 162.671C274.351 162.671 273.657 166.119 273.054 168.076C272.676 169.406 272.376 170.757 272.154 172.123L275.978 148.268L278.714 150.841Z" fill="black"/>
<path d="M285.411 130.749L283.619 130.779H283.563L282.513 126.079C283.028 126.055 283.549 126.029 284.069 125.996L285.411 130.749Z" fill="#3F3D56"/>
<path d="M307.228 125.047L306.078 126.005L302.245 129.198C302.245 129.198 291.841 134.793 288.976 129.477C286.45 124.795 298.245 121.454 301.086 120.724C301.471 120.627 301.692 120.576 301.692 120.576L307.228 125.047Z" fill="#A5636D"/>
<path opacity="0.1" d="M262.792 79.2363C262.792 79.2363 264.824 80.1703 265.286 81.4748C265.748 82.7794 262.792 79.2363 262.792 79.2363Z" fill="black"/>
<path opacity="0.1" d="M256.501 93.2217C256.501 93.2217 253.542 96.8566 254.736 98.262C255.93 99.6673 256.501 93.2217 256.501 93.2217Z" fill="black"/>
<path opacity="0.1" d="M309.402 81.2881C309.402 81.2881 306.628 81.5668 306.534 83.9921L309.402 81.2881Z" fill="black"/>
<path opacity="0.1" d="M283.69 119.508C283.984 119.229 290.349 109.724 291.829 110.56L283.69 119.508Z" fill="black"/>
<path opacity="0.1" d="M295.624 57.7032C295.625 59.5302 295.178 61.3292 294.321 62.9392H294.238C293.541 62.7909 293.179 61.9726 292.647 61.4567C292.319 61.1428 291.902 60.9399 291.455 60.8767C291.007 60.8134 290.551 60.8929 290.15 61.1039C289.744 61.3479 289.415 61.7012 289.198 62.1239C288.981 62.5467 288.886 63.0222 288.923 63.4966C288.57 62.0141 288.682 60.4161 288.335 58.9218C287.988 57.4275 286.955 55.9124 285.538 55.8857C284.926 55.8857 284.214 56.114 283.773 55.6515C283.505 55.3728 283.452 54.934 283.252 54.596C282.237 52.9446 279.155 53.7806 277.896 54.6286C276.637 55.4766 275.175 56.8286 273.61 57.555C273.674 54.6414 274.872 51.8699 276.946 49.8393C279.019 47.8088 281.803 46.6824 284.694 46.7034C287.585 46.7244 290.352 47.8913 292.396 49.9517C294.441 52.0122 295.599 54.8009 295.621 57.7151L295.624 57.7032Z" fill="black"/>
<path d="M283.255 54.3044C283.455 54.6424 283.508 55.0812 283.776 55.3599C284.217 55.8195 284.929 55.5823 285.541 55.5941C286.958 55.6178 287.994 57.1329 288.338 58.6272C288.682 60.1215 288.57 61.7107 288.926 63.202C288.89 62.7281 288.985 62.2533 289.202 61.8311C289.418 61.4089 289.748 61.056 290.153 60.8123C290.553 60.6011 291.009 60.5215 291.456 60.5848C291.903 60.6481 292.32 60.851 292.647 61.1651C293.179 61.6751 293.529 62.4934 294.241 62.6476C294.953 62.8018 295.612 62.1198 295.865 61.3786C296.118 60.6374 296.097 59.825 296.262 59.0571C296.577 57.6014 297.518 56.4095 298.027 55.0278C298.647 53.3456 298.63 51.492 297.98 49.8215C297.633 48.932 297.118 48.1582 296.765 47.2836C296.235 45.9553 296.094 44.458 295.447 43.192C294.359 41.0721 291.794 40.0137 289.688 40.8201C288.682 41.2026 287.808 41.9408 286.788 42.2699C285.423 42.7117 283.961 42.3796 282.546 42.181C281.131 41.9823 279.567 41.9646 278.428 42.9015C277.119 43.9807 276.761 46.0087 275.531 47.1946C275.013 47.6927 274.372 48.01 273.828 48.4695C273.284 48.9291 272.813 49.614 272.875 50.3611C272.957 51.3277 273.896 52.2053 273.549 53.0977C273.424 53.3573 273.249 53.5892 273.034 53.7796C272.005 54.869 271.239 56.1829 270.795 57.6191C273.272 58.3989 275.949 55.6475 277.887 54.3578C279.161 53.4891 282.243 52.65 283.255 54.3044Z" fill="#4C3E42"/>
<path opacity="0.1" d="M307.228 125.047L306.078 126.005C305.063 124.3 300.895 120.896 300.895 120.896L301.074 120.721C301.46 120.624 301.68 120.573 301.68 120.573L307.228 125.047Z" fill="black"/>
<path d="M308.339 123.33C308.339 123.33 307.924 124.367 307.498 125.266C307.071 126.164 306.615 126.976 306.58 126.315C306.533 125.008 301.171 120.626 301.171 120.626L301.897 119.914L302.742 119.087L308.339 123.33Z" fill="#E7EFFD"/>
<path opacity="0.1" d="M308.524 116.432L309.13 126.833C307.695 124.583 303.75 118.81 301.215 118.997L307.365 111.881C307.622 111.594 307.858 111.289 308.071 110.968C308.304 113.927 308.524 116.432 308.524 116.432Z" fill="black"/>
<path opacity="0.1" d="M308.339 123.33C308.339 123.33 307.924 124.367 307.498 125.266C305.886 123.036 303.674 120.406 301.909 119.914L302.753 119.087L308.339 123.33Z" fill="black"/>
<path d="M312.963 85.6143L314.628 86.9188C314.628 86.9188 317.402 86.9662 317.678 89.2907C317.955 91.6152 320.499 92.6944 320.499 92.6944C320.499 92.6944 322.396 94.6038 322.396 95.4903C322.396 96.3768 323.829 97.96 323.829 98.0994C323.829 98.2387 325.217 101.082 325.032 101.595C324.846 102.108 326.502 104.346 326.002 105.185C325.585 105.938 325.214 106.716 324.893 107.516C324.893 107.516 322.72 111.711 321.608 112.503C320.496 113.294 315.413 119.959 315.413 119.959C315.413 119.959 309.957 126.298 309.957 128.261C309.957 128.261 304.639 119.31 301.495 119.544L307.645 112.414C307.645 112.414 308.707 111.249 308.754 110.549C308.801 109.849 311.713 106.632 313.101 106.493C313.101 106.493 313.331 104.581 312.731 104.536C312.131 104.492 311.622 102.997 311.622 102.997C311.622 102.997 307.551 98.1498 307.504 95.0722C307.457 91.9947 312.963 85.6143 312.963 85.6143Z" fill="#65617D"/>
<path opacity="0.1" d="M315.413 90.0615C315.413 90.0615 311.528 92.9493 312.36 93.8833C313.192 94.8172 315.413 90.0615 315.413 90.0615Z" fill="black"/>
<path opacity="0.1" d="M315.599 101.983C315.599 101.983 322.811 99.6526 323.54 101.983H315.599Z" fill="black"/>
<path opacity="0.1" d="M264.71 89.4922C264.71 89.4922 264.71 100.118 263.807 101.168C262.904 102.217 264.71 89.4922 264.71 89.4922Z" fill="black"/>
<path opacity="0.1" d="M306.396 92.917L307.737 96.715C307.737 96.715 308.269 92.9881 306.396 92.917Z" fill="black"/>
<g opacity="0.1">
<path opacity="0.1" d="M273.714 52.1752C274.052 51.3006 273.167 50.4437 273.049 49.5068C272.933 49.7713 272.882 50.0603 272.902 50.3489C272.961 51.0575 273.49 51.7157 273.617 52.3709C273.655 52.3088 273.688 52.2433 273.714 52.1752Z" fill="black"/>
<path opacity="0.1" d="M289.047 62.2146C288.714 60.7322 288.811 59.1875 288.476 57.7199C288.141 56.2523 287.096 54.7076 285.679 54.6838C285.067 54.6838 284.355 54.9092 283.914 54.4496C283.646 54.1709 283.593 53.7321 283.393 53.3941C282.381 51.7427 279.299 52.5788 278.037 53.4267C276.146 54.6927 273.548 57.3433 271.122 56.7444C271.007 57.0261 270.898 57.3107 270.807 57.6042C273.284 58.384 275.96 55.6326 277.899 54.3429C279.161 53.4979 282.24 52.6588 283.255 54.3132C283.455 54.6512 283.508 55.09 283.776 55.3687C284.217 55.8283 284.929 55.5911 285.54 55.603C286.958 55.6267 287.994 57.1417 288.338 58.636C288.682 60.1303 288.57 61.7195 288.926 63.2108C288.9 62.874 288.941 62.5353 289.047 62.2146Z" fill="black"/>
<path opacity="0.1" d="M296.001 60.4655C295.748 61.2067 295.089 61.8857 294.377 61.7345C293.665 61.5832 293.318 60.7679 292.786 60.252C292.457 59.9389 292.04 59.7369 291.592 59.6742C291.145 59.6114 290.689 59.6911 290.288 59.9021C289.903 60.1337 289.586 60.465 289.37 60.8618C289.154 61.2585 289.048 61.7062 289.062 62.1584C289.247 61.589 289.635 61.1087 290.15 60.8094C290.55 60.5981 291.006 60.5186 291.453 60.5819C291.901 60.6451 292.317 60.8481 292.644 61.1622C293.177 61.6722 293.527 62.4905 294.239 62.6447C294.95 62.7989 295.609 62.1169 295.862 61.3757C295.993 60.9391 296.078 60.49 296.115 60.0356C296.085 60.1808 296.046 60.3243 296.001 60.4655Z" fill="black"/>
<path opacity="0.1" d="M298.174 54.1167C297.653 55.4984 296.703 56.6903 296.409 58.1431C296.345 58.4395 296.309 58.736 296.274 59.0325C296.589 57.5857 297.527 56.3967 298.039 55.0181C298.271 54.3972 298.414 53.7464 298.465 53.085C298.395 53.4361 298.298 53.7811 298.174 54.1167Z" fill="black"/>
</g>
<path d="M231.349 87.868C231.412 87.868 231.464 87.8162 231.464 87.7524C231.464 87.6885 231.412 87.6367 231.349 87.6367C231.286 87.6367 231.234 87.6885 231.234 87.7524C231.234 87.8162 231.286 87.868 231.349 87.868Z" fill="#E6E8EC"/>
<path d="M138.91 152.807C138.91 152.807 142.146 150.467 145.508 151.917C145.508 151.917 144.566 153.927 140.39 153.901L138.91 152.807Z" fill="#2D47FE"/>
<path d="M138.507 152.944C138.507 152.944 137.642 156.867 140.272 159.411C140.272 159.411 141.743 157.75 140.075 153.887L138.507 152.944Z" fill="#2D47FE"/>
<path d="M134.219 149.374C134.219 149.374 134.34 146.062 141.779 146.872C141.779 146.872 141.896 149.003 139.337 150.112C136.778 151.221 135.558 150.418 134.219 149.374Z" fill="#2D47FE"/>
<path d="M133.762 149.359C133.762 149.359 130.674 150.492 133.727 157.379C133.727 157.379 135.786 156.834 136.033 154.038C136.28 151.242 135.156 150.332 133.762 149.359Z" fill="#2D47FE"/>
<path d="M129.397 144.846C129.397 144.846 128.767 139.429 136.35 139.693C136.35 139.693 137.074 144.591 130.782 146.1L129.397 144.846Z" fill="#2D47FE"/>
<path d="M124.167 138.905C124.167 138.905 124.97 132.705 132.597 134.25C132.597 134.25 132.827 139.587 125.456 140.325L124.167 138.905Z" fill="#2D47FE"/>
<path d="M120.276 132.703C120.276 132.703 121.782 126.625 129.338 128.146C129.338 128.146 127.762 133.607 120.808 133.779L120.276 132.703Z" fill="#2D47FE"/>
<path d="M116.572 126.642C116.572 126.642 118.043 120.351 125.329 121.943C125.329 121.943 123.14 127.95 117.093 127.686L116.572 126.642Z" fill="#2D47FE"/>
<path d="M114.11 120.845C114.11 120.845 115.125 113.186 121.937 114.604C121.937 114.604 120.243 121.607 114.654 121.933L114.11 120.845Z" fill="#2D47FE"/>
<path d="M111.746 113.817C111.746 113.817 113.019 106.082 119.917 108.05C119.917 108.05 117.52 115.406 112.269 114.87L111.746 113.817Z" fill="#2D47FE"/>
<path d="M110.196 107.258C110.196 107.258 112.391 99.4873 117.673 99.4902C117.673 99.4902 115.438 107.694 110.696 108.779L110.196 107.258Z" fill="#2D47FE"/>
<path d="M109.128 100.827C109.128 100.827 111.482 91.4843 115.8 92.0298C115.8 92.0298 114.196 99.1634 109.328 102.259L109.128 100.827Z" fill="#2D47FE"/>
<path d="M108.366 93.1323C108.366 93.1323 110.608 85.3347 114.837 84.8662C114.837 84.8662 113.399 92.5067 108.54 95.1277L108.366 93.1323Z" fill="#2D47FE"/>
<path d="M107.581 85.9722C107.581 85.9722 110.449 78.1449 113.243 77.8633C113.243 77.8633 112.158 85.5038 107.908 87.2264L107.581 85.9722Z" fill="#2D47FE"/>
<path d="M106.975 79.3022C106.975 79.3022 108.601 70.8552 111.369 70.0547C111.369 70.0547 111.248 76.9154 107.281 79.9159L106.975 79.3022Z" fill="#2D47FE"/>
<path d="M105.589 70.5942C105.589 70.5942 107.381 63.8432 109.607 62.7402C109.607 62.7402 109.457 70.6209 106.178 72.2041L105.589 70.5942Z" fill="#2D47FE"/>
<path d="M104.499 64.8807L103.64 53.1309C103.64 53.1309 108.202 61.8476 104.878 66.9354L104.499 64.8807Z" fill="#2D47FE"/>
<path d="M100.783 53.3139C100.783 53.3139 97.4126 44.8432 96.6655 44.3926C96.6655 44.3926 102.842 49.7294 102.548 56.9251L100.783 53.3139Z" fill="#2D47FE"/>
<path d="M129.188 144.814C129.188 144.814 123.8 144.316 124.25 151.948C124.25 151.948 129.127 152.541 130.468 146.178L129.188 144.814Z" fill="#2D47FE"/>
<path d="M123.905 138.71C123.905 138.71 117.708 138.929 118.511 146.715C118.511 146.715 123.746 147.45 125.185 140.127L123.905 138.71Z" fill="#2D47FE"/>
<path d="M120.235 133.213C120.235 133.213 114.508 130.77 111.169 137.77C111.169 137.77 116.449 139.786 120.773 134.301L120.235 133.213Z" fill="#2D47FE"/>
<path d="M116.449 126.705C116.449 126.705 110.581 124.099 107.454 130.933C107.454 130.933 113.534 132.783 116.964 127.748L116.449 126.705Z" fill="#2D47FE"/>
<path d="M114.191 121.009C114.191 121.009 108.446 115.886 104.229 121.454C104.229 121.454 110.058 125.626 114.491 122.186L114.191 121.009Z" fill="#2D47FE"/>
<path d="M112.054 113.623C112.054 113.623 106.269 108.378 102.098 114.257C102.098 114.257 108.528 118.494 112.295 114.758L112.054 113.623Z" fill="#2D47FE"/>
<path d="M110.76 107.012C110.76 107.012 106.204 100.365 101.207 102.078C101.207 102.078 105.936 109.123 110.772 108.601L110.76 107.012Z" fill="#2D47FE"/>
<path d="M109.252 100.78C109.252 100.78 104.596 92.3594 100.56 94.0079C100.56 94.0079 103.931 100.486 109.419 102.218L109.252 100.78Z" fill="#2D47FE"/>
<path d="M108.646 92.682C108.646 92.682 103.94 86.097 99.8047 87.0843C99.8047 87.0843 103.699 93.7938 109.152 94.621L108.646 92.682Z" fill="#2D47FE"/>
<path d="M108.046 85.8039C108.046 85.8039 104.31 78.3562 101.501 78.3917C101.501 78.3917 103.445 85.8573 107.86 87.0818L108.046 85.8039Z" fill="#2D47FE"/>
<path d="M107.107 79.1302C107.107 79.1302 102.989 71.5994 100.101 71.6972C100.101 71.6972 102.313 78.1874 107.004 79.8121L107.107 79.1302Z" fill="#2D47FE"/>
<path d="M106.222 71.0386C106.222 71.0386 103.113 64.7945 100.712 64.1689C100.712 64.1689 102.439 71.8569 105.972 72.7375L106.222 71.0386Z" fill="#2D47FE"/>
<path d="M104.149 64.6705L97.3662 55.0762C97.3662 55.0762 99.3781 64.718 105.155 66.5058L104.149 64.6705Z" fill="#2D47FE"/>
<path d="M99.3451 54.1636C99.3451 54.1636 91.6975 49.2686 91.4033 48.4443C91.4033 48.4443 95.4801 55.5601 102.551 56.5651L99.3451 54.1636Z" fill="#2D47FE"/>
<path d="M98.8095 51.85C98.8095 51.85 89.9442 43.8952 87.7617 43.9871C87.7617 43.9871 94.821 44.0405 98.9978 51.3993L98.8095 51.85Z" fill="#2D47FE"/>
<path d="M106.187 72.2728L105.875 72.3262C103.787 59.7106 101.169 52.3073 98.4775 51.483L98.5687 51.1865C101.413 52.0523 104.046 59.3489 106.187 72.2728Z" fill="#444053"/>
<path d="M109.699 102.497L109.232 102.556C109.087 101.37 108.967 100.167 108.867 98.9628C108.02 88.4848 106.958 78.8756 105.77 71.6858L106.028 71.3359C107.205 78.5376 108.49 88.4315 109.34 98.9094C109.435 100.122 109.558 101.329 109.699 102.497Z" fill="#444053"/>
<path d="M147.921 158.505C147.836 158.47 139.409 155.063 130.47 146.498C125.237 141.486 120.824 135.67 117.396 129.266C113.11 121.261 110.304 111.322 109.122 101.609L109.622 101.823C112.269 123.621 122.723 138.19 130.885 146.017C139.735 154.506 148.068 157.877 148.151 157.915L147.921 158.505Z" fill="#444053"/>
<g opacity="0.7">
<path opacity="0.7" d="M153.778 148.835C153.778 148.835 157.56 147.575 160.337 149.958C160.337 149.958 158.846 151.598 154.866 150.317L153.778 148.835Z" fill="#2D47FE"/>
<path opacity="0.7" d="M153.351 148.841C153.351 148.841 151.369 152.328 153.134 155.547C153.134 155.547 155.025 154.4 154.575 150.211L153.351 148.841Z" fill="#2D47FE"/>
<path opacity="0.7" d="M150.31 144.15C150.31 144.15 151.404 141.022 158.252 144.028C158.252 144.028 157.734 146.103 154.963 146.4C152.193 146.696 151.281 145.546 150.31 144.15Z" fill="#2D47FE"/>
<path opacity="0.7" d="M149.88 144.022C149.88 144.022 146.594 144.18 147.48 151.669C147.48 151.669 149.592 151.764 150.665 149.172C151.739 146.581 150.924 145.345 149.88 144.022Z" fill="#2D47FE"/>
<path opacity="0.7" d="M147.042 138.389C147.042 138.389 148.042 133.028 155.201 135.555C155.201 135.555 154.445 140.447 147.995 140.002L147.042 138.389Z" fill="#2D47FE"/>
<path opacity="0.7" d="M143.804 131.14C143.804 131.14 146.401 125.462 153.216 129.225C153.216 129.225 151.866 134.375 144.607 132.88L143.804 131.14Z" fill="#2D47FE"/>
<path opacity="0.7" d="M141.918 124.051C141.918 124.051 145.154 118.7 151.919 122.418C151.919 122.418 148.801 127.162 142.113 125.252L141.918 124.051Z" fill="#2D47FE"/>
<path opacity="0.7" d="M140.173 117.155C140.173 117.155 143.426 111.587 149.924 115.293C149.924 115.293 146.062 120.372 140.359 118.305L140.173 117.155Z" fill="#2D47FE"/>
<path opacity="0.7" d="M139.535 110.882C139.535 110.882 142.771 103.87 148.842 107.271C148.842 107.271 145.156 113.446 139.723 112.083L139.535 110.882Z" fill="#2D47FE"/>
<path opacity="0.7" d="M139.351 103.462C139.351 103.462 142.851 96.4594 148.855 100.409C148.855 100.409 144.393 106.712 139.536 104.61L139.351 103.462Z" fill="#2D47FE"/>
<path opacity="0.7" d="M139.809 96.7302C139.809 96.7302 144.198 89.9703 149.239 91.5565C149.239 91.5565 144.683 98.7196 139.827 98.3342L139.809 96.7302Z" fill="#2D47FE"/>
<path opacity="0.7" d="M140.685 90.2758C140.685 90.2758 145.686 82.06 149.651 83.8805C149.651 83.8805 146.012 90.2076 140.459 91.7048L140.685 90.2758Z" fill="#2D47FE"/>
<path opacity="0.7" d="M142.233 82.6998C142.233 82.6998 146.674 75.931 150.845 76.7493C150.845 76.7493 147.218 83.613 141.803 84.6596L142.233 82.6998Z" fill="#2D47FE"/>
<path opacity="0.7" d="M143.592 75.6309C143.592 75.6309 148.642 69.0163 151.392 69.5855C151.392 69.5855 148.101 76.553 143.536 76.9266L143.592 75.6309Z" fill="#2D47FE"/>
<path opacity="0.7" d="M144.983 69.0788C144.983 69.0788 149.028 61.5036 151.91 61.5688C151.91 61.5688 149.769 68.0915 145.092 69.7578L144.983 69.0788Z" fill="#2D47FE"/>
<path opacity="0.7" d="M146.233 60.3501C146.233 60.3501 149.934 54.4441 152.387 54.0557C152.387 54.0557 149.916 61.536 146.319 62.0608L146.233 60.3501Z" fill="#2D47FE"/>
<path opacity="0.7" d="M146.874 54.5668L149.522 43.0957C149.522 43.0957 151.307 52.782 146.639 56.6541L146.874 54.5668Z" fill="#2D47FE"/>
<path opacity="0.7" d="M146.742 42.4136C146.742 42.4136 146.025 33.3144 145.439 32.6592C145.439 32.6592 149.772 39.6148 147.351 46.3866L146.742 42.4136Z" fill="#2D47FE"/>
<path opacity="0.7" d="M146.854 138.289C146.854 138.289 141.854 136.193 140.036 143.626C140.036 143.626 144.51 145.669 147.684 139.982L146.854 138.289Z" fill="#2D47FE"/>
<path opacity="0.7" d="M143.612 130.872C143.612 130.872 137.633 129.224 136.097 136.909C136.097 136.909 140.877 139.183 144.415 132.621L143.612 130.872Z" fill="#2D47FE"/>
<path opacity="0.7" d="M141.73 124.526C141.73 124.526 136.985 120.476 131.729 126.159C131.729 126.159 136.173 129.667 141.921 125.726L141.73 124.526Z" fill="#2D47FE"/>
<path opacity="0.7" d="M140.036 117.179C140.036 117.179 135.206 112.93 130.203 118.525C130.203 118.525 135.459 122.112 140.221 118.332L140.036 117.179Z" fill="#2D47FE"/>
<path opacity="0.7" d="M139.562 111.062C139.562 111.062 135.588 104.447 129.92 108.497C129.92 108.497 134.253 114.231 139.5 112.274L139.562 111.062Z" fill="#2D47FE"/>
<path opacity="0.7" d="M139.704 103.368C139.704 103.368 135.727 96.6286 129.997 100.996C129.997 100.996 134.886 106.97 139.586 104.533L139.704 103.368Z" fill="#2D47FE"/>
<path opacity="0.7" d="M140.415 96.6668C140.415 96.6668 138.03 88.9581 132.75 89.0916C132.75 89.0916 135.188 97.2391 139.956 98.2027L140.415 96.6668Z" fill="#2D47FE"/>
<path opacity="0.7" d="M140.818 90.2654C140.818 90.2654 138.856 80.8312 134.518 81.1959C134.518 81.1959 135.824 88.3916 140.553 91.6886L140.818 90.2654Z" fill="#2D47FE"/>
<path opacity="0.7" d="M142.63 82.3528C142.63 82.3528 140.08 74.6441 135.838 74.3477C135.838 74.3477 137.58 81.9259 142.539 84.3482L142.63 82.3528Z" fill="#2D47FE"/>
<path opacity="0.7" d="M144.087 75.6073C144.087 75.6073 142.719 67.3767 140.025 66.5732C140.025 66.5732 139.678 74.282 143.534 76.7784L144.087 75.6073Z" fill="#2D47FE"/>
<path opacity="0.7" d="M145.175 68.9538C145.175 68.9538 143.46 60.5276 140.68 59.7627C140.68 59.7627 140.874 66.6205 144.878 69.5794L145.175 68.9538Z" fill="#2D47FE"/>
<path opacity="0.7" d="M146.703 60.9667C146.703 60.9667 145.577 54.0733 143.468 52.751C143.468 52.751 142.847 60.6109 145.959 62.5114L146.703 60.9667Z" fill="#2D47FE"/>
<path opacity="0.7" d="M146.604 54.2637L142.96 43.0713C142.96 43.0713 142.034 52.8821 147.022 56.3214L146.604 54.2637Z" fill="#2D47FE"/>
<path opacity="0.7" d="M145.119 42.7923C145.119 42.7923 139.262 35.8249 139.236 34.9473C139.236 34.9473 141.027 42.9524 147.472 46.0419L145.119 42.7923Z" fill="#2D47FE"/>
<path opacity="0.7" d="M145.289 40.4234C145.289 40.4234 139.174 30.1679 137.053 29.6016C137.053 29.6016 143.783 31.7719 145.583 40.0498L145.289 40.4234Z" fill="#2D47FE"/>
<path opacity="0.7" d="M146.304 62.1324L145.992 62.088C147.721 49.419 147.398 41.562 145.08 39.9699L145.259 39.709C147.716 41.396 148.077 49.1462 146.304 62.1324Z" fill="#444053"/>
<path opacity="0.7" d="M140.739 92.0421L140.274 91.9562C140.486 90.785 140.724 89.5843 140.989 88.4161C143.271 78.1606 145.107 68.667 146.08 61.4356L146.43 61.1807C145.442 68.412 143.736 78.2406 141.448 88.508C141.189 89.694 140.948 90.8769 140.739 92.0421Z" fill="#444053"/>
<path opacity="0.7" d="M160.699 156.976C160.629 156.92 153.587 151.136 147.584 140.281C144.06 133.927 141.559 127.05 140.174 119.906C138.445 110.976 138.703 100.635 140.436 91.0225L140.851 91.3753C136.953 112.983 142.616 130.026 148.107 139.946C154.052 150.703 161.011 156.425 161.082 156.481L160.699 156.976Z" fill="#444053"/>
</g>
<path d="M90.4058 129.664C89.7143 129.951 88.996 130.167 88.2616 130.31C86.9782 130.552 85.6757 130.676 84.3701 130.681C84.4083 131.028 84.4378 131.351 84.4672 131.644C84.5378 132.451 84.5789 133.005 84.5789 133.005L83.1994 132.91L71.8222 132.128L65.1688 131.134C65.4899 131.569 65.8387 131.982 66.213 132.371C66.6006 132.784 67.049 133.135 67.5425 133.411C67.5425 133.411 73.5458 138.312 74.5841 138.357C74.7312 138.357 74.7783 138.505 74.7547 138.739C77.2814 138.739 85.1378 139.11 82.9583 143.519C82.5977 144.304 81.9618 144.928 81.1728 145.271C78.6521 146.347 74.8489 144.411 72.8899 143.222C72.6987 143.599 72.5163 143.949 72.3546 144.248C72.0222 144.879 71.7898 145.298 71.7898 145.298L71.5928 145.155L61.4979 137.909L59.286 136.017C58.6363 135.988 57.9929 135.875 57.3712 135.682L57.077 135.588C57.0643 135.613 57.0534 135.64 57.0447 135.668C56.9641 135.899 56.9041 136.137 56.8653 136.379C56.8653 136.415 56.8653 136.45 56.8653 136.486C56.824 136.762 56.7965 137.04 56.7829 137.319C56.7829 137.509 56.7682 137.71 56.7682 137.912C56.7505 141.95 58.3565 148.44 58.3565 148.44C58.3565 148.44 62.5186 159.141 61.042 161.61C60.9659 161.736 60.866 161.844 60.7479 161.931C60.2273 162.31 59.9155 162.986 59.7537 163.789C59.2037 166.41 60.1684 170.41 60.1684 170.41C60.1684 170.41 60.0802 170.558 59.9302 170.79C59.6056 171.313 59.2397 171.808 58.836 172.272C58.7742 172.343 58.7095 172.417 58.6419 172.486C58.4597 172.678 58.263 172.857 58.0536 173.019C58.0918 173.135 58.133 173.253 58.1742 173.381C58.2154 173.508 58.2683 173.707 58.3095 173.885C58.637 175.342 58.5086 176.866 57.9418 178.246C57.5563 179.253 57.307 180.307 57.2006 181.38C57.0093 183.346 57.0597 185.327 57.3506 187.28C57.3065 187.257 57.2682 187.233 57.2241 187.212C53.9709 185.498 50.7639 183.709 47.6028 181.843C46.6763 181.303 45.7557 180.752 44.8409 180.197C43.7153 179.513 42.5947 178.821 41.4789 178.122C40.0082 177.197 38.5375 176.248 37.0668 175.278L36.3785 174.816L36.1138 174.635C35.7403 174.383 35.3726 174.131 35.002 173.876C33.4813 171.895 32.0919 169.815 30.8429 167.65C30.634 167.273 30.4458 166.914 30.2899 166.585V166.568L30.1899 166.351L29.7751 166.203C28.9957 165.927 28.5015 165.734 28.5015 165.734C28.8613 164.412 29.0336 163.044 29.0133 161.673C28.9898 159.004 28.2574 155.446 25.2395 152.594C20.7804 148.345 20.1657 144.15 20.1009 142.54C20.1009 142.428 20.1009 142.327 20.1009 142.244C20.0995 142.108 20.1054 141.972 20.1186 141.838L20.4598 141.508C19.595 141.333 18.7832 141.253 18.7832 141.253C18.7832 141.253 21.7422 130.461 26.7249 126.859C29.1957 125.08 31.2517 122.115 32.7048 119.571C35.3554 114.974 38.332 110.575 41.6113 106.41L42.5084 105.269L42.7702 104.934L42.826 104.865L42.8966 104.771C42.7751 104.585 42.6515 104.401 42.526 104.219L42.4437 104.098C42.0525 103.505 41.7171 102.912 41.7701 102.203C41.7701 102.203 41.7701 102.188 41.7701 102.182C41.7701 102.132 41.7701 102.084 41.7701 102.031C41.7826 101.913 41.8042 101.796 41.8348 101.681C41.8448 101.7 41.8567 101.718 41.8701 101.734C42.2907 100.501 43.9114 99.9556 45.1056 99.2736C47.9205 97.6785 49.1206 94.1889 49.7236 90.9423C50.1913 88.4162 50.5795 85.5848 52.5208 83.963C53.7739 82.9193 55.4622 82.5754 56.73 81.5407C57.4634 80.8873 58.0699 80.1021 58.5183 79.2251C58.8125 78.7211 59.0654 78.1993 59.339 77.6952C60.592 75.4123 62.2392 73.2894 64.4187 71.9226C66.5983 70.5558 69.3632 70.0251 71.7516 70.9442C72.6722 71.297 73.5164 71.8336 74.3988 72.228C74.9437 72.452 75.5066 72.6285 76.0813 72.7557C77.8785 73.1797 79.7698 73.2894 81.4581 74.0455C84.2025 75.2729 85.9879 77.9887 87.6174 80.5682C88.4616 81.9024 89.7881 83.8533 90.5411 85.816C90.5411 85.7449 90.5411 85.6796 90.5411 85.6115C90.9042 86.4758 91.1037 87.4009 91.1294 88.3392C91.1441 88.7385 91.1015 89.138 91.0029 89.5251C90.7323 90.5332 90.0411 91.1706 89.1734 91.6391L89.0351 91.7073C88.8496 91.8034 88.6591 91.8895 88.4645 91.9652C88.4351 92.1283 88.4027 92.2943 88.3674 92.4544C88.3527 92.5226 88.3351 92.5938 88.3174 92.6619C88.2792 92.828 88.2351 92.9911 88.188 93.1541C87.5593 95.2732 86.333 97.1624 84.6584 98.5917C83.4986 99.5918 82.1584 100.357 80.711 100.845C80.6081 100.881 80.4992 100.907 80.3963 100.94C80.3088 101.188 80.1838 101.421 80.0257 101.631C79.9111 101.778 79.7765 101.909 79.6257 102.019C79.5317 102.083 79.4334 102.141 79.3315 102.191C79.3066 102.207 79.2799 102.22 79.2521 102.23C78.1932 102.71 76.7431 102.333 75.7225 101.616C75.6695 101.58 75.6195 101.539 75.5695 101.5C75.5695 101.669 75.543 101.847 75.5136 102.031C75.4842 102.215 75.4636 102.327 75.4313 102.482C75.3989 102.636 75.3871 102.71 75.3665 102.82C75.346 102.929 75.3312 103.003 75.3136 103.089L75.2783 103.241C74.6956 106.102 73.5841 108.828 72.0016 111.275C71.7721 111.626 71.5237 111.964 71.2574 112.287L70.528 113.407V113.558C70.6662 116.138 69.825 118.542 68.6367 120.612C68.2388 121.298 67.8017 121.96 67.3277 122.595L67.4925 122.693C69.1396 123.639 72.3869 125.32 74.44 125.178C74.44 125.178 82.2053 126.189 83.1053 125.682C83.2289 125.611 83.3494 125.709 83.4612 125.919C84.7172 125.148 87.6056 123.515 89.8852 123.298C91.4794 123.144 92.7766 123.681 93.0178 125.67C93.259 127.659 92.0706 128.943 90.4058 129.664Z" fill="url(#paint0_linear)"/>
<path d="M47.9012 170.433C48.3983 171.288 48.6949 172.246 48.7683 173.234C48.8418 174.222 48.69 175.214 48.3247 176.134C47.61 177.94 47.5305 180.19 47.6041 181.842C46.6775 181.302 45.7569 180.751 44.8421 180.196C43.7166 179.512 42.5959 178.82 41.4801 178.121C40.0094 177.196 38.5387 176.247 37.068 175.277L36.3798 174.815L36.115 174.634C36.0919 174.591 36.0632 174.551 36.0297 174.515C35.6356 174.094 33.3384 170.774 31.9736 168.254C31.7265 167.791 31.5118 167.364 31.3412 166.973V166.952C31.047 166.294 30.9088 165.766 30.997 165.526C31.104 165.148 31.2854 164.796 31.5305 164.49C31.7757 164.184 32.0794 163.932 32.4236 163.747C34.1178 162.858 36.8357 163.679 39.5241 164.986C41.8372 166.165 44.0541 167.526 46.154 169.057L46.3922 169.232L46.4158 169.25C47.2982 169.881 47.81 170.299 47.81 170.299C47.81 170.299 47.8482 170.347 47.9012 170.433Z" fill="#FBBEBE"/>
<path opacity="0.05" d="M47.4534 170.039C47.9514 170.895 48.2486 171.854 48.322 172.843C48.3954 173.833 48.2432 174.826 47.8769 175.747C47.1622 177.552 47.0827 179.803 47.1563 181.457C46.2307 180.914 45.3101 180.364 44.3943 179.809C43.2668 179.125 42.1461 178.433 41.0323 177.733C39.5616 176.805 38.0909 175.856 36.6349 174.887L35.9467 174.424L35.6819 174.244C35.6581 174.201 35.6295 174.161 35.5966 174.125C35.2025 173.707 32.9053 170.386 31.5405 167.863C31.2934 167.401 31.0787 166.974 30.9081 166.582V166.564C30.6139 165.903 30.4757 165.379 30.5639 165.135C30.6713 164.758 30.853 164.406 31.098 164.1C31.3431 163.794 31.6466 163.541 31.9905 163.356C33.6847 162.467 36.4026 163.288 39.091 164.596C41.4041 165.774 43.621 167.135 45.7209 168.667L45.9591 168.842L45.9827 168.859C46.8651 169.491 47.3769 169.909 47.3769 169.909C47.3769 169.909 47.4004 169.953 47.4534 170.039Z" fill="black"/>
<path d="M58.2837 177.229C58.1981 177.737 58.0591 178.234 57.869 178.712C57.5432 179.571 57.3191 180.467 57.2013 181.38C56.9696 183.317 56.9776 185.276 57.2248 187.212C53.9716 185.498 50.7646 183.708 47.6035 181.842C46.677 181.303 45.7564 180.751 44.8416 180.197C44.6357 178.62 44.3416 177.232 44.0092 176.891C43.5739 176.429 41.0884 172.847 39.5442 170.021C39.3441 169.666 39.1706 169.322 39.0088 168.996V168.981C38.9471 168.85 38.8882 168.726 38.8323 168.601C38.4353 167.741 38.2235 167.071 38.3294 166.748C38.5358 166.045 38.9606 165.428 39.5412 164.987C42.1502 163.066 47.5741 165.666 51.7391 168.248L51.8421 168.311C52.6304 168.806 53.3775 169.295 54.0481 169.752L54.4393 170.018C56.163 171.204 57.3072 172.126 57.3072 172.126C57.5914 172.568 57.8197 173.045 57.9866 173.544C58.0849 173.825 58.1664 174.112 58.2308 174.404C58.4343 175.332 58.4523 176.293 58.2837 177.229Z" fill="#FBBEBE"/>
<path opacity="0.1" d="M31.9883 168.254C34.1266 169.007 37.2827 170.006 39.0005 170.032C39.1784 170.038 39.3564 170.029 39.5329 170.006C40.7418 169.84 44.4685 170.107 47.8894 170.418C49.2601 170.539 50.5807 170.667 51.672 170.78L54.4134 171.076V170.009C53.6515 169.481 52.7662 168.894 51.8191 168.301C47.6394 165.698 42.1478 163.038 39.5182 164.974C35.815 163.172 32.0559 162.306 30.9882 165.514C30.8647 165.932 31.3147 166.994 31.9883 168.254Z" fill="black"/>
<path d="M21.7128 143.406C21.7716 145.004 22.3658 149.152 26.6219 153.341C32.0517 158.678 29.7369 166.351 29.7369 166.351C29.7369 166.351 36.2079 168.913 38.9993 168.981C39.1771 168.986 39.3552 168.977 39.5317 168.954C41.2053 168.72 47.8587 169.34 51.6825 169.728L54.4239 170.025V147.337L24.4394 139.996L21.7245 142.724C21.7062 142.951 21.7023 143.178 21.7128 143.406Z" fill="#5C5C8E"/>
<g opacity="0.1">
<path opacity="0.1" d="M53.9333 169.742L54.4245 169.793V170.036L51.6831 169.739C48.9388 169.461 44.7444 169.063 41.9766 168.948C43.8914 168.776 50.2301 169.366 53.9333 169.742Z" fill="black"/>
<path opacity="0.1" d="M21.7248 142.737L24.4397 140.01L26.2516 140.452L23.9897 142.737C23.9752 142.965 23.9752 143.192 23.9897 143.419C24.0485 145.017 24.6426 149.162 28.8988 153.355C34.3286 158.692 32.0138 166.362 32.0138 166.362C32.0138 166.362 37.3671 168.482 40.4349 168.917C40.14 168.916 39.8454 168.933 39.5525 168.968C39.376 168.991 39.198 169 39.0201 168.994C36.2288 168.923 29.7577 166.362 29.7577 166.362C29.7577 166.362 32.0726 158.692 26.6428 153.355C22.366 149.162 21.7719 145.017 21.713 143.428C21.7021 143.198 21.7061 142.967 21.7248 142.737Z" fill="black"/>
</g>
<path d="M81.6416 127.383C81.6416 127.383 90.7099 121.044 91.3717 126.749C92.0335 132.453 81.6416 131.653 81.6416 131.653V127.383Z" fill="#FBBEBE"/>
<path d="M66.0043 123.179C66.0043 123.179 70.9076 126.44 73.6225 126.247C73.6225 126.247 81.0348 127.249 81.8966 126.748C82.7584 126.247 83.2879 133.989 83.2879 133.989L71.1076 133.12L63.2953 131.919C63.2953 131.919 59.3892 129.518 59.3892 127.448C59.3892 125.379 66.0043 123.179 66.0043 123.179Z" fill="#F7CDDD"/>
<path d="M66.0043 123.179C66.0043 123.179 70.9076 126.44 73.6225 126.247C73.6225 126.247 81.0348 127.249 81.8966 126.748C82.7584 126.247 83.2879 133.989 83.2879 133.989L71.1076 133.12L63.2953 131.919C63.2953 131.919 59.3892 129.518 59.3892 127.448C59.3892 125.379 66.0043 123.179 66.0043 123.179Z" fill="#2D47FE"/>
<path d="M73.1936 139.675C73.1936 139.675 84.2208 139.216 81.7501 144.393C79.2793 149.569 70.9258 143.284 70.9258 143.284L73.1936 139.675Z" fill="#FBBEBE"/>
<path d="M62.1045 128.65C62.1045 128.65 71.0404 121.91 69.7844 113.704C68.5285 105.497 62.1045 119.977 62.1045 119.977V128.65Z" fill="#5C5C8E"/>
<path d="M64.5815 91.4421C64.5833 94.3942 65.7222 97.2303 67.7582 99.3524C68.8564 100.495 70.1787 101.395 71.6409 101.994C72.1124 102.193 72.5981 102.355 73.0939 102.48C73.6206 102.617 74.1563 102.716 74.697 102.777C75.0852 102.815 75.4764 102.836 75.8735 102.836C77.1375 102.834 78.3918 102.614 79.5826 102.187C81.5416 101.501 83.2754 100.285 84.594 98.6713C85.9126 97.0579 86.7652 95.1097 87.0581 93.0404C87.3511 90.971 87.0732 88.8602 86.2548 86.9395C85.4365 85.0187 84.1094 83.3622 82.4189 82.1514C80.7285 80.9405 78.7399 80.2222 76.6713 80.0751C74.6026 79.928 72.5337 80.3578 70.6914 81.3174C68.849 82.277 67.3043 83.7294 66.2266 85.5153C65.1489 87.3012 64.5797 89.3517 64.5815 91.4421Z" fill="#FBBEBE"/>
<path opacity="0.1" d="M21.7128 143.406C22.7246 143.593 23.9747 143.936 23.9747 144.464C23.9747 145.354 38.0933 150.16 38.0933 150.16C38.0933 150.16 37.5639 151.402 38.9757 153.54C40.3876 155.677 51.8678 167.952 51.8678 167.952L51.8296 168.314L51.6825 169.728L50.9824 176.491C50.9824 176.491 55.3945 174.89 56.8064 175.068C57.2623 175.124 57.7594 174.831 58.2153 174.404C58.0475 173.596 57.7355 172.825 57.2946 172.13C57.2946 172.13 56.1504 171.222 54.4239 170.022V147.337L24.4394 139.996L21.7245 142.724C21.7062 142.951 21.7023 143.178 21.7128 143.406Z" fill="black"/>
<path d="M20.4429 142.152C20.4429 142.152 23.9725 142.505 23.9725 143.397C23.9725 144.29 38.0912 149.093 38.0912 149.093C38.0912 149.093 37.5617 150.335 38.9736 152.473C40.3854 154.61 51.8656 166.885 51.8656 166.885L50.9832 175.424C50.9832 175.424 55.3953 173.823 56.8072 174.001C57.4396 174.081 58.1367 173.491 58.7132 172.815C59.1914 172.245 59.6177 171.633 59.9868 170.986C59.9868 170.986 58.3955 164.22 60.5162 162.619C62.637 161.018 58.222 149.277 58.222 149.277C58.222 149.277 56.2248 140.928 56.813 137.346C56.8505 137.107 56.9075 136.872 56.9836 136.643C56.9836 136.617 56.9983 136.59 57.0101 136.563C58.269 133.142 71.8111 104.439 71.8111 104.439C71.8024 103.625 71.7455 102.812 71.6405 102.005C71.6141 101.779 71.5788 101.545 71.5346 101.311C71.4663 100.884 71.375 100.461 71.2611 100.045C71.1846 99.772 71.1023 99.5111 71.0052 99.262C70.5875 98.1769 69.9463 97.3437 68.9874 97.323C68.9874 97.323 67.9285 96.137 65.4578 95.8227C63.6341 95.5826 61.0457 95.8227 57.516 97.323C49.2213 100.881 47.28 101.059 47.28 101.059L43.1091 106.565L42.2503 107.697C39.1111 111.824 36.2693 116.173 33.7467 120.71C32.3584 123.224 30.3936 126.156 28.0375 127.918C23.2695 131.478 20.4429 142.152 20.4429 142.152Z" fill="#2D47FE"/>
<path opacity="0.1" d="M51.3804 121.579C51.3804 121.579 39.5973 124.514 35.0293 131.921L51.3804 121.579Z" fill="black"/>
<path opacity="0.1" d="M47.7387 134.588C47.7387 134.588 45.5121 149.667 46.1298 150.803C46.7475 151.938 47.7387 134.588 47.7387 134.588Z" fill="black"/>
<path opacity="0.1" d="M48.5364 142.329C49.3953 143.462 52.875 152.205 52.875 152.205L51.869 166.884L50.9866 175.423C50.9866 175.423 55.3987 173.822 56.8135 174C57.4429 174.08 58.143 173.493 58.7195 172.814C57.8018 167.812 55.8428 157.349 55.484 157.148C55.0163 156.881 52.6338 148.472 52.5073 146.136C52.3808 143.8 49.0629 138.534 49.0629 138.534C49.0629 138.534 47.6746 141.197 48.5364 142.329Z" fill="black"/>
<path opacity="0.1" d="M51.868 127.918C52.0827 128.586 52.4239 132.455 52.4239 132.455C52.6651 135.867 55.2241 136.982 56.8124 137.338C56.8499 137.099 56.9069 136.864 56.983 136.635C58.0419 133.614 71.8106 104.431 71.8106 104.431C71.7963 102.949 71.6117 101.475 71.2605 100.037C68.2632 99.1472 63.5159 100.517 63.5159 100.517C62.1452 100.336 57.6713 109.305 57.6713 109.305C57.6713 109.305 54.6888 116.174 54.3623 117.108C54.0358 118.042 54.3623 119.581 54.2299 120.115C54.0975 120.649 52.7033 121.111 52.5063 121.849C52.3092 122.588 52.4386 124.046 52.3062 124.313C52.1739 124.58 51.6385 127.251 51.868 127.918Z" fill="black"/>
<path d="M52.9279 127.384C53.1456 128.051 53.4838 131.92 53.4838 131.92C53.6838 134.761 55.4957 136.009 57.0135 136.555C57.6951 136.8 58.4085 136.944 59.1313 136.981L61.2608 138.843L71.088 146.152C71.088 146.152 74.753 139.333 73.7588 139.288C72.7646 139.244 67.0318 134.396 67.0318 134.396C65.267 133.453 63.5198 130.299 62.7051 128.68C62.7532 128.485 62.7885 128.287 62.811 128.087C63.1669 125.066 70.5791 113.5 70.5791 113.5C70.5791 113.5 73.444 110.099 74.5618 103.799C74.5941 103.656 74.6147 103.502 74.6412 103.357C74.6729 103.161 74.6925 102.962 74.7 102.764C74.8324 100.341 73.0852 99.4609 71.0086 99.2504C69.9296 99.1659 68.8448 99.1997 67.7731 99.3512C66.701 99.4862 65.6395 99.6963 64.5964 99.9798C63.714 99.8641 61.5197 103.585 60.0843 106.221C59.3107 107.65 58.7548 108.768 58.7548 108.768C58.7548 108.768 55.7575 115.64 55.4222 116.574C55.0869 117.508 55.4222 119.044 55.2898 119.581C55.1575 120.117 53.7633 120.577 53.5691 121.315C53.375 122.053 53.4985 123.512 53.3662 123.779C53.2338 124.046 52.7044 126.717 52.9279 127.384Z" fill="#2D47FE"/>
<path opacity="0.1" d="M41.5234 112.002C43.3883 113.935 46.4297 113.941 48.8592 112.959C51.2888 111.978 53.3507 110.187 55.6068 108.808C57.0775 107.919 58.6188 107.169 60.06 106.241C60.2718 106.101 60.4777 105.962 60.6777 105.82C62.3425 104.634 63.7809 103.113 65.5016 102.025C66.6548 101.256 67.9964 100.823 69.3783 100.773C70.0159 100.767 70.6473 100.901 71.2285 101.165C71.3299 101.209 71.4282 101.261 71.5226 101.319C72.0882 101.649 72.6117 102.047 73.0815 102.505C73.5669 102.947 74.0345 103.418 74.5522 103.827C74.5846 103.685 74.6052 103.531 74.6316 103.386C74.6633 103.189 74.683 102.991 74.6905 102.793C75.0787 102.831 75.4699 102.852 75.867 102.852C77.1338 102.845 78.3902 102.621 79.582 102.188C79.582 102.14 79.5996 102.09 79.6085 102.042C80.032 99.801 80.785 97.4261 82.5851 96.1661C83.6234 95.4337 85.2824 95.1372 86.7178 94.5798C87.2157 92.8318 87.2909 90.9889 86.9371 89.2055C86.5834 87.4221 85.8109 85.7501 84.6843 84.3295C83.5578 82.9088 82.11 81.7809 80.4622 81.04C78.8144 80.2992 77.0145 79.9671 75.2132 80.0715C73.4119 80.1759 71.6616 80.7137 70.1089 81.64C68.5562 82.5663 67.2462 83.854 66.2886 85.3955C65.331 86.9369 64.7537 88.6871 64.605 90.4996C64.4563 92.3122 64.7406 94.1342 65.4339 95.8132C63.6103 95.5731 61.0219 95.8132 57.4922 97.3135C49.1975 100.871 47.2562 101.049 47.2562 101.049L43.1088 106.564C43.5589 107.258 44.0677 107.943 44.1148 108.752C44.2089 110.252 42.7735 111.287 41.5234 112.002Z" fill="black"/>
<path d="M82.6003 95.102C80.809 96.365 80.0472 98.7369 79.6236 100.975C79.4912 101.675 79.3648 102.413 78.9412 102.968C77.9911 104.21 76.0792 103.857 74.838 102.968C73.5967 102.078 72.6202 100.726 71.2348 100.095C69.3935 99.2587 67.2316 99.8695 65.5109 100.958C63.7902 102.046 62.3489 103.567 60.6841 104.75C59.0751 105.894 57.2809 106.709 55.6043 107.738C53.3512 109.123 51.2922 110.911 48.8597 111.889C46.4272 112.868 43.3887 112.868 41.5269 110.934C42.7769 110.235 44.2123 109.2 44.1153 107.703C44.0182 106.205 42.2857 105.082 42.4034 103.552C42.521 102.022 44.3123 101.411 45.5977 100.658C48.2891 99.0808 49.4215 95.6179 50.0098 92.4158C50.4569 89.9164 50.8246 87.1205 52.6806 85.5165C53.8748 84.4818 55.4955 84.1438 56.6985 83.1209C57.8397 82.1484 58.4633 80.6748 59.1928 79.3199C60.3899 77.0577 61.9606 74.9585 64.0402 73.6066C66.1197 72.2546 68.764 71.7328 71.0465 72.643C71.929 72.9899 72.7172 73.5324 73.582 73.909C75.7292 74.8459 78.1912 74.7214 80.3207 75.7057C82.9415 76.9213 84.6445 79.6075 86.2035 82.1573C87.5359 84.3365 90.142 88.1938 89.4125 91.0104C88.6684 93.8834 84.5445 93.7292 82.6003 95.102Z" fill="#7C5C5C"/>
<g opacity="0.1">
<path opacity="0.1" d="M42.4039 103.365C42.4135 103.248 42.4342 103.132 42.4657 103.019C42.9393 103.772 43.5305 104.501 43.5864 105.39C43.5999 105.594 43.583 105.799 43.5364 105.998C43.0099 105.144 42.3304 104.347 42.4039 103.365Z" fill="black"/>
<path opacity="0.1" d="M48.3303 109.573C50.7628 108.589 52.8218 106.801 55.0749 105.422C56.7515 104.393 58.5457 103.578 60.1547 102.434C61.8195 101.248 63.2608 99.7267 64.9815 98.6416C66.7022 97.5564 68.8641 96.9427 70.7054 97.7788C72.0908 98.4103 73.0585 99.7475 74.3086 100.652C75.5587 101.556 77.4617 101.909 78.4118 100.667C78.8383 100.112 78.9618 99.3769 79.0942 98.6772C79.5178 96.4357 80.2708 94.0638 82.0709 92.8008C84.0181 91.431 88.1389 91.5852 88.8861 88.6944C89.0105 88.1815 89.0434 87.6504 88.9831 87.126C89.4626 88.4098 89.7067 89.7025 89.4184 90.8291C88.6684 93.7199 84.5475 93.5657 82.6003 94.9355C80.812 96.1985 80.0472 98.5704 79.6237 100.812C79.4913 101.512 79.3677 102.25 78.9442 102.801C77.9912 104.044 76.0793 103.691 74.8263 102.786C73.5732 101.882 72.6085 100.545 71.2231 99.9135C69.3818 99.0774 67.2199 99.6912 65.4991 100.776C63.7784 101.861 62.3372 103.385 60.6723 104.568C59.0634 105.716 57.2692 106.528 55.5926 107.557C53.3395 108.945 51.2805 110.729 48.848 111.708C46.4155 112.686 43.377 112.683 41.5151 110.75C41.9962 110.488 42.453 110.182 42.8799 109.837C44.5801 110.463 46.6096 110.267 48.3303 109.573Z" fill="black"/>
</g>
<path d="M239.887 80.4676L227.827 68.2433C227.236 67.634 226.531 67.1487 225.753 66.8155C224.975 66.4822 224.139 66.3077 223.293 66.3019C222.447 66.2961 221.609 66.4592 220.826 66.7817C220.044 67.1043 219.332 67.5799 218.733 68.1811L143.004 143.869L110.984 111.341C109.795 110.125 108.176 109.436 106.482 109.423C104.789 109.411 103.16 110.077 101.954 111.276L89.7649 123.432C88.5604 124.644 87.8784 126.287 87.8668 128.003C87.8553 129.719 88.5151 131.37 89.7032 132.599L138.33 182C139.533 183.215 141.162 183.903 142.864 183.915C144.567 183.927 146.205 183.262 147.425 182.065L239.82 89.632C240.424 89.0365 240.906 88.3263 241.236 87.5422C241.567 86.7582 241.741 85.9159 241.747 85.064C241.753 84.212 241.592 83.3672 241.273 82.5783C240.954 81.7894 240.483 81.0721 239.887 80.4676Z" fill="#3ACC6C"/>
<g opacity="0.5">
<path opacity="0.5" d="M221.715 178.489C221.715 178.489 212.721 177.944 213.774 184.297C213.72 184.62 213.768 184.951 213.912 185.243C214.055 185.536 214.287 185.776 214.574 185.928C214.574 185.928 214.574 185.457 215.494 185.617C215.818 185.672 216.147 185.688 216.474 185.664C216.915 185.635 217.334 185.461 217.668 185.169C217.668 185.169 220.195 184.117 221.18 179.948C221.18 179.948 221.907 179.041 221.877 178.806L220.359 179.462C220.359 179.462 220.88 180.565 220.471 181.481C220.471 181.481 220.421 179.5 220.13 179.548C220.071 179.548 219.342 179.93 219.342 179.93C219.342 179.93 220.224 181.851 219.559 183.251C219.559 183.251 219.815 180.879 219.062 180.07L217.995 180.698C217.995 180.698 219.036 182.685 218.33 184.303C218.33 184.303 218.512 181.819 217.768 180.852L216.8 181.611C216.8 181.611 217.78 183.568 217.183 184.914C217.183 184.914 217.106 182.02 216.595 181.801C216.595 181.801 215.747 182.554 215.618 182.865C215.618 182.865 216.289 184.286 215.874 185.036C215.874 185.036 215.618 183.106 215.409 183.1C215.409 183.1 214.565 184.375 214.477 185.249C214.517 184.44 214.768 183.656 215.203 182.975C214.717 183.069 214.268 183.304 213.912 183.651C213.912 183.651 214.041 182.762 215.412 182.667C215.412 182.667 216.109 181.7 216.294 181.641C216.294 181.641 214.933 181.525 214.106 181.896C214.106 181.896 214.833 181.042 216.542 181.43L217.498 180.645C217.498 180.645 215.706 180.396 214.944 180.668C214.944 180.668 215.827 179.915 217.756 180.464L218.798 179.838C218.798 179.838 217.268 179.506 216.356 179.625C216.356 179.625 217.318 179.103 219.104 179.669L219.848 179.331C219.848 179.331 218.727 179.109 218.398 179.076C218.068 179.044 218.053 178.949 218.053 178.949C218.763 178.831 219.491 178.913 220.157 179.186C220.157 179.186 221.742 178.59 221.715 178.489Z" fill="#2D47FE"/>
</g>
<g opacity="0.5">
<path opacity="0.5" d="M205.576 134.116C205.576 134.116 201.008 141.947 207.109 143.88C207.369 144.075 207.684 144.182 208.008 144.186C208.332 144.19 208.65 144.091 208.915 143.903C208.915 143.903 208.506 143.675 209.056 142.934C209.251 142.668 209.415 142.381 209.544 142.077C209.716 141.667 209.752 141.211 209.647 140.778C209.647 140.778 209.862 138.03 206.627 135.255C206.627 135.255 206.153 134.187 205.935 134.107L205.824 135.768C205.824 135.768 207.032 135.803 207.659 136.586C207.659 136.586 205.894 135.732 205.794 136.014C205.776 136.073 205.774 136.903 205.774 136.903C205.774 136.903 207.88 136.974 208.809 138.214C208.809 138.214 206.832 136.909 205.771 137.218L205.841 138.463C205.841 138.463 208.071 138.427 209.183 139.797C209.183 139.797 207.068 138.504 205.876 138.733L206.109 139.948C206.109 139.948 208.286 139.948 209.2 141.102C209.2 141.102 206.609 139.859 206.182 140.212C206.182 140.212 206.477 141.315 206.677 141.573C206.677 141.573 208.238 141.614 208.712 142.329C208.712 142.329 206.891 141.683 206.788 141.867C206.788 141.867 207.535 143.204 208.259 143.681C207.563 143.276 206.984 142.695 206.579 141.994C206.434 142.477 206.434 142.993 206.579 143.476C206.579 143.476 205.841 142.949 206.394 141.698C206.394 141.698 205.853 140.633 205.885 140.437C205.885 140.437 205.168 141.609 205.118 142.513C205.118 142.513 204.694 141.472 205.812 140.111L205.553 138.896C205.553 138.896 204.52 140.396 204.415 141.202C204.415 141.202 204.147 140.073 205.512 138.584L205.429 137.366C205.429 137.366 204.441 138.587 204.135 139.459C204.135 139.459 204.109 138.359 205.418 137.013L205.459 136.192C205.459 136.192 204.753 137.099 204.576 137.378C204.4 137.656 204.309 137.63 204.309 137.63C204.525 136.94 204.927 136.324 205.471 135.851C205.471 135.851 205.676 134.137 205.576 134.116Z" fill="#2D47FE"/>
</g>
<g opacity="0.5">
<path opacity="0.5" d="M177.006 71.6436C177.006 71.6436 172.441 79.4768 178.538 81.4069C178.798 81.6028 179.113 81.7105 179.438 81.7148C179.762 81.7191 180.079 81.6196 180.344 81.4307C180.344 81.4307 179.935 81.2024 180.488 80.4611C180.683 80.1956 180.846 79.9081 180.974 79.6043C181.147 79.1941 181.183 78.7384 181.077 78.3057C181.077 78.3057 181.294 75.5573 178.056 72.7821C178.056 72.7821 177.582 71.7177 177.365 71.6377L177.253 73.2951C177.253 73.2951 178.465 73.3306 179.088 74.1134C179.088 74.1134 177.324 73.2595 177.226 73.5411C177.206 73.6004 177.206 74.4306 177.206 74.4306C177.206 74.4306 179.309 74.5018 180.238 75.7411C180.238 75.7411 178.262 74.4365 177.2 74.7449L177.274 75.9901C177.274 75.9901 179.5 75.9545 180.612 77.3243C180.612 77.3243 178.497 76.0346 177.306 76.2599L177.538 77.4755C177.538 77.4755 179.715 77.4755 180.633 78.6318C180.633 78.6318 178.038 77.3866 177.612 77.7424C177.612 77.7424 177.906 78.8423 178.109 79.1003C178.109 79.1003 179.668 79.1418 180.141 79.8563C180.141 79.8563 178.321 79.21 178.221 79.3938C178.221 79.3938 178.965 80.7339 179.691 81.2083C178.994 80.8046 178.414 80.224 178.009 79.5242C177.868 80.0022 177.868 80.511 178.009 80.9889C178.009 80.9889 177.271 80.4611 177.824 79.1951C177.824 79.1951 177.282 78.1308 177.315 77.9351C177.315 77.9351 176.597 79.1062 176.547 80.0105C176.547 80.0105 176.123 78.9698 177.244 77.6089L176.982 76.3933C176.982 76.3933 175.95 77.8936 175.847 78.7C175.847 78.7 175.576 77.5704 176.941 76.082L176.859 74.8635C176.859 74.8635 175.87 76.085 175.565 76.9567C175.565 76.9567 175.538 75.8567 176.847 74.5136L176.888 73.6894C176.888 73.6894 176.182 74.5966 176.006 74.8753C175.829 75.154 175.738 75.1274 175.738 75.1274C175.959 74.4359 176.367 73.82 176.915 73.3484C176.915 73.3484 177.106 71.6792 177.006 71.6436Z" fill="#2D47FE"/>
</g>
<g opacity="0.5">
<path opacity="0.5" d="M78.6582 12.3193C78.6582 12.3193 61.657 24.7719 72.9108 34.636C72.9108 34.636 74.1844 36.9724 76.7522 36.3823C76.7522 36.3823 76.0874 35.5107 77.9552 34.4433C78.6173 34.0599 79.2315 33.598 79.7848 33.0676C80.5331 32.3571 81.0318 31.4205 81.2054 30.3992C81.2054 30.3992 84.2115 24.7244 79.8554 15.7527C79.8554 15.7527 79.8289 13.0279 79.4318 12.6514L77.667 16.0966C77.667 16.0966 80.223 17.3092 80.8378 19.5714C80.8378 19.5714 77.8346 16.0758 77.3787 16.6066C77.2875 16.7103 76.5198 18.4744 76.5198 18.4744C76.5198 18.4744 80.9584 20.6032 81.7996 24.1255C81.7996 24.1255 78.7759 19.4766 76.211 19.1386L75.2139 21.8692C75.2139 21.8692 80.0112 23.8883 81.1231 27.8613C81.1231 27.8613 77.7934 23.1174 75.0344 22.48L74.4109 25.2996C74.4109 25.2996 79.0524 27.3602 79.9554 30.672C79.9554 30.672 75.5433 25.5783 74.3108 25.9548C74.3108 25.9548 73.8932 28.5758 74.1138 29.3259C74.1138 29.3259 77.414 30.8825 77.767 32.8541C77.767 32.8541 74.4697 29.7647 74.0814 30.0612C74.0814 30.0612 74.4403 33.6191 75.5698 35.3298C75.5698 35.3298 73.7196 32.9312 73.5314 30.1472C73.5314 30.1472 72.2695 31.6296 72.1989 33.2929C72.1989 33.2929 71.1047 31.4695 73.4549 29.2814C73.4549 29.2814 73.2873 26.4944 73.5373 26.109C73.5373 26.109 70.9136 27.9383 69.9694 29.8359C69.9694 29.8359 70.0253 27.2149 73.6755 25.3559L74.2403 22.5126C74.2403 22.5126 70.6488 24.7452 69.6811 26.367C69.6811 26.367 70.1488 23.6986 74.4403 21.7951L75.3933 19.1119C75.3933 19.1119 72.1578 20.7989 70.6871 22.3733C70.6871 22.3733 71.6489 20.0014 75.6874 18.3499L76.5316 16.6303C76.5316 16.6303 74.1785 17.9052 73.5461 18.3321C72.9137 18.7591 72.7372 18.6286 72.7372 18.6286C73.839 17.3534 75.2709 16.4121 76.8728 15.9098C76.8728 15.9098 78.8553 12.4587 78.6582 12.3193Z" fill="#2D47FE"/>
</g>
<g opacity="0.5">
<path opacity="0.5" d="M62.1421 53.41C62.1421 53.41 40.1494 44.0884 37.2669 60.8963C37.2669 60.8963 35.7638 63.5172 37.8551 65.6816C37.8551 65.6816 38.3052 64.5194 40.4318 65.7201C41.1903 66.143 41.996 66.4734 42.832 66.7045C43.9609 67.0184 45.1605 66.9539 46.2498 66.5207C46.2498 66.5207 53.4798 66.1263 59.5655 56.5883C59.5655 56.5883 62.1716 54.9636 62.3039 54.3528L57.9418 54.6493C57.9418 54.6493 58.2772 57.8662 56.4712 59.7963C56.4712 59.7963 58.0742 54.8034 57.3036 54.6641C57.1477 54.6344 55.0005 54.9191 55.0005 54.9191C55.0005 54.9191 55.5564 60.5138 52.6474 63.4075C52.6474 63.4075 55.3475 57.7179 54.171 55.0199L50.9561 55.6455C50.9561 55.6455 51.8385 61.5308 48.6559 64.9522C48.6559 64.9522 51.2708 58.9039 50.2619 55.8323L47.1793 56.8759C47.1793 56.8759 47.9235 62.6307 45.2615 65.4741C45.2615 65.4741 47.5852 58.1775 46.491 57.1724C46.491 57.1724 43.7203 58.305 43.1261 58.9513C43.1261 58.9513 43.5673 63.1021 41.8731 64.5994C41.8731 64.5994 42.9143 59.5591 42.3996 59.3516C42.3996 59.3516 39.1788 61.7946 38.1963 63.9027C38.1963 63.9027 39.4229 60.6828 41.9937 58.8624C41.9937 58.8624 39.8347 58.4918 38.1699 59.4049C38.1699 59.4049 39.2847 57.2673 42.7731 58.2813C42.7731 58.2813 45.3586 56.4756 45.8763 56.5023C45.8763 56.5023 42.5761 55.0199 40.1906 55.2037C40.1906 55.2037 42.7467 53.7213 46.6822 56.1969L49.7501 55.0762C49.7501 55.0762 45.488 52.8733 43.3497 52.8822C43.3497 52.8822 46.191 51.7733 50.5502 54.8568L53.6974 54.2016C53.6974 54.2016 50.1678 52.0224 47.7853 51.5184C47.7853 51.5184 50.6413 51.0618 54.6034 54.0533L56.7565 53.8725C56.7565 53.8725 54.1504 52.3248 53.3621 51.9483C52.5738 51.5717 52.6091 51.3286 52.6091 51.3286C54.4853 51.657 56.234 52.5049 57.6595 53.7776C57.6595 53.7776 62.1216 53.6857 62.1421 53.41Z" fill="#2D47FE"/>
</g>
<g opacity="0.5">
<path opacity="0.5" d="M48.9732 29.8733C48.9732 29.8733 41.1756 11.7074 29.966 20.0387C29.966 20.0387 27.5923 20.7325 27.6129 23.2112C27.6129 23.2112 28.5365 22.7783 29.1189 24.7144C29.3361 25.4002 29.6322 26.0579 30.0013 26.6742C30.4941 27.5097 31.2438 28.1603 32.1368 28.5272C32.1368 28.5272 36.6547 32.4468 45.6671 30.2735C45.6671 30.2735 48.1349 30.8042 48.5585 30.5196L45.8024 28.1863C45.8024 28.1863 44.1847 30.2913 42.0139 30.3921C42.0139 30.3921 45.7877 28.3464 45.4083 27.8216C45.3318 27.7148 43.8964 26.6534 43.8964 26.6534C43.8964 26.6534 41.0639 30.2943 37.7195 30.3506C37.7195 30.3506 42.5404 28.5183 43.364 26.2443L41.0992 24.7618C41.0992 24.7618 38.2548 28.7733 34.434 28.9838C34.434 28.9838 39.4049 26.8936 40.5432 24.4861L38.1225 23.3505C38.1225 23.3505 35.3105 27.2049 32.1309 27.3502C32.1309 27.3502 37.6342 24.3497 37.5489 23.1252C37.5489 23.1252 35.2635 22.2061 34.5399 22.2594C34.5399 22.2594 32.4603 24.9723 30.6043 24.8952C30.6043 24.8952 34.0722 22.4966 33.881 22.0786C33.881 22.0786 30.5867 21.6813 28.813 22.3751C28.813 22.3751 31.3602 21.1654 33.9163 21.5627C33.9163 21.5627 32.8427 20.101 31.3426 19.6948C31.3426 19.6948 33.2163 19.0633 34.7134 21.6665C34.7134 21.6665 37.2695 22.0816 37.5666 22.3899C37.5666 22.3899 36.4488 19.6059 34.9193 18.3517C34.9193 18.3517 37.2724 18.9447 38.2166 22.6716L40.6727 23.7715C40.6727 23.7715 39.3873 20.0121 38.1107 18.7935C38.1107 18.7935 40.4256 19.766 41.2727 24.1006L43.5052 25.5208C43.5052 25.5208 42.6404 22.2002 41.5139 20.5309C41.5139 20.5309 43.467 21.9007 44.1317 25.9537L45.5142 27.0804C45.5142 27.0804 44.8377 24.6669 44.5818 23.9909C44.3259 23.3149 44.4876 23.1904 44.4876 23.1904C45.4154 24.4625 45.9745 25.9693 46.1024 27.5429C46.1024 27.5429 48.8085 30.0304 48.9732 29.8733Z" fill="#2D47FE"/>
</g>
<g opacity="0.5">
<path opacity="0.5" d="M200.949 39.3254C200.949 39.3254 199.111 30.4307 193.302 33.1317C192.979 33.1628 192.674 33.2964 192.431 33.5132C192.187 33.73 192.019 34.0189 191.949 34.3384C191.949 34.3384 192.405 34.2287 192.49 35.1538C192.522 35.482 192.592 35.8054 192.699 36.1173C192.846 36.538 193.123 36.8998 193.49 37.1491C193.49 37.1491 195.161 39.3313 199.405 39.1949C199.405 39.1949 200.467 39.6634 200.685 39.5744L199.658 38.2699C199.658 38.2699 198.738 39.0644 197.755 38.9073C197.755 38.9073 199.638 38.341 199.52 38.0682C199.493 38.0119 198.946 37.4011 198.946 37.4011C198.946 37.4011 197.34 38.7739 195.826 38.4863C195.826 38.4863 198.158 38.1127 198.74 37.1669L197.858 36.2923C197.858 36.2923 196.228 37.8281 194.493 37.5642C194.493 37.5642 196.92 37.0898 197.652 36.1144L196.67 35.3732C196.67 35.3732 195.052 36.8378 193.608 36.6095C193.608 36.6095 196.358 35.7734 196.431 35.216C196.431 35.216 195.49 34.5904 195.158 34.5459C195.158 34.5459 193.981 35.5718 193.149 35.3643C193.149 35.3643 194.914 34.6112 194.881 34.4036C194.881 34.4036 193.437 33.9174 192.575 34.0627C193.361 33.8911 194.177 33.9289 194.943 34.1724C194.727 33.7229 194.384 33.3476 193.958 33.0931C193.958 33.0931 194.858 32.9834 195.293 34.2791C195.293 34.2791 196.402 34.7031 196.508 34.8721C196.508 34.8721 196.261 33.5171 195.69 32.7967C195.69 32.7967 196.696 33.2799 196.776 35.047L197.779 35.7704C197.779 35.7704 197.546 33.9619 197.084 33.2918C197.084 33.2918 198.035 33.947 198.017 35.9602L198.899 36.8082C198.899 36.8082 198.817 35.2338 198.464 34.3799C198.464 34.3799 199.214 35.1775 199.14 37.0483L199.658 37.6858C199.658 37.6858 199.579 36.5384 199.526 36.2033C199.473 35.8683 199.555 35.8327 199.555 35.8327C199.856 36.4923 199.969 37.2232 199.882 37.9437C199.882 37.9437 200.861 39.3787 200.949 39.3254Z" fill="#2D47FE"/>
</g>
<g opacity="0.5">
<path opacity="0.5" d="M169.294 204.21C169.294 204.21 167.459 195.315 161.647 198.016C161.323 198.047 161.018 198.181 160.774 198.398C160.53 198.614 160.361 198.903 160.291 199.223C160.291 199.223 160.746 199.113 160.832 200.039C160.864 200.367 160.935 200.691 161.044 201.002C161.19 201.422 161.466 201.784 161.832 202.034C161.832 202.034 163.503 204.216 167.75 204.08C167.75 204.08 168.812 204.548 169.026 204.459L168.003 203.155C168.003 203.155 167.082 203.949 166.097 203.792C166.097 203.792 167.979 203.226 167.862 202.953C167.838 202.897 167.288 202.286 167.288 202.286C167.288 202.286 165.682 203.659 164.167 203.371C164.167 203.371 166.503 202.997 167.082 202.052L166.2 201.162C166.2 201.162 164.588 202.704 162.847 202.431C162.847 202.431 165.273 201.957 166.006 200.981L165.023 200.24C165.023 200.24 163.408 201.705 161.964 201.476C161.964 201.476 164.714 200.643 164.788 200.083C164.788 200.083 163.844 199.457 163.514 199.413C163.514 199.413 162.338 200.439 161.502 200.231C161.502 200.231 163.267 199.478 163.235 199.271C163.235 199.271 161.791 198.784 160.929 198.93C161.715 198.758 162.532 198.796 163.3 199.039C163.082 198.591 162.74 198.215 162.314 197.96C162.314 197.96 163.211 197.85 163.647 199.146C163.647 199.146 164.758 199.57 164.864 199.739C164.864 199.739 164.617 198.384 164.047 197.664C164.047 197.664 165.053 198.147 165.129 199.914L166.135 200.637C166.135 200.637 165.9 198.829 165.438 198.159C165.438 198.159 166.391 198.814 166.373 200.827L167.256 201.675C167.256 201.675 167.173 200.101 166.817 199.247C166.817 199.247 167.57 200.044 167.497 201.915L168.015 202.553C168.015 202.553 167.932 201.405 167.879 201.07C167.826 200.735 167.909 200.703 167.909 200.703C168.21 201.361 168.323 202.091 168.235 202.811C168.235 202.811 169.212 204.255 169.294 204.21Z" fill="#2D47FE"/>
</g>
</g>
<defs>
<linearGradient id="paint0_linear" x1="16026.8" y1="82289.4" x2="16026.8" y2="36273.4" gradientUnits="userSpaceOnUse">
<stop stop-color="#808080" stop-opacity="0.25"/>
<stop offset="0.54" stop-color="#808080" stop-opacity="0.12"/>
<stop offset="1" stop-color="#808080" stop-opacity="0.1"/>
</linearGradient>
<clipPath id="clip0">
<rect width="338" height="224" fill="white"/>
</clipPath>
</defs>
</svg>
