<svg width="372" height="241" viewBox="0 0 372 241" fill="none" xmlns="http://www.w3.org/2000/svg">
<path d="M372 238.276H0V241H372V238.276Z" fill="#85848B"/>
<path d="M294.72 190.178C294.72 192.273 282.532 198.382 268.053 198.382C253.575 198.382 242.294 192.273 242.294 190.178C242.294 188.083 254.029 188.758 268.521 188.758C283.014 188.758 294.72 188.079 294.72 190.178Z" fill="#504F60"/>
<path opacity="0.2" d="M294.72 190.179C294.72 192.274 282.532 198.383 268.053 198.383C253.575 198.383 242.294 192.274 242.294 190.179" fill="black"/>
<path d="M148.913 151.729C151.263 152.031 153.701 152.223 155.952 151.491C156.306 151.381 156.696 151.136 156.661 150.781C156.635 150.652 156.581 150.53 156.501 150.426C155.653 149.151 154.94 147.79 154.375 146.366C154.352 146.292 154.306 146.227 154.244 146.182C154.17 146.155 154.09 146.155 154.017 146.182C152.978 146.455 152.082 147.126 151.05 147.414C150.524 147.558 149.975 147.599 149.434 147.535C148.966 147.481 148.328 147.094 147.903 147.144C148.144 148.696 148.732 150.145 148.913 151.729Z" fill="#2D47FE"/>
<path d="M193.354 147.798C194.903 146.732 196.509 145.614 197.423 143.969C197.489 143.871 197.526 143.757 197.533 143.639C197.518 143.523 197.472 143.413 197.402 143.319C196.531 141.932 195.41 140.719 194.095 139.743C193.409 140.228 192.79 140.802 192.252 141.448C191.862 141.86 190.785 142.513 190.774 143.142C190.774 143.497 191.185 143.909 191.377 144.207C191.635 144.591 191.88 144.981 192.114 145.379C192.249 145.575 193.478 147.72 193.354 147.798Z" fill="#2D47FE"/>
<path d="M158.124 156.485C158.152 156.851 158.052 157.215 157.841 157.515C157.675 157.682 157.471 157.804 157.245 157.87C153.96 159.049 150.157 157.579 146.878 158.74C146.205 158.978 145.567 159.322 144.89 159.55C144.083 159.793 143.25 159.941 142.409 159.99C141.25 160.1 140.084 160.171 138.921 160.203C138.038 160.266 137.151 160.188 136.292 159.972C135.862 159.862 135.461 159.663 135.113 159.387C134.766 159.111 134.48 158.765 134.275 158.371C134.097 158.018 134.061 157.609 134.176 157.231C134.227 157.101 134.3 156.981 134.392 156.875C134.614 156.626 134.875 156.413 135.165 156.247L136.373 155.466C136.94 155.064 137.556 154.737 138.206 154.492C138.684 154.336 139.191 154.269 139.676 154.137C141.374 153.64 142.671 152.291 143.876 150.994L145.521 149.236C145.675 149.043 145.87 148.886 146.092 148.778C146.32 148.702 146.562 148.679 146.8 148.711C148.398 148.825 149.94 149.343 151.284 150.216C151.627 150.475 151.998 150.694 152.39 150.87C153.354 151.246 154.591 150.962 155.48 150.486C155.902 150.259 155.81 150.131 155.987 149.726C156.164 149.322 156.597 149.062 156.973 149.432C157.086 149.559 157.166 149.713 157.206 149.879C157.561 151.051 157.426 152.312 157.426 153.541C157.416 153.733 157.44 153.925 157.497 154.109C157.588 154.294 157.696 154.47 157.82 154.635C157.845 154.678 157.867 154.723 157.887 154.769C158.104 155.314 158.185 155.902 158.124 156.485Z" fill="#514E7F"/>
<path d="M158.124 156.486C158.152 156.851 158.052 157.216 157.841 157.515C157.675 157.682 157.471 157.804 157.245 157.871C153.96 159.05 150.157 157.579 146.878 158.741C146.205 158.979 145.567 159.323 144.89 159.55C144.083 159.794 143.25 159.941 142.409 159.991C141.25 160.101 140.084 160.172 138.921 160.204C138.038 160.267 137.151 160.189 136.292 159.973C135.862 159.863 135.461 159.663 135.113 159.387C134.766 159.111 134.48 158.765 134.275 158.371C134.097 158.018 134.061 157.61 134.176 157.231C134.227 157.102 134.3 156.981 134.392 156.876C134.583 157.278 134.722 157.81 134.842 158.002C135.005 158.286 135.226 158.532 135.491 158.724C135.757 158.916 136.06 159.049 136.38 159.114C136.86 159.143 137.341 159.082 137.798 158.933C140.775 158.194 143.94 158.183 146.8 157.064C147.782 156.677 148.718 156.162 149.749 155.928C150.781 155.694 151.876 155.757 152.939 155.669C154.619 155.534 156.246 155.026 157.901 154.76C158.115 155.308 158.191 155.901 158.124 156.486Z" fill="#464353"/>
<path d="M200.879 147.581C200.723 148.831 199.933 149.907 199.064 150.82C198.196 151.733 197.214 152.553 196.523 153.604C195.672 154.908 195.29 156.524 194.184 157.625C193.759 158.025 193.282 158.365 192.766 158.637C192.188 158.979 191.576 159.261 190.941 159.478C189.289 160.008 187.51 159.887 185.784 159.759C185.224 159.754 184.669 159.646 184.146 159.443C183.909 159.322 183.681 159.182 183.466 159.024C183.033 158.757 182.669 158.392 182.403 157.958C182.272 157.723 182.235 157.446 182.3 157.184C182.399 156.896 182.568 156.637 182.793 156.431C183.181 156.027 183.598 155.65 184.04 155.305C184.647 154.913 185.194 154.435 185.663 153.885C185.952 153.45 186.164 152.97 186.291 152.464C186.542 151.578 186.695 150.667 186.748 149.747C186.746 149.136 186.809 148.527 186.936 147.929C187.198 146.991 187.893 146.153 187.815 145.184C187.783 145.045 187.796 144.9 187.85 144.768C187.933 144.665 188.048 144.594 188.176 144.566C188.718 144.349 189.289 144.217 189.87 144.172C190.162 144.151 190.454 144.196 190.727 144.303C190.999 144.41 191.244 144.576 191.444 144.789C191.685 145.081 191.845 145.5 192.199 145.613C192.375 145.661 192.559 145.669 192.738 145.635C193.61 145.546 194.531 145.436 195.219 144.871C195.537 144.586 195.792 144.237 195.969 143.848C196.146 143.458 196.24 143.037 196.247 142.609C196.247 142.286 196.101 141.948 196.601 141.899C196.977 141.849 197.274 142.254 197.466 142.502C198.157 143.429 198.866 144.399 199.125 145.528C199.225 145.489 199.332 145.469 199.44 145.468C199.661 145.466 199.879 145.517 200.076 145.618C200.273 145.719 200.443 145.866 200.571 146.047C200.853 146.505 200.962 147.049 200.879 147.581Z" fill="#514E7F"/>
<path d="M200.879 147.582C200.723 148.832 199.933 149.909 199.064 150.821C198.196 151.734 197.214 152.554 196.523 153.606C195.673 154.909 195.29 156.525 194.184 157.626C193.76 158.026 193.283 158.367 192.766 158.638C192.188 158.98 191.576 159.262 190.941 159.48C189.289 160.009 187.51 159.888 185.784 159.76C185.224 159.755 184.669 159.648 184.147 159.444C183.909 159.323 183.681 159.183 183.466 159.025C183.033 158.758 182.669 158.393 182.403 157.96C182.735 157.8 183.098 157.713 183.466 157.704C184.232 157.747 184.792 158.471 185.525 158.695C186.571 159.011 187.613 158.272 188.673 158.02C189.364 157.857 190.09 157.899 190.774 157.665C191.344 157.444 191.871 157.124 192.33 156.72C192.96 156.269 193.52 155.729 193.993 155.115C194.385 154.501 194.712 153.848 194.967 153.165C195.527 151.857 196.186 150.594 196.938 149.387C197.049 149.195 197.184 149.019 197.338 148.861C197.505 148.708 197.693 148.602 197.881 148.467C198.59 147.93 198.884 147.046 199.132 146.18C199.199 145.916 199.293 145.66 199.412 145.416C199.633 145.414 199.851 145.466 200.048 145.566C200.245 145.667 200.414 145.814 200.542 145.995C200.847 146.464 200.967 147.03 200.879 147.582Z" fill="#464353"/>
<path d="M126.559 36.8537C127.441 37.5161 128.167 38.3649 128.685 39.3398C129.181 40.3129 132.042 47.8633 131.875 48.9607C132.807 48.0196 136.483 47.8669 137.425 46.9257C137.819 46.5315 139.942 44.564 140.261 44.1058C140.58 43.6477 142.947 42.6852 143.206 42.2022C144.174 40.4656 136.344 33.8847 137.347 32.1693C137.403 32.0905 137.432 31.9958 137.429 31.8994C137.406 31.8184 137.361 31.7457 137.298 31.6899C136.656 31.0328 135.806 30.6244 135.033 30.1379C134.26 29.6513 133.516 28.973 133.307 28.078C132.57 28.4179 131.894 28.8761 131.305 29.4347C129.868 30.6682 128.456 31.9266 127.069 33.2099C126.527 33.7142 125.478 34.3854 125.226 35.1064C124.928 35.8806 126.041 36.4311 126.559 36.8537Z" fill="#A1616A"/>
<path d="M139.233 34.0587C138.032 34.8676 136.909 35.7879 135.88 36.8076C134.909 37.77 133.987 38.8852 133.753 40.2312C133.654 40.7604 133.668 41.2966 133.587 41.8329C133.232 44.1591 131.226 45.8638 130.34 48.0409C130.084 48.7128 129.895 49.4088 129.777 50.1185C129.528 51.4638 129.391 52.8276 129.369 54.1956C129.348 55.5203 130.645 56.433 131.12 57.669C131.595 58.9049 131.723 60.1763 131.964 61.4442C132.417 63.8379 133.25 66.1464 134.09 68.4406C135.837 73.2777 141.501 86.6491 143.249 91.4897C148.604 90.1437 162.859 87.0504 167.601 84.2127C169.182 83.2681 156.632 72.61 158.322 71.8749C158.419 71.8598 158.511 71.8224 158.591 71.7657C158.67 71.709 158.736 71.6344 158.782 71.548C158.828 71.4615 158.853 71.3655 158.856 71.2675C158.859 71.1696 158.839 71.0723 158.797 70.9835C157.107 63.5751 151.819 57.4878 149.419 50.2748C148.586 47.771 147.091 45.633 145.956 43.2535C144.929 41.0978 144.379 38.7147 143.149 36.6655C142.917 36.2433 142.614 35.8648 142.253 35.5468C141.946 35.3111 141.614 35.1098 141.264 34.9466C140.562 34.6056 139.91 34.4032 139.233 34.0587Z" fill="#514E7F"/>
<path d="M126.842 36.0125C131.472 36.0125 135.224 32.252 135.224 27.6132C135.224 22.9745 131.472 19.214 126.842 19.214C122.213 19.214 118.46 22.9745 118.46 27.6132C118.46 32.252 122.213 36.0125 126.842 36.0125Z" fill="#A1616A"/>
<path d="M135.37 31.5584C135.787 31.1723 136.312 30.9222 136.875 30.841C137.437 30.7598 138.011 30.8515 138.52 31.1038C139.088 31.3986 139.584 31.9952 139.456 32.6203L143.614 32.6842C144.275 32.6661 144.937 32.7269 145.584 32.8653C146.236 33.0075 146.817 33.373 147.229 33.8988C147.278 33.9663 147.335 34.048 147.42 34.0586C147.489 34.0597 147.557 34.0372 147.612 33.9947C148.251 33.6733 148.972 33.5497 149.681 33.6395C151.929 33.7852 154.005 34.911 155.767 36.3174C156.085 36.5362 156.331 36.8437 156.476 37.2017C156.621 37.674 156.447 38.2671 156.83 38.6045C156.83 42.5111 158.17 46.1621 159.063 49.9693C159.223 50.6476 159.871 51.2478 160.321 51.7805C160.877 52.3711 161.331 53.0505 161.665 53.7907C162.423 55.7653 161.378 58.0879 162.115 60.0697C162.427 60.9078 163.029 61.5968 163.532 62.3249C164.196 63.1655 164.615 64.1732 164.745 65.2371C164.777 65.713 164.716 66.1924 164.745 66.6577C164.792 67.2976 164.911 67.9301 165.099 68.5435C165.402 69.6895 165.718 70.8342 166.049 71.9778C166.588 73.8246 167.289 75.817 168.941 76.8007C164.954 77.479 160.75 78.1432 156.951 76.7545C156.421 76.5734 155.918 76.3213 155.455 76.0052C154.083 75.025 153.421 73.3487 152.829 71.7647C152.17 69.989 151.5 68.1813 151.365 66.2919C151.366 65.691 151.282 65.0929 151.113 64.5161C150.727 63.4862 149.696 62.8647 148.76 62.2929C147.703 61.7128 146.746 60.967 145.924 60.0839C145.517 59.6391 145.205 59.1152 145.007 58.5447C144.81 57.9741 144.731 57.369 144.776 56.7668C144.847 56.1808 145.077 55.6161 145.099 55.0266C145.12 54.437 144.858 53.7622 144.294 53.606C141.391 52.7252 140.006 49.2803 139.36 46.3112C139.082 44.7767 138.957 43.2182 138.988 41.6588L138.949 38.6294C138.549 38.2642 138.227 37.8212 138.002 37.3272C137.778 36.8333 137.657 36.2988 137.645 35.7562C137.684 35.4397 137.678 35.1193 137.627 34.8044C137.487 34.4195 137.259 34.0729 136.961 33.7923C136.32 33.1332 135.783 32.3799 135.37 31.5584Z" fill="#464353"/>
<path d="M126.442 41.161C126.346 42.0986 126.559 43.061 126.35 43.9809C126.268 44.336 126.126 44.6911 126.023 45.0214C125.709 46.3454 125.845 47.7365 126.41 48.9742C126.974 50.1998 127.649 51.3708 128.426 52.4724C128.69 52.8485 128.906 53.2552 129.072 53.6835C129.206 54.1333 129.289 54.5967 129.32 55.065C129.525 56.9457 129.854 58.8108 130.305 60.648C130.702 62.239 135.21 75.8412 136.259 77.102C136.45 77.3811 136.738 77.5778 137.067 77.6524C137.305 77.6614 137.541 77.6127 137.755 77.5104L139.882 76.6935C140.062 76.6381 140.23 76.5463 140.374 76.4236C140.573 76.1903 140.682 75.8926 140.679 75.5855C140.831 73.8524 136.312 60.1543 135.738 58.5171C134.002 53.5734 131.691 48.8073 130.56 43.6896C130.245 42.269 130.078 40.0813 129.04 38.9484C128.611 38.4796 128.756 38.6785 128.242 38.9235C127.982 39.0365 127.731 39.1682 127.491 39.3178C127.19 39.5273 126.94 39.8015 126.758 40.1204C126.577 40.4393 126.469 40.7948 126.442 41.161Z" fill="#464353"/>
<path d="M132.896 50.5404C133.467 53.5627 134.055 56.5779 134.64 59.6002L142.962 57.416C143.029 56.5424 142.565 55.7326 142.253 54.93C141.494 53.0228 141.477 50.8991 140.863 48.9386C140.399 47.447 139.591 46.0762 139.155 44.5739C138.903 43.7002 138.776 42.7981 138.528 41.9138C138.262 41.0454 137.935 40.1968 137.55 39.3745C137.082 38.1819 136.473 37.0502 135.735 36.0042C134.672 36.4019 133.537 36.8636 132.931 37.8261C132.621 38.3684 132.443 38.9771 132.414 39.6018C132.269 41.4734 132.946 43.3557 132.722 45.2167C132.492 46.989 132.551 48.7869 132.896 50.5404Z" fill="#2D47FE"/>
<path d="M143.1 90.7439C143.568 92.5196 142.891 94.3877 142.338 96.1457C141.505 98.7937 140.938 101.518 140.644 104.279C140.608 104.981 140.467 105.674 140.225 106.335C139.963 106.928 139.517 107.429 139.212 107.993C138.375 109.478 138.397 111.289 138.577 112.987C138.698 114.106 138.879 115.221 139.102 116.322C139.375 117.668 139.712 119.074 139.318 120.388C139.977 120.242 140.424 121.098 140.381 121.77C140.339 122.441 140.123 123.19 140.445 123.769C141.26 124.067 141.268 125.19 141.243 126.06C141.256 127.569 141.447 129.07 141.81 130.535C143.043 136.478 144.352 142.404 145.737 148.313C148.732 149.244 152.23 150.213 155.087 148.924C155.618 148.686 156.15 148.306 156.27 147.731C156.302 147.421 156.263 147.108 156.157 146.815L154.803 141.878C154.473 140.685 154.144 139.452 154.318 138.227C154.449 137.314 154.846 136.331 154.399 135.525C154.247 135.248 154.006 135.031 153.828 134.768C153.12 133.727 153.492 132.335 153.548 131.075C153.571 130.791 153.551 130.507 153.492 130.229C153.395 129.905 153.259 129.594 153.088 129.302C151.969 127.126 151.431 124.696 151.528 122.249C151.571 121.937 151.528 121.619 151.404 121.329C151.318 121.21 151.241 121.084 151.174 120.953C151.121 120.725 151.147 120.486 151.248 120.274C150.842 119.966 150.475 119.608 150.157 119.209C150.353 119.087 150.519 118.921 150.643 118.725C150.766 118.528 150.843 118.307 150.869 118.076C150.894 117.846 150.866 117.612 150.789 117.394C150.711 117.175 150.584 116.978 150.419 116.815C150.563 116.786 150.697 116.717 150.805 116.617C150.913 116.516 150.991 116.387 151.03 116.245C151.069 116.102 151.068 115.952 151.027 115.81C150.987 115.668 150.907 115.54 150.798 115.441C150.624 115.32 150.394 115.267 150.27 115.086C150.079 114.823 150.235 114.457 150.39 114.177L151.216 112.681C151.833 111.57 151.971 110.195 152.634 109.13C153.584 107.578 154.204 105.848 154.817 104.137L157.203 97.5414L158.808 98.9371C159.343 99.3465 159.791 99.8584 160.127 100.443C160.355 101.021 160.499 101.628 160.555 102.247C161.144 105.827 163.391 108.931 164.224 112.458C164.408 113.243 164.532 114.066 164.982 114.738C165.143 114.944 165.288 115.162 165.415 115.391C165.532 115.74 165.593 116.106 165.595 116.474C165.67 117.196 165.898 117.893 166.265 118.518C166.632 119.143 167.129 119.681 167.722 120.097C168.512 120.64 169.494 121.013 169.923 121.873C170.009 122.139 170.128 122.393 170.277 122.629C170.66 123.091 171.486 123.144 171.649 123.723C171.741 124.046 171.571 124.433 171.752 124.717C171.855 124.849 171.99 124.951 172.145 125.012L174.453 126.166C177.033 127.459 178.351 130.428 180.255 132.591C180.912 133.295 181.494 134.067 181.991 134.892C182.813 136.366 183.193 138.217 184.582 139.154C184.956 139.348 185.295 139.601 185.589 139.903C186.025 140.479 185.865 141.285 185.904 142.01C185.943 142.734 186.496 143.597 187.184 143.377C186.943 144.254 186.943 145.181 187.184 146.058C190.202 145.903 193.081 144.735 195.357 142.741C196.03 142.152 196.679 141.399 196.686 140.504C196.696 140.349 196.662 140.195 196.587 140.06C196.45 139.885 196.271 139.749 196.066 139.666C193.907 138.494 193.258 135.777 192.167 133.571C191.213 131.625 189.803 129.949 188.623 128.141C186.057 124.252 184.306 119.546 180.425 116.979C179.57 116.414 178.578 115.913 178.149 114.979C177.912 114.457 177.883 113.86 177.696 113.321C177.508 112.781 177.058 112.255 176.483 112.255C176.802 111.474 176.739 110.522 176.76 109.677C176.782 109.302 176.738 108.926 176.632 108.565C176.485 108.178 176.293 107.808 176.062 107.464C175.049 105.746 174.543 103.776 174.601 101.782C174.63 100.756 174.811 99.6972 174.502 98.717C174.346 98.2233 174.073 97.7723 173.885 97.2964C173.602 96.4341 173.453 95.5334 173.442 94.6257L173.23 91.2127C173.198 90.076 173.05 88.9456 172.79 87.8388C172.081 85.1894 171.373 74.091 168.945 72.8409C166.517 71.5907 162.345 80.132 159.613 80.299C158.404 80.3494 157.209 80.5804 156.068 80.9844C154.25 81.6663 152.726 82.9377 151.241 84.1807L146.215 88.4106C145.152 89.2878 144.273 90.1259 143.1 90.7439Z" fill="#464353"/>
<path d="M118.978 18.2866C120.084 16.7737 121.984 15.971 123.855 15.9036C125.726 15.8361 127.569 16.4256 129.246 17.2602C129.741 17.5422 130.269 17.7594 130.819 17.9066C131.706 18.0877 132.691 17.8462 133.492 18.2618C134.555 18.8264 134.761 20.2648 134.669 21.4581C134.576 22.6514 134.353 23.9761 134.988 25.0096C135.213 25.3043 135.417 25.614 135.601 25.9365C135.874 26.5509 135.714 27.2612 135.551 27.9111C135.136 27.556 134.902 27.0197 134.534 26.6077C134.165 26.1958 133.524 25.9187 133.067 26.2277C132.609 26.5367 132.616 27.0978 132.592 27.6021C132.567 28.1065 132.439 28.7102 131.964 28.8736C131.766 28.9188 131.559 28.9034 131.369 28.8293C131.179 28.7553 131.016 28.6259 130.901 28.4581C130.089 27.4636 130.415 25.8761 129.611 24.8746C129.154 24.3064 128.392 24.0294 127.97 23.4327C127.637 22.9639 127.552 22.3673 127.261 21.863C126.97 21.3586 126.293 20.9893 125.843 21.3373C125.69 21.4844 125.562 21.656 125.464 21.8452C125.183 22.2481 124.775 22.5443 124.306 22.6861C123.836 22.8279 123.333 22.8069 122.877 22.6265C122.528 22.4121 122.151 22.2483 121.757 22.14C121.499 22.127 121.242 22.1867 121.016 22.3122C120.79 22.4377 120.603 22.6241 120.477 22.8503C120.223 23.3022 120.1 23.8165 120.123 24.3348C120.123 25.0451 120.25 25.8015 119.846 26.3698C119.693 26.5837 119.5 26.7668 119.279 26.9096C118.687 27.2896 117.862 27.5453 117.316 27.112C117.131 26.9394 116.993 26.722 116.916 26.4806C116.839 26.2393 116.825 25.9822 116.876 25.7341C116.983 25.2398 117.122 24.7533 117.294 24.278C117.606 23.177 117.199 21.9375 117.539 20.9005C117.895 19.9666 118.38 19.0868 118.978 18.2866Z" fill="#464353"/>
<path d="M123.468 43.3432C123.415 43.6021 123.442 43.871 123.546 44.1139C123.652 44.2793 123.795 44.4169 123.964 44.5152C125.156 45.2592 126.512 45.6994 127.913 45.7973C128.103 45.8006 128.29 45.8493 128.459 45.9394C128.792 46.1596 128.813 46.6497 128.689 47.0403C128.524 47.4089 128.438 47.8083 128.437 48.2123C128.54 48.9546 129.419 49.2778 130.16 49.3879C131.198 49.5193 132.336 49.4518 133.158 48.8019C133.715 48.2928 134.14 47.6552 134.395 46.9444C136.43 42.26 137.142 37.082 139.201 32.4118C139.357 32.1068 139.462 31.778 139.51 31.4387C139.531 31.2688 139.507 31.0963 139.44 30.9389C139.373 30.7815 139.265 30.645 139.127 30.5437C138.744 30.3057 138.149 30.4407 137.89 30.0678C137.762 29.8796 137.777 29.6239 137.663 29.425C137.426 29.0024 136.802 29.0698 136.377 28.8248C136.043 28.6472 135.813 28.2814 135.441 28.2104C135.258 28.2 135.076 28.2325 134.908 28.3053C134.74 28.378 134.591 28.489 134.473 28.6294C133.265 29.7588 132.63 31.3605 131.957 32.8735C130.929 35.1926 129.725 37.4294 128.356 39.5645C128.515 39.3159 127.59 37.4336 127.229 37.3519C126.594 37.224 125.783 38.3392 125.439 38.7547C124.36 40.0654 123.676 41.6571 123.468 43.3432Z" fill="#2D47FE"/>
<path opacity="0.1" d="M136.345 29.1537C136.09 29.1579 135.84 29.2195 135.612 29.3339C135.385 29.4482 135.185 29.6124 135.03 29.8143C134.651 30.3079 134.576 30.9614 134.48 31.59C134.158 33.5816 133.449 35.4904 132.393 37.2084" fill="black"/>
<path opacity="0.1" d="M138.152 30.5707C137.801 30.5785 137.458 30.6779 137.156 30.8592C136.855 31.0404 136.606 31.2971 136.433 31.6042C136.199 32.1628 136.053 32.7548 136.001 33.3586C135.697 34.6973 135.111 35.9555 134.282 37.0486" fill="black"/>
<path d="M222.385 100.003V95.5923C222.385 92.3452 221.097 89.2314 218.805 86.9357C216.513 84.64 213.405 83.3503 210.165 83.3503H36.3217C33.0812 83.3503 29.9734 84.64 27.6816 86.9357C25.3899 89.2314 24.102 92.3452 24.101 95.5923V103.725L222.385 100.003Z" fill="#33323D"/>
<path d="M84.6836 78.1795C84.6836 78.1795 84.1874 109.028 89.6455 119.178C95.1037 129.328 97.4429 173.483 97.4429 173.483C97.4429 173.483 154.662 179.414 194.535 166.381C234.408 153.347 319.251 148.016 319.251 148.016L304.953 51.4546C304.953 51.4546 234.319 46.9158 194.138 66.1186C153.956 85.3215 84.6836 78.1795 84.6836 78.1795Z" fill="#8DD070"/>
<path opacity="0.1" d="M84.6836 78.1795C84.6836 78.1795 84.1874 109.028 89.6455 119.178C95.1037 129.328 97.4429 173.483 97.4429 173.483C97.4429 173.483 154.662 179.414 194.535 166.381C234.408 153.347 319.251 148.016 319.251 148.016L304.953 51.4546C304.953 51.4546 234.319 46.9158 194.138 66.1186C153.956 85.3215 84.6836 78.1795 84.6836 78.1795Z" fill="black"/>
<path d="M97.3473 89.4474C97.3473 89.4474 95.5574 114.901 100.048 123.034C104.539 131.167 104.748 167.473 104.748 167.473C104.748 167.473 156.242 169.867 192.873 157.373C229.503 144.879 306.477 136.774 306.477 136.774L297.73 57.8073C297.73 57.8073 234.039 57.1502 196.867 74.7372C159.695 92.3241 97.3473 89.4474 97.3473 89.4474Z" fill="#8DD070"/>
<path opacity="0.1" d="M196.301 142.916C203.628 142.001 207.981 128.495 206.023 112.749C204.066 97.0023 196.54 84.9787 189.213 85.8932C181.886 86.8076 177.533 100.314 179.49 116.06C181.448 131.806 188.974 143.83 196.301 142.916Z" fill="black"/>
<path opacity="0.2" d="M266.228 4.41492C266.228 4.41492 197.607 21.8172 165.248 52.4487C132.889 83.0802 64.7679 97.5845 64.7679 97.5845C64.7679 97.5845 73.742 127.094 82.0427 135.077C90.3434 143.061 106.087 184.372 106.087 184.372C106.087 184.372 162.36 172.418 196.314 147.742C230.268 123.066 309.401 91.9021 309.401 91.9021L266.228 4.41492Z" fill="black"/>
<path d="M63.7367 93.166C63.7367 93.166 72.7073 122.679 81.0009 130.663C89.2945 138.646 105.045 179.954 105.045 179.954C105.045 179.954 161.325 168.003 195.282 143.327C229.24 118.651 308.366 87.4979 308.366 87.4979L265.193 0C265.193 0 196.576 17.4023 164.217 48.0338C131.858 78.6653 63.7367 93.166 63.7367 93.166Z" fill="#8DD070"/>
<path opacity="0.1" d="M63.7367 93.166C63.7367 93.166 72.7073 122.679 81.0009 130.663C89.2945 138.646 105.045 179.954 105.045 179.954C105.045 179.954 161.325 168.003 195.282 143.327C229.24 118.651 308.366 87.4979 308.366 87.4979L265.193 0C265.193 0 196.576 17.4023 164.217 48.0338C131.858 78.6653 63.7367 93.166 63.7367 93.166Z" fill="black"/>
<path d="M79.2286 99.9996C79.2286 99.9996 85.3212 124.778 92.0873 131.135C98.8533 137.493 110.163 171.977 110.163 171.977C110.163 171.977 159.903 158.418 190.941 135.262C221.978 112.107 292.764 80.7576 292.764 80.7576L260.26 8.26477C260.26 8.26477 199.443 27.219 169.448 55.3894C139.453 83.5598 79.2286 99.9996 79.2286 99.9996Z" fill="#8DD070"/>
<path opacity="0.1" d="M189.794 120.458C196.487 117.335 196.494 103.142 189.809 88.7568C183.124 74.3721 172.279 65.2428 165.585 68.366C158.892 71.4892 158.885 85.6823 165.57 100.067C172.255 114.452 183.1 123.581 189.794 120.458Z" fill="black"/>
<path opacity="0.1" d="M227.078 104.332V226.858C227.078 228.249 226.805 229.627 226.273 230.913C225.741 232.198 224.962 233.366 223.98 234.35C222.998 235.334 221.832 236.114 220.549 236.646C219.266 237.179 217.891 237.452 216.502 237.452H34.6807C31.8773 237.451 29.189 236.334 27.2071 234.348C25.2251 232.361 24.1117 229.667 24.1117 226.858V91.9795C29.3218 93.9186 29.3218 93.9186 34.6807 93.7552H216.502C219.303 93.7552 221.99 94.8688 223.973 96.8517C225.956 98.8345 227.073 101.525 227.078 104.332Z" fill="black"/>
<path d="M227.078 105.892V228.418C227.077 231.228 225.963 233.923 223.979 235.909C221.996 237.896 219.306 239.012 216.502 239.012H34.6807C31.8773 239.011 29.189 237.894 27.2071 235.908C25.2251 233.921 24.1117 231.227 24.1117 228.418V93.5361C29.3218 95.4717 29.3218 95.4717 34.6807 95.3119H216.502C219.304 95.3119 221.991 96.426 223.974 98.4096C225.957 100.393 227.073 103.084 227.078 105.892Z" fill="#504F60"/>
<path opacity="0.1" d="M226.561 151.19V190.373H188.637C183.497 190.304 178.591 188.209 174.981 184.543C171.371 180.876 169.346 175.932 169.346 170.781C169.346 165.631 171.371 160.687 174.981 157.02C178.591 153.354 183.497 151.259 188.637 151.19H226.561Z" fill="black"/>
<path d="M227.078 150.146V189.337H189.154C184.014 189.268 179.108 187.173 175.498 183.506C171.888 179.84 169.864 174.896 169.864 169.745C169.864 164.595 171.888 159.651 175.498 155.984C179.108 152.318 184.014 150.223 189.154 150.154L227.078 150.146Z" fill="#33323D"/>
<path opacity="0.1" d="M190.973 178.424C195.184 178.424 198.597 175.003 198.597 170.784C198.597 166.565 195.184 163.145 190.973 163.145C186.763 163.145 183.349 166.565 183.349 170.784C183.349 175.003 186.763 178.424 190.973 178.424Z" fill="black"/>
<path d="M191.49 177.387C195.701 177.387 199.114 173.967 199.114 169.747C199.114 165.528 195.701 162.108 191.49 162.108C187.28 162.108 183.867 165.528 183.867 169.747C183.867 173.967 187.28 177.387 191.49 177.387Z" fill="#2D47FE"/>
<path d="M292.906 149.809C293.207 153.08 290.737 156.255 291.457 159.459C291.613 160.144 291.907 160.791 292.013 161.483C292.311 163.387 291.18 165.187 290.099 166.778L280.813 180.43C280.441 181.03 279.996 181.582 279.488 182.071C277.715 183.655 275.05 183.492 272.718 183.964C271.079 184.297 269.531 184.983 268.181 185.974C268.125 186.022 268.089 186.091 268.081 186.165C268.073 186.238 268.094 186.313 268.139 186.372C268.524 186.898 269.035 187.319 269.624 187.596C270.214 187.873 270.863 187.998 271.513 187.959C271.758 188.283 271.513 188.755 271.159 188.986C270.659 189.341 269.975 189.426 269.876 190.271C269.84 190.566 269.9 190.865 270.046 191.124C270.42 191.698 271.002 192.104 271.669 192.257C274.884 193.24 278.357 191.511 280.764 189.156C283.17 186.802 284.896 183.829 287.257 181.432C288.564 180.107 290.05 178.971 291.396 177.685C294.083 175.121 296.171 172.003 298.187 168.881C298.793 167.94 299.403 166.974 299.658 165.883C299.913 164.793 299.793 163.692 300.08 162.637C300.456 161.252 301.466 160.151 302.306 158.99C303.954 156.717 305.052 153.936 304.836 151.138C304.62 148.339 302.887 145.572 300.25 144.621C299.433 144.292 298.531 144.237 297.68 144.464C296.599 144.798 295.802 145.693 295.065 146.549L293.293 148.591C292.851 149.039 292.501 149.57 292.265 150.154C292.151 150.447 292.124 150.766 292.187 151.074C292.25 151.382 292.4 151.666 292.619 151.891" fill="#FBBEBE"/>
<path opacity="0.05" d="M292.906 149.809C293.207 153.08 290.737 156.255 291.457 159.459C291.613 160.144 291.907 160.791 292.013 161.483C292.311 163.387 291.18 165.187 290.099 166.778L280.813 180.43C280.441 181.03 279.996 181.582 279.488 182.071C277.715 183.655 275.05 183.492 272.718 183.964C271.079 184.297 269.531 184.983 268.181 185.974C268.125 186.022 268.089 186.091 268.081 186.165C268.073 186.238 268.094 186.313 268.139 186.372C268.524 186.898 269.035 187.319 269.624 187.596C270.214 187.873 270.863 187.998 271.513 187.959C271.758 188.283 271.513 188.755 271.159 188.986C270.659 189.341 269.975 189.426 269.876 190.271C269.84 190.566 269.9 190.865 270.046 191.124C270.42 191.698 271.002 192.104 271.669 192.257C274.884 193.24 278.357 191.511 280.764 189.156C283.17 186.802 284.896 183.829 287.257 181.432C288.564 180.107 290.05 178.971 291.396 177.685C294.083 175.121 296.171 172.003 298.187 168.881C298.793 167.94 299.403 166.974 299.658 165.883C299.913 164.793 299.793 163.692 300.08 162.637C300.456 161.252 301.466 160.151 302.306 158.99C303.954 156.717 305.052 153.936 304.836 151.138C304.62 148.339 302.887 145.572 300.25 144.621C299.433 144.292 298.531 144.237 297.68 144.464C296.599 144.798 295.802 145.693 295.065 146.549L293.293 148.591C292.851 149.039 292.501 149.57 292.265 150.154C292.151 150.447 292.124 150.766 292.187 151.074C292.25 151.382 292.4 151.666 292.619 151.891" fill="black"/>
<path d="M299.934 234.013C297.907 235.253 295.38 235.328 293.023 235.04C292.644 234.994 292.193 234.965 291.96 235.26C291.605 235.686 292.023 236.326 292.456 236.656C293.846 237.702 295.479 238.375 297.201 238.613C298.739 238.831 300.291 238.934 301.844 238.922C306.098 238.996 310.351 239.067 314.537 238.456C314.784 238.438 315.026 238.367 315.245 238.25C315.515 238.061 315.703 237.775 315.77 237.451C316.057 236.357 315.504 235.185 314.668 234.425C313.831 233.665 312.757 233.243 311.708 232.834L308.022 231.396C307.157 231.059 305.772 230.164 304.832 230.235C303.067 230.363 301.398 233.154 299.934 234.013Z" fill="#3F3D56"/>
<path opacity="0.05" d="M299.934 234.013C297.907 235.253 295.38 235.328 293.023 235.04C292.644 234.994 292.193 234.965 291.96 235.26C291.605 235.686 292.023 236.326 292.456 236.656C293.846 237.702 295.479 238.375 297.201 238.613C298.739 238.831 300.291 238.934 301.844 238.922C306.098 238.996 310.351 239.067 314.537 238.456C314.784 238.438 315.026 238.367 315.245 238.25C315.515 238.061 315.703 237.775 315.77 237.451C316.057 236.357 315.504 235.185 314.668 234.425C313.831 233.665 312.757 233.243 311.708 232.834L308.022 231.396C307.157 231.059 305.772 230.164 304.832 230.235C303.067 230.363 301.398 233.154 299.934 234.013Z" fill="black"/>
<path d="M302.518 184.983C300.984 187.029 299.396 189.39 299.775 191.922C299.981 193.286 300.743 194.49 301.303 195.751C302.061 197.463 302.458 199.302 302.848 201.135C303.422 203.813 304 206.498 304.351 209.218C304.751 212.29 302.869 221.18 302.696 224.273C302.653 225.019 302.564 225.825 302.047 226.361C301.845 226.574 301.576 226.745 301.483 227.022C301.429 227.289 301.473 227.566 301.607 227.803C302.472 229.756 304.241 231.213 306.215 232.044C308.189 232.875 312.949 234.309 315.1 234.384C315.384 234.415 315.671 234.378 315.937 234.274C316.223 234.099 316.448 233.84 316.582 233.532C318.124 230.577 316.642 220.072 316.663 216.737C316.685 213.956 317.34 211.193 317.22 208.416C317.121 206.185 316.511 204.005 316.309 201.781C315.955 198.138 316.621 194.476 317.291 190.875C317.801 188.112 318.315 185.349 318.971 182.621C319.371 180.955 319.836 179.276 320.743 177.83C321.452 176.683 322.448 175.724 323.274 174.634C325.566 171.623 326.584 167.829 326.109 164.072C326.059 163.717 320.793 165.411 320.328 165.613C318.434 166.417 316.691 167.54 315.175 168.934C313.956 170.099 312.995 171.654 311.928 172.958C310.418 174.802 308.928 176.659 307.455 178.53C305.776 180.668 304.13 182.819 302.518 184.983Z" fill="#464353"/>
<path opacity="0.05" d="M302.518 184.858C300.984 186.903 299.396 189.269 299.775 191.797C299.981 193.164 300.743 194.368 301.303 195.629C302.061 197.337 302.458 199.181 302.848 201.01C303.422 203.691 304 206.376 304.351 209.093C304.751 212.168 302.869 221.054 302.696 224.148C302.653 224.893 302.564 225.703 302.047 226.239C301.845 226.449 301.576 226.619 301.483 226.896C301.429 227.163 301.473 227.441 301.607 227.678C302.472 229.635 304.241 231.087 306.215 231.94C308.189 232.792 312.949 233.534 315.101 233.605C315.384 233.637 315.671 233.599 315.937 233.495C316.224 233.322 316.449 233.064 316.582 232.756C318.124 229.802 316.642 219.971 316.664 216.633C316.685 213.848 317.34 211.089 317.22 208.308C317.121 206.078 316.511 203.897 316.309 201.677C315.955 198.03 316.621 194.368 317.291 190.767C317.801 188.008 318.315 185.245 318.971 182.514C319.371 180.848 319.836 179.168 320.743 177.723C321.452 176.576 322.448 175.617 323.274 174.526C325.566 171.515 326.585 167.721 326.109 163.964C326.059 163.609 320.793 165.303 320.328 165.506C318.434 166.312 316.692 167.436 315.175 168.83C313.956 169.991 312.995 171.547 311.928 172.85C310.419 174.694 308.928 176.553 307.456 178.426C305.776 180.547 304.13 182.691 302.518 184.858Z" fill="black"/>
<path d="M285.442 139.928C290.193 139.928 294.044 136.069 294.044 131.309C294.044 126.548 290.193 122.689 285.442 122.689C280.691 122.689 276.84 126.548 276.84 131.309C276.84 136.069 280.691 139.928 285.442 139.928Z" fill="#FBBEBE"/>
<path d="M293.19 130.947C293.984 132.217 295.026 133.314 296.253 134.172C297.48 135.03 298.867 135.631 300.331 135.94L299.683 138.302C298.563 142.358 297.304 146.648 294.178 149.461C294.533 148.087 294.079 146.62 293.306 145.427C292.534 144.233 291.449 143.296 290.386 142.369L285.435 138.071C285.292 137.955 285.172 137.813 285.08 137.652C284.958 137.349 284.958 137.011 285.08 136.708C285.711 134.74 287.512 133.511 288.979 132.183C289.715 131.496 290.373 130.729 290.939 129.896C291.928 128.482 292.541 129.903 293.19 130.947Z" fill="#FBBEBE"/>
<path d="M274.111 122.643L273.916 121.024C275.274 121.379 276.564 120.221 277.432 119.024C278.3 117.827 279.105 116.417 280.427 115.917C282.032 115.313 283.734 116.272 285.268 117.081C286.987 118.037 288.872 118.652 290.822 118.893C291.133 118.903 291.442 118.953 291.74 119.042C292.74 119.397 293.215 120.654 293.36 121.794C293.505 122.934 293.466 124.145 293.959 125.161C294.313 125.932 294.973 126.504 295.377 127.264C296.44 129.302 295.412 132.09 296.521 134.09L293.764 131.557C293.512 131.326 293.158 131.085 292.878 131.28C292.658 131.437 292.64 131.774 292.552 132.044C292.286 132.832 291.301 133.067 290.588 132.754C289.876 132.442 289.355 131.763 288.816 131.145C287.597 129.703 286.144 128.436 284.443 127.821C283.697 127.542 282.9 127.425 282.106 127.477C281.312 127.53 280.538 127.751 279.835 128.127C278.548 128.855 277.606 130.552 276.028 130.613C273.866 130.694 272.966 126.66 271.967 125.065C272.333 124.789 272.59 124.394 272.693 123.947C272.797 123.5 272.741 123.031 272.534 122.622C272.679 122.561 274.079 122.395 274.111 122.643Z" fill="#464353"/>
<path d="M167.715 72.2513C167.024 72.8673 166.385 73.5397 165.805 74.2615C165.221 74.9933 164.91 75.9065 164.926 76.8434C164.929 77.1151 165.016 77.3793 165.174 77.5999C165.255 77.7054 165.367 77.7831 165.494 77.8219C165.621 77.8607 165.757 77.8588 165.883 77.8165C166.025 77.7437 166.147 77.6363 166.237 77.504C166.612 77.0529 167.01 76.6214 167.428 76.2112C167.581 76.0585 167.783 75.8987 167.988 75.9555C168.08 75.9883 168.163 76.0431 168.229 76.1153C168.468 76.3219 168.641 76.5933 168.729 76.8967C168.853 77.44 168.538 77.9834 168.18 78.4096C167.822 78.8358 167.4 79.2442 167.255 79.7805C167.2 79.9221 167.2 80.0792 167.255 80.2209C167.323 80.3233 167.419 80.4045 167.531 80.4552C168.039 80.7353 168.601 80.9001 169.18 80.9382C169.758 80.9762 170.337 80.8865 170.877 80.6755C171.586 80.3878 172.217 79.8941 172.947 79.6384C173.263 79.5517 173.569 79.4327 173.861 79.2833C174.07 79.144 174.249 78.9646 174.389 78.7555C174.528 78.5465 174.625 78.3118 174.673 78.0651C174.765 77.5722 174.783 77.0682 174.726 76.5699C174.638 74.6406 174.225 72.74 173.507 70.9479C173.465 70.8323 173.394 70.7296 173.301 70.6496C173.195 70.5845 173.072 70.5512 172.947 70.5537C172.039 70.4578 170.551 69.9926 169.675 70.33C169.369 70.4982 169.105 70.7338 168.903 71.019C168.74 71.2001 167.715 72.0134 167.715 72.2513Z" fill="#A1616A"/>
<path d="M167.428 71.4492C167.428 70.5826 166.364 68.4908 168.055 68.3523C168.055 67.4253 166.747 66.85 166.992 65.8662C167.07 65.5395 167.346 65.2731 167.378 64.9393C167.484 63.9911 165.776 63.4761 166.06 62.5669C166.166 62.2118 166.542 62.0058 166.623 61.6542C166.814 60.8338 165.351 60.468 165.322 59.6263C165.322 59.3422 165.482 59.0758 165.468 58.7917C165.468 58.4365 165.159 58.1666 164.989 57.8577C164.546 57.0657 164.762 55.8404 163.954 55.432C164.489 55.4782 164.663 54.6826 164.443 54.1961C164.224 53.7095 163.773 53.2869 163.77 52.7471C163.796 52.5515 163.796 52.3531 163.77 52.1575C163.621 51.639 162.774 51.5964 162.632 51.0921C162.614 50.8985 162.608 50.704 162.614 50.5096C162.558 50.1083 162.147 49.8526 161.76 49.739C161.359 49.6707 160.973 49.5325 160.619 49.3306C160.371 49.1423 160.084 48.8298 159.818 48.9754C159.719 49.0358 159.669 49.1494 159.595 49.2347C159.276 49.6076 158.666 49.4442 158.266 49.1707C157.082 48.3645 156.494 46.9191 156.242 45.5092C155.99 44.0992 155.997 42.6431 155.682 41.2474C155.586 40.8124 155.458 40.3851 155.299 39.9689C155.164 39.6137 154.732 39.0561 154.704 38.6974C154.64 37.8806 156.327 38.4382 156.968 38.5198C157.591 38.5808 158.207 38.6997 158.808 38.875C159.449 39.1178 160.077 39.394 160.69 39.7025C163.249 40.8354 166.34 40.9739 168.395 42.8775C169.072 43.5026 169.643 44.323 170.522 44.6071C170.925 44.6845 171.323 44.7877 171.713 44.9161C172.687 45.3742 172.84 46.6705 173.371 47.6081C173.538 47.8557 173.684 48.1171 173.807 48.3894C173.91 48.7106 173.958 49.0467 173.949 49.3838L174.024 51.845C174.144 55.9683 174.265 60.1022 173.825 64.2006C173.683 65.5537 173.471 66.9459 173.871 68.2457C173.977 68.6009 174.126 68.9347 174.226 69.2934C174.313 69.714 174.358 70.1423 174.36 70.572L174.417 72.1666C174.437 72.2906 174.409 72.4174 174.339 72.5217C174.28 72.5699 174.21 72.6042 174.136 72.622C174.062 72.6399 173.985 72.6408 173.91 72.6247C171.695 72.4258 169.455 71.1757 167.364 71.9322" fill="#464353"/>
<path d="M268.518 193.974C282.995 193.974 294.731 192.274 294.731 190.178C294.731 188.081 282.995 186.381 268.518 186.381C254.041 186.381 242.305 188.081 242.305 190.178C242.305 192.274 254.041 193.974 268.518 193.974Z" fill="#504F60"/>
<path d="M291.07 190.362C290.609 188.384 290.322 186.648 290.322 186.648C290.322 186.648 290.428 184.495 289.464 182.879V182.34V178.362C289.739 177.64 290.074 176.942 290.467 176.277C291.176 175.027 290.467 170.446 290.467 170.446C290.467 170.446 287.82 163.985 288.461 159.887C289.103 155.789 283.024 141.689 283.024 141.689C283.062 140.33 283.253 138.978 283.595 137.662C283.66 137.385 283.686 137.101 283.673 136.817C283.673 136.781 283.673 136.749 283.673 136.714C283.673 136.678 283.673 136.735 283.673 136.746C283.581 134.043 281.447 128.979 281.447 128.979L281.734 119.326C281.734 119.326 283.095 113.643 280.877 105.99C280.1 103.323 279.604 101.188 279.289 99.5403C279.253 99.3556 279.218 99.1852 279.19 99.004C283.758 98.2937 287.249 97.7255 287.249 97.7255C287.249 97.7255 284.598 86.6129 282.808 84.6667C281.018 82.7205 279.586 76.6084 279.586 76.6084C279.586 76.6084 278.654 68.7632 280.161 66.4689C281.667 64.1746 281.88 60.2183 281.88 60.2183C281.88 60.2183 285.314 57.7322 285.746 56.6064C286.179 55.4806 286.891 52.9946 286.891 51.677C286.891 50.3594 286.462 49.1909 286.604 48.4806C286.746 47.7703 285.601 45.1458 286.175 43.8957C286.324 43.5117 286.401 43.1036 286.402 42.6917C286.403 42.6799 286.403 42.668 286.402 42.6562C286.407 41.5622 286.307 40.4703 286.101 39.396C285.107 38.5553 283.948 37.9345 282.698 37.574L282.624 37.2757L282.429 36.4944C282.32 36.4223 282.208 36.3559 282.092 36.2955V36.0114L282.06 34.882L282.599 32.3463C283.662 27.9353 277.782 27.2783 277.782 27.2783C277.426 26.6017 276.833 26.0807 276.117 25.8151C274.936 25.3996 275.922 32.4493 276.471 32.918C276.886 33.2732 278.169 35.468 278.789 36.5548L278.888 36.7323C278.791 36.8198 278.701 36.9148 278.619 37.0165L278.842 38.5471L278.878 38.7815C278.488 39.2665 278.171 39.8061 277.938 40.3833C277.938 40.3833 279.002 41.5624 278.8 42.8693C278.598 44.1762 279.129 45.8348 279.154 45.9236C279.09 45.849 278.335 45.0321 277.58 45.231C276.825 45.4299 274.717 46.0656 274.717 46.0656C274.717 46.0656 273.143 46.3426 273.299 46.6907C273.455 47.0387 272.236 48.5659 272.236 48.5659L268.004 44.5456C267.961 44.4248 267.915 44.3041 267.88 44.1905C267.707 43.6108 267.588 43.0163 267.525 42.4147C267.987 42.3049 268.439 42.1612 268.879 41.985C269.324 41.832 269.725 41.5737 270.049 41.2321C270.478 40.7242 270.559 40.0352 270.733 39.403C271.066 38.1671 271.796 37.0697 272.303 35.8942C273.161 33.9078 273.438 31.7177 273.1 29.5797C273.035 28.9208 272.813 28.2873 272.452 27.7329C271.761 26.7811 270.506 26.394 269.595 25.634C268.684 24.8739 268.096 23.7126 267.033 23.1479C266.072 22.633 264.906 22.6933 263.822 22.8709C261.703 23.2209 259.669 23.9628 257.821 25.0586C257.204 25.4138 256.524 25.8506 255.815 25.7192C255.205 25.6091 254.752 25.1225 254.369 24.6537C254.373 24.6343 254.379 24.6153 254.387 24.5969C254.369 24.5796 254.354 24.5606 254.341 24.5401C253.892 25.5375 253.667 26.6212 253.681 27.7151C253.681 27.8856 253.681 28.0703 253.703 28.223V28.4006C253.703 28.4503 253.703 28.5 253.703 28.5462C253.702 28.6219 253.692 28.6972 253.671 28.7699C253.581 28.9872 253.446 29.1823 253.274 29.3417C253.144 29.4898 253.025 29.6477 252.919 29.814C252.919 29.7572 252.955 29.7004 252.976 29.64C252.706 30.0355 252.553 30.4999 252.537 30.9789C252.517 31.3277 252.631 31.6708 252.856 31.9378C253.068 32.1443 253.299 32.3298 253.547 32.4919C253.462 32.9607 253.42 33.4361 253.419 33.9125C253.427 35.3247 253.799 36.711 254.498 37.9373C255.197 39.1635 256.2 40.1883 257.41 40.9124C257.46 41.0296 257.506 41.1504 257.552 41.2676C258.094 42.6882 258.502 44.3574 258.321 45.8845C258.321 45.9946 258.289 46.1082 258.271 46.2183C258.253 46.3284 258.165 46.3355 258.119 46.3959C258.119 46.3959 251.126 46.4669 249.481 44.9753C247.837 43.4837 245.328 48.6227 245.328 48.6227C245.328 48.6227 242.822 49.1093 242.318 48.6227C241.815 48.1361 238.884 48.5552 238.884 48.5552C237.683 47.4851 236.12 46.9136 234.514 46.9571C233.541 46.2158 232.466 45.6179 231.324 45.1813L231.246 45.1529C230.742 44.9688 230.203 44.9008 229.669 44.954C229.669 44.954 226.231 42.1128 225.228 40.5786C224.225 39.0444 219.451 33.3797 219.429 33.3549V33.0814L219.376 32.2575C219.234 32.2798 219.091 32.2916 218.947 32.293C218.923 32.2113 218.887 32.1154 218.852 32.0053C218.577 31.2016 218.238 30.4214 217.838 29.672C217.838 29.672 217.838 28.6314 218.139 28.3686C218.441 28.1058 218.015 24.2879 218.015 24.2879C218.015 24.2879 214.918 17.0323 212.142 22.4483C212.142 22.4483 206.897 25.9536 211.299 30.0378C211.299 30.0378 213.071 30.8902 213.305 31.5649C213.468 32.0018 214.063 33.227 214.464 34.051L214.645 34.4061L214.595 34.4487L214.659 35.1306L214.687 35.3934C213.858 35.8658 213.294 36.3346 213.433 36.6862C213.677 37.2878 213.845 37.9178 213.932 38.5613C213.932 38.5613 220.021 46.2041 220.808 49.4679C220.808 49.4679 237.137 59.1919 242.506 59.8844L241.556 64.7322C241.418 66.0477 241.347 67.3694 241.344 68.6921C241.415 69.7327 240.699 74.4562 240.699 74.4562C240.699 74.4562 239.767 81.4029 238.98 82.376C238.193 83.3491 238.335 87.515 238.335 87.515C238.149 89.5093 237.793 91.484 237.271 93.4175C236.485 96.0563 237.055 99.3237 237.055 99.3237C237.055 99.3237 234.337 105.574 240.851 101.337C240.851 101.337 244.041 101.138 247.734 101.011C247.734 101.131 247.734 101.256 247.734 101.366C247.734 101.842 247.734 102.357 247.709 102.896C247.66 106.476 247.638 111.42 247.801 115.142C248.088 121.741 250.095 134.799 250.095 134.799V141.373C249.965 141.99 249.901 142.618 249.903 143.248C249.861 145.561 250.475 147.839 251.675 149.815L252.179 154.191C252.179 154.191 253.355 157.074 253.377 158.807C253.372 158.947 253.355 159.086 253.327 159.223C253.281 159.444 253.262 159.669 253.27 159.894C253.203 161.883 254.397 166.642 254.397 166.642C254.397 166.642 254.468 171.433 255.184 171.714C255.797 171.951 254.365 174.473 253.94 175.198C253.929 175.153 253.92 175.108 253.915 175.063L253.827 175.205C253.679 175.592 253.603 176.004 253.603 176.419C253.563 176.746 253.616 177.078 253.757 177.376C253.897 177.674 254.119 177.926 254.397 178.103C255.758 178.937 256.488 179.63 255.333 179.907C254.908 179.973 254.487 180.062 254.071 180.173C254.071 180.12 254.029 180.063 254.011 180.013C253.848 180.077 253.712 180.195 253.626 180.348C253.54 180.501 253.51 180.679 253.54 180.851C253.551 181.415 253.695 181.968 253.961 182.464C255.106 185.035 255.9 186.015 255.9 186.015L256.449 185.955C256.368 186.165 256.261 186.365 256.13 186.548C255.921 186.846 255.644 187.089 255.322 187.258C255.022 187.438 254.688 187.553 254.341 187.596C253.952 187.608 253.571 187.703 253.222 187.873C252.873 188.043 252.563 188.285 252.313 188.583C251.604 189.51 251.151 190.771 252.561 191.879L257.683 193.655C257.683 193.655 266.494 194.802 266.026 192.82C265.558 190.838 265.275 189.105 265.275 189.105C265.313 187.895 265.07 186.693 264.566 185.593C264.473 185.413 264.369 185.24 264.254 185.074L264.566 185.042C264.566 185.042 265.211 180.663 266.069 179.832C266.267 179.64 266.313 179.477 266.267 179.378C266.356 179.14 266.129 179.001 265.842 178.919L265.778 179.093C265.497 179.032 265.211 179 264.924 178.998C264.924 178.998 264.637 176.707 265.569 175.872C265.644 175.777 265.699 175.668 265.73 175.55C265.761 175.433 265.768 175.31 265.75 175.19C265.757 174.876 265.723 174.562 265.65 174.256C265.641 174.276 265.63 174.295 265.618 174.313C265.151 172.232 263.563 168.926 263.563 168.926C263.563 168.926 263.492 166.844 264.066 166.01C264.64 165.175 263.992 154.688 263.992 154.688C263.992 154.688 264.208 149.62 263.563 147.258C262.918 144.896 264.35 142.115 264.35 142.115C264.35 142.115 264.35 142.062 264.35 141.966V141.931L264.268 141.132C264.266 141.148 264.266 141.165 264.268 141.181C264.123 139.839 263.85 137.406 263.648 136.284C263.361 134.686 263.722 127.05 263.722 127.05L265.009 123.783L267.302 129.412L269.737 136.913C269.737 136.913 270.942 138.496 270.97 140.109C270.97 140.187 270.97 140.265 270.97 140.343C270.951 140.509 270.941 140.677 270.942 140.844C270.899 141.792 271.158 142.728 271.683 143.518C271.683 143.518 272.328 147.07 273.331 147.961C274.334 148.853 274.334 150.6 274.334 150.6C274.334 150.6 275.55 155.743 276.106 156.637C276.588 157.398 276.613 159.479 276.609 160.129C276.609 160.246 276.609 160.313 276.609 160.313C276.609 160.313 276.779 162.153 276.772 163.694C276.772 163.886 276.772 164.071 276.772 164.245C276.774 164.232 276.774 164.219 276.772 164.206C276.772 164.627 276.722 165.046 276.623 165.456L276.602 165.527C276.602 165.438 276.602 165.353 276.627 165.268C276.378 166.314 276.259 167.388 276.273 168.464C276.241 170.311 276.521 172.498 277.637 173.791C279.572 176.014 280.788 175.737 280.788 175.737C280.788 175.737 279.859 178.515 278.711 179.072C278.668 179.093 278.627 179.119 278.591 179.15C278.591 179.093 278.569 179.04 278.562 178.987C278.434 179.125 278.337 179.289 278.275 179.468C278.214 179.646 278.191 179.836 278.208 180.024C278.126 181.246 278.895 183.22 279.625 184.14C279.897 184.406 280.229 184.601 280.593 184.708C280.535 184.749 280.475 184.786 280.412 184.818C280.285 184.889 280.153 184.951 280.019 185.007C279.832 185.086 279.635 185.138 279.434 185.159C279.045 185.17 278.664 185.263 278.314 185.434C277.964 185.604 277.655 185.847 277.407 186.147C276.698 187.07 276.244 188.331 277.655 189.439L282.776 191.215C282.776 191.215 291.531 192.341 291.07 190.362Z" fill="url(#paint0_linear)"/>
<path d="M257.431 193.645L252.469 191.869C251.101 190.761 251.537 189.5 252.228 188.573C252.466 188.278 252.764 188.037 253.103 187.866C253.442 187.696 253.813 187.6 254.192 187.586C254.528 187.543 254.85 187.428 255.138 187.249C255.453 187.077 255.722 186.834 255.925 186.538C256.287 185.963 256.482 185.297 256.488 184.617C256.488 184.617 261.932 183.019 263.421 184.617C263.687 184.906 263.909 185.233 264.08 185.586C264.575 186.69 264.817 187.89 264.789 189.099C264.789 189.099 265.066 190.832 265.516 192.814C265.966 194.795 257.431 193.645 257.431 193.645Z" fill="#2D293D"/>
<path d="M281.688 191.194L276.726 189.418C275.358 188.31 275.794 187.049 276.485 186.126C276.721 185.829 277.019 185.587 277.357 185.417C277.695 185.246 278.067 185.151 278.445 185.138C278.641 185.118 278.833 185.067 279.012 184.986C279.143 184.93 279.271 184.867 279.395 184.798C280.781 184.034 280.745 182.159 280.745 182.159C280.745 182.159 286.186 180.561 287.678 182.159C287.878 182.375 288.052 182.614 288.199 182.869C289.131 184.485 289.028 186.641 289.028 186.641C289.028 186.641 289.305 188.377 289.737 190.356C290.17 192.334 281.688 191.194 281.688 191.194Z" fill="#2D293D"/>
<path opacity="0.1" d="M263.425 184.614C263.69 184.903 263.912 185.23 264.084 185.583L255.932 186.531C256.294 185.956 256.489 185.29 256.495 184.61C256.495 184.61 261.936 183.015 263.425 184.614Z" fill="black"/>
<path opacity="0.1" d="M288.206 182.877V184.407C286.937 186.499 280.802 186.041 279.019 184.993C279.15 184.938 279.278 184.875 279.402 184.805C280.788 184.042 280.752 182.166 280.752 182.166C280.752 182.166 286.193 180.568 287.685 182.166C287.885 182.383 288.059 182.621 288.206 182.877Z" fill="black"/>
<path d="M289.174 176.277C288.795 176.944 288.471 177.641 288.206 178.362V183.849C286.817 186.14 279.611 185.376 278.637 184.126C277.662 182.876 276.645 179.623 277.74 179.058C278.835 178.493 279.75 175.723 279.75 175.723C279.75 175.723 278.569 176 276.698 173.777C274.827 171.554 275.383 166.624 275.73 165.445C276.078 164.266 275.73 160.306 275.73 160.306C275.73 160.306 275.801 157.525 275.248 156.623C274.696 155.721 273.515 150.586 273.515 150.586C273.515 150.586 273.515 148.849 272.544 147.947C271.573 147.045 270.949 143.5 270.949 143.5C270.381 142.615 270.137 141.559 270.258 140.514C270.464 138.777 269.078 136.902 269.078 136.902L266.721 129.398L264.502 123.772L263.255 127.036C263.255 127.036 262.9 134.675 263.187 136.27C263.474 137.864 263.896 142.105 263.896 142.105C263.896 142.105 262.51 144.882 263.134 147.244C263.758 149.605 263.531 154.681 263.531 154.681C263.531 154.681 264.155 165.165 263.598 165.999C263.042 166.834 263.113 168.918 263.113 168.918C263.113 168.918 265.948 175.027 265.055 175.862C264.162 176.696 264.431 178.987 264.431 178.987C264.431 178.987 266.37 178.987 265.541 179.821C264.711 180.656 264.084 185.032 264.084 185.032L255.702 186.015C255.702 186.015 254.936 185.046 253.827 182.464C252.717 179.882 254.032 180.173 255.149 179.893C256.265 179.612 255.56 178.923 254.242 178.088C252.923 177.254 253.689 175.379 253.689 175.379C253.689 175.379 255.698 171.976 255.004 171.699C254.309 171.422 254.242 166.628 254.242 166.628C254.242 166.628 252.856 160.945 253.203 159.404C253.55 157.863 252.094 154.198 252.094 154.198L251.608 149.822C250.125 147.339 249.584 144.404 250.084 141.554V134.806C250.084 134.806 248.142 121.751 247.865 115.153C247.688 110.926 247.738 105.159 247.794 101.561C247.83 99.5438 247.865 98.2049 247.865 98.2049L277.807 95.0796C277.807 95.0796 277.779 96.4647 278.35 99.5367C278.658 101.185 279.137 103.319 279.888 105.986C282.036 113.625 280.721 119.318 280.721 119.318L280.441 128.975C280.441 128.975 283.074 135.432 282.521 137.655C282.187 138.975 281.999 140.328 281.961 141.689C281.961 141.689 287.852 155.789 287.228 159.887C286.604 163.985 289.167 170.446 289.167 170.446C289.167 170.446 289.869 175.027 289.174 176.277Z" fill="#464353"/>
<path opacity="0.05" d="M272.055 140.096L281.171 138.878C281.171 138.878 276.007 144.159 272.055 140.096Z" fill="black"/>
<path opacity="0.1" d="M279.853 129.952C279.853 129.952 280.164 133.184 278.19 134.399C278.19 134.399 281.724 133.845 279.853 129.952Z" fill="black"/>
<path opacity="0.1" d="M279.292 119.674C279.292 119.674 271.672 125.96 268.901 125.438C266.129 124.916 279.292 119.674 279.292 119.674Z" fill="black"/>
<path opacity="0.1" d="M260.756 143.043C260.756 143.043 254.968 144.361 254.794 146.69C254.621 149.02 260.756 143.043 260.756 143.043Z" fill="black"/>
<path opacity="0.05" d="M262.028 172.009C262.028 172.009 253.851 173.536 256.173 174.576C258.494 175.617 262.308 176.452 262.308 176.452C262.308 176.452 264.948 176.59 262.028 172.009Z" fill="black"/>
<g opacity="0.05">
<path opacity="0.05" d="M254.522 176.231C254.316 176.102 254.142 175.929 254.013 175.724C253.883 175.518 253.802 175.286 253.774 175.045L253.689 175.191C253.689 175.191 252.927 177.066 254.245 177.897C254.394 177.993 254.54 178.089 254.671 178.181C254.915 178.135 255.177 178.099 255.429 178.035C256.546 177.758 255.84 177.066 254.522 176.231Z" fill="black"/>
<path opacity="0.05" d="M265.056 175.673C265.282 175.467 265.275 174.935 265.137 174.253C264.783 174.789 264.68 175.627 264.673 176.263C264.759 176.042 264.889 175.842 265.056 175.673Z" fill="black"/>
<path opacity="0.05" d="M263.797 141.122C263.496 141.944 263.31 142.803 263.244 143.676C263.402 143.073 263.615 142.486 263.879 141.921L263.797 141.122Z" fill="black"/>
<path opacity="0.05" d="M282.525 137.477C282.58 137.227 282.605 136.972 282.6 136.717C282.497 137.235 282.426 137.715 282.373 138.138C282.419 137.921 282.469 137.715 282.525 137.477Z" fill="black"/>
<path opacity="0.05" d="M263.602 165.814C263.715 165.644 263.779 165.068 263.807 164.269C263.551 164.888 263.415 165.549 263.407 166.219C263.455 166.077 263.521 165.941 263.602 165.814Z" fill="black"/>
<path opacity="0.05" d="M265.304 178.913C264.874 180.307 264.555 181.732 264.35 183.175L255.968 184.145C255.968 184.145 255.202 183.175 254.093 180.593C254.004 180.394 253.924 180.19 253.856 179.982C253.352 180.213 253.147 180.735 253.813 182.259C254.922 184.83 255.691 185.81 255.691 185.81L264.074 184.837C264.074 184.837 264.698 180.462 265.527 179.627C265.952 179.226 265.69 179.016 265.304 178.913Z" fill="black"/>
<path opacity="0.05" d="M254.245 166.44C254.245 166.44 254.313 171.231 255.007 171.508C255.362 170.716 255.592 169.963 255.28 169.839C254.571 169.562 254.518 164.767 254.518 164.767C254.518 164.767 253.132 159.085 253.48 157.543C253.827 156.002 252.37 152.337 252.37 152.337L251.885 147.962C250.402 145.479 249.861 142.544 250.361 139.694V132.946C250.361 132.946 248.418 119.891 248.142 113.292C247.965 109.066 248.014 103.298 248.071 99.7005C248.071 99.0505 248.092 98.4752 248.103 97.9886L247.866 98.0135C247.866 98.0135 247.827 99.3489 247.795 101.37C247.738 104.967 247.685 110.735 247.866 114.958C248.142 121.556 250.081 134.615 250.081 134.615V141.363C249.583 144.212 250.125 147.146 251.608 149.627L252.09 154.003C252.09 154.003 253.547 157.682 253.2 159.213C252.852 160.743 254.245 166.44 254.245 166.44Z" fill="black"/>
<path opacity="0.05" d="M278.92 182.273C278.24 181.285 277.786 180.158 277.591 178.973C276.737 179.747 277.719 182.752 278.655 183.945C279.622 185.195 286.831 185.959 288.224 183.665V182.344C286.335 184.201 279.835 183.455 278.92 182.273Z" fill="black"/>
<path opacity="0.05" d="M289.454 174.424C289.074 175.091 288.749 175.788 288.483 176.509V177.492C288.643 177.137 288.866 176.661 289.192 176.1C289.411 175.553 289.515 174.967 289.497 174.378C289.497 174.378 289.465 174.41 289.454 174.424Z" fill="black"/>
<path opacity="0.05" d="M279.346 175.521C279.61 174.986 279.838 174.434 280.03 173.87C280.03 173.87 278.85 174.147 276.978 171.923C275.617 170.308 275.539 167.253 275.734 165.257C275.38 166.44 274.831 171.369 276.702 173.593C277.925 175.045 278.85 175.429 279.346 175.521Z" fill="black"/>
<path opacity="0.05" d="M275.731 160.119C275.853 161.487 275.899 162.861 275.869 164.235C275.904 164.018 275.951 163.803 276.011 163.592C276.365 162.409 276.011 158.453 276.011 158.453C276.011 158.453 276.082 155.672 275.525 154.77C274.969 153.868 273.81 148.726 273.81 148.726C273.81 148.726 273.81 146.989 272.839 146.087C271.867 145.185 271.244 141.64 271.244 141.64C270.671 140.756 270.42 139.701 270.535 138.654C270.744 136.917 269.358 135.042 269.358 135.042L267.001 127.541L264.782 121.916L263.531 125.183C263.531 125.183 263.531 125.595 263.489 126.248L264.502 123.595L266.721 129.21L269.078 136.711C269.078 136.711 270.464 138.586 270.255 140.323C270.14 141.371 270.391 142.426 270.964 143.31C270.964 143.31 271.587 146.861 272.558 147.756C273.53 148.651 273.526 150.395 273.526 150.395C273.526 150.395 274.706 155.534 275.259 156.432C275.812 157.331 275.731 160.119 275.731 160.119Z" fill="black"/>
</g>
<path d="M281.55 32.3365L281.029 34.8722L281.061 36.0016L281.082 36.8326L278.19 37.131L277.867 36.5308C277.269 35.444 276.024 33.235 275.624 32.894C275.089 32.4466 274.135 25.3933 275.27 25.8124C275.968 26.0826 276.541 26.6027 276.879 27.272C276.879 27.272 282.574 27.9255 281.55 32.3365Z" fill="#FFCDD3"/>
<path opacity="0.1" d="M281.082 36.8333L278.19 37.1316L277.868 36.5314C278.257 36.0877 278.787 35.7928 279.369 35.6969C279.95 35.6011 280.547 35.7103 281.057 36.0058L281.082 36.8333Z" fill="black"/>
<path d="M281.812 38.2064L277.999 39.0907L277.917 38.5225L277.701 36.9918C277.701 36.9918 279.211 34.9745 281.394 36.4875L281.585 37.2652L281.812 38.2064Z" fill="#2D47FE"/>
<path d="M220.036 32.6138L215.963 34.8015L215.609 34.0344C215.222 33.2211 214.645 31.9958 214.485 31.5483C214.244 30.8735 212.546 30.0212 212.546 30.0212C208.293 25.9405 213.362 22.4317 213.362 22.4317C216.048 17.0157 219.033 24.2713 219.033 24.2713C219.033 24.2713 219.451 28.0963 219.157 28.352C218.862 28.6077 218.862 29.6554 218.862 29.6554C219.251 30.406 219.579 31.1862 219.844 31.9887C219.968 32.3758 220.036 32.6138 220.036 32.6138Z" fill="#FFCDD3"/>
<path opacity="0.1" d="M220.036 32.6139L215.963 34.8017L215.609 34.0345C216.183 33.5515 218.221 31.9037 218.891 31.9711C219.211 32.0111 219.534 32.0195 219.855 31.996C219.968 32.376 220.036 32.6139 220.036 32.6139Z" fill="black"/>
<path d="M220.45 33.8458L215.875 36.1045L215.782 35.1208L215.719 34.4389C215.719 34.4389 218.37 32.1624 219.153 32.2512C219.549 32.3087 219.951 32.3087 220.348 32.2512L220.401 33.0751L220.45 33.8458Z" fill="#2D47FE"/>
<path d="M270.46 49.1809C270.46 49.1809 250.513 51.4361 254.242 50.2215C256.836 49.3727 257.867 47.7354 258.084 45.8887C258.261 44.3509 257.864 42.6923 257.343 41.2717C256.874 40.0115 256.28 38.8015 255.571 37.6599C255.571 37.6599 270.811 29.2571 267.767 36.8963C267.297 38.0518 267.006 39.272 266.902 40.5153C266.81 41.7508 266.944 42.9927 267.295 44.1804C267.87 46.1077 268.966 47.8382 270.46 49.1809Z" fill="#FFCDD3"/>
<path opacity="0.1" d="M267.756 36.8853C267.286 38.0408 266.995 39.261 266.891 40.5043C265.456 41.7154 263.882 41.6337 261.858 41.6337C260.306 41.6337 258.583 42.0101 257.343 41.2608C256.874 40.0005 256.28 38.7905 255.571 37.6489C255.571 37.6489 270.807 29.2461 267.756 36.8853Z" fill="black"/>
<path d="M261.589 42.167C266.144 42.167 269.836 38.467 269.836 33.9027C269.836 29.3385 266.144 25.6384 261.589 25.6384C257.034 25.6384 253.341 29.3385 253.341 33.9027C253.341 38.467 257.034 42.167 261.589 42.167Z" fill="#FFCDD3"/>
<path opacity="0.1" d="M270.46 49.181C270.46 49.181 250.513 51.4362 254.242 50.2216C256.836 49.3728 257.867 47.7356 258.084 45.8888C259.076 44.8234 261.071 44.0314 262.337 43.6194C263.507 43.2252 264.77 43.2041 265.952 43.559C266.417 43.6994 266.86 43.9051 267.267 44.1699C267.848 46.1042 268.954 47.839 270.46 49.181Z" fill="black"/>
<path opacity="0.1" d="M281.813 38.2069L277.999 39.0913L277.917 38.523C278.326 37.961 278.897 37.5388 279.553 37.3138C280.21 37.0888 280.919 37.0721 281.586 37.2658L281.813 38.2069Z" fill="black"/>
<path opacity="0.1" d="M220.451 33.8464L215.875 36.1051L215.783 35.1213C217.265 34.3229 218.805 33.6378 220.39 33.0721L220.451 33.8464Z" fill="black"/>
<path opacity="0.1" d="M278.349 99.5444C270.619 100.78 259.632 102.357 257.888 101.824C256.439 101.384 251.817 101.43 247.794 101.569C247.829 99.5515 247.865 98.2126 247.865 98.2126L277.807 95.0873C277.807 95.0873 277.779 96.4724 278.349 99.5444Z" fill="black"/>
<path d="M286.055 97.7261C286.055 97.7261 260.618 102.102 257.889 101.278C255.16 100.454 241.142 101.345 241.142 101.345C234.833 105.582 237.467 99.3314 237.467 99.3314C237.467 99.3314 236.914 96.0676 237.676 93.4288C238.187 91.4915 238.537 89.5147 238.721 87.5192C238.721 87.5192 238.583 83.3497 239.345 82.3766C240.107 81.4035 241.011 74.4604 241.011 74.4604C241.011 74.4604 241.702 69.7369 241.635 68.6963C241.567 67.6557 241.84 64.7364 241.84 64.7364L242.744 59.8744C237.544 59.1819 221.741 49.4579 221.741 49.4579C220.979 46.1941 215.088 38.5549 215.088 38.5549C215.002 37.9125 214.839 37.2828 214.602 36.6797C214.188 35.5681 220.426 33.3448 220.426 33.3448C220.426 33.3448 225.069 39.0272 226.04 40.5686C227.011 42.1099 230.335 44.944 230.335 44.944C230.852 44.8908 231.374 44.9588 231.859 45.1429L231.941 45.1677C233.055 45.606 234.1 46.2042 235.042 46.9435C236.605 46.9063 238.121 47.4794 239.271 48.5416C239.271 48.5416 242.106 48.1226 242.599 48.6091C243.091 49.0957 245.508 48.6091 245.508 48.6091C245.508 48.6091 247.933 43.4701 249.528 44.9617C251.123 46.4534 257.889 46.3823 257.889 46.3823C258.789 45.1819 260.983 44.3225 262.354 43.8963C263.525 43.5037 264.787 43.4827 265.97 43.8359C266.48 43.9885 266.959 44.2288 267.387 44.5462L271.502 48.5736C271.502 48.5736 272.679 47.0429 272.541 46.6984C272.402 46.3539 273.926 46.0734 273.926 46.0734C273.926 46.0734 275.936 45.4483 276.698 45.2388C277.46 45.0292 278.158 45.8567 278.222 45.9313C278.197 45.8425 277.676 44.1556 277.868 42.877C278.059 41.5985 277.035 40.391 277.035 40.391C279.459 34.4174 284.935 39.4179 284.935 39.4179C284.935 39.4179 285.559 42.6817 285.006 43.9318C284.453 45.1819 285.559 47.8207 285.421 48.5168C285.282 49.2129 285.701 50.392 285.701 51.7131C285.701 53.0343 284.992 55.531 284.591 56.6426C284.191 57.7542 280.848 60.2544 280.848 60.2544C280.848 60.2544 280.639 64.2143 279.183 66.505C277.726 68.7957 278.64 76.6303 278.64 76.6303C278.64 76.6303 280.026 82.7424 281.759 84.6886C283.492 86.6348 286.055 97.7261 286.055 97.7261Z" fill="#3F3D56"/>
<path opacity="0.1" d="M248.975 52.0261C248.975 52.0261 248.213 49.7354 247.518 49.5401C246.828 49.2859 246.157 48.9845 245.509 48.638L245.955 47.7821C245.955 47.7821 248.557 48.4924 248.975 49.2631C249.393 50.0337 248.975 52.0261 248.975 52.0261Z" fill="black"/>
<path opacity="0.1" d="M235.042 46.9582C234.904 47.6685 228.733 48.2758 228.733 48.2758L231.852 45.1434L231.93 45.1718C233.049 45.6125 234.097 46.2143 235.042 46.9582Z" fill="black"/>
<path d="M217.193 37.9791C217.498 37.9791 217.746 37.7311 217.746 37.4251C217.746 37.1191 217.498 36.8711 217.193 36.8711C216.888 36.8711 216.64 37.1191 216.64 37.4251C216.64 37.7311 216.888 37.9791 217.193 37.9791Z" fill="#575988"/>
<path d="M217.902 39.0918C218.207 39.0918 218.455 38.8438 218.455 38.5378C218.455 38.2318 218.207 37.9838 217.902 37.9838C217.596 37.9838 217.349 38.2318 217.349 38.5378C217.349 38.8438 217.596 39.0918 217.902 39.0918Z" fill="#575988"/>
<path d="M218.597 40.1177C218.902 40.1177 219.15 39.8697 219.15 39.5637C219.15 39.2577 218.902 39.0096 218.597 39.0096C218.291 39.0096 218.044 39.2577 218.044 39.5637C218.044 39.8697 218.291 40.1177 218.597 40.1177Z" fill="#575988"/>
<path d="M219.323 41.225C219.629 41.225 219.876 40.977 219.876 40.671C219.876 40.365 219.629 40.1169 219.323 40.1169C219.018 40.1169 218.771 40.365 218.771 40.671C218.771 40.977 219.018 41.225 219.323 41.225Z" fill="#575988"/>
<path d="M284.659 41.0624C284.907 41.0624 285.109 40.8604 285.109 40.6113C285.109 40.3622 284.907 40.1603 284.659 40.1603C284.41 40.1603 284.208 40.3622 284.208 40.6113C284.208 40.8604 284.41 41.0624 284.659 41.0624Z" fill="#575988"/>
<path d="M284.729 42.0881C284.978 42.0881 285.179 41.8862 285.179 41.6371C285.179 41.388 284.978 41.186 284.729 41.186C284.481 41.186 284.279 41.388 284.279 41.6371C284.279 41.8862 284.481 42.0881 284.729 42.0881Z" fill="#575988"/>
<path d="M284.789 43.1117C285.038 43.1117 285.24 42.9097 285.24 42.6606C285.24 42.4115 285.038 42.2096 284.789 42.2096C284.541 42.2096 284.339 42.4115 284.339 42.6606C284.339 42.9097 284.541 43.1117 284.789 43.1117Z" fill="#575988"/>
<path opacity="0.1" d="M248.999 70.848C248.932 70.7663 264.559 90.5374 276.687 79.1123C276.698 79.1159 257.534 81.7191 248.999 70.848Z" fill="black"/>
<path opacity="0.1" d="M240.032 81.1268C240.032 81.1268 249.382 81.3825 250.36 84.0781V86.8838C250.094 87.0318 249.794 87.1095 249.49 87.1095C249.186 87.1095 248.886 87.0318 248.62 86.8838C247.677 86.3724 242.024 83.4957 240.032 84.8808V81.1268Z" fill="black"/>
<path d="M240.206 81.1268C240.206 81.1268 249.148 81.3719 250.084 83.9432V86.6139C249.829 86.7557 249.542 86.8301 249.251 86.8301C248.96 86.8301 248.673 86.7557 248.418 86.6139C247.518 86.1309 242.113 83.3856 240.206 84.7067V81.1268Z" fill="#3F3D56"/>
<path opacity="0.1" d="M245.136 60.7828C246.091 62.9984 247.308 65.091 248.762 67.0157C250.342 69.1431 252.257 70.9987 254.432 72.5098C254.432 72.5098 245.292 62.0685 245.136 60.7828Z" fill="black"/>
<path opacity="0.1" d="M242.077 49.8979C242.077 49.8979 243.637 56.6458 247.656 58.9365L242.077 49.8979Z" fill="black"/>
<path opacity="0.1" d="M239.685 50.58C239.646 50.4557 238.299 55.9072 244.867 58.9366C244.867 58.9366 242.077 57.9884 239.685 50.58Z" fill="black"/>
<path opacity="0.1" d="M280.512 46.0548C280.409 46.0548 283.751 48.1857 284.662 49.1801C284.662 49.1801 282.486 45.9127 280.512 46.0548Z" fill="black"/>
<path d="M259.36 41.3924C259.361 41.5727 259.399 41.7508 259.473 41.9154C259.546 42.08 259.653 42.2275 259.786 42.3487C259.92 42.4698 260.076 42.562 260.247 42.6193C260.418 42.6766 260.598 42.6978 260.777 42.6816C263.29 42.8379 265.909 42.948 268.22 41.9713C268.654 41.8163 269.043 41.5579 269.355 41.2184C269.766 40.7105 269.847 40.0215 270.014 39.3894C270.34 38.1535 271.035 37.0561 271.534 35.8805C272.38 33.8944 272.663 31.7134 272.353 29.5766C272.288 28.9216 272.072 28.2908 271.722 27.7334C271.056 26.7781 269.84 26.391 268.958 25.6309C268.075 24.8709 267.508 23.7096 266.477 23.1449C265.548 22.6264 264.41 22.6903 263.365 22.8679C261.308 23.2178 259.337 23.9592 257.559 25.052C256.96 25.4072 256.305 25.844 255.617 25.7126C255.014 25.599 254.575 25.0911 254.199 24.6152C253.716 25.7517 253.513 26.9882 253.607 28.22C253.633 28.4007 253.627 28.5847 253.59 28.7633C253.503 28.9793 253.371 29.1743 253.203 29.3351C252.583 30.0454 252.197 31.1997 252.81 31.9313C253.076 32.2473 253.487 32.4214 253.746 32.7446C254.21 33.3234 254.054 34.1651 254.043 34.9039C254.018 35.1618 254.083 35.4206 254.228 35.6355C254.362 35.7607 254.526 35.8491 254.704 35.892C254.882 35.935 255.069 35.931 255.245 35.8805C255.596 35.7745 255.965 35.7395 256.329 35.7775C256.714 35.9027 257.045 36.1526 257.272 36.4878C258.417 37.983 258.871 39.6096 259.36 41.3924Z" fill="#2D293D"/>
<g opacity="0.1">
<path opacity="0.1" d="M269.649 40.5905C269.337 40.9299 268.948 41.1883 268.514 41.3434C266.189 42.3129 263.574 42.2028 261.071 42.0537C260.803 42.0563 260.537 41.9968 260.295 41.8796C259.912 41.6559 259.767 41.1871 259.65 40.7609C259.161 38.9852 258.711 37.3551 257.548 35.8741C257.324 35.5325 256.992 35.2761 256.606 35.146C256.241 35.1115 255.873 35.1465 255.521 35.249C255.345 35.3 255.159 35.3045 254.981 35.2622C254.803 35.2199 254.638 35.1321 254.504 35.0075C254.359 34.7926 254.294 34.5339 254.32 34.2759C254.32 33.5301 254.486 32.6955 254.022 32.1166C253.763 31.7934 253.352 31.6194 253.086 31.2998C252.913 31.0641 252.806 30.7858 252.778 30.4943C252.75 30.2029 252.802 29.9093 252.927 29.6448C252.484 30.3551 252.296 31.2465 252.81 31.8573C253.076 32.1734 253.487 32.3475 253.745 32.6706C254.21 33.2531 254.054 34.0912 254.043 34.8299C254.016 35.0875 254.08 35.3465 254.224 35.5615C254.358 35.6874 254.523 35.7761 254.702 35.8191C254.881 35.862 255.068 35.8577 255.245 35.8066C255.596 35.7006 255.964 35.6656 256.329 35.7036C256.714 35.8288 257.045 36.0787 257.272 36.4139C258.431 37.8949 258.885 39.5215 259.374 41.3043C259.431 41.743 259.65 42.1445 259.987 42.4301C260.23 42.5475 260.497 42.6058 260.767 42.6006C263.28 42.7569 265.899 42.8705 268.21 41.8903C268.644 41.7363 269.033 41.4777 269.344 41.1374C269.5 40.9373 269.62 40.7113 269.698 40.4697C269.702 40.5159 269.677 40.5549 269.649 40.5905Z" fill="black"/>
<path opacity="0.1" d="M253.607 28.5468C253.718 28.4257 253.804 28.2831 253.859 28.1278C253.891 27.9481 253.891 27.7641 253.859 27.5844C253.79 26.5718 253.921 25.5556 254.245 24.594L254.199 24.5408C253.714 25.6756 253.511 26.9113 253.607 28.142C253.618 28.2767 253.618 28.4121 253.607 28.5468Z" fill="black"/>
</g>
<path opacity="0.1" d="M257.889 46.3996C257.889 46.3996 268.192 47.7705 269.117 46.2185L257.889 46.3996Z" fill="black"/>
<path opacity="0.1" d="M277.917 42.1283C277.917 42.1283 283.645 42.1283 284.903 44.2876L277.917 42.1283Z" fill="black"/>
<path d="M309.961 233.961C308.262 235.482 306.055 236.309 303.776 236.276C303.195 236.276 302.391 236.386 302.387 236.969C302.401 237.14 302.46 237.304 302.557 237.445C303.276 238.646 304.412 239.54 305.747 239.956C306.987 240.332 308.313 240.268 309.607 240.201L313.381 240.005C314.09 239.966 314.799 239.931 315.508 239.842C316.217 239.753 316.989 239.607 317.73 239.487C319.55 239.227 321.391 239.142 323.227 239.231C323.716 239.249 324.291 239.231 324.581 238.876C324.872 238.521 324.723 237.842 324.613 237.31C324.386 236.212 324.613 235.062 324.404 233.961C324.05 232.029 322.38 230.548 320.551 229.848C318.85 229.202 315.837 228.459 314.228 229.539C312.531 230.672 311.492 232.565 309.961 233.961Z" fill="#3F3D56"/>
<path d="M313.711 169.232C314.044 170.82 315.578 172.034 315.621 173.654C315.66 174.954 314.735 176.044 314.069 177.155C313.441 178.307 312.911 179.509 312.484 180.75C311.23 183.979 309.673 187.083 307.834 190.019C306.948 191.44 305.956 192.956 306.158 194.607C306.299 195.38 306.571 196.122 306.962 196.802L309.621 202.094C310.203 203.15 310.658 204.272 310.978 205.436C311.208 206.441 311.23 207.482 311.364 208.504C311.783 211.75 313.303 215.018 312.403 218.164C312.325 218.434 312.048 218.761 311.832 218.573C312.711 220.217 313.416 221.872 313.349 223.737C313.314 224.713 313.016 225.733 313.374 226.642C313.526 227.022 313.792 227.377 313.789 227.785C313.789 228.055 313.665 228.307 313.636 228.57C313.562 229.32 314.249 229.945 314.962 230.183C315.674 230.421 316.45 230.403 317.17 230.619C318.552 231.035 319.541 232.228 320.714 233.056C321.918 233.887 323.336 234.349 324.797 234.388C325.006 234.41 325.216 234.368 325.4 234.267C325.504 234.176 325.587 234.063 325.645 233.937C325.702 233.811 325.732 233.674 325.733 233.535C325.797 232.872 325.697 232.203 325.443 231.587C325.188 230.972 324.786 230.428 324.273 230.005C324.047 229.864 323.861 229.669 323.73 229.437C323.664 229.232 323.647 229.014 323.681 228.801C323.895 225.89 323.842 222.966 323.525 220.064C323.381 219.145 323.335 218.213 323.387 217.284C323.461 216.509 323.695 215.742 323.61 214.972C323.525 214.201 323.131 213.498 322.901 212.755C322.49 211.434 322.603 210.014 322.547 208.632C322.476 206.231 321.926 203.873 321.38 201.529C321.164 200.609 320.927 199.647 320.278 198.965C319.725 198.386 318.832 197.832 319.041 197.061C319.157 196.777 319.33 196.52 319.548 196.305C319.805 195.982 319.993 195.611 320.102 195.212C320.21 194.814 320.236 194.398 320.179 193.989C320.412 194.049 320.659 194.026 320.877 193.923C321.094 193.821 321.27 193.646 321.373 193.428C325.69 191.386 329.171 187.302 330.723 182.774C330.815 182.438 330.956 182.117 331.141 181.822C331.542 181.261 332.237 181.019 332.853 180.71C334.788 179.734 336.125 177.905 337.351 176.115C338.06 175.078 338.769 174.005 339.088 172.784C339.255 171.993 339.335 171.187 339.325 170.379L339.435 166.206C339.459 165.931 339.433 165.655 339.357 165.389C339.252 165.142 339.099 164.917 338.907 164.729C337.728 163.48 336.18 162.643 334.491 162.342C333.357 162.14 332.198 162.179 331.049 162.083C328.823 161.898 326.626 161.206 324.4 161.373C320.902 161.632 317.787 164.061 316.138 167.165C315.561 168.259 314.951 169.211 313.711 169.232Z" fill="#464353"/>
<path d="M294.288 142.098C294.335 142.742 294.248 143.389 294.033 143.998C293.76 144.58 293.076 145.035 292.477 144.797C292.658 144.388 292.179 143.923 291.733 143.973C291.513 144.024 291.309 144.127 291.138 144.274C290.967 144.421 290.834 144.608 290.751 144.818C290.455 145.415 290.356 146.09 290.467 146.747C290.609 147.563 291.081 148.348 290.957 149.169C290.857 149.851 290.358 150.529 290.623 151.161C290.796 151.45 291.012 151.71 291.265 151.932C291.615 152.364 291.786 152.914 291.744 153.469C291.701 154.024 291.447 154.542 291.035 154.915L297.74 155.05C297.496 156.172 297.999 157.319 298.573 158.317C300.181 161.061 302.402 163.394 305.061 165.134C307.72 166.873 310.745 167.972 313.899 168.343C313.728 168.443 313.582 168.579 313.47 168.743C313.359 168.906 313.285 169.092 313.254 169.288C313.223 169.483 313.236 169.683 313.292 169.873C313.348 170.062 313.445 170.238 313.576 170.385C314.122 170.929 315.047 170.861 315.731 170.509C316.415 170.158 316.95 169.575 317.574 169.124C318.675 168.343 320.019 167.98 321.363 168.102C322.203 168.183 323.018 168.457 323.862 168.499C326.343 168.631 328.469 166.841 330.858 166.109C332.598 165.573 334.573 165.573 336.033 164.483C336.664 164.014 337.181 163.243 336.997 162.483C336.844 162.046 336.603 161.646 336.288 161.308C335.448 160.217 334.952 158.907 334.349 157.667C333.156 155.213 331.512 153.006 329.504 151.161C327.989 149.834 326.383 148.614 324.698 147.51C324.291 147.209 323.857 146.946 323.401 146.725C322.813 146.466 322.16 146.342 321.629 146.015C320.842 145.518 320.388 144.64 319.782 143.934C318.453 142.378 316.412 141.664 314.774 140.443C313.675 139.622 312.704 138.543 311.393 138.148C310.755 137.953 310.078 137.939 309.44 137.747C307.99 137.307 306.934 136.017 305.513 135.495C304.389 135.083 303.149 135.19 301.969 135.044C300.638 134.88 299.367 134.395 298.265 133.631C297.91 133.341 297.511 133.109 297.085 132.942C295.288 132.395 295.142 135.748 294.958 136.909C294.721 138.635 294.288 140.35 294.288 142.098Z" fill="#2D47FE"/>
<path d="M296.039 153.343C296.34 156.618 293.873 159.789 294.593 162.996C294.745 163.678 295.04 164.328 295.146 165.02C295.447 166.92 294.313 168.721 293.232 170.312L283.946 183.968C283.573 184.567 283.128 185.118 282.62 185.608C280.848 187.189 278.183 187.029 275.851 187.498C274.213 187.835 272.666 188.521 271.314 189.508C271.253 189.555 271.213 189.624 271.203 189.701C271.192 189.777 271.212 189.854 271.257 189.916C271.642 190.442 272.153 190.862 272.741 191.139C273.33 191.417 273.979 191.542 274.628 191.504C274.873 191.824 274.628 192.299 274.291 192.53C273.795 192.885 273.108 192.967 273.008 193.816C272.975 194.111 273.034 194.409 273.178 194.668C273.554 195.241 274.135 195.645 274.802 195.798C278.016 196.785 281.49 195.052 283.896 192.697C286.303 190.343 288.029 187.37 290.389 184.976C291.697 183.648 293.182 182.515 294.529 181.229C297.216 178.662 299.307 175.547 301.32 172.425C301.926 171.484 302.539 170.518 302.791 169.428C303.042 168.338 302.926 167.233 303.213 166.178C303.588 164.797 304.598 163.692 305.438 162.534C307.086 160.261 308.189 157.481 307.969 154.679C307.749 151.876 306.02 149.113 303.383 148.162C302.565 147.836 301.664 147.781 300.813 148.005C299.732 148.339 298.935 149.234 298.197 150.094L296.425 152.132C295.994 152.584 295.655 153.116 295.429 153.698C295.315 153.992 295.288 154.312 295.351 154.621C295.414 154.929 295.564 155.213 295.784 155.439" fill="#FBBEBE"/>
<path d="M300.746 139.91C299.527 139.981 298.183 140.102 297.322 140.975C296.961 141.377 296.669 141.835 296.457 142.332C295.621 144.04 294.806 145.827 294.745 147.73C294.696 149.25 295.135 150.739 295.366 152.241C295.557 153.491 295.071 154.766 294.979 156.03C296.493 155.565 298.492 154.933 299.863 154.148C300.799 153.612 301.703 153.001 302.723 152.66C304.18 152.173 306.622 153.015 308.008 153.69C308.082 152.717 307.352 151.019 307.43 150.042C307.441 149.631 307.514 149.224 307.646 148.835C307.854 148.423 308.099 148.032 308.38 147.667C308.908 146.807 309.15 145.802 309.073 144.796C308.996 143.79 308.604 142.835 307.951 142.066C306.721 140.681 304.797 140.162 302.961 139.935C301.805 139.801 300.64 139.76 299.477 139.814" fill="#2D47FE"/>
<defs>
<linearGradient id="paint0_linear" x1="250.304" y1="193.974" x2="250.304" y2="20.4275" gradientUnits="userSpaceOnUse">
<stop stop-color="#808080" stop-opacity="0.25"/>
<stop offset="0.54" stop-color="#808080" stop-opacity="0.12"/>
<stop offset="1" stop-color="#808080" stop-opacity="0.1"/>
</linearGradient>
</defs>
</svg>
