<svg width="337" height="259" viewBox="0 0 337 259" fill="none" xmlns="http://www.w3.org/2000/svg">
<g clip-path="url(#clip0)">
<path opacity="0.1" d="M267.293 212.85C272.208 215.328 278.219 213.821 283.804 213.995C284.569 214.02 285.376 214.093 285.991 214.519C286.605 214.945 286.912 215.644 287.327 216.238C288.891 218.447 292.097 219.158 294.899 218.784C297.7 218.41 300.271 217.166 302.916 216.22C307.487 214.587 312.712 213.842 317.221 215.625C317.62 215.83 318.066 215.928 318.514 215.91C319.503 215.766 319.795 214.578 320.489 213.9C321.737 212.675 324.446 213.012 324.996 211.4C325.303 210.454 324.578 209.486 323.767 208.842C320.695 206.373 316.278 205.966 312.242 206.348C308.206 206.731 304.255 207.776 300.191 207.782C295.142 207.782 290.261 206.171 285.26 205.512C281.795 205.053 278.014 205.111 274.764 206.459C271.253 207.929 270.482 211.189 267.293 212.85Z" fill="#2D47FE"/>
<path opacity="0.1" d="M3.63989 131.728C8.97242 154.461 20.261 174.111 38.0986 183.636C75.1775 203.431 158.793 193.219 221.195 181.492C252.729 175.585 281.351 159.266 302.455 135.163L3.63989 131.728Z" fill="#2D47FE"/>
<path opacity="0.1" d="M330.887 24.7207H296.647C295.862 24.7207 295.11 24.4099 294.555 23.8566C294 23.3033 293.689 22.5529 293.689 21.7704C293.689 20.9879 294 20.2375 294.555 19.6842C295.11 19.1309 295.862 18.8201 296.647 18.8201H302.566C301.797 18.7954 301.069 18.4736 300.534 17.9227C299.999 17.3718 299.7 16.635 299.7 15.8682C299.7 15.1014 299.999 14.3647 300.534 13.8138C301.069 13.2629 301.797 12.9411 302.566 12.9164H298.339C297.571 12.8917 296.842 12.5699 296.307 12.019C295.772 11.4681 295.473 10.7313 295.473 9.96452C295.473 9.19771 295.772 8.46095 296.307 7.91007C296.842 7.35919 297.571 7.03737 298.339 7.01267H316.21C312.245 5.17447 307.61 3.86628 302.268 3.18308C253.538 -3.06069 236.14 1.06915 230.002 5.32765C222.43 10.5665 213.983 14.4206 204.955 16.2772C174.889 22.4628 118.661 29.9075 67.6979 13.8968C42.3684 5.9312 23.5448 19.3838 12.2593 41.862H336.831C336.407 35.3272 335.139 29.3009 332.81 24.0161C332.275 24.4735 331.592 24.7237 330.887 24.7207Z" fill="#2D47FE"/>
<path opacity="0.1" d="M0.734131 84.282C-0.580975 97.5022 -0.134766 110.838 2.06112 123.941L302.686 134.909C311.054 125.308 318.08 114.621 323.573 103.139L0.734131 84.282ZM119.635 112.575H113.716C114.5 112.575 115.253 112.886 115.807 113.439C116.362 113.992 116.674 114.743 116.674 115.525C116.674 116.308 116.362 117.058 115.807 117.612C115.253 118.165 114.5 118.476 113.716 118.476H79.475C78.6904 118.476 77.938 118.165 77.3833 117.612C76.8286 117.058 76.5169 116.308 76.5169 115.525C76.5169 114.743 76.8286 113.992 77.3833 113.439C77.938 112.886 78.6904 112.575 79.475 112.575H85.3942C84.6258 112.55 83.8971 112.229 83.3623 111.678C82.8274 111.127 82.5284 110.39 82.5284 109.623C82.5284 108.856 82.8274 108.12 83.3623 107.569C83.8971 107.018 84.6258 106.696 85.3942 106.671H81.1675C80.3991 106.647 79.6704 106.325 79.1356 105.774C78.6007 105.223 78.3017 104.486 78.3017 103.719C78.3017 102.953 78.6007 102.216 79.1356 101.665C79.6704 101.114 80.3991 100.792 81.1675 100.768H115.408C116.177 100.792 116.905 101.114 117.44 101.665C117.975 102.216 118.274 102.953 118.274 103.719C118.274 104.486 117.975 105.223 117.44 105.774C116.905 106.325 116.177 106.647 115.408 106.671H119.635C120.403 106.696 121.132 107.018 121.667 107.569C122.202 108.12 122.501 108.856 122.501 109.623C122.501 110.39 122.202 111.127 121.667 111.678C121.132 112.229 120.403 112.55 119.635 112.575Z" fill="#2D47FE"/>
<path opacity="0.1" d="M336.846 42.0618L8.63763 50.0273C4.64437 60.26 2.0119 71.8315 0.783203 83.8288H331.096C333.252 76.7818 334.847 69.5761 335.866 62.279C336.849 55.2294 337.243 48.4128 336.846 42.0618ZM67.4153 68.152H61.496C62.2806 68.152 63.033 68.4629 63.5877 69.0161C64.1425 69.5694 64.4541 70.3199 64.4541 71.1023C64.4541 71.8848 64.1425 72.6352 63.5877 73.1885C63.033 73.7418 62.2806 74.0527 61.496 74.0527H27.2554C26.4709 74.0527 25.7185 73.7418 25.1637 73.1885C24.609 72.6352 24.2973 71.8848 24.2973 71.1023C24.2973 70.3199 24.609 69.5694 25.1637 69.0161C25.7185 68.4629 26.4709 68.152 27.2554 68.152H33.1746C32.4062 68.1273 31.6775 67.8055 31.1427 67.2546C30.6079 66.7037 30.3089 65.967 30.3089 65.2002C30.3089 64.4334 30.6079 63.6966 31.1427 63.1457C31.6775 62.5948 32.4062 62.273 33.1746 62.2483H28.9479C28.1795 62.2236 27.4508 61.9018 26.916 61.3509C26.3812 60.8 26.0821 60.0633 26.0821 59.2965C26.0821 58.5296 26.3812 57.7929 26.916 57.242C27.4508 56.6911 28.1795 56.3693 28.9479 56.3446H63.1886C63.957 56.3693 64.6857 56.6911 65.2205 57.242C65.7553 57.7929 66.0544 58.5296 66.0544 59.2965C66.0544 60.0633 65.7553 60.8 65.2205 61.3509C64.6857 61.9018 63.957 62.2236 63.1886 62.2483H67.4153C68.1837 62.273 68.9124 62.5948 69.4472 63.1457C69.982 63.6966 70.2811 64.4334 70.2811 65.2002C70.2811 65.967 69.982 66.7037 69.4472 67.2546C68.9124 67.8055 68.1837 68.1273 67.4153 68.152Z" fill="#2D47FE"/>
<g opacity="0.1">
<path opacity="0.1" d="M179.177 181.866C179.177 181.866 187.84 160.574 204.015 152.672C210.821 149.404 216.379 144.021 219.856 137.333C221.482 134.144 222.811 130.813 223.828 127.382" stroke="#535461" stroke-width="2" stroke-miterlimit="10"/>
<path opacity="0.1" d="M233.993 122.345C232.306 124.459 223.579 127.553 223.579 127.553C223.579 127.553 224.63 118.378 226.316 116.264C226.701 115.716 227.194 115.252 227.765 114.902C228.336 114.551 228.973 114.321 229.637 114.225C230.3 114.129 230.977 114.169 231.624 114.344C232.271 114.518 232.876 114.823 233.401 115.239C233.926 115.655 234.36 116.174 234.676 116.764C234.992 117.354 235.184 118.002 235.24 118.668C235.295 119.335 235.214 120.006 235 120.64C234.786 121.274 234.444 121.857 233.996 122.354L233.993 122.345Z" fill="#2D47FE"/>
<path opacity="0.1" d="M230.998 139.089C228.43 139.95 219.423 137.811 219.423 137.811C219.423 137.811 225.306 130.679 227.874 129.818C228.496 129.56 229.165 129.433 229.839 129.444C230.513 129.455 231.178 129.604 231.791 129.883C232.405 130.161 232.955 130.562 233.406 131.061C233.858 131.56 234.202 132.146 234.417 132.784C234.631 133.421 234.712 134.095 234.655 134.765C234.597 135.435 234.402 136.086 234.081 136.677C233.76 137.269 233.321 137.788 232.791 138.203C232.26 138.617 231.65 138.919 230.998 139.089Z" fill="#2D47FE"/>
<path opacity="0.1" d="M214.76 158.882C212.11 158.334 205.416 151.949 205.416 151.949C205.416 151.949 214.106 148.754 216.757 149.305C217.958 149.639 218.987 150.416 219.635 151.478C220.284 152.54 220.503 153.808 220.249 155.025C219.996 156.242 219.287 157.318 218.268 158.034C217.249 158.75 215.995 159.054 214.76 158.882Z" fill="#2D47FE"/>
<path opacity="0.1" d="M199.095 171.1C196.388 171.005 188.709 165.843 188.709 165.843C188.709 165.843 196.732 161.229 199.439 161.321C200.109 161.303 200.776 161.422 201.399 161.672C202.021 161.921 202.586 162.295 203.058 162.77C203.531 163.245 203.9 163.811 204.145 164.435C204.389 165.058 204.503 165.724 204.48 166.393C204.456 167.061 204.296 167.718 204.008 168.322C203.72 168.927 203.312 169.466 202.807 169.907C202.303 170.348 201.713 170.682 201.075 170.887C200.436 171.092 199.762 171.164 199.095 171.1Z" fill="#2D47FE"/>
<path opacity="0.1" d="M211.037 131.827C211.382 134.505 217.249 141.653 217.249 141.653C217.249 141.653 221.113 133.258 220.766 130.577C220.723 129.908 220.544 129.254 220.238 128.657C219.933 128.06 219.507 127.531 218.989 127.104C218.47 126.677 217.869 126.361 217.223 126.175C216.577 125.989 215.9 125.938 215.233 126.023C214.566 126.109 213.923 126.33 213.346 126.673C212.768 127.017 212.267 127.474 211.874 128.019C211.481 128.563 211.203 129.181 211.06 129.836C210.916 130.492 210.908 131.169 211.037 131.827Z" fill="#2D47FE"/>
<path opacity="0.1" d="M192.896 146.349C194.029 148.8 201.773 153.871 201.773 153.871C201.773 153.871 202.937 144.707 201.804 142.253C201.209 141.158 200.219 140.33 199.034 139.936C197.849 139.543 196.559 139.615 195.425 140.136C194.291 140.658 193.398 141.59 192.929 142.744C192.459 143.898 192.447 145.187 192.896 146.349Z" fill="#2D47FE"/>
<path opacity="0.1" d="M177.205 162.872C177.909 165.479 184.679 171.781 184.679 171.781C184.679 171.781 187.382 162.945 186.682 160.338C186.284 159.155 185.449 158.168 184.347 157.578C183.244 156.987 181.958 156.839 180.749 157.162C179.541 157.485 178.502 158.255 177.843 159.316C177.185 160.377 176.957 161.649 177.205 162.872Z" fill="#2D47FE"/>
<path opacity="0.25" d="M233.993 122.345C232.306 124.459 223.579 127.553 223.579 127.553C223.579 127.553 224.63 118.378 226.316 116.264C226.701 115.716 227.194 115.252 227.765 114.902C228.336 114.551 228.973 114.321 229.637 114.225C230.3 114.129 230.977 114.169 231.624 114.344C232.271 114.518 232.876 114.823 233.401 115.239C233.926 115.655 234.36 116.174 234.676 116.764C234.992 117.354 235.184 118.002 235.24 118.668C235.295 119.335 235.214 120.006 235 120.64C234.786 121.274 234.444 121.857 233.996 122.354L233.993 122.345Z" fill="black"/>
<path opacity="0.25" d="M230.998 139.089C228.43 139.95 219.423 137.811 219.423 137.811C219.423 137.811 225.306 130.679 227.874 129.818C228.496 129.56 229.165 129.433 229.839 129.444C230.513 129.455 231.178 129.604 231.791 129.883C232.405 130.161 232.955 130.562 233.406 131.061C233.858 131.56 234.202 132.146 234.417 132.784C234.631 133.421 234.712 134.095 234.655 134.765C234.597 135.435 234.402 136.086 234.081 136.677C233.76 137.269 233.321 137.788 232.791 138.203C232.26 138.617 231.65 138.919 230.998 139.089Z" fill="black"/>
<path opacity="0.25" d="M214.76 158.882C212.11 158.334 205.416 151.949 205.416 151.949C205.416 151.949 214.106 148.754 216.757 149.305C217.958 149.639 218.987 150.416 219.635 151.478C220.284 152.54 220.503 153.808 220.249 155.025C219.996 156.242 219.287 157.318 218.268 158.034C217.249 158.75 215.995 159.054 214.76 158.882Z" fill="black"/>
<path opacity="0.25" d="M199.095 171.1C196.388 171.005 188.709 165.843 188.709 165.843C188.709 165.843 196.732 161.229 199.439 161.321C200.109 161.303 200.776 161.422 201.399 161.672C202.021 161.921 202.586 162.295 203.058 162.77C203.531 163.245 203.9 163.811 204.145 164.435C204.389 165.058 204.503 165.724 204.48 166.393C204.456 167.061 204.296 167.718 204.008 168.322C203.72 168.927 203.312 169.466 202.807 169.907C202.303 170.348 201.713 170.682 201.075 170.887C200.436 171.092 199.762 171.164 199.095 171.1Z" fill="black"/>
<path opacity="0.25" d="M211.037 131.827C211.382 134.505 217.249 141.653 217.249 141.653C217.249 141.653 221.113 133.258 220.766 130.577C220.723 129.908 220.544 129.254 220.238 128.657C219.933 128.06 219.507 127.531 218.989 127.104C218.47 126.677 217.869 126.361 217.223 126.175C216.577 125.989 215.9 125.938 215.233 126.023C214.566 126.109 213.923 126.33 213.346 126.673C212.768 127.017 212.267 127.474 211.874 128.019C211.481 128.563 211.203 129.181 211.06 129.836C210.916 130.492 210.908 131.169 211.037 131.827Z" fill="black"/>
<path opacity="0.25" d="M192.896 146.349C194.029 148.8 201.773 153.871 201.773 153.871C201.773 153.871 202.937 144.707 201.804 142.253C201.209 141.158 200.219 140.33 199.034 139.936C197.849 139.543 196.559 139.615 195.425 140.136C194.291 140.658 193.398 141.59 192.929 142.744C192.459 143.898 192.447 145.187 192.896 146.349Z" fill="black"/>
<path opacity="0.25" d="M177.205 162.872C177.909 165.479 184.679 171.781 184.679 171.781C184.679 171.781 187.382 162.945 186.682 160.338C186.284 159.155 185.449 158.168 184.347 157.578C183.244 156.987 181.958 156.839 180.749 157.162C179.541 157.485 178.502 158.255 177.843 159.316C177.185 160.377 176.957 161.649 177.205 162.872Z" fill="black"/>
</g>
<g opacity="0.1">
<path opacity="0.1" d="M185.659 149.627C185.659 149.627 186.752 126.674 199.386 113.874C204.72 108.538 208.175 101.62 209.231 94.159C209.702 90.6135 209.846 87.0324 209.661 83.4607" stroke="#535461" stroke-width="2" stroke-miterlimit="10"/>
<path opacity="0.1" d="M217.583 75.3452C216.696 77.8973 209.489 83.6937 209.489 83.6937C209.489 83.6937 207.431 74.6896 208.316 72.1375C208.495 71.4919 208.805 70.8897 209.227 70.3683C209.649 69.8469 210.174 69.4172 210.769 69.1059C211.363 68.7946 212.016 68.6082 212.686 68.5583C213.356 68.5084 214.029 68.5959 214.664 68.8156C215.298 69.0353 215.881 69.3824 216.376 69.8355C216.871 70.2886 217.267 70.838 217.541 71.4499C217.814 72.0618 217.959 72.7232 217.967 73.3932C217.974 74.0632 217.844 74.7275 217.583 75.3452Z" fill="#2D47FE"/>
<path opacity="0.1" d="M220.326 92.122C218.176 93.7856 208.979 94.7445 208.979 94.7445C208.979 94.7445 212.159 86.0682 214.294 84.4077C215.326 83.7064 216.587 83.4233 217.82 83.6158C219.054 83.8083 220.168 84.4619 220.936 85.444C221.704 86.4261 222.068 87.6629 221.955 88.9032C221.842 90.1436 221.26 91.2944 220.326 92.122Z" fill="#2D47FE"/>
<path opacity="0.1" d="M211.59 116.175C208.906 116.534 200.468 112.726 200.468 112.726C200.468 112.726 207.603 106.828 210.276 106.479C211.521 106.394 212.752 106.785 213.719 107.572C214.686 108.359 215.317 109.484 215.482 110.718C215.648 111.952 215.337 113.203 214.612 114.217C213.887 115.23 212.802 115.93 211.578 116.175H211.59Z" fill="#2D47FE"/>
<path opacity="0.1" d="M200.87 132.884C198.287 133.689 189.326 131.352 189.326 131.352C189.326 131.352 195.359 124.345 197.946 123.539C198.573 123.298 199.243 123.188 199.915 123.216C200.587 123.243 201.246 123.408 201.851 123.7C202.457 123.991 202.996 124.404 203.435 124.912C203.874 125.42 204.204 126.012 204.405 126.652C204.605 127.292 204.672 127.966 204.6 128.633C204.529 129.3 204.321 129.945 203.99 130.529C203.659 131.112 203.211 131.622 202.674 132.026C202.138 132.43 201.523 132.72 200.87 132.877V132.884Z" fill="#2D47FE"/>
<path opacity="0.1" d="M199.079 91.8831C200.308 94.2942 208.208 99.098 208.208 99.098C208.208 99.098 209.059 89.907 207.843 87.4867C207.58 86.8704 207.193 86.3144 206.706 85.853C206.219 85.3917 205.642 85.0348 205.011 84.8044C204.381 84.574 203.709 84.475 203.039 84.5135C202.368 84.5519 201.713 84.7271 201.113 85.0281C200.513 85.3291 199.981 85.7496 199.55 86.2636C199.119 86.7776 198.799 87.3742 198.608 88.0166C198.418 88.659 198.361 89.3335 198.442 89.9985C198.523 90.6635 198.74 91.3049 199.079 91.8831Z" fill="#2D47FE"/>
<path opacity="0.1" d="M186.792 111.579C188.678 113.518 197.666 115.739 197.666 115.739C197.666 115.739 195.722 106.711 193.836 104.771C193.401 104.259 192.865 103.842 192.261 103.545C191.658 103.249 191 103.079 190.328 103.046C189.656 103.013 188.984 103.118 188.354 103.355C187.725 103.592 187.151 103.955 186.667 104.422C186.184 104.889 185.802 105.45 185.545 106.07C185.288 106.69 185.162 107.356 185.174 108.027C185.185 108.698 185.335 109.36 185.613 109.97C185.892 110.581 186.293 111.129 186.792 111.579Z" fill="#2D47FE"/>
<path opacity="0.1" d="M177.485 132.36C179.021 134.591 187.499 138.292 187.499 138.292C187.499 138.292 187.109 129.064 185.582 126.836C185.242 126.255 184.786 125.75 184.241 125.352C183.697 124.954 183.076 124.673 182.418 124.525C181.76 124.377 181.078 124.366 180.415 124.492C179.752 124.618 179.123 124.879 178.565 125.259C178.008 125.638 177.535 126.128 177.176 126.698C176.817 127.268 176.579 127.905 176.478 128.57C176.377 129.236 176.414 129.915 176.587 130.565C176.76 131.216 177.066 131.824 177.485 132.351V132.36Z" fill="#2D47FE"/>
</g>
<path d="M303.672 190.772C303.672 190.772 305.361 192.975 302.895 196.287C300.428 199.599 298.394 202.414 299.208 204.489C299.208 204.489 302.931 198.318 305.966 198.229C309.001 198.141 307.005 194.483 303.672 190.772Z" fill="#2D47FE"/>
<path opacity="0.1" d="M303.672 190.772C303.819 190.986 303.936 191.219 304.019 191.465C306.974 194.927 308.547 198.159 305.705 198.239C303.06 198.315 299.887 203.033 299.125 204.225C299.151 204.317 299.18 204.408 299.215 204.498C299.215 204.498 302.938 198.327 305.972 198.239C309.007 198.15 307.005 194.483 303.672 190.772Z" fill="black"/>
<path d="M306.811 193.575C306.811 194.35 306.722 194.978 306.614 194.978C306.507 194.978 306.421 194.35 306.421 193.575C306.421 192.8 306.528 193.165 306.636 193.165C306.743 193.165 306.811 192.8 306.811 193.575Z" fill="#FFD037"/>
<path d="M307.886 194.501C307.204 194.871 306.608 195.095 306.559 195C306.51 194.905 307.017 194.531 307.699 194.161C308.381 193.79 308.113 194.059 308.165 194.161C308.218 194.262 308.571 194.142 307.886 194.501Z" fill="#FFD037"/>
<path d="M294.748 190.772C294.748 190.772 293.059 192.975 295.525 196.287C297.992 199.599 300.026 202.414 299.211 204.489C299.211 204.489 295.492 198.318 292.454 198.229C289.416 198.141 291.428 194.483 294.748 190.772Z" fill="#2D47FE"/>
<path opacity="0.1" d="M294.748 190.772C294.601 190.986 294.484 191.219 294.401 191.465C291.446 194.927 289.874 198.159 292.715 198.239C295.36 198.315 298.533 203.033 299.295 204.225C299.27 204.318 299.239 204.409 299.202 204.498C299.202 204.498 295.482 198.327 292.445 198.239C289.407 198.15 291.428 194.483 294.748 190.772Z" fill="black"/>
<path d="M291.621 193.575C291.621 194.35 291.71 194.978 291.818 194.978C291.925 194.978 292.011 194.35 292.011 193.575C292.011 192.8 291.904 193.165 291.796 193.165C291.689 193.165 291.621 192.8 291.621 193.575Z" fill="#FFD037"/>
<path d="M290.546 194.501C291.228 194.871 291.821 195.095 291.873 195C291.925 194.905 291.416 194.531 290.734 194.161C290.052 193.79 290.319 194.059 290.267 194.161C290.215 194.262 289.864 194.142 290.546 194.501Z" fill="#FFD037"/>
<path d="M292.159 204.206C292.159 204.206 296.877 204.062 298.302 203.051C299.727 202.04 305.561 200.836 305.914 202.439C306.267 204.041 313.003 210.496 307.677 210.539C302.351 210.582 295.301 209.709 293.882 208.848C292.463 207.987 292.159 204.206 292.159 204.206Z" fill="#A8A8A8"/>
<path opacity="0.2" d="M307.769 209.988C302.443 210.031 295.393 209.161 293.974 208.3C292.893 207.644 292.463 205.288 292.318 204.2H292.159C292.159 204.2 292.466 207.996 293.879 208.857C295.292 209.718 302.348 210.588 307.674 210.548C309.21 210.533 309.741 209.988 309.714 209.182C309.492 209.675 308.912 209.979 307.769 209.988Z" fill="black"/>
<path opacity="0.1" d="M0.258057 220.131C6.6104 222.422 14.3604 221.028 21.5667 221.191C22.5527 221.212 23.6002 221.28 24.3896 221.675C25.179 222.07 25.5722 222.713 26.1129 223.262C28.1341 225.305 32.2563 225.964 35.8902 225.618C39.524 225.271 42.8231 224.123 46.245 223.246C52.1458 221.736 58.8913 221.047 64.7123 222.695C65.2464 222.888 65.8125 222.977 66.3802 222.958C67.655 222.824 68.0359 221.733 68.9298 221.102C70.5394 219.971 74.0381 220.278 74.7476 218.786C75.1623 217.913 74.207 217.018 73.1688 216.421C69.1909 214.138 63.4989 213.761 58.2954 214.114C53.0919 214.466 47.9713 215.437 42.7371 215.44C36.2189 215.44 29.9187 213.951 23.4619 213.342C18.9895 212.919 14.1116 212.971 9.91866 214.218C5.36635 215.566 4.36497 218.593 0.258057 220.131Z" fill="#2D47FE"/>
<path d="M72.0751 214.124C72.6398 213.667 73.0513 213.049 73.2546 212.353C73.4051 211.649 73.1041 210.806 72.4314 210.549C71.6758 210.261 70.8679 210.782 70.2566 211.309C69.6453 211.835 68.9419 212.439 68.1402 212.329C68.5525 211.956 68.8609 211.483 69.0353 210.955C69.2097 210.428 69.2442 209.865 69.1354 209.32C69.1005 209.095 69.0049 208.883 68.859 208.707C68.4412 208.26 67.6794 208.453 67.1757 208.805C65.5784 209.927 65.133 212.09 65.1268 214.038C64.964 213.334 65.0992 212.604 65.0961 211.894C65.093 211.183 64.8934 210.362 64.2852 209.988C63.9095 209.781 63.4858 209.675 63.0565 209.682C62.3377 209.657 61.539 209.728 61.0476 210.252C60.4332 210.901 60.596 211.995 61.1274 212.702C61.6588 213.41 62.4636 213.867 63.2039 214.363C63.7997 214.716 64.3079 215.199 64.6906 215.775C64.7359 215.855 64.773 215.939 64.8012 216.027H69.2829C70.2962 215.522 71.2356 214.882 72.0751 214.124Z" fill="#2D47FE"/>
<path d="M36.3111 218.957C36.3111 218.957 32.0107 204.341 37.1189 193.581C39.2971 189.083 39.9545 184.001 38.9927 179.099C38.515 176.775 37.8262 174.5 36.9346 172.301" stroke="#535461" stroke-width="2" stroke-miterlimit="10"/>
<path d="M40.1261 165.503C40.1261 167.296 36.8731 172.489 36.8731 172.489C36.8731 172.489 33.6201 167.28 33.6201 165.503C33.6201 164.643 33.9628 163.818 34.5729 163.209C35.1829 162.601 36.0103 162.259 36.8731 162.259C37.7358 162.259 38.5632 162.601 39.1733 163.209C39.7833 163.818 40.1261 164.643 40.1261 165.503Z" fill="#2D47FE"/>
<path d="M45.5015 175.427C44.5247 176.928 38.9648 179.526 38.9648 179.526C38.9648 179.526 39.0631 173.398 40.04 171.9C40.5088 171.178 41.2461 170.671 42.0898 170.491C42.9334 170.311 43.8143 170.472 44.5385 170.94C45.2628 171.407 45.7711 172.143 45.9517 172.984C46.1323 173.826 45.9703 174.704 45.5015 175.427Z" fill="#2D47FE"/>
<path d="M45.2652 192.381C43.6617 193.187 37.5459 192.632 37.5459 192.632C37.5459 192.632 40.7344 187.396 42.3378 186.59C43.1077 186.203 44.0002 186.137 44.8191 186.406C45.638 186.675 46.3161 187.258 46.7043 188.026C47.0925 188.794 47.1589 189.684 46.8891 190.501C46.6192 191.317 46.035 191.994 45.2652 192.381Z" fill="#2D47FE"/>
<path d="M42.1902 205.171C40.7465 206.234 34.6245 206.702 34.6245 206.702C34.6245 206.702 36.8792 201.004 38.3106 199.938C38.6514 199.659 39.0454 199.453 39.4687 199.33C39.892 199.208 40.3357 199.173 40.773 199.227C41.2103 199.281 41.6321 199.423 42.0126 199.645C42.3932 199.867 42.7247 200.163 42.9869 200.516C43.2492 200.869 43.4367 201.272 43.5382 201.7C43.6398 202.127 43.6531 202.571 43.5774 203.004C43.5018 203.437 43.3387 203.85 43.0981 204.218C42.8576 204.587 42.5445 204.902 42.1779 205.146L42.1902 205.171Z" fill="#2D47FE"/>
<path d="M32.1364 179.874C33.4235 181.121 39.4257 182.414 39.4257 182.414C39.4257 182.414 37.9543 176.468 36.6611 175.221C36.3575 174.911 35.9947 174.665 35.5943 174.498C35.194 174.33 34.764 174.245 34.3298 174.245C33.8956 174.246 33.466 174.334 33.0662 174.503C32.6665 174.672 32.3047 174.919 32.0022 175.23C31.6998 175.54 31.4627 175.908 31.305 176.312C31.1474 176.715 31.0723 177.146 31.0842 177.579C31.0962 178.012 31.1949 178.438 31.3745 178.832C31.5542 179.226 31.8112 179.581 32.1303 179.874H32.1364Z" fill="#2D47FE"/>
<path d="M28.7359 194.878C30.3394 195.684 36.4552 195.126 36.4552 195.126C36.4552 195.126 33.2698 189.89 31.6633 189.084C30.8954 188.718 30.014 188.666 29.2083 188.94C28.4025 189.214 27.7366 189.792 27.3534 190.55C26.9703 191.309 26.9004 192.187 27.1589 192.996C27.4174 193.805 27.9836 194.48 28.7359 194.878Z" fill="#2D47FE"/>
<path d="M27.4275 209.911C28.8712 210.977 34.9932 211.443 34.9932 211.443C34.9932 211.443 32.7385 205.745 31.3071 204.682C30.9663 204.403 30.5723 204.196 30.149 204.074C29.7257 203.952 29.282 203.917 28.8447 203.971C28.4074 204.025 27.9856 204.167 27.6051 204.389C27.2245 204.61 26.893 204.907 26.6308 205.26C26.3685 205.613 26.1809 206.016 26.0794 206.443C25.9779 206.871 25.9646 207.315 26.0402 207.748C26.1159 208.181 26.279 208.594 26.5195 208.962C26.7601 209.33 27.0732 209.646 27.4398 209.89L27.4275 209.911Z" fill="#2D47FE"/>
<path d="M40.1261 165.503C40.1261 167.296 36.8731 172.489 36.8731 172.489C36.8731 172.489 33.6201 167.28 33.6201 165.503C33.6201 164.643 33.9628 163.818 34.5729 163.209C35.1829 162.601 36.0103 162.259 36.8731 162.259C37.7358 162.259 38.5632 162.601 39.1733 163.209C39.7833 163.818 40.1261 164.643 40.1261 165.503Z" fill="#2D47FE"/>
<path d="M45.5015 175.427C44.5247 176.928 38.9648 179.526 38.9648 179.526C38.9648 179.526 39.0631 173.398 40.04 171.9C40.5088 171.178 41.2461 170.671 42.0898 170.491C42.9334 170.311 43.8143 170.472 44.5385 170.94C45.2628 171.407 45.7711 172.143 45.9517 172.984C46.1323 173.826 45.9703 174.704 45.5015 175.427Z" fill="#2D47FE"/>
<path d="M45.2652 192.381C43.6617 193.187 37.5459 192.632 37.5459 192.632C37.5459 192.632 40.7344 187.396 42.3378 186.59C43.1077 186.203 44.0002 186.137 44.8191 186.406C45.638 186.675 46.3161 187.258 46.7043 188.026C47.0925 188.794 47.1589 189.684 46.8891 190.501C46.6192 191.317 46.035 191.994 45.2652 192.381Z" fill="#2D47FE"/>
<path d="M42.1902 205.171C40.7465 206.234 34.6245 206.702 34.6245 206.702C34.6245 206.702 36.8792 201.004 38.3106 199.938C38.6514 199.659 39.0454 199.453 39.4687 199.33C39.892 199.208 40.3357 199.173 40.773 199.227C41.2103 199.281 41.6321 199.423 42.0126 199.645C42.3932 199.867 42.7247 200.163 42.9869 200.516C43.2492 200.869 43.4367 201.272 43.5382 201.7C43.6398 202.127 43.6531 202.571 43.5774 203.004C43.5018 203.437 43.3387 203.85 43.0981 204.218C42.8576 204.587 42.5445 204.902 42.1779 205.146L42.1902 205.171Z" fill="#2D47FE"/>
<path d="M32.1364 179.874C33.4235 181.121 39.4257 182.414 39.4257 182.414C39.4257 182.414 37.9543 176.468 36.6611 175.221C36.3575 174.911 35.9947 174.665 35.5943 174.498C35.194 174.33 34.764 174.245 34.3298 174.245C33.8956 174.246 33.466 174.334 33.0662 174.503C32.6665 174.672 32.3047 174.919 32.0022 175.23C31.6998 175.54 31.4627 175.908 31.305 176.312C31.1474 176.715 31.0723 177.146 31.0842 177.579C31.0962 178.012 31.1949 178.438 31.3745 178.832C31.5542 179.226 31.8112 179.581 32.1303 179.874H32.1364Z" fill="#2D47FE"/>
<path d="M28.7359 194.878C30.3394 195.684 36.4552 195.126 36.4552 195.126C36.4552 195.126 33.2698 189.89 31.6633 189.084C30.8954 188.718 30.014 188.666 29.2083 188.94C28.4025 189.214 27.7366 189.792 27.3534 190.55C26.9703 191.309 26.9004 192.187 27.1589 192.996C27.4174 193.805 27.9836 194.48 28.7359 194.878Z" fill="#2D47FE"/>
<path d="M27.4275 209.911C28.8712 210.977 34.9932 211.443 34.9932 211.443C34.9932 211.443 32.7385 205.745 31.3071 204.682C30.9663 204.403 30.5723 204.196 30.149 204.074C29.7257 203.952 29.282 203.917 28.8447 203.971C28.4074 204.025 27.9856 204.167 27.6051 204.389C27.2245 204.61 26.893 204.907 26.6308 205.26C26.3685 205.613 26.1809 206.016 26.0794 206.443C25.9779 206.871 25.9646 207.315 26.0402 207.748C26.1159 208.181 26.279 208.594 26.5195 208.962C26.7601 209.33 27.0732 209.646 27.4398 209.89L27.4275 209.911Z" fill="#2D47FE"/>
<path d="M26.1099 218.038C26.1099 218.038 31.3656 216.997 32.7663 215.609C34.167 214.221 40.4764 211.792 41.1767 213.529C41.8771 215.266 50.6377 221.16 44.6816 222.202C38.7255 223.244 30.6652 223.59 28.9113 222.897C27.1573 222.205 26.1099 218.038 26.1099 218.038Z" fill="#A8A8A8"/>
<path opacity="0.2" d="M44.6816 221.555C38.7224 222.597 30.6652 222.943 28.9113 222.248C27.5782 221.721 26.6505 219.184 26.285 217.999L26.1099 218.035C26.1099 218.035 27.1604 222.199 28.9113 222.894C30.6622 223.59 38.7224 223.241 44.6816 222.199C46.3987 221.892 46.8901 221.194 46.7058 220.299C46.5523 220.881 45.9594 221.332 44.6816 221.555Z" fill="black"/>
<path opacity="0.1" d="M105.612 249.15C117.69 253.197 132.425 250.734 146.128 251.022C148.005 251.061 149.993 251.178 151.498 251.876C153.003 252.575 153.74 253.715 154.772 254.683C158.615 258.292 166.482 259.456 173.359 258.84C180.237 258.224 186.543 256.199 193.019 254.655C204.236 251.984 217.061 250.77 228.125 253.681C229.142 253.947 230.211 254.254 231.298 254.147C233.725 253.911 234.447 251.971 236.146 250.865C239.217 248.868 245.858 249.41 247.204 246.778C247.993 245.247 246.178 243.65 244.203 242.6C236.643 238.565 225.825 237.9 215.924 238.525C206.024 239.15 196.296 240.859 186.347 240.866C173.952 240.866 161.976 238.237 149.701 237.159C141.198 236.408 131.919 236.503 123.947 238.69C115.325 241.089 113.421 246.432 105.612 249.15Z" fill="#2D47FE"/>
<path d="M218.072 218.293C218.139 217.707 218.238 217.125 218.342 216.543C218.803 214.022 218.099 211.62 217.728 210.63C217.62 210.324 217.54 210.149 217.54 210.149C215.676 209.644 208.325 215.324 205.659 217.465C204.737 217.465 203.724 217.505 202.627 217.579C202.148 217.612 201.666 217.625 201.186 217.615C200.756 217.615 200.145 217.615 199.432 217.615C196.947 215.621 189.265 209.619 187.348 210.14C187.348 210.14 187.271 210.312 187.161 210.621C186.801 211.611 186.101 214.013 186.546 216.534C186.654 217.116 186.749 217.698 186.817 218.283C186.961 219.567 187.499 222.021 189.452 223.685C189.867 226.718 191.434 230.703 192.638 233.124C192.728 233.582 192.865 234.029 193.046 234.46C192.549 236.371 191.977 238.868 192.125 239.692C192.125 239.692 189.529 239.064 189.265 242.183C189.265 242.214 189.265 242.247 189.265 242.278C188.325 242.71 187.155 243.69 188.472 245.752C188.631 246.005 188.87 246.198 189.151 246.301C189.385 246.383 189.612 246.383 189.587 246.056L191.212 247.894C191.212 247.894 194.155 248.231 194.189 246.527L194.361 246.555C194.757 246.613 195.172 246.662 195.59 246.705L195.792 247.379C195.792 247.379 193.584 247.333 194.186 248.687C194.186 248.687 194.742 249.202 194.932 249.015C194.932 249.015 194.647 249.904 195.792 249.904C195.792 249.904 197.021 250.559 197.509 250.093C197.998 249.628 198.993 248.923 199.088 248.641C199.116 248.565 199.128 247.872 199.131 246.916H199.322C201.779 246.975 204.402 246.895 206.786 246.766H206.977C206.977 247.805 206.992 248.565 207.02 248.647C207.115 248.929 208.119 249.631 208.598 250.1C209.078 250.568 210.316 249.91 210.316 249.91C211.461 249.91 211.176 249.021 211.176 249.021C211.366 249.208 211.922 248.693 211.922 248.693C212.536 247.339 210.316 247.385 210.316 247.385L210.577 246.521L211.805 246.42L211.996 246.402C211.879 248.255 214.972 247.9 214.972 247.9L216.597 246.062C216.573 246.389 216.8 246.389 217.033 246.307C217.315 246.204 217.553 246.011 217.712 245.758C219.703 242.652 216.023 241.993 216.023 241.993C215.909 241.963 215.793 241.944 215.676 241.938C215.676 241.883 215.676 241.828 215.676 241.776C215.72 241.369 215.728 240.959 215.7 240.55C215.562 239.989 214.653 239.101 213.507 238.96C212.761 238.868 212.742 235.44 212.822 233.062C212.905 232.615 212.945 232.16 212.939 231.705C212.947 230.973 212.843 230.244 212.632 229.542C214.097 227.067 215.27 224.475 215.396 223.694C217.393 222.021 217.927 219.57 218.072 218.293Z" fill="url(#paint0_linear)"/>
<path d="M215.242 241.935C215.126 243.55 214.812 246.142 214.812 246.142C214.812 246.142 213.51 246.301 211.498 246.482L210.134 246.598C209.084 246.681 207.91 246.764 206.669 246.834C204.372 246.96 201.85 247.036 199.475 246.981C198.287 246.954 197.135 246.892 196.066 246.788C195.59 246.742 195.144 246.687 194.686 246.62C191.962 246.215 190.024 245.44 189.845 244.077C189.76 243.503 189.738 242.922 189.781 242.343C190.036 239.279 192.545 239.892 192.545 239.892C192.383 239.046 192.991 236.418 193.467 234.515C193.774 233.317 194.041 232.407 194.041 232.407L211.621 231.231H211.679C211.796 231.231 211.912 231.255 212.019 231.301C212.126 231.347 212.223 231.415 212.303 231.499C212.384 231.584 212.446 231.684 212.487 231.793C212.527 231.902 212.545 232.018 212.539 232.135C212.435 234.236 212.284 239.053 213.154 239.16C214.26 239.298 215.135 240.171 215.267 240.722C215.296 241.127 215.288 241.533 215.242 241.935Z" fill="#D3899B"/>
<path d="M200.308 218.85C200.308 218.85 193.679 226.816 190.478 224.607C190.402 224.555 190.328 224.5 190.257 224.445C188.107 222.821 187.545 220.211 187.397 218.884C187.333 218.308 187.241 217.738 187.139 217.165C186.694 214.69 187.373 212.334 187.717 211.36C187.821 211.053 187.895 210.891 187.895 210.891C190.119 210.278 200.308 218.85 200.308 218.85Z" fill="#D3899B"/>
<path d="M196.76 219.585C196.76 219.585 194.671 221.056 191.725 223.443C191.272 223.816 190.788 224.151 190.279 224.444C188.128 222.821 187.566 220.21 187.419 218.884C187.354 218.308 187.262 217.738 187.161 217.165C186.715 214.69 187.394 212.334 187.738 211.359C191.845 211.647 196.76 219.585 196.76 219.585Z" fill="#EEC5CD"/>
<path opacity="0.1" d="M194.478 218.801C194.478 218.801 193.363 219.585 191.79 220.86C191.547 221.063 191.288 221.246 191.016 221.408C189.87 220.541 189.569 219.147 189.48 218.44C189.446 218.133 189.397 217.827 189.342 217.52C189.186 216.479 189.292 215.414 189.649 214.423C191.861 214.564 194.478 218.801 194.478 218.801Z" fill="black"/>
<path d="M204.605 218.85C204.605 218.85 211.237 226.816 214.435 224.607L214.656 224.445C216.806 222.821 217.365 220.211 217.513 218.884C217.577 218.308 217.672 217.738 217.774 217.165C218.216 214.69 217.54 212.334 217.193 211.36C217.089 211.053 217.012 210.891 217.012 210.891C214.797 210.278 204.605 218.85 204.605 218.85Z" fill="#D3899B"/>
<path d="M208.165 219.585C208.165 219.585 210.254 221.056 213.2 223.443C213.655 223.816 214.14 224.151 214.65 224.444C216.8 222.821 217.359 220.21 217.506 218.884C217.571 218.308 217.666 217.738 217.768 217.165C218.21 214.69 217.534 212.334 217.187 211.359C213.068 211.647 208.165 219.585 208.165 219.585Z" fill="#EEC5CD"/>
<path opacity="0.1" d="M210.454 218.795C210.454 218.795 211.563 219.576 213.126 220.841C213.367 221.04 213.624 221.218 213.894 221.375C215.031 220.514 215.332 219.126 215.412 218.424C215.445 218.118 215.495 217.812 215.547 217.505C215.7 216.468 215.595 215.41 215.24 214.423C213.056 214.582 210.454 218.795 210.454 218.795Z" fill="black"/>
<path opacity="0.1" d="M211.627 231.237C210.792 232.558 209.901 233.749 209.087 234.463C206.448 236.789 195.092 235.873 194.343 235.75C194.189 235.726 193.866 235.266 193.461 234.525C193.768 233.327 194.035 232.417 194.035 232.417L211.627 231.237Z" fill="black"/>
<path d="M202.63 218.182C202.169 218.216 201.708 218.225 201.245 218.219C198.87 218.179 190.884 218.283 189.996 221.497C188.951 225.278 193.617 235.443 194.355 235.565C195.092 235.688 206.448 236.607 209.099 234.279C211.75 231.95 215.178 224.668 214.994 223.994C214.981 223.994 218.262 217.101 202.63 218.182Z" fill="#D3899B"/>
<path opacity="0.1" d="M202.381 224.331C202.381 224.331 196.545 223.433 193.78 229.175C193.232 230.289 192.99 231.529 193.081 232.768C193.172 234.006 193.591 235.198 194.297 236.221C195.218 237.502 196.548 238.455 198.413 237.686C202.563 235.985 202.381 224.331 202.381 224.331Z" fill="black"/>
<path opacity="0.1" d="M202.197 223.964C202.197 223.964 196.361 223.067 193.596 228.808C193.047 229.922 192.806 231.163 192.897 232.401C192.987 233.639 193.407 234.831 194.112 235.854C195.034 237.135 196.364 238.088 198.228 237.322C202.378 235.618 202.197 223.964 202.197 223.964Z" fill="black"/>
<path d="M202.197 224.148C202.197 224.148 196.361 223.25 193.596 228.992C193.047 230.106 192.806 231.346 192.897 232.585C192.987 233.823 193.407 235.015 194.112 236.038C195.034 237.319 196.364 238.272 198.228 237.503C202.378 235.808 202.197 224.148 202.197 224.148Z" fill="#EEC5CD"/>
<path d="M195.887 229.166C195.887 229.166 195.089 229.901 195.396 230.085C195.703 230.269 195.887 229.166 195.887 229.166Z" fill="#3F2B3B"/>
<path d="M196.76 230.106C196.76 230.106 196.327 231.065 196.634 231.173C196.941 231.28 197.129 230.483 197.129 230.483L196.76 230.106Z" fill="#3F2B3B"/>
<path d="M194.819 231.555C194.819 231.555 194.395 232.689 194.819 232.689C195.242 232.689 194.819 231.555 194.819 231.555Z" fill="#3F2B3B"/>
<path d="M194.302 234.583C194.302 234.583 195.153 236.758 197.374 236.605" stroke="#3F2B3B" stroke-miterlimit="10"/>
<path d="M196.287 235.228C196.287 235.228 197.178 236.086 198.13 235.473" stroke="#3F2B3B" stroke-miterlimit="10"/>
<path opacity="0.1" d="M203.118 224.331C203.118 224.331 208.955 223.433 211.719 229.175C212.269 230.289 212.512 231.529 212.421 232.768C212.33 234.006 211.91 235.199 211.203 236.221C210.282 237.502 208.952 238.455 207.09 237.686C202.934 235.985 203.118 224.331 203.118 224.331Z" fill="black"/>
<path opacity="0.1" d="M203.303 223.964C203.303 223.964 209.139 223.067 211.904 228.808C212.454 229.922 212.696 231.162 212.605 232.401C212.514 233.64 212.094 234.832 211.388 235.854C210.466 237.135 209.136 238.088 207.275 237.322C203.118 235.618 203.303 223.964 203.303 223.964Z" fill="black"/>
<path d="M203.303 224.148C203.303 224.148 209.139 223.25 211.904 228.992C212.454 230.106 212.696 231.346 212.605 232.585C212.514 233.824 212.094 235.016 211.388 236.038C210.466 237.319 209.136 238.272 207.275 237.503C203.118 235.808 203.303 224.148 203.303 224.148Z" fill="#EEC5CD"/>
<path d="M209.609 229.166C209.609 229.166 210.408 229.901 210.101 230.085C209.793 230.269 209.609 229.166 209.609 229.166Z" fill="#3F2B3B"/>
<path d="M208.74 230.106C208.74 230.106 209.176 231.065 208.866 231.173C208.555 231.28 208.371 230.483 208.371 230.483L208.74 230.106Z" fill="#3F2B3B"/>
<path d="M210.678 231.555C210.678 231.555 211.102 232.689 210.678 232.689C210.254 232.689 210.678 231.555 210.678 231.555Z" fill="#3F2B3B"/>
<path d="M211.197 234.583C211.197 234.583 210.343 236.758 208.125 236.605" stroke="#3F2B3B" stroke-miterlimit="10"/>
<path d="M209.21 235.228C209.21 235.228 208.319 236.086 207.367 235.473" stroke="#3F2B3B" stroke-miterlimit="10"/>
<path d="M199.97 240.772C200.124 240.741 203.042 239.485 206.049 240.772H199.97Z" fill="#3F2B3B"/>
<path opacity="0.1" d="M194.686 246.62C191.962 246.215 190.024 245.44 189.845 244.077C189.76 243.503 189.738 242.921 189.781 242.343C190.109 242.169 190.459 242.041 190.822 241.963C191.317 241.825 191.928 241.917 193.218 242.269C194.508 242.622 194.416 244.153 194.693 246.126C194.717 246.29 194.715 246.457 194.686 246.62Z" fill="black"/>
<path d="M190.641 242.147C190.641 242.147 187.093 242.796 189.013 245.844C189.164 246.092 189.395 246.282 189.667 246.384C189.892 246.463 190.11 246.463 190.088 246.142L191.652 247.934C191.652 247.934 194.785 248.301 194.508 246.325C194.232 244.349 194.324 242.836 193.034 242.468C191.744 242.101 191.133 242.009 190.641 242.147Z" fill="#D3899B"/>
<path d="M191.483 244.199C191.483 244.199 192.235 245.915 193.28 244.475" stroke="#3F2B3B" stroke-miterlimit="10"/>
<path d="M189.76 244.874C189.76 244.874 190.15 246.492 191.621 245.285" stroke="#3F2B3B" stroke-miterlimit="10"/>
<path opacity="0.1" d="M215.243 241.935C215.126 243.549 214.813 246.141 214.813 246.141C214.813 246.141 213.51 246.301 211.498 246.481C211.488 246.368 211.488 246.254 211.498 246.141C211.775 244.168 211.683 242.652 212.973 242.284C214.158 241.95 214.773 241.843 215.243 241.935Z" fill="black"/>
<path d="M215.565 242.147C215.565 242.147 219.11 242.796 217.193 245.844C217.04 246.092 216.808 246.281 216.536 246.384C216.311 246.463 216.093 246.463 216.118 246.142L214.551 247.934C214.551 247.934 211.421 248.301 211.698 246.325C211.974 244.349 211.882 242.836 213.169 242.468C214.456 242.101 215.07 242.009 215.565 242.147Z" fill="#D3899B"/>
<path d="M214.72 244.199C214.72 244.199 213.968 245.915 212.923 244.475" stroke="#3F2B3B" stroke-miterlimit="10"/>
<path d="M216.447 244.874C216.447 244.874 216.056 246.492 214.582 245.285" stroke="#3F2B3B" stroke-miterlimit="10"/>
<path opacity="0.1" d="M199.475 246.982C198.287 246.954 197.135 246.893 196.066 246.789L195.006 243.223C194.913 242.912 194.888 242.585 194.932 242.263C194.977 241.942 195.09 241.634 195.264 241.36C195.438 241.086 195.669 240.853 195.942 240.675C196.214 240.498 196.521 240.381 196.843 240.332C197.164 240.284 197.493 240.304 197.805 240.393C198.118 240.482 198.408 240.636 198.656 240.846C198.904 241.056 199.104 241.317 199.242 241.611C199.38 241.904 199.453 242.224 199.457 242.549C199.466 243.949 199.478 245.707 199.475 246.982Z" fill="black"/>
<path d="M194.822 243.222L196.072 247.428C196.072 247.428 193.943 247.382 194.536 248.715C194.536 248.715 195.07 249.221 195.255 249.021C195.255 249.021 194.981 249.895 196.084 249.895C196.084 249.895 197.279 250.535 197.74 250.078C198.201 249.622 199.171 248.93 199.276 248.654C199.334 248.473 199.316 244.956 199.297 242.526C199.292 241.929 199.05 241.358 198.624 240.937C198.198 240.517 197.623 240.281 197.024 240.281C196.665 240.275 196.309 240.354 195.987 240.512C195.664 240.671 195.384 240.903 195.169 241.19C194.954 241.477 194.81 241.811 194.75 242.164C194.69 242.517 194.714 242.88 194.822 243.222Z" fill="#D3899B"/>
<path d="M196.511 248.516C196.511 248.516 195.59 249.405 196.072 249.91" stroke="#3F2B3B" stroke-miterlimit="10"/>
<path d="M196.103 247.962C196.103 247.962 195.243 248.241 195.243 249.037" stroke="#3F2B3B" stroke-miterlimit="10"/>
<path opacity="0.1" d="M211.234 242.576C211.234 242.795 211.202 243.013 211.139 243.223L210.134 246.593C209.084 246.675 207.91 246.758 206.669 246.829C206.669 245.569 206.669 243.891 206.688 242.539C206.69 241.938 206.932 241.362 207.36 240.939C207.788 240.516 208.367 240.279 208.97 240.282C209.573 240.284 210.15 240.525 210.575 240.952C210.999 241.379 211.236 241.957 211.234 242.558V242.576Z" fill="black"/>
<path d="M211.32 243.222L210.07 247.428C210.07 247.428 212.199 247.382 211.606 248.715C211.606 248.715 211.071 249.221 210.887 249.022C210.887 249.022 211.163 249.895 210.058 249.895C210.058 249.895 208.866 250.535 208.402 250.079C207.938 249.622 206.974 248.93 206.866 248.654C206.805 248.473 206.823 244.956 206.845 242.527C206.849 241.929 207.091 241.358 207.516 240.937C207.941 240.517 208.516 240.281 209.115 240.281C209.474 240.275 209.83 240.354 210.153 240.511C210.476 240.669 210.757 240.901 210.972 241.189C211.187 241.476 211.331 241.81 211.392 242.163C211.452 242.517 211.428 242.88 211.32 243.222Z" fill="#D3899B"/>
<path d="M209.631 248.516C209.631 248.516 210.552 249.405 210.07 249.91" stroke="#3F2B3B" stroke-miterlimit="10"/>
<path d="M210.039 247.962C210.039 247.962 210.899 248.241 210.899 249.037" stroke="#3F2B3B" stroke-miterlimit="10"/>
<path opacity="0.1" d="M202.197 223.229C202.197 223.229 197.869 223.091 197.731 226.443C197.592 229.794 204.488 228.373 204.488 228.373C204.488 228.373 207.391 227.984 206.884 225.949C206.378 223.915 205.33 223.413 202.197 223.229Z" fill="black"/>
<path opacity="0.1" d="M202.197 222.861C202.197 222.861 197.869 222.723 197.731 226.074C197.592 229.426 204.488 228.005 204.488 228.005C204.488 228.005 207.391 227.615 206.884 225.581C206.378 223.547 205.33 223.044 202.197 222.861Z" fill="black"/>
<path d="M202.197 223.045C202.197 223.045 197.869 222.907 197.731 226.259C197.592 229.61 204.488 228.189 204.488 228.189C204.488 228.189 207.391 227.8 206.884 225.765C206.378 223.731 205.33 223.229 202.197 223.045Z" fill="#3F2B3B"/>
<path opacity="0.1" d="M192.536 239.899C192.536 239.899 193.986 240.42 194.281 241.412L192.536 239.899Z" fill="black"/>
<path opacity="0.1" d="M213.154 239.178C213.154 239.178 212.115 239.614 212.186 241.427L213.154 239.178Z" fill="black"/>
<path d="M193.096 247.448C193.419 247.262 193.431 246.678 193.122 246.145C192.813 245.612 192.301 245.33 191.978 245.516C191.655 245.702 191.643 246.286 191.952 246.819C192.26 247.352 192.773 247.634 193.096 247.448Z" fill="#EEC5CD"/>
<path d="M215.333 245.909C215.642 245.373 215.629 244.788 215.304 244.601C214.98 244.415 214.466 244.699 214.157 245.235C213.849 245.77 213.862 246.356 214.186 246.542C214.511 246.728 215.025 246.444 215.333 245.909Z" fill="#EEC5CD"/>
<path d="M193.783 124.416C192.785 124.092 186.909 119.548 186.466 117.492C186.024 115.437 189.569 96.2918 189.569 96.2918C189.569 96.2918 189.243 96.2765 188.721 96.2275V95.9211L189.449 70.7653C189.449 70.7653 192.441 53.8937 186.789 54.8648C181.137 55.836 184.682 70.7653 184.682 70.7653C184.682 70.7653 184.037 78.3387 183.585 80.612C183.146 82.7994 181.174 91.7208 182.522 94.4935C182.57 94.5926 182.626 94.6879 182.688 94.7784C182.688 94.7784 182.909 104.294 180.47 105.593C178.142 106.819 177.174 113.056 177.091 113.617L176.969 113.562C176.275 113.139 175.663 112.595 175.162 111.956C175.116 111.892 175.073 111.822 175.027 111.754C176.613 110.022 177.471 107.747 177.424 105.401C177.377 103.056 176.427 100.818 174.772 99.1503L174.542 98.9266C174.732 98.7382 174.873 98.5055 174.95 98.2495C175.381 96.9567 173.894 95.9181 173.123 95.1093C171.338 93.2159 169.729 90.8967 167.24 89.8244C167.954 90.2278 168.614 90.7176 169.206 91.2827C168.455 90.6365 167.595 90.1282 166.666 89.7815C164.061 88.8624 161.063 89.6222 158.79 91.1724C156.517 92.7227 154.837 94.9561 153.301 97.2079L152.558 98.3108C151.907 97.5818 151.198 96.9066 150.438 96.2918C148.997 95.2104 146.116 91.6412 146.116 91.6412C146.116 91.6412 137.137 82.5543 136.471 80.0666C135.804 77.5789 126.829 62.6496 124.832 65.2476C122.835 67.8456 131.704 79.1996 131.704 79.1996C131.704 79.1996 133.368 83.3111 134.698 84.7142C136.029 86.1174 145.892 100.183 145.892 100.183L146.727 101.868L146.884 102.174L146.78 102.116V104.172L147.701 104.254C147.292 104.616 146.918 105.015 146.583 105.446C146.083 106.171 145.711 106.976 145.483 107.827C144.03 112.615 144.623 117.857 146.497 122.505C146.884 123.461 147.326 124.413 147.443 125.434C147.612 126.861 147.136 128.274 146.847 129.686C146.448 131.668 146.463 133.828 147.462 135.596C148.798 137.942 151.793 139.165 154.508 138.727C155.747 138.518 156.92 138.02 157.93 137.275C159.202 136.394 160.229 135.205 160.913 133.819C161.419 132.786 161.736 131.674 162.24 130.639C162.335 130.44 162.442 130.25 162.547 130.057C163.696 131.34 164.728 132.508 164.728 132.508C164.728 132.508 167.167 144.189 165.059 147.434C163.939 149.066 162.582 150.524 161.032 151.76C160.641 152.081 160.282 152.439 159.96 152.829C159.752 152.979 159.629 153.059 159.629 153.059C159.629 153.059 159.573 153.215 159.494 153.454C158.999 154.179 158.641 154.988 158.437 155.84C158.361 156.059 158.333 156.291 158.357 156.521C158.507 156.827 157.273 158.052 157.635 158.576C154.563 162.1 153.974 167.443 153.974 167.443L148.374 175.773C145.493 183.181 141.171 183.941 141.171 183.941C141.171 183.941 131.034 177.286 130.748 176.961C130.463 176.637 126.592 175.016 126.592 175.016C126.133 174.226 125.435 173.601 124.599 173.23C123.269 172.691 123.158 170.69 123.158 170.69C122.992 165.984 120.163 165.604 120.163 165.604C117.884 165.418 116.139 165.813 114.803 166.539L114.397 166.569C112.435 166.726 110.069 166.897 107.471 167.066C100.261 167.531 98.5472 172.096 98.5472 172.096C98.5472 172.096 97.6595 173.068 98.8237 174.121C99.9879 175.175 107.425 174.14 107.732 174.097C107.165 174.159 106.592 174.121 106.039 173.984C107.213 173.941 108.822 173.901 110.192 173.898H110.527C110.441 174.609 110.4 175.326 110.404 176.042C110.404 177.396 114.228 178.26 114.228 178.26L125.867 188.371C125.867 188.371 133.184 191.563 137.847 196.158C142.51 200.754 146.604 196.808 146.604 196.808C151.519 195.619 165.714 178.87 165.726 178.855C165.726 179.369 166.033 195.635 166.598 198.903C166.62 199.069 166.662 199.232 166.721 199.388C167.388 200.797 166.5 204.636 166.107 206.259C165.714 207.883 165.827 210.368 165.827 210.368C165.827 210.368 160.513 230.257 160.971 231.988C161.429 233.719 158.087 241.832 158.087 241.832V248.59C158.087 248.59 158.299 248.59 158.667 248.563C158.591 248.67 158.521 248.781 158.458 248.897C158.444 248.92 158.432 248.945 158.421 248.97C158.421 248.97 161.966 249.727 164.35 249.509C166.734 249.292 170.834 251.308 170.834 251.308C170.834 251.308 172.223 251.945 176.489 252.227C180.756 252.509 180.756 250.389 180.756 250.389C180.265 247.512 173.528 246.553 173.316 246.525C172.773 246.191 172.263 245.827 171.845 245.514L171.756 245.444C171.788 245.382 171.813 245.317 171.833 245.251C172.555 242.383 168.564 241.139 168.564 241.139V240.438C171.166 239.139 171.667 230.214 171.667 230.214C171.667 230.214 175.546 219.185 176.099 217.347C176.652 215.509 176.099 212.751 176.099 212.751L176.489 210.374C176.489 210.374 177.319 208.75 177.319 208.425C177.429 207.599 177.754 206.817 178.262 206.155C178.876 205.451 177.598 203.775 177.598 203.775L178.707 200.962V197.862L181.309 186.667C181.309 186.667 184.027 173.631 183.084 169.357C182.141 165.084 184.193 162.924 184.193 162.924C184.008 163.019 183.817 163.104 183.622 163.178C183.884 162.593 184.108 161.992 184.295 161.38L190.131 162.087C190.131 162.136 190.131 162.17 190.131 162.17H192.235C192.235 162.17 191.572 154.165 191.572 150.92C191.572 147.676 193.789 136.101 193.789 136.101C193.789 136.101 194.779 124.741 193.783 124.416ZM167.901 114.919C167.901 114.965 167.901 115.008 167.901 115.051C167.901 115.357 167.87 115.697 167.849 116.031L167.732 116.209L167.52 116.028L167.253 116.429C167.206 116.175 167.223 115.914 167.302 115.668C167.382 115.422 167.521 115.199 167.707 115.02C167.77 114.983 167.834 114.951 167.901 114.922V114.919ZM187.29 152.397H187.419L187.21 152.924C187.237 152.752 187.262 152.578 187.29 152.4V152.397ZM165.999 248.106L165.204 247.913L165.646 247.84L166.046 248.1L166.095 248.131L165.999 248.106ZM174.121 246.973C173.857 246.835 173.59 246.666 173.332 246.519C173.415 246.565 173.756 246.74 174.121 246.973Z" fill="url(#paint1_linear)"/>
<path d="M189.228 144.299L184.144 157.51L183.432 156.928L180.6 161.312L189.228 162.384V144.299Z" fill="#F1D2D7"/>
<path opacity="0.1" d="M189.222 144.299L184.135 157.51L182.857 157.166L180.59 161.312L189.222 162.384V144.299Z" fill="black"/>
<path d="M181.26 152.751H189.228L192.152 128.744H181.26V152.751Z" fill="#F1D2D7"/>
<path opacity="0.1" d="M181.26 152.751H189.228L192.152 128.744H181.26V152.751Z" fill="black"/>
<path d="M165.695 134.43L167.412 134.124L171.366 133.481C171.366 133.481 183.238 130.815 185.699 130.601C187.234 130.466 188.933 129.835 189.999 129.375C190.641 129.103 191.049 128.891 191.049 128.891L186.774 121.1L180.139 116.198C180.139 116.198 175.943 115.307 174.164 112.871C173.769 112.347 173.512 111.732 173.416 111.083C173.32 110.434 173.388 109.771 173.614 109.155C174.699 105.803 167.145 112.357 167.145 112.357C167.145 112.357 167.219 113.925 167.145 115.926C167.145 116.321 167.108 116.731 167.081 117.151C167.062 117.427 167.038 117.703 167.013 117.985C166.826 119.97 166.448 122.016 165.705 123.239C163.892 126.214 165.695 134.43 165.695 134.43Z" fill="#FFBEC7"/>
<path opacity="0.1" d="M167.139 116.076H167.305C167.612 116.076 167.849 115.439 168.144 115.409C170.506 115.182 172.662 114.689 174.161 113.022C173.767 112.497 173.51 111.882 173.414 111.233C173.318 110.584 173.386 109.922 173.611 109.306C174.696 105.954 167.161 112.504 167.161 112.504C167.161 112.504 167.219 114.073 167.139 116.076Z" fill="black"/>
<path d="M157.946 106.582C157.95 109.016 158.922 111.35 160.65 113.071C162.378 114.791 164.719 115.757 167.161 115.757C167.46 115.757 167.76 115.742 168.058 115.711C169.831 115.538 171.515 114.855 172.906 113.746C174.298 112.636 175.336 111.147 175.895 109.46C176.455 107.774 176.511 105.961 176.057 104.243C175.604 102.525 174.66 100.975 173.34 99.7814C172.02 98.588 170.381 97.8025 168.623 97.5202C166.864 97.2378 165.061 97.4709 163.432 98.191C161.804 98.911 160.42 100.087 159.448 101.577C158.477 103.066 157.96 104.805 157.961 106.582H157.946Z" fill="#FFBEC7"/>
<path opacity="0.1" d="M157.946 106.582C157.95 109.017 158.922 111.351 160.65 113.072C162.378 114.792 164.719 115.758 167.161 115.758C167.46 115.758 167.76 115.743 168.058 115.712C168.221 115.645 168.367 115.54 168.482 115.406C168.589 115.242 168.659 115.058 168.687 114.865C168.716 114.672 168.702 114.475 168.647 114.288C168.285 112.495 166.654 111.209 166.067 109.475C165.551 107.943 165.938 106.206 166.731 104.79C167.523 103.375 168.694 102.207 169.849 101.062C170.042 100.837 170.286 100.66 170.561 100.547C171.544 100.241 173.019 101.098 173.799 100.222C172.525 98.9088 170.887 98.004 169.095 97.6235C167.302 97.243 165.437 97.4041 163.737 98.0861C162.037 98.7682 160.579 99.9402 159.551 101.453C158.522 102.965 157.968 104.749 157.961 106.576L157.946 106.582Z" fill="black"/>
<path d="M170.223 100.393C169.948 100.505 169.704 100.682 169.511 100.908C168.359 102.054 167.188 103.218 166.396 104.636C165.603 106.055 165.216 107.78 165.732 109.318C166.316 111.055 167.95 112.341 168.309 114.134C168.364 114.32 168.378 114.517 168.349 114.709C168.321 114.902 168.251 115.086 168.144 115.249C167.836 115.632 167.253 115.653 166.853 115.941C166.344 116.312 166.239 117.047 166.393 117.657C166.601 118.25 166.885 118.815 167.237 119.336C168.098 120.852 168.466 122.825 167.545 124.299C167.11 124.9 166.593 125.438 166.009 125.895C165.04 126.753 164.145 127.688 163.33 128.692C162.628 129.527 162.028 130.443 161.542 131.419C161.057 132.439 160.75 133.539 160.262 134.559C159.116 136.946 156.861 138.848 154.241 139.28C151.621 139.712 148.73 138.505 147.443 136.192C146.473 134.446 146.46 132.317 146.844 130.371C147.118 128.98 147.581 127.586 147.422 126.177C147.305 125.172 146.878 124.232 146.5 123.288C144.694 118.692 144.12 113.533 145.52 108.809C145.74 107.972 146.099 107.177 146.583 106.459C147.092 105.832 147.653 105.249 148.26 104.716C150.174 102.85 151.584 100.543 153.068 98.322C154.551 96.1008 156.167 93.895 158.363 92.3662C160.56 90.8374 163.45 90.0807 165.963 90.9967C168.592 91.9557 170.217 94.4005 172.042 96.3674C172.782 97.17 174.22 98.1903 173.805 99.4678C173.2 101.269 171.375 100.032 170.223 100.393Z" fill="#493545"/>
<path opacity="0.1" d="M153.756 138.843C156.373 138.411 158.627 136.508 159.773 134.119C160.265 133.101 160.569 132.002 161.057 130.981C161.542 130.005 162.141 129.09 162.842 128.255C163.658 127.25 164.555 126.314 165.523 125.454C166.109 124.998 166.626 124.461 167.059 123.858C167.981 122.385 167.628 120.412 166.771 118.898C166.418 118.376 166.133 117.81 165.923 117.216C165.763 116.604 165.874 115.871 166.383 115.504C166.786 115.216 167.363 115.197 167.677 114.811C167.784 114.648 167.854 114.464 167.882 114.272C167.911 114.079 167.897 113.883 167.843 113.696C167.48 111.901 165.846 110.617 165.262 108.88C164.746 107.348 165.13 105.614 165.926 104.196C166.721 102.777 167.886 101.619 169.028 100.467C169.223 100.243 169.468 100.068 169.744 99.9555C170.893 99.594 172.72 100.832 173.31 99.0211C173.725 97.7436 172.287 96.7203 171.547 95.9207C169.977 94.2265 168.552 92.1799 166.506 91.0188C168.905 92.0666 170.46 94.3613 172.189 96.227C172.929 97.0267 174.367 98.0469 173.952 99.3244C173.362 101.135 171.535 99.8973 170.386 100.259C170.11 100.372 169.865 100.548 169.67 100.774C168.518 101.919 167.351 103.084 166.556 104.502C165.76 105.921 165.376 107.645 165.892 109.186C166.476 110.92 168.11 112.207 168.472 113.999C168.527 114.186 168.541 114.383 168.512 114.575C168.484 114.768 168.413 114.952 168.306 115.115C167.999 115.498 167.413 115.519 167.013 115.81C166.503 116.178 166.399 116.913 166.552 117.523C166.76 118.117 167.045 118.681 167.4 119.202C168.257 120.718 168.629 122.691 167.689 124.165C167.255 124.766 166.738 125.304 166.153 125.761C165.185 126.62 164.289 127.555 163.472 128.558C162.771 129.394 162.172 130.309 161.687 131.285C161.198 132.308 160.894 133.405 160.403 134.425C159.257 136.812 157.002 138.714 154.385 139.146C152.838 139.388 151.254 139.101 149.891 138.331C151.104 138.867 152.445 139.045 153.756 138.843Z" fill="black"/>
<path d="M163.502 245.918L165.109 246.975L165.351 247.137L165.401 247.171L167.302 248.424L171.738 249.171L175.645 248.905C175.645 248.905 176.769 246.558 175.003 246.61C174.436 246.583 173.883 246.426 173.387 246.151L173.147 246.025C172.892 245.89 172.634 245.74 172.386 245.581C171.863 245.25 171.369 244.892 170.967 244.582C170.383 244.132 169.993 243.789 169.993 243.789L163.502 245.918Z" fill="#FFBEC7"/>
<path opacity="0.1" d="M165.121 246.981L165.364 247.143L165.413 247.177L167.314 248.43L171.75 249.178L175.657 248.911C175.657 248.911 176.781 246.564 175.015 246.616C174.448 246.589 173.895 246.432 173.399 246.157C173.682 246.321 173.899 246.577 174.014 246.883C174.084 247.496 171.126 248.568 171.126 248.568L166.952 247.468C166.952 247.468 166.242 247.269 165.269 247.018L165.176 246.993L165.121 246.981Z" fill="black"/>
<path d="M157.995 248.005C157.995 248.005 161.417 248.749 163.717 248.538C166.018 248.326 169.974 250.309 169.974 250.309C169.974 250.309 171.314 250.921 175.43 251.206C179.546 251.491 179.558 249.389 179.558 249.389C179.085 246.556 172.582 245.606 172.376 245.581C172.459 245.624 172.788 245.799 173.138 246.026C173.599 246.332 174.1 246.721 174.137 247.037C174.207 247.649 171.249 248.722 171.249 248.722L167.078 247.625C167.078 247.625 166.368 247.423 165.391 247.171L165.299 247.147C163.862 246.751 162.401 246.444 160.925 246.228C159.128 246.038 158.207 247.564 158.019 247.916C158.004 247.98 157.995 248.005 157.995 248.005Z" fill="#BD577A"/>
<path d="M104.08 172.733L105.898 174.121C105.898 174.121 106.426 174.096 107.213 174.069H107.465C108.595 174.029 110.149 173.989 111.473 173.986C112.702 173.986 113.722 174.023 114.029 174.13C114.95 174.436 116.542 168.955 116.542 168.955L114.717 168.527L114.103 168.386L113.679 168.288L112.198 167.941L107.704 168.447L104.55 170.475L104.08 172.733Z" fill="#FFBEC7"/>
<path opacity="0.1" d="M104.08 172.733L105.898 174.121C105.898 174.121 106.426 174.096 107.213 174.068C106.853 173.927 106.557 173.661 106.38 173.318C105.204 170.064 111.034 168.679 111.034 168.679L113.749 168.56L114.275 168.538L114.717 168.517L114.103 168.376L113.679 168.278L112.198 167.932L107.704 168.437L104.55 170.466L104.08 172.733Z" fill="black"/>
<path d="M100.495 174.197C101.595 175.215 108.789 174.216 109.096 174.173C108.549 174.235 107.995 174.197 107.462 174.06C106.457 173.778 106.215 173.159 106.215 173.159C105.041 169.905 110.868 168.517 110.868 168.517L113.587 168.401L114.112 168.376L120.71 168.092L121.033 166.278C121.033 166.278 118.882 166.483 115.522 166.75C113.627 166.903 111.341 167.074 108.838 167.237C101.88 167.696 100.237 172.2 100.237 172.2C100.237 172.2 99.3861 173.159 100.495 174.197Z" fill="#BD577A"/>
<path d="M181.263 95.632C181.308 95.7296 181.361 95.8238 181.42 95.9139L183.026 98.2607L187.198 98.6896L187.244 97.0413L187.944 72.2255C187.944 72.2255 190.835 55.5806 185.379 56.5426C179.924 57.5046 183.346 72.2255 183.346 72.2255C183.346 72.2255 182.731 79.6948 182.286 81.9343C181.865 84.0973 179.961 92.8962 181.263 95.632Z" fill="#FFBEC7"/>
<path d="M171.9 157.261L173.086 159.289L175.743 163.824C175.743 163.824 180.566 165.585 181.794 164.25C182.473 163.514 183.201 160.962 183.714 158.821C184.135 157.078 184.415 155.607 184.415 155.607L171.9 157.261Z" fill="#FFBEC7"/>
<path opacity="0.1" d="M171.9 157.261L173.086 159.289C173.162 159.225 173.23 159.153 173.292 159.075C174.631 157.365 180.544 158.714 183.714 158.821C184.135 157.078 184.415 155.607 184.415 155.607L171.9 157.261Z" fill="black"/>
<path opacity="0.1" d="M111.473 173.977C112.702 173.977 113.722 174.014 114.029 174.121C114.951 174.427 116.542 168.946 116.542 168.946L114.13 168.376L120.729 168.092L121.051 166.278C121.051 166.278 118.901 166.483 115.54 166.75C114.84 167.147 114.216 167.666 113.697 168.281L113.596 168.404C112.192 170.123 111.673 172.341 111.473 173.977Z" fill="black"/>
<path opacity="0.1" d="M163.502 245.918L165.345 247.143C168.11 246.647 170.632 245.866 170.93 244.643C170.931 244.623 170.931 244.602 170.93 244.582C170.346 244.132 169.956 243.789 169.956 243.789L163.502 245.918Z" fill="black"/>
<path opacity="0.1" d="M158.028 247.931C160.468 247.813 162.899 247.553 165.308 247.153C163.871 246.757 162.41 246.45 160.934 246.234C159.137 246.053 158.216 247.579 158.028 247.931Z" fill="black"/>
<path d="M111.673 176.094C111.673 177.427 115.359 178.282 115.359 178.282L126.592 188.257C126.592 188.257 133.657 191.404 138.145 195.938C142.633 200.472 146.602 196.593 146.602 196.593C151.36 195.42 165.053 178.882 165.053 178.882C165.053 178.882 165.376 197.767 166.018 199.155C166.66 200.542 165.803 204.329 165.428 205.931C165.053 207.534 165.161 209.985 165.161 209.985C165.161 209.985 160.025 229.562 160.455 231.268C160.885 232.975 157.672 240.977 157.672 240.977V247.646C157.672 247.646 170.242 247.166 170.936 244.338C171.63 241.51 167.781 240.284 167.781 240.284V239.577C170.294 238.296 170.776 229.494 170.776 229.494C170.776 229.494 174.521 218.609 175.055 216.814C175.59 215.018 175.055 212.276 175.055 212.276L175.43 209.93C175.43 209.93 176.232 208.33 176.232 208.012C176.34 207.198 176.657 206.425 177.153 205.769C177.743 205.077 176.511 203.422 176.511 203.422L177.583 200.665V197.623L180.096 186.594C180.096 186.594 182.716 173.726 181.807 169.523C180.897 165.319 182.879 163.172 182.879 163.172C178.578 165.421 176.428 160.414 175.712 158.27C175.528 157.715 175.442 157.351 175.442 157.351C175.442 157.351 169.547 155.182 164.055 155.696C162.941 155.79 161.843 156.023 160.787 156.389C154.689 158.576 153.722 167.645 153.722 167.645L148.319 175.862C145.554 183.168 141.364 183.916 141.364 183.916C141.364 183.916 131.578 177.354 131.31 177.035C131.043 176.716 127.299 175.114 127.299 175.114C126.858 174.339 126.185 173.723 125.373 173.352C124.089 172.819 123.984 170.846 123.984 170.846C123.822 166.205 121.094 165.831 121.094 165.831C111.621 164.998 111.673 174.762 111.673 176.094Z" fill="#E7AEB8"/>
<path d="M166.122 150.006H171.9V132.136H166.122V150.006Z" fill="#F1D2D7"/>
<path opacity="0.1" d="M165.588 149.274H171.366V131.404H165.588V149.274Z" fill="black"/>
<path opacity="0.1" d="M181.26 95.593C181.259 95.6063 181.259 95.6196 181.26 95.6328C181.305 95.7304 181.358 95.8246 181.417 95.9147L183.023 98.2615L187.195 98.6904L187.241 97.0421C185.938 96.9288 182.977 96.5734 181.26 95.593Z" fill="black"/>
<path d="M181.42 95.9143C181.42 95.9143 181.635 105.301 179.27 106.582C176.904 107.863 176.001 114.548 176.001 114.548C176.001 114.548 183.122 119.229 184.725 121.288C186.328 123.346 189.965 128.251 189.219 129.425C188.472 130.598 191.05 135.932 191.05 135.932C191.05 135.932 186.341 145.537 187.413 149.164C188.485 152.791 188.589 162.393 188.589 162.393H190.617C190.617 162.393 189.975 154.498 189.975 151.296C189.975 148.095 192.125 136.68 192.125 136.68C192.125 136.68 193.086 125.476 192.125 125.157C191.163 124.838 185.493 120.356 185.06 118.328C184.627 116.3 188.055 97.4155 188.055 97.4155C188.055 97.4155 183.668 97.1949 181.42 95.9143Z" fill="#F1D2D7"/>
<path opacity="0.1" d="M166.018 130.482C166.211 131.788 166.687 133.036 167.413 134.14L171.366 133.481C171.366 133.481 183.238 130.816 185.699 130.601C187.235 130.466 188.933 129.835 189.999 129.376C189.059 126.051 187.222 123.048 184.688 120.693L183.18 119.299C180.957 117.248 178.386 115.607 175.587 114.453C175.762 114.603 188.217 125.209 185.49 127.289C182.762 129.37 175.424 124.29 175.424 124.29L167.072 117.133L166.764 116.873L166.279 117.62C166.526 117.723 166.767 117.838 167.001 117.967C169.841 119.528 171.946 122.146 172.859 125.249C174.582 131.009 166.018 130.482 166.018 130.482Z" fill="black"/>
<path opacity="0.1" d="M163.45 157.154C163.45 157.154 171.366 161.529 173.28 159.075C173.704 158.536 174.582 158.3 175.688 158.236C175.504 157.681 175.418 157.317 175.418 157.317C175.418 157.317 169.523 155.148 164.031 155.662C163.678 156.572 163.45 157.154 163.45 157.154Z" fill="black"/>
<path d="M167.09 116.88L175.743 124.291C175.743 124.291 183.06 129.377 185.806 127.281C188.552 125.185 175.903 114.441 175.903 114.441C178.704 115.594 181.276 117.235 183.499 119.288L185.008 120.682C188.97 124.343 189.864 124.343 189.996 129.729C190.03 131.052 189.578 132.958 189.231 133.304C187.947 134.573 187.044 143.678 187.244 144.744C187.444 145.81 184.845 155.02 185.708 157.581C186.571 160.142 175.227 156.3 173.301 158.754C171.375 161.208 163.472 156.833 163.472 156.833C163.472 156.833 167.858 145.629 168.927 144.885C169.996 144.14 171.28 138.375 168.927 135.694C166.574 133.013 166.35 130.483 166.35 130.483C166.35 130.483 174.914 131.013 173.197 125.256C172.714 123.588 171.876 122.043 170.741 120.726C169.605 119.41 168.199 118.353 166.617 117.627L167.09 116.88Z" fill="#E8E8F0"/>
<path opacity="0.1" d="M178.637 135.763C178.637 135.763 175.319 142.007 171.022 143.628C170.887 143.677 170.752 143.723 170.613 143.766C166.122 145.123 178.959 137.684 178.637 135.763Z" fill="black"/>
<path d="M132.214 80.55C132.214 80.55 133.817 84.6063 135.101 85.991C136.385 87.3758 145.904 101.248 145.904 101.248L146.712 102.912L147.403 104.342L153.501 103.702L153.928 101.251L153.694 100.966C153.08 100.234 151.412 98.2672 150.291 97.4093C148.902 96.3432 146.119 92.8138 146.119 92.8138C146.119 92.8138 137.454 83.8495 136.815 81.3986C136.176 78.9476 127.508 64.2206 125.582 66.7818C123.656 69.343 132.214 80.55 132.214 80.55Z" fill="#FFBEC7"/>
<path opacity="0.1" d="M146.712 102.911L147.403 104.342L153.501 103.702L153.928 101.251L153.694 100.966C153.037 101.288 148.162 103.619 146.712 102.911Z" fill="black"/>
<path opacity="0.1" d="M169.225 118.959C169.225 118.959 167.729 116.612 166.872 117.253C166.015 117.893 165.683 115.332 165.207 115.758C164.731 116.183 163.287 117.375 162.7 115.709C162.234 114.385 157.171 106.021 155.107 102.651L154.25 101.248C154.25 101.248 148.472 104.131 147.084 103.169V105.197L148.26 105.304L154.57 117.038C154.57 117.038 156.554 120.179 156.413 121.278C156.271 122.378 158.95 127.176 159.377 127.495C159.804 127.813 164.405 133.15 164.405 133.15C164.405 133.15 166.758 144.673 164.712 147.874C162.667 151.076 159.15 153.422 159.15 153.422C159.15 153.422 158.09 156.514 158.228 156.835C158.366 157.157 156.999 158.542 157.635 158.98C158.271 159.418 159.134 162.396 159.134 162.396C159.134 162.396 162.129 157.595 163.742 156.848C165.354 156.1 167.428 146.284 167.428 146.284C167.428 146.284 168.018 140.497 168.067 136.762C168.116 133.028 167.941 118.959 169.225 118.959Z" fill="black"/>
<path d="M168.905 118.959C168.905 118.959 167.406 116.612 166.552 117.253C165.698 117.893 165.364 115.332 164.888 115.758C164.411 116.183 162.968 117.375 162.381 115.709C161.911 114.385 156.852 106.021 154.788 102.651C154.259 101.784 153.928 101.248 153.928 101.248C153.928 101.248 148.153 104.131 146.761 103.169V105.197L147.938 105.304L154.25 117.038C154.25 117.038 156.231 120.179 156.093 121.278C155.955 122.378 158.633 127.176 159.06 127.495C159.487 127.813 164.089 133.15 164.089 133.15C164.089 133.15 166.442 144.673 164.396 147.874C163.32 149.479 162.012 150.916 160.513 152.139C159.262 153.175 158.383 154.589 158.007 156.167C157.935 156.382 157.909 156.61 157.933 156.835C158.09 157.142 156.704 158.542 157.34 158.98C157.976 159.418 158.836 162.396 158.836 162.396C158.836 162.396 161.831 157.595 163.444 156.848C165.056 156.1 167.13 146.284 167.13 146.284C167.13 146.284 167.717 140.497 167.766 136.762C167.815 133.028 167.621 118.959 168.905 118.959Z" fill="#F1D2D7"/>
<path opacity="0.1" d="M154.25 167.503C154.25 167.503 158.744 168.358 160.563 169.648C162.381 170.938 153.716 167.62 153.716 167.62L154.25 167.503Z" fill="black"/>
<path opacity="0.1" d="M165.053 178.866C165.053 178.866 169.759 182.76 168.905 186.284C168.052 189.807 165.895 198.661 165.895 198.661L165.053 178.866Z" fill="black"/>
<path opacity="0.1" d="M124.058 171.373C124.058 171.373 117.451 172.093 117.878 172.945C118.305 173.797 124.058 172.161 124.058 172.161V171.373Z" fill="black"/>
<path opacity="0.1" d="M174.788 203.78C174.788 203.78 175.218 204.313 172.757 203.78C170.297 203.247 172.115 201.604 172.115 201.604L174.788 203.78Z" fill="black"/>
<path opacity="0.1" d="M173.934 211.143C173.934 211.143 170.555 211.676 168.77 211.143C166.985 210.61 173.934 211.143 173.934 211.143Z" fill="black"/>
<path opacity="0.1" d="M167.032 239.947C167.032 239.947 166.445 239.306 163.502 240.483C160.56 241.659 159.383 241.708 158.529 241.335C157.675 240.961 167.032 239.947 167.032 239.947Z" fill="black"/>
<path opacity="0.1" d="M170.297 170.466L166.123 176.253C166.123 176.253 168.371 171.186 170.297 170.466Z" fill="black"/>
<path opacity="0.1" d="M162.166 117.244C162.166 117.244 161.988 119.165 159.297 119.913C156.606 120.66 156.096 121.27 156.096 121.27" fill="black"/>
<path opacity="0.1" d="M155.197 103.323C155.197 103.323 151.649 105.841 147.938 105.305L155.197 103.323Z" fill="black"/>
<path opacity="0.1" d="M157.899 157.102C157.899 157.102 158.938 157.751 161.426 154.911L157.899 157.102Z" fill="black"/>
<path opacity="0.1" d="M183.748 127.008C183.85 126.49 183.487 126.006 183.134 125.601L182.437 124.771C182.301 124.6 182.149 124.443 181.982 124.302C181.57 123.981 181.024 123.883 180.587 123.595" fill="black"/>
<path d="M178.876 14.8925H133.123C132.354 14.8881 131.592 15.0347 130.881 15.3239C130.169 15.6131 129.522 16.0393 128.975 16.5781C128.429 17.1169 127.994 17.7578 127.696 18.4642C127.397 19.1706 127.242 19.9287 127.237 20.6951V65.82C127.242 66.5864 127.397 67.3445 127.696 68.0509C127.994 68.7573 128.429 69.3982 128.975 69.9371C129.522 70.4759 130.169 70.9021 130.881 71.1913C131.592 71.4805 132.354 71.627 133.123 71.6226H178.892C179.66 71.627 180.422 71.4805 181.134 71.1913C181.845 70.9021 182.493 70.4759 183.039 69.9371C183.586 69.3982 184.021 68.7573 184.319 68.0509C184.617 67.3445 184.773 66.5864 184.777 65.82V20.6951C184.773 19.9274 184.616 19.1681 184.317 18.4607C184.018 17.7533 183.582 17.1117 183.034 16.5726C182.486 16.0336 181.836 15.6078 181.123 15.3195C180.409 15.0312 179.646 14.8861 178.876 14.8925Z" fill="url(#paint2_linear)"/>
<path d="M178.717 14.8931H133.476C130.261 14.8931 127.655 17.4923 127.655 20.6987V65.8205C127.655 69.0269 130.261 71.6262 133.476 71.6262H178.717C181.931 71.6262 184.537 69.0269 184.537 65.8205V20.6987C184.537 17.4923 181.931 14.8931 178.717 14.8931Z" fill="#2D47FE"/>
<path d="M146.319 51.1333C145.537 51.1329 144.779 51.4028 144.175 51.8972C143.57 52.3917 143.156 53.0799 143.003 53.8446C142.851 54.6094 142.968 55.4033 143.337 56.0912C143.705 56.779 144.301 57.3181 145.024 57.6166C145.746 57.9152 146.55 57.9546 147.298 57.7283C148.046 57.502 148.692 57.0239 149.127 56.3755C149.561 55.7272 149.756 54.9486 149.68 54.1726C149.603 53.3965 149.259 52.6711 148.706 52.1198C148.396 51.8027 148.024 51.5517 147.614 51.3821C147.204 51.2125 146.763 51.1279 146.319 51.1333Z" fill="#EAEAF3"/>
<path d="M145.566 44.0219C145.569 43.1503 145.269 42.3046 144.716 41.6292C144.164 40.9538 143.394 40.4905 142.537 40.3183C141.68 40.1462 140.79 40.2758 140.019 40.685C139.247 41.0943 138.642 41.7579 138.306 42.5627C137.97 43.3674 137.925 44.2634 138.177 45.0978C138.43 45.9322 138.965 46.6534 139.691 47.1383C140.417 47.6232 141.29 47.8417 142.16 47.7567C143.029 47.6717 143.843 47.2883 144.461 46.672C144.817 46.3292 145.099 45.9171 145.289 45.4613C145.479 45.0055 145.574 44.5156 145.566 44.0219Z" fill="#EAEAF3"/>
<path d="M167.379 35.3789C167.814 35.3774 168.236 35.2254 168.572 34.9488C168.907 34.6723 169.137 34.2882 169.22 33.862C169.304 33.4357 169.237 32.9938 169.031 32.6112C168.825 32.2287 168.492 31.9294 168.089 31.7641C167.686 31.5988 167.239 31.5779 166.822 31.7048C166.406 31.8317 166.046 32.0987 165.805 32.4602C165.564 32.8218 165.456 33.2556 165.499 33.6878C165.542 34.1199 165.734 34.5237 166.043 34.8305C166.216 35.0082 166.424 35.1486 166.654 35.243C166.884 35.3373 167.13 35.3836 167.379 35.3789Z" fill="#EAEAF3"/>
<path d="M146.319 29.3806C145.363 29.382 144.438 29.7136 143.7 30.3191C142.962 30.9247 142.457 31.7666 142.272 32.7015C142.086 33.6365 142.232 34.6067 142.683 35.4468C143.134 36.287 143.863 36.9452 144.746 37.3093C145.629 37.6734 146.612 37.721 147.526 37.4439C148.44 37.1668 149.23 36.5821 149.761 35.7895C150.291 34.9969 150.53 34.0454 150.436 33.0969C150.343 32.1484 149.922 31.2617 149.246 30.5877C148.867 30.198 148.411 29.8899 147.908 29.6823C147.404 29.4747 146.864 29.372 146.319 29.3806Z" fill="#EAEAF3"/>
<path d="M173.492 42.4142C173.121 42.0409 172.633 41.8075 172.109 41.7536C171.585 41.6998 171.059 41.829 170.62 42.119C170.181 42.4091 169.857 42.8421 169.703 43.3441C169.548 43.8462 169.573 44.386 169.774 44.8716C169.974 45.3572 170.337 45.7583 170.801 46.0066C171.265 46.2548 171.801 46.3348 172.318 46.2327C172.834 46.1307 173.299 45.8531 173.633 45.4472C173.967 45.0413 174.149 44.5324 174.149 44.0073C174.154 43.7111 174.098 43.4169 173.985 43.1429C173.872 42.869 173.704 42.621 173.492 42.4142Z" fill="#EAEAF3"/>
<path d="M167.379 51.8832C166.765 51.8761 166.168 52.0818 165.689 52.4652C165.211 52.8487 164.881 53.386 164.756 53.9853C164.63 54.5847 164.718 55.2088 165.003 55.7509C165.288 56.293 165.753 56.7195 166.319 56.9574C166.885 57.1952 167.515 57.2297 168.104 57.0549C168.692 56.8801 169.201 56.5069 169.544 55.9992C169.887 55.4914 170.042 54.8806 169.983 54.2712C169.925 53.6618 169.656 53.0917 169.222 52.6583C168.983 52.4116 168.697 52.2157 168.38 52.0825C168.063 51.9493 167.723 51.8815 167.379 51.8832Z" fill="#EAEAF3"/>
<path d="M156.849 56.0105C156.153 56.0106 155.478 56.2515 154.939 56.6922C154.401 57.1329 154.032 57.7461 153.897 58.4274C153.761 59.1087 153.866 59.8159 154.194 60.4284C154.523 61.041 155.054 61.5211 155.697 61.7869C156.341 62.0526 157.057 62.0877 157.723 61.886C158.39 61.6843 158.965 61.2584 159.352 60.6808C159.739 60.1033 159.913 59.4098 159.845 58.7185C159.777 58.0272 159.47 57.381 158.978 56.8898C158.701 56.6065 158.37 56.3825 158.004 56.2313C157.638 56.0801 157.245 56.005 156.849 56.0105Z" fill="#EAEAF3"/>
<path d="M156.849 24.5029C155.812 24.5084 154.808 24.8721 154.01 25.5321C153.211 26.1921 152.666 27.1077 152.468 28.1231C152.269 29.1385 152.43 30.1911 152.922 31.1018C153.414 32.0126 154.207 32.7252 155.166 33.1186C156.126 33.512 157.192 33.5618 158.184 33.2596C159.176 32.9574 160.032 32.3218 160.607 31.4609C161.183 30.6 161.441 29.567 161.339 28.5375C161.237 27.508 160.78 26.5457 160.046 25.8141C159.631 25.3897 159.133 25.0545 158.583 24.829C158.034 24.6035 157.443 24.4925 156.849 24.5029Z" fill="#EAEAF3"/>
</g>
<defs>
<linearGradient id="paint0_linear" x1="202.458" y1="250.259" x2="202.458" y2="210.119" gradientUnits="userSpaceOnUse">
<stop stop-color="#808080" stop-opacity="0.25"/>
<stop offset="0.54" stop-color="#808080" stop-opacity="0.12"/>
<stop offset="1" stop-color="#808080" stop-opacity="0.1"/>
</linearGradient>
<linearGradient id="paint1_linear" x1="50740.2" y1="167993" x2="50740.2" y2="40774.4" gradientUnits="userSpaceOnUse">
<stop stop-color="#808080" stop-opacity="0.25"/>
<stop offset="0.54" stop-color="#808080" stop-opacity="0.12"/>
<stop offset="1" stop-color="#808080" stop-opacity="0.1"/>
</linearGradient>
<linearGradient id="paint2_linear" x1="26921.8" y1="9574.53" x2="37697.2" y2="9574.53" gradientUnits="userSpaceOnUse">
<stop stop-color="#808080" stop-opacity="0.25"/>
<stop offset="0.54" stop-color="#808080" stop-opacity="0.12"/>
<stop offset="1" stop-color="#808080" stop-opacity="0.1"/>
</linearGradient>
<clipPath id="clip0">
<rect width="337" height="259" fill="white"/>
</clipPath>
</defs>
</svg>
