<?xml version="1.0" encoding="UTF-8"?>
<svg width="1248px" height="248px" viewBox="0 0 1248 248" version="1.1" xmlns="http://www.w3.org/2000/svg" xmlns:xlink="http://www.w3.org/1999/xlink">
    <!-- Generator: Sketch 51.3 (57544) - http://www.bohemiancoding.com/sketch -->
    <title>Group</title>
    <desc>Created with Sketch.</desc>
    <defs></defs>
    <g id="Page-1" stroke="none" stroke-width="1" fill="none" fill-rule="evenodd">
        <g id="emphatize_main" transform="translate(-376.000000, -876.000000)">
            <g id="Group" transform="translate(376.000000, 876.000000)">
                <polygon id="Fill-1" fill="#080D28" points="405.6719 137.1563 338.6389 137.1563 338.6389 177.0153 412.4699 177.0153 409.3289 198.5063 313.4049 198.5063 313.4049 60.2313 408.7099 60.2313 408.7099 81.7223 338.6389 81.7223 338.6389 115.6653 405.6719 115.6653"></polygon>
                <g id="Group-21"></g>
                <path d="M431.0933,122.2266 C431.0933,113.3486 431.0933,104.3726 430.8933,95.7336 L454.7063,95.7336 C455.0473,98.4316 455.5873,104.7866 455.6673,109.1836 C460.7073,101.0076 469.2023,93.3336 484.6763,93.3336 C499.3733,93.3336 508.1283,100.8926 511.8463,109.9046 C517.6853,101.0496 526.8423,93.3336 543.8763,93.3336 C561.3733,93.3336 576.3863,103.9536 576.3863,131.0446 L576.3863,198.5066 L552.0933,198.5066 L552.0933,134.0656 C552.0933,123.8936 548.4153,113.6436 535.2883,113.6436 C521.6403,113.6436 516.0673,123.0716 516.0673,139.6626 L516.0673,198.5066 L491.6933,198.5066 L491.6933,134.9676 C491.6933,123.4556 488.6963,113.7836 475.2073,113.7836 C461.9803,113.7836 455.6673,122.9886 455.6673,141.2806 L455.6673,198.5066 L431.0933,198.5066 L431.0933,122.2266 Z" id="Fill-2" fill="#080D28"></path>
                <path d="M675.1367,145.4814 C675.1367,125.6524 666.7427,113.5844 651.8557,113.5844 C633.9697,113.5844 627.3367,124.9954 627.3367,147.1404 C627.3367,168.3254 633.1727,180.8564 650.5957,180.8564 C666.9047,180.8564 675.1367,167.8864 675.1367,145.4814 M628.3577,188.1954 L628.3577,238.2134 L603.6437,238.2134 L603.6437,120.6064 C603.6437,112.2684 603.6437,103.8924 603.4447,95.7334 L627.5367,95.7334 C627.9377,98.6904 628.3577,104.9694 628.3577,109.6634 C633.1537,101.1704 642.7487,93.3344 659.4827,93.3344 C682.7947,93.3344 700.4517,112.8474 700.4517,144.5214 C700.4517,180.9304 680.5557,200.9054 655.6627,200.9054 C640.4507,200.9054 632.5157,194.9304 628.3577,188.1954" id="Fill-4" fill="#080D28"></path>
                <path d="M778.8921,150.6055 L765.6051,150.6055 C747.3361,150.6055 739.4281,155.9835 739.4281,167.4315 C739.4281,175.9625 744.9201,182.7375 755.9731,182.7375 C776.2941,182.7375 778.8921,168.7895 778.8921,153.5035 L778.8921,150.6055 Z M803.1261,173.3445 C803.1261,182.9825 803.9261,195.8685 804.5251,198.5065 L780.7711,198.5065 C779.9721,196.3875 779.3721,191.1475 779.2521,187.3155 C775.5741,193.4515 768.1781,200.9055 749.4051,200.9055 C724.8111,200.9055 714.3941,184.7895 714.3941,168.9525 C714.3941,145.6975 732.9301,134.9995 763.2021,134.9995 L778.8311,134.9995 L778.8311,127.8865 C778.8311,119.9915 776.1131,111.5015 760.8891,111.5015 C747.1421,111.5015 744.4241,117.7535 742.9251,125.3905 L719.1931,125.3905 C720.6721,108.5075 731.1141,93.1935 761.7891,93.3345 C788.5071,93.4745 803.1261,104.0525 803.1261,128.1475 L803.1261,173.3445 Z" id="Fill-6" fill="#080D28"></path>
                <path d="M817.7114,95.7334 L834.2034,95.7334 L834.2034,67.0664 L859.0574,67.0664 L859.0574,95.7334 L880.0464,95.7334 L880.0464,114.8024 L859.0574,114.8024 L859.0574,168.7094 C859.0574,177.2424 861.4574,180.9774 870.2124,180.9774 C872.0914,180.9774 875.1684,180.9174 877.5254,180.4784 L877.5254,197.9664 C872.3054,199.7864 865.1244,199.9054 859.6634,199.9054 C840.9804,199.9054 834.2034,190.0034 834.2034,172.3264 L834.2034,114.8024 L817.7114,114.8024 L817.7114,95.7334 Z" id="Fill-8" fill="#080D28"></path>
                <path d="M922.0176,52.2725 L922.0176,108.8845 C926.7746,101.4305 935.4506,93.3345 952.3436,93.3345 C970.6046,93.3345 986.8346,103.8965 986.8346,132.6835 L986.8346,198.5065 L962.1196,198.5065 L962.1196,136.5045 C962.1196,121.7565 956.4866,113.7835 943.5366,113.7835 C926.8256,113.7835 922.0176,125.6995 922.0176,143.4235 L922.0176,198.5065 L897.1636,198.5065 L897.1636,52.2725 L922.0176,52.2725 Z" id="Fill-10" fill="#080D28"></path>
                <path d="M1013.931,198.506 L1038.785,198.506 L1038.785,95.733 L1013.931,95.733 L1013.931,198.506 Z M1013.931,76.572 L1038.785,76.572 L1038.785,52.272 L1013.931,52.272 L1013.931,76.572 Z" id="Fill-12" fill="#080D28"></path>
                <polygon id="Fill-14" fill="#080D28" points="1058.3823 179.4971 1112.0323 115.6431 1061.0213 115.6431 1061.0213 95.7331 1140.1693 95.7331 1140.1693 115.4221 1087.4583 178.5961 1143.4883 178.5961 1140.2483 198.5061 1058.3823 198.5061"></polygon>
                <path d="M1223.0254,136.4385 C1222.8254,122.8125 1216.7944,111.5615 1201.6864,111.5615 C1186.5584,111.5615 1180.2454,122.0325 1178.8864,136.4385 L1223.0254,136.4385 Z M1178.2864,152.2445 C1178.3464,167.8045 1186.1564,181.1355 1201.4254,181.1355 C1214.7544,181.1355 1218.7684,175.1645 1221.6674,168.5095 L1246.5824,168.5095 C1242.8034,181.2845 1231.6464,200.9055 1200.7454,200.9055 C1167.4114,200.9055 1153.2324,175.2745 1153.2324,148.4805 C1153.2324,116.8055 1169.3904,93.3345 1201.8054,93.3345 C1236.3794,93.3345 1248.0004,119.2255 1248.0004,143.6255 C1248.0004,146.9855 1248.0004,149.3645 1247.6594,152.2445 L1178.2864,152.2445 Z" id="Fill-15" fill="#080D28"></path>
                <path d="M212.9033,0.5977 L33.9023,0.5977 C42.5783,0.5977 51.2543,3.9077 57.8743,10.5267 L115.7483,68.4007 L212.9033,68.4007 C231.6273,68.4007 246.8053,53.2227 246.8053,34.4987 C246.8053,15.7757 231.6273,0.5977 212.9033,0.5977" id="Fill-16" fill="#60D0FE"></path>
                <path d="M33.9019,247.4023 L212.9029,247.4023 C231.6269,247.4023 246.8049,232.2243 246.8049,213.5013 C246.8049,194.7773 231.6269,179.5993 212.9029,179.5993 L115.7479,179.5993 L57.8739,237.4733 C51.2549,244.0923 42.5779,247.4023 33.9019,247.4023" id="Fill-17" fill="#60D0FE"></path>
                <path d="M9.9297,58.4717 L75.4577,123.9997 L9.9297,189.5287 C9.9197,189.5377 9.9107,189.5487 9.9017,189.5577 C16.0387,183.4057 24.5257,179.5987 33.9017,179.5987 L115.7477,179.5987 L123.4027,171.9447 L147.3747,147.9717 C160.6147,134.7327 160.6147,113.2667 147.3747,100.0277 L123.4027,76.0557 L115.7477,68.4007 L33.9017,68.4007 C24.5397,68.4007 16.0647,64.6067 9.9297,58.4717" id="Fill-18" fill="#2D47FE"></path>
                <path d="M33.9019,0.5977 C33.3389,0.5977 32.7799,0.6127 32.2239,0.6397 C31.9649,0.6527 31.7059,0.6767 31.4469,0.6957 C31.1549,0.7167 30.8629,0.7337 30.5729,0.7627 C30.2459,0.7937 29.9199,0.8377 29.5929,0.8797 C29.3749,0.9077 29.1559,0.9307 28.9399,0.9627 C28.5849,1.0147 28.2309,1.0787 27.8779,1.1417 C27.6909,1.1757 27.5029,1.2057 27.3179,1.2427 C26.9599,1.3127 26.6039,1.3937 26.2479,1.4757 C26.0659,1.5177 25.8819,1.5567 25.7019,1.6017 C25.3579,1.6867 25.0169,1.7827 24.6749,1.8787 C24.4819,1.9337 24.2869,1.9857 24.0939,2.0437 C23.7769,2.1397 23.4619,2.2447 23.1469,2.3497 C22.9309,2.4217 22.7149,2.4917 22.5009,2.5677 C22.2179,2.6687 21.9379,2.7777 21.6579,2.8867 C21.4139,2.9807 21.1689,3.0747 20.9279,3.1737 C20.6839,3.2747 20.4429,3.3827 20.2009,3.4897 C19.9279,3.6107 19.6549,3.7307 19.3869,3.8577 C19.1799,3.9557 18.9749,4.0607 18.7699,4.1627 C18.4749,4.3107 18.1789,4.4587 17.8879,4.6147 C17.7109,4.7097 17.5349,4.8107 17.3589,4.9097 C17.0499,5.0827 16.7409,5.2567 16.4379,5.4387 C16.2789,5.5347 16.1229,5.6367 15.9649,5.7347 C15.6539,5.9287 15.3439,6.1237 15.0409,6.3267 C14.8849,6.4317 14.7319,6.5427 14.5779,6.6497 C14.2809,6.8557 13.9849,7.0617 13.6949,7.2777 C13.5229,7.4057 13.3549,7.5417 13.1839,7.6737 C12.9209,7.8777 12.6559,8.0797 12.3989,8.2907 C12.1759,8.4737 11.9589,8.6667 11.7399,8.8567 C11.5419,9.0277 11.3399,9.1947 11.1459,9.3707 C10.7339,9.7447 10.3279,10.1297 9.9299,10.5267 C9.5319,10.9247 9.1489,11.3297 8.7749,11.7417 C8.5939,11.9407 8.4229,12.1477 8.2469,12.3517 C8.0609,12.5657 7.8729,12.7777 7.6939,12.9947 C7.4809,13.2547 7.2769,13.5217 7.0719,13.7867 C6.9419,13.9547 6.8069,14.1217 6.6809,14.2917 C6.4649,14.5817 6.2579,14.8797 6.0519,15.1767 C5.9439,15.3297 5.8339,15.4827 5.7299,15.6377 C5.5259,15.9417 5.3309,16.2517 5.1369,16.5627 C5.0389,16.7207 4.9379,16.8767 4.8419,17.0347 C4.6589,17.3387 4.4849,17.6467 4.3119,17.9557 C4.2139,18.1327 4.1119,18.3077 4.0169,18.4857 C3.8609,18.7767 3.7129,19.0717 3.5659,19.3677 C3.4629,19.5727 3.3589,19.7777 3.2609,19.9837 C3.1329,20.2527 3.0129,20.5267 2.8919,20.7997 C2.7849,21.0407 2.6769,21.2817 2.5769,21.5247 C2.4769,21.7657 2.3829,22.0107 2.2889,22.2547 C2.1799,22.5357 2.0709,22.8157 1.9699,23.0987 C1.8939,23.3127 1.8239,23.5287 1.7529,23.7437 C1.6479,24.0587 1.5419,24.3737 1.4469,24.6907 C1.3889,24.8837 1.3359,25.0787 1.2809,25.2727 C1.1849,25.6147 1.0899,25.9557 1.0049,26.2997 C0.9599,26.4797 0.9209,26.6627 0.8789,26.8447 C0.7969,27.2007 0.7149,27.5567 0.6449,27.9147 C0.6079,28.1007 0.5779,28.2877 0.5449,28.4747 C0.4809,28.8277 0.4179,29.1817 0.3649,29.5367 C0.3339,29.7527 0.3099,29.9727 0.2819,30.1897 C0.2409,30.5167 0.1969,30.8437 0.1649,31.1707 C0.1359,31.4597 0.1189,31.7517 0.0979,32.0427 C0.0799,32.3027 0.0549,32.5617 0.0429,32.8217 C0.0159,33.3767 -0.0001,33.9357 -0.0001,34.4977 L-0.0001,34.4987 C-0.0001,35.0617 0.0159,35.6207 0.0429,36.1777 C0.0549,36.4367 0.0799,36.6957 0.0979,36.9537 C0.1189,37.2457 0.1359,37.5377 0.1649,37.8277 C0.1969,38.1547 0.2399,38.4807 0.2819,38.8067 C0.3099,39.0257 0.3339,39.2447 0.3649,39.4617 C0.4179,39.8167 0.4809,40.1697 0.5449,40.5227 C0.5779,40.7097 0.6079,40.8977 0.6449,41.0837 C0.7149,41.4417 0.7969,41.7977 0.8789,42.1537 C0.9209,42.3357 0.9599,42.5187 1.0049,42.6997 C1.0899,43.0427 1.1849,43.3837 1.2809,43.7247 C1.3359,43.9187 1.3879,44.1147 1.4469,44.3077 C1.5419,44.6247 1.6469,44.9397 1.7519,45.2537 C1.8239,45.4697 1.8949,45.6857 1.9709,45.8997 C2.0709,46.1817 2.1799,46.4627 2.2889,46.7427 C2.3829,46.9867 2.4769,47.2327 2.5769,47.4737 C2.6769,47.7177 2.7849,47.9577 2.8919,48.1997 C3.0129,48.4727 3.1329,48.7457 3.2609,49.0147 C3.3589,49.2217 3.4629,49.4257 3.5659,49.6307 C3.7129,49.9267 3.8609,50.2227 4.0169,50.5127 C4.1119,50.6907 4.2139,50.8657 4.3119,51.0427 C4.4849,51.3517 4.6589,51.6607 4.8419,51.9637 C4.9369,52.1217 5.0379,52.2777 5.1359,52.4347 C5.3309,52.7457 5.5269,53.0567 5.7309,53.3617 C5.8339,53.5157 5.9439,53.6667 6.0489,53.8197 C6.2569,54.1177 6.4649,54.4157 6.6809,54.7067 C6.8069,54.8767 6.9419,55.0427 7.0719,55.2117 C7.2769,55.4767 7.4809,55.7437 7.6939,56.0037 C7.8729,56.2207 8.0609,56.4327 8.2469,56.6467 C8.4229,56.8507 8.5939,57.0577 8.7749,57.2567 C9.1489,57.6687 9.5319,58.0747 9.9299,58.4717 C16.0649,64.6067 24.5399,68.4007 33.9019,68.4007 L115.7479,68.4007 L57.8739,10.5267 C51.2549,3.9077 42.5779,0.5977 33.9019,0.5977" id="Fill-19" fill="#2D7FFF"></path>
                <path d="M9.9014,189.5581 C9.5144,189.9461 9.1394,190.3411 8.7764,190.7421 C8.5934,190.9431 8.4194,191.1531 8.2414,191.3591 C8.0584,191.5711 7.8714,191.7811 7.6934,191.9961 C7.4804,192.2571 7.2754,192.5251 7.0694,192.7911 C6.9404,192.9581 6.8074,193.1231 6.6814,193.2921 C6.4644,193.5841 6.2564,193.8831 6.0484,194.1821 C5.9434,194.3341 5.8334,194.4851 5.7304,194.6381 C5.5264,194.9441 5.3304,195.2551 5.1344,195.5671 C5.0374,195.7241 4.9374,195.8781 4.8424,196.0361 C4.6594,196.3401 4.4844,196.6501 4.3104,196.9601 C4.2134,197.1361 4.1124,197.3091 4.0174,197.4861 C3.8604,197.7781 3.7124,198.0741 3.5644,198.3711 C3.4624,198.5751 3.3584,198.7791 3.2604,198.9841 C3.1324,199.2541 3.0124,199.5281 2.8914,199.8021 C2.7854,200.0431 2.6774,200.2831 2.5764,200.5261 C2.4764,200.7671 2.3834,201.0131 2.2884,201.2571 C2.1804,201.5371 2.0714,201.8171 1.9704,202.1001 C1.8944,202.3141 1.8244,202.5311 1.7524,202.7461 C1.6474,203.0611 1.5424,203.3751 1.4464,203.6921 C1.3884,203.8851 1.3364,204.0801 1.2814,204.2741 C1.1854,204.6161 1.0894,204.9571 1.0044,205.3011 C0.9594,205.4811 0.9204,205.6641 0.8794,205.8461 C0.7964,206.2021 0.7144,206.5581 0.6444,206.9161 C0.6084,207.1021 0.5784,207.2891 0.5444,207.4761 C0.4814,207.8291 0.4174,208.1831 0.3654,208.5381 C0.3334,208.7551 0.3094,208.9741 0.2824,209.1911 C0.2404,209.5181 0.1964,209.8451 0.1644,210.1721 C0.1364,210.4611 0.1194,210.7531 0.0984,211.0441 C0.0794,211.3041 0.0554,211.5631 0.0424,211.8231 C0.0154,212.3781 0.0004,212.9371 0.0004,213.4991 L0.0004,213.5011 C0.0004,214.0631 0.0154,214.6221 0.0424,215.1791 C0.0554,215.4381 0.0794,215.6971 0.0984,215.9551 C0.1194,216.2471 0.1364,216.5401 0.1644,216.8291 C0.1964,217.1571 0.2404,217.4831 0.2824,217.8091 C0.3094,218.0271 0.3334,218.2461 0.3654,218.4631 C0.4174,218.8181 0.4814,219.1721 0.5444,219.5251 C0.5784,219.7121 0.6084,219.8991 0.6444,220.0851 C0.7144,220.4431 0.7964,220.7991 0.8784,221.1551 C0.9204,221.3371 0.9594,221.5201 1.0044,221.7011 C1.0894,222.0451 1.1854,222.3861 1.2814,222.7271 C1.3364,222.9211 1.3884,223.1161 1.4464,223.3081 C1.5424,223.6261 1.6474,223.9411 1.7524,224.2561 C1.8244,224.4721 1.8944,224.6881 1.9704,224.9011 C2.0714,225.1841 2.1804,225.4641 2.2894,225.7451 C2.3834,225.9891 2.4764,226.2331 2.5764,226.4751 C2.6774,226.7181 2.7854,226.9601 2.8924,227.2021 C3.0124,227.4741 3.1324,227.7471 3.2604,228.0161 C3.3584,228.2231 3.4634,228.4271 3.5654,228.6321 C3.7134,228.9281 3.8604,229.2241 4.0174,229.5141 C4.1124,229.6921 4.2134,229.8671 4.3124,230.0441 C4.4854,230.3531 4.6594,230.6621 4.8414,230.9641 C4.9374,231.1231 5.0394,231.2801 5.1374,231.4381 C5.3314,231.7481 5.5264,232.0581 5.7304,232.3621 C5.8344,232.5171 5.9444,232.6701 6.0524,232.8251 C6.2584,233.1211 6.4644,233.4181 6.6794,233.7071 C6.8084,233.8791 6.9434,234.0481 7.0764,234.2191 C7.2794,234.4821 7.4824,234.7471 7.6934,235.0041 C7.8754,235.2251 8.0664,235.4401 8.2544,235.6581 C8.4274,235.8581 8.5964,236.0611 8.7744,236.2571 C9.1484,236.6691 9.5324,237.0751 9.9294,237.4731 C9.9394,237.4831 9.9504,237.4921 9.9604,237.5021 C10.3474,237.8891 10.7424,238.2641 11.1444,238.6271 C11.3454,238.8091 11.5534,238.9831 11.7584,239.1601 C11.9714,239.3441 12.1814,239.5311 12.3964,239.7081 C12.6584,239.9231 12.9284,240.1291 13.1964,240.3361 C13.3624,240.4651 13.5264,240.5971 13.6934,240.7211 C13.9854,240.9381 14.2854,241.1471 14.5844,241.3551 C14.7364,241.4601 14.8864,241.5691 15.0394,241.6721 C15.3444,241.8771 15.6564,242.0731 15.9684,242.2681 C16.1254,242.3651 16.2794,242.4661 16.4364,242.5601 C16.7414,242.7441 17.0524,242.9191 17.3634,243.0931 C17.5374,243.1901 17.7114,243.2901 17.8864,243.3851 C18.1794,243.5421 18.4774,243.6911 18.7754,243.8391 C18.9774,243.9411 19.1794,244.0441 19.3844,244.1411 C19.6554,244.2691 19.9304,244.3911 20.2044,244.5121 C20.4444,244.6181 20.6844,244.7251 20.9264,244.8261 C21.1694,244.9261 21.4154,245.0201 21.6604,245.1151 C21.9394,245.2231 22.2174,245.3311 22.4994,245.4311 C22.7144,245.5081 22.9334,245.5791 23.1514,245.6521 C23.4644,245.7561 23.7774,245.8611 24.0934,245.9561 C24.2864,246.0141 24.4824,246.0671 24.6764,246.1211 C25.0174,246.2171 25.3584,246.3131 25.7014,246.3981 C25.8824,246.4431 26.0654,246.4821 26.2474,246.5241 C26.6034,246.6061 26.9594,246.6871 27.3174,246.7581 C27.5034,246.7951 27.6914,246.8251 27.8784,246.8581 C28.2314,246.9211 28.5844,246.9851 28.9394,247.0371 C29.1564,247.0691 29.3754,247.0931 29.5934,247.1211 C29.9204,247.1621 30.2464,247.2061 30.5734,247.2381 C30.8624,247.2661 31.1554,247.2841 31.4464,247.3041 C31.7064,247.3231 31.9644,247.3471 32.2244,247.3601 C32.7794,247.3871 33.3384,247.4021 33.9014,247.4021 C42.5784,247.4021 51.2544,244.0931 57.8744,237.4731 L115.7484,179.5991 L33.9014,179.5991 C24.5254,179.5991 16.0384,183.4061 9.9014,189.5581" id="Fill-20" fill="#2D7FFF"></path>
            </g>
        </g>
    </g>
</svg>