<svg width="80" height="80" viewBox="0 0 80 80" fill="none" xmlns="http://www.w3.org/2000/svg">
<path d="M62.547 78.5938L80 77.0967V52.3381L62.547 50.9319L43.6938 52.3381L40.8813 64.2449L43.6938 77.0967L62.547 78.5938Z" fill="#C6D0DA"/>
<path d="M43.6938 80.0001H79.1935C79.6389 80.0001 80 79.639 80 79.1937V77.0969H43.6938V80.0001Z" fill="#A0AAB7"/>
<path d="M61.3374 51.5407L77.3886 49.4349L58.1532 28.0496H21.8469L26.7868 39.7952L41.0825 49.4349L61.3374 51.5407Z" fill="#2D47FE"/>
<path d="M41.0826 49.4348L40.9819 50.8864L43.694 52.3381H80.0001L77.3886 49.4348H41.0826Z" fill="#2D47FE"/>
<path d="M71.1073 68.1487V61.2546C71.1073 60.8093 70.7462 60.4482 70.3009 60.4482H63.7567L62.547 61.8545L61.3373 60.4482H54.7932C54.3479 60.4482 53.9868 60.8093 53.9868 61.2546V68.1487L62.4928 69.555L71.1073 68.1487Z" fill="#60D0FE"/>
<path d="M54.7933 71.052H61.3374L62.5471 69.6458L63.7568 71.052H70.301C70.7463 71.052 71.1074 70.6909 71.1074 70.2456V68.1489H53.9871V70.2456C53.9869 70.6909 54.348 71.052 54.7933 71.052Z" fill="#60D0FE"/>
<path d="M52.2472 0H47.4336C56.5272 0 56.5272 32.9309 47.4336 32.9309H52.2472C61.3409 32.9309 68.7127 25.5591 68.7127 16.4655C68.7127 7.37187 61.3409 0 52.2472 0Z" fill="#ECB85E"/>
<path d="M62.4927 16.4655C62.4927 25.5591 56.5271 32.9309 47.4335 32.9309C46.9443 32.9309 46.46 32.9095 45.9818 32.8678C37.568 32.1328 30.968 25.0698 30.968 16.4655C30.968 7.94016 37.4472 0.928125 45.75 0.085C46.3035 0.02875 46.8651 0 47.4335 0C56.5271 0 62.4927 7.37187 62.4927 16.4655Z" fill="#F6E080"/>
<path d="M47.4335 0C46.9443 0 46.4604 0.0226562 45.9819 0.064375C54.3955 0.799531 60.9958 7.86109 60.9958 16.4655C60.9958 25.0698 54.3955 32.1314 45.9819 32.8666C46.4604 32.9084 46.9443 32.9309 47.4335 32.9309C56.5271 32.9309 63.899 25.5591 63.899 16.4655C63.899 7.37187 56.5271 0 47.4335 0Z" fill="#ECCD61"/>
<path d="M43.6939 77.0967L21.8469 78.503L0 77.0967V52.3382L21.8469 28.0496L43.6939 52.3382V77.0967Z" fill="#E7ECF1"/>
<path d="M0.806406 80H43.6938V77.0967H0V79.1934C0 79.6389 0.361094 80 0.806406 80Z" fill="#C6D0DA"/>
<path d="M28.746 77.0968V61.2549C28.746 60.8096 28.3849 60.4485 27.9396 60.4485H15.7542C15.3088 60.4485 14.9478 60.8096 14.9478 61.2549V77.0969L21.847 78.5032L28.746 77.0968Z" fill="#FF8C26"/>
<path d="M14.9475 77.0967H28.746V80H14.9475V77.0967Z" fill="#FF8C26"/>
<path d="M18.6259 68.2419C17.9563 68.2419 17.4138 68.7846 17.4138 69.454V71.113C17.4138 71.7824 17.9563 72.3251 18.6259 72.3251C19.2954 72.3251 19.8379 71.7824 19.8379 71.113V69.454C19.8379 68.7846 19.2952 68.2419 18.6259 68.2419Z" fill="#2D47FE"/>
<path d="M42.2467 37.5276C41.5772 37.5276 41.0347 38.0702 41.0347 38.7396C41.0347 39.409 41.5773 39.9516 42.2467 39.9516H57.9006C58.5701 39.9516 59.1126 39.409 59.1126 38.7396C59.1126 38.0702 58.5701 37.5276 57.9006 37.5276H42.2467Z" fill="#E7ECF1"/>
<path d="M44.5875 21.4444C44.0456 21.0901 43.3194 21.2419 42.9653 21.7837C42.6109 22.3252 42.7628 23.0516 43.3045 23.4058C44.3325 24.0782 45.083 24.3402 46.0184 24.4297V25.0918C46.0184 25.739 46.5431 26.2637 47.1903 26.2637C47.8376 26.2637 48.3622 25.739 48.3622 25.0918V24.3185C50.2342 23.8282 51.434 22.2229 51.7003 20.6393C52.0451 18.5876 50.9314 16.7333 48.9286 16.0254C48.742 15.9594 48.5523 15.891 48.3622 15.8207V12.3349C48.7094 12.4758 48.9111 12.6449 48.9287 12.6601L48.9298 12.6588C50.2344 13.6802 51.6761 11.7557 50.3394 10.7888C50.0387 10.558 49.3462 10.1012 48.3622 9.89803V9.31006C48.3622 8.66287 47.8376 8.13818 47.1903 8.13818C46.5431 8.13818 46.0184 8.66287 46.0184 9.31006V9.97881C45.9592 9.99459 45.9 10.0101 45.84 10.0282C44.488 10.4355 43.4783 11.5893 43.205 13.0393C42.954 14.3712 43.3873 15.6608 44.3359 16.4049C44.7747 16.7491 45.3084 17.0647 46.0184 17.3919V22.0718C45.5406 21.9966 45.1683 21.8243 44.5875 21.4444ZM49.389 20.2507C49.292 20.8279 48.9437 21.4338 48.3623 21.7958V18.3224C49.4892 18.8333 49.46 19.8285 49.389 20.2507ZM45.7825 14.561C45.5289 14.3621 45.4212 13.9352 45.5081 13.4737C45.5667 13.1622 45.7311 12.809 46.0186 12.5544V14.7299C45.9351 14.6743 45.8553 14.618 45.7825 14.561Z" fill="#65C842"/>
</svg>
