<svg width="86" height="83" viewBox="0 0 86 83" fill="none" xmlns="http://www.w3.org/2000/svg">
<g clip-path="url(#clip0)">
<path d="M52.0528 4.65655L7.24768 14.4023L20.5305 77.16L65.3356 67.4142L52.0528 4.65655Z" fill="#E0E0E0"/>
<g opacity="0.5">
<path opacity="0.5" d="M51.5209 5.88144L8.2301 15.2979L21.0639 75.9342L64.3548 66.5178L51.5209 5.88144Z" fill="url(#paint0_linear)"/>
</g>
<path d="M51.0637 6.44929L8.875 15.626L21.4253 74.9226L63.614 65.7459L51.0637 6.44929Z" fill="#FAFAFA"/>
<path d="M39.9453 6.17803L19.016 10.7305L20.1038 15.87L41.0331 11.3176L39.9453 6.17803Z" fill="url(#paint1_linear)"/>
<path d="M28.4174 3.43484C26.8015 3.78669 25.7792 5.43115 26.1347 7.1075C26.4901 8.78385 28.0871 9.85961 29.6998 9.50775C31.3125 9.1559 32.338 7.51144 31.9826 5.83509C31.6271 4.15874 30.0333 3.08299 28.4174 3.43484ZM29.4314 8.22897C29.0899 8.31153 28.7318 8.28915 28.4029 8.16467C28.074 8.04019 27.7891 7.81925 27.5845 7.53001C27.38 7.24077 27.265 6.89633 27.2542 6.54058C27.2434 6.18484 27.3374 5.8339 27.5241 5.5325C27.7108 5.23109 27.9818 4.99287 28.3026 4.84819C28.6234 4.7035 28.9794 4.65892 29.3252 4.72011C29.6711 4.7813 29.9911 4.9455 30.2446 5.19178C30.498 5.43806 30.6734 5.75526 30.7484 6.10297C30.8002 6.33026 30.8072 6.56568 30.7689 6.79571C30.7307 7.02575 30.6481 7.24586 30.5257 7.44341C30.4033 7.64096 30.2436 7.81205 30.0558 7.94686C29.868 8.08167 29.6558 8.17754 29.4314 8.22897Z" fill="url(#paint2_linear)"/>
<path d="M39.6781 6.00537L19.1897 10.4619L20.2295 15.3749L40.718 10.9183L39.6781 6.00537Z" fill="#2D47FE"/>
<path d="M28.4175 3.43428C27.8511 3.5575 27.3336 3.8482 26.9302 4.26961C26.5269 4.69102 26.2558 5.22422 26.1514 5.80179C26.047 6.37935 26.1138 6.97534 26.3435 7.51439C26.5732 8.05345 26.9554 8.51135 27.4417 8.83021C27.9281 9.14906 28.4969 9.31455 29.076 9.30574C29.6552 9.29693 30.2187 9.11422 30.6955 8.78071C31.1722 8.44721 31.5407 7.97788 31.7543 7.43209C31.9679 6.88629 32.0171 6.28853 31.8956 5.71441C31.8149 5.33316 31.661 4.97176 31.4425 4.65084C31.2241 4.32992 30.9454 4.05576 30.6224 3.84403C30.2994 3.6323 29.9385 3.48713 29.5601 3.41683C29.1818 3.34652 28.7935 3.35245 28.4175 3.43428ZM29.3864 8.0158C29.0595 8.0869 28.7191 8.05814 28.4084 7.93315C28.0976 7.80816 27.8304 7.59255 27.6405 7.3136C27.4506 7.03464 27.3466 6.70487 27.3416 6.36598C27.3366 6.0271 27.4309 5.69432 27.6124 5.40974C27.794 5.12516 28.0548 4.90155 28.3617 4.7672C28.6686 4.63286 29.008 4.5938 29.3368 4.65497C29.6657 4.71614 29.9692 4.87479 30.2091 5.11087C30.449 5.34694 30.6144 5.64982 30.6845 5.98122C30.7784 6.42553 30.6945 6.88947 30.451 7.27102C30.2076 7.65257 29.8246 7.92047 29.3864 8.0158Z" fill="#2D47FE"/>
<path d="M72.8666 12.4277H27.0417V76.6137H72.8666V12.4277Z" fill="#E0E0E0"/>
<g opacity="0.5">
<path opacity="0.5" d="M72.0928 13.5127H27.8167V75.5291H72.0928V13.5127Z" fill="url(#paint3_linear)"/>
</g>
<path d="M71.5287 13.9697H28.3798V74.6159H71.5287V13.9697Z" fill="white"/>
<path d="M60.7136 11.3398H39.308V16.5964H60.7136V11.3398Z" fill="url(#paint4_linear)"/>
<path d="M50.0107 6.20898C48.3581 6.20898 47.0181 7.59939 47.0181 9.31507C47.0181 11.0307 48.3581 12.4211 50.0107 12.4211C51.6633 12.4211 53.0033 11.0307 53.0033 9.31507C53.0033 7.59939 51.6633 6.20898 50.0107 6.20898ZM50.0107 11.1073C49.6594 11.1157 49.3135 11.0179 49.0173 10.8261C48.7211 10.6344 48.488 10.3575 48.3478 10.0309C48.2075 9.70424 48.1665 9.34263 48.2299 8.99222C48.2933 8.64181 48.4583 8.3185 48.7037 8.06359C48.9492 7.80867 49.2641 7.63371 49.6081 7.56104C49.9522 7.48837 50.3098 7.52129 50.6353 7.6556C50.9607 7.78991 51.2394 8.01951 51.4355 8.31509C51.6317 8.61067 51.7366 8.95881 51.7367 9.31507C51.74 9.7833 51.5603 10.2338 51.2369 10.5681C50.9134 10.9024 50.4726 11.0932 50.0107 11.0988V11.1073Z" fill="url(#paint5_linear)"/>
<path d="M60.4882 11.1143H39.5334V16.1391H60.4882V11.1143Z" fill="#2D47FE"/>
<path d="M50.0107 6.20898C49.4315 6.20898 48.8652 6.38311 48.3836 6.70934C47.902 7.03558 47.5266 7.49926 47.305 8.04177C47.0833 8.58427 47.0253 9.18123 47.1383 9.75715C47.2513 10.3331 47.5302 10.8621 47.9398 11.2773C48.3494 11.6925 48.8712 11.9753 49.4394 12.0898C50.0075 12.2044 50.5963 12.1456 51.1315 11.9209C51.6666 11.6962 52.124 11.3156 52.4458 10.8274C52.7676 10.3392 52.9394 9.76514 52.9394 9.17794C52.9394 8.39052 52.6308 7.63536 52.0816 7.07857C51.5324 6.52178 50.7874 6.20898 50.0107 6.20898ZM50.0107 10.8915C49.6767 10.8911 49.3502 10.7903 49.0726 10.602C48.795 10.4136 48.5787 10.1461 48.451 9.83319C48.3232 9.52029 48.2898 9.17604 48.3549 8.8439C48.4201 8.51176 48.5808 8.20663 48.8168 7.96703C49.0529 7.72742 49.3537 7.5641 49.6813 7.49768C50.0088 7.43125 50.3484 7.4647 50.6573 7.59381C50.9661 7.72291 51.2302 7.94188 51.4164 8.22307C51.6025 8.50426 51.7023 8.83505 51.7031 9.17369C51.703 9.3988 51.6591 9.62169 51.574 9.8296C51.4888 10.0375 51.3641 10.2264 51.2069 10.3854C51.0498 10.5444 50.8632 10.6705 50.658 10.7565C50.4527 10.8424 50.2328 10.8865 50.0107 10.8862V10.8915Z" fill="#2D47FE"/>
<g opacity="0.5">
<path opacity="0.5" d="M1.99546 78.3486H1.6012V80.616H1.99546V78.3486Z" fill="#47E6B1"/>
<path opacity="0.5" d="M2.91711 79.6829V79.2832H0.680506V79.6829H2.91711Z" fill="#47E6B1"/>
</g>
<g opacity="0.5">
<path opacity="0.5" d="M47.7364 0H47.3422V2.26738H47.7364V0Z" fill="#47E6B1"/>
<path opacity="0.5" d="M48.6582 1.33328V0.933594L46.4216 0.933594V1.33328L48.6582 1.33328Z" fill="#47E6B1"/>
</g>
<path opacity="0.5" d="M80.8535 82.1234C80.7448 82.0754 80.6572 81.9886 80.6075 81.8794C80.5578 81.7702 80.5495 81.6463 80.584 81.5313C80.5896 81.5137 80.5931 81.4955 80.5945 81.4771C80.5977 81.4245 80.584 81.3722 80.5555 81.328C80.5271 81.2839 80.4853 81.2502 80.4365 81.232C80.3877 81.2137 80.3344 81.2119 80.2845 81.2267C80.2346 81.2416 80.1907 81.2724 80.1594 81.3145C80.1485 81.3293 80.1393 81.3453 80.1321 81.3623C80.0848 81.4726 79.9991 81.5613 79.8914 81.6117C79.7837 81.6621 79.6615 81.6705 79.5481 81.6355C79.5307 81.6298 79.5128 81.6263 79.4946 81.6249C79.4426 81.6217 79.3911 81.6356 79.3475 81.6644C79.304 81.6933 79.2707 81.7355 79.2527 81.785C79.2348 81.8345 79.2329 81.8886 79.2476 81.9392C79.2623 81.9898 79.2926 82.0342 79.3341 82.066C79.3488 82.0771 79.3646 82.0863 79.3813 82.0936C79.4901 82.1416 79.5776 82.2285 79.6273 82.3377C79.677 82.4468 79.6854 82.5707 79.6508 82.6857C79.6452 82.7033 79.6417 82.7215 79.6403 82.74C79.6372 82.7926 79.6509 82.8449 79.6793 82.889C79.7078 82.9332 79.7495 82.9669 79.7983 82.9851C79.8471 83.0034 79.9004 83.0052 79.9504 82.9903C80.0003 82.9755 80.0442 82.9447 80.0755 82.9026C80.0864 82.8878 80.0955 82.8717 80.1027 82.8548C80.1501 82.7445 80.2358 82.6558 80.3434 82.6054C80.4511 82.555 80.5733 82.5465 80.6868 82.5816C80.7041 82.5872 80.7221 82.5908 80.7403 82.5922C80.7922 82.5954 80.8438 82.5815 80.8873 82.5527C80.9309 82.5238 80.9641 82.4815 80.9821 82.432C81.0001 82.3825 81.0019 82.3285 80.9872 82.2779C80.9726 82.2273 80.9422 82.1828 80.9007 82.151C80.8861 82.14 80.8703 82.1307 80.8535 82.1234Z" fill="#4D8AF0"/>
<path opacity="0.5" d="M14.331 60.3246C14.2222 60.2766 14.1347 60.1898 14.085 60.0806C14.0353 59.9714 14.0269 59.8475 14.0615 59.7325C14.067 59.7149 14.0706 59.6967 14.072 59.6783C14.0751 59.6256 14.0614 59.5734 14.033 59.5292C14.0045 59.4851 13.9628 59.4514 13.914 59.4331C13.8651 59.4149 13.8118 59.4131 13.7619 59.4279C13.712 59.4428 13.6681 59.4735 13.6368 59.5156C13.6259 59.5305 13.6167 59.5465 13.6095 59.5635C13.5622 59.6737 13.4765 59.7625 13.3688 59.8129C13.2611 59.8632 13.1389 59.8717 13.0255 59.8367C13.0081 59.831 12.9902 59.8275 12.972 59.826C12.9201 59.8229 12.8685 59.8367 12.825 59.8656C12.7814 59.8944 12.7482 59.9367 12.7302 59.9862C12.7122 60.0357 12.7104 60.0897 12.725 60.1403C12.7397 60.1909 12.77 60.2354 12.8116 60.2672C12.8262 60.2782 12.842 60.2875 12.8588 60.2948C12.9675 60.3428 13.055 60.4297 13.1047 60.5388C13.1544 60.648 13.1628 60.7719 13.1282 60.8869C13.1227 60.9045 13.1191 60.9227 13.1177 60.9411C13.1146 60.9938 13.1283 61.046 13.1568 61.0902C13.1852 61.1343 13.2269 61.168 13.2757 61.1863C13.3246 61.2045 13.3779 61.2063 13.4278 61.1915C13.4777 61.1766 13.5216 61.1459 13.5529 61.1038C13.5638 61.0889 13.573 61.0729 13.5802 61.0559C13.6275 60.9457 13.7132 60.8569 13.8209 60.8066C13.9286 60.7562 14.0508 60.7477 14.1642 60.7827C14.1816 60.7884 14.1995 60.792 14.2177 60.7934C14.2696 60.7965 14.3212 60.7827 14.3648 60.7538C14.4083 60.725 14.4415 60.6827 14.4595 60.6332C14.4775 60.5837 14.4793 60.5297 14.4647 60.4791C14.45 60.4285 14.4197 60.384 14.3781 60.3522C14.3635 60.3412 14.3477 60.3319 14.331 60.3246Z" fill="#FDD835"/>
<path opacity="0.5" d="M69.7387 7.24744C69.6299 7.19945 69.5424 7.11261 69.4927 7.00343C69.443 6.89426 69.4346 6.77037 69.4692 6.65535C69.4748 6.63776 69.4783 6.61957 69.4797 6.60114C69.4828 6.54849 69.4691 6.49622 69.4407 6.45207C69.4122 6.40792 69.3705 6.37422 69.3217 6.35598C69.2729 6.33773 69.2196 6.33591 69.1696 6.35077C69.1197 6.36563 69.0758 6.3964 69.0445 6.4385C69.0336 6.45331 69.0245 6.46936 69.0172 6.48634C68.9699 6.59658 68.8842 6.68533 68.7766 6.73571C68.6689 6.78608 68.5466 6.79456 68.4332 6.75953C68.4158 6.75387 68.3979 6.75031 68.3797 6.7489C68.3278 6.74573 68.2762 6.75959 68.2327 6.78844C68.1891 6.81728 68.1559 6.85958 68.1379 6.90906C68.1199 6.95855 68.1181 7.0126 68.1327 7.0632C68.1474 7.11381 68.1777 7.15828 68.2193 7.19004C68.2339 7.2011 68.2497 7.21037 68.2665 7.21768C68.3752 7.26567 68.4628 7.35251 68.5125 7.46169C68.5621 7.57086 68.5705 7.69475 68.536 7.80977C68.5304 7.82736 68.5269 7.84556 68.5255 7.86398C68.5223 7.91663 68.536 7.9689 68.5645 8.01305C68.5929 8.05721 68.6346 8.0909 68.6835 8.10914C68.7323 8.12739 68.7856 8.12921 68.8355 8.11435C68.8854 8.09949 68.9293 8.06873 68.9606 8.02662C68.9715 8.01181 68.9807 7.99576 68.9879 7.97878C69.0352 7.86854 69.1209 7.77979 69.2286 7.72942C69.3363 7.67904 69.4585 7.67056 69.5719 7.7056C69.5893 7.71125 69.6073 7.71482 69.6254 7.71622C69.6774 7.7194 69.7289 7.70553 69.7725 7.67669C69.816 7.64784 69.8493 7.60554 69.8673 7.55606C69.8853 7.50657 69.8871 7.45253 69.8724 7.40192C69.8577 7.35132 69.8274 7.30684 69.7859 7.27508C69.7713 7.26403 69.7554 7.25475 69.7387 7.24744Z" fill="#FDD835"/>
<path opacity="0.5" d="M85.2115 34.2288C85.6476 34.2288 86.0011 33.8704 86.0011 33.4284C86.0011 32.9863 85.6476 32.6279 85.2115 32.6279C84.7754 32.6279 84.4219 32.9863 84.4219 33.4284C84.4219 33.8704 84.7754 34.2288 85.2115 34.2288Z" fill="#F55F44"/>
<path opacity="0.5" d="M24.1938 80.1692C24.6298 80.1692 24.9833 79.8109 24.9833 79.3688C24.9833 78.9267 24.6298 78.5684 24.1938 78.5684C23.7577 78.5684 23.4042 78.9267 23.4042 79.3688C23.4042 79.8109 23.7577 80.1692 24.1938 80.1692Z" fill="#F55F44"/>
<path opacity="0.5" d="M77.1028 51.5306C77.5389 51.5306 77.8924 51.1722 77.8924 50.7301C77.8924 50.2881 77.5389 49.9297 77.1028 49.9297C76.6667 49.9297 76.3132 50.2881 76.3132 50.7301C76.3132 51.1722 76.6667 51.5306 77.1028 51.5306Z" fill="#F55F44"/>
<path opacity="0.5" d="M9.13723 11.0423C9.57331 11.0423 9.92681 10.6839 9.92681 10.2418C9.92681 9.79977 9.57331 9.44141 9.13723 9.44141C8.70116 9.44141 8.34766 9.79977 8.34766 10.2418C8.34766 10.6839 8.70116 11.0423 9.13723 11.0423Z" fill="#4D8AF0"/>
<path opacity="0.5" d="M0.789578 32.8772C1.22565 32.8772 1.57916 32.5189 1.57916 32.0768C1.57916 31.6347 1.22565 31.2764 0.789578 31.2764C0.353506 31.2764 0 31.6347 0 32.0768C0 32.5189 0.353506 32.8772 0.789578 32.8772Z" fill="#47E6B1"/>
</g>
<defs>
<linearGradient id="paint0_linear" x1="42.7088" y1="71.2261" x2="29.5356" y2="10.6636" gradientUnits="userSpaceOnUse">
<stop stop-color="#808080" stop-opacity="0.25"/>
<stop offset="0.54" stop-color="#808080" stop-opacity="0.12"/>
<stop offset="1" stop-color="#808080" stop-opacity="0.1"/>
</linearGradient>
<linearGradient id="paint1_linear" x1="11514" y1="-1519.97" x2="11458.8" y2="-1773.81" gradientUnits="userSpaceOnUse">
<stop stop-color="#808080" stop-opacity="0.25"/>
<stop offset="0.54" stop-color="#808080" stop-opacity="0.12"/>
<stop offset="1" stop-color="#808080" stop-opacity="0.1"/>
</linearGradient>
<linearGradient id="paint2_linear" x1="3362.13" y1="173.372" x2="3285.1" y2="-180.759" gradientUnits="userSpaceOnUse">
<stop stop-color="#808080" stop-opacity="0.25"/>
<stop offset="0.54" stop-color="#808080" stop-opacity="0.12"/>
<stop offset="1" stop-color="#808080" stop-opacity="0.1"/>
</linearGradient>
<linearGradient id="paint3_linear" x1="21121" y1="44078" x2="21121" y2="7897.04" gradientUnits="userSpaceOnUse">
<stop stop-color="#808080" stop-opacity="0.25"/>
<stop offset="0.54" stop-color="#808080" stop-opacity="0.12"/>
<stop offset="1" stop-color="#808080" stop-opacity="0.1"/>
</linearGradient>
<linearGradient id="paint4_linear" x1="10248.5" y1="832.041" x2="10248.5" y2="572.106" gradientUnits="userSpaceOnUse">
<stop stop-color="#808080" stop-opacity="0.25"/>
<stop offset="0.54" stop-color="#808080" stop-opacity="0.12"/>
<stop offset="1" stop-color="#808080" stop-opacity="0.1"/>
</linearGradient>
<linearGradient id="paint5_linear" x1="4038.36" y1="1101.97" x2="4038.36" y2="738.934" gradientUnits="userSpaceOnUse">
<stop stop-color="#808080" stop-opacity="0.25"/>
<stop offset="0.54" stop-color="#808080" stop-opacity="0.12"/>
<stop offset="1" stop-color="#808080" stop-opacity="0.1"/>
</linearGradient>
<clipPath id="clip0">
<rect width="86" height="83" fill="white"/>
</clipPath>
</defs>
</svg>
