<?xml version="1.0" encoding="UTF-8"?>
<svg width="500px" height="349px" viewBox="0 0 500 349" version="1.1" xmlns="http://www.w3.org/2000/svg" xmlns:xlink="http://www.w3.org/1999/xlink">
    <!-- Generator: Sketch 51.3 (57544) - http://www.bohemiancoding.com/sketch -->
    <title>Group 115</title>
    <desc>Created with Sketch.</desc>
    <defs>
        <linearGradient x1="49.9827049%" y1="100.013547%" x2="49.9827049%" y2="0.00518389213%" id="linearGradient-1">
            <stop stop-color="#808080" stop-opacity="0.25" offset="0%"></stop>
            <stop stop-color="#808080" stop-opacity="0.12" offset="54%"></stop>
            <stop stop-color="#808080" stop-opacity="0.1" offset="100%"></stop>
        </linearGradient>
        <linearGradient x1="12772.3%" y1="5579%" x2="12772.3%" y2="5576.5%" id="linearGradient-2">
            <stop stop-color="#808080" stop-opacity="0.25" offset="0%"></stop>
            <stop stop-color="#808080" stop-opacity="0.12" offset="54%"></stop>
            <stop stop-color="#808080" stop-opacity="0.1" offset="100%"></stop>
        </linearGradient>
        <linearGradient x1="25254.9336%" y1="60499.9773%" x2="25254.9336%" y2="27099.9653%" id="linearGradient-3">
            <stop stop-color="#808080" stop-opacity="0.25" offset="0%"></stop>
            <stop stop-color="#808080" stop-opacity="0.12" offset="54%"></stop>
            <stop stop-color="#808080" stop-opacity="0.1" offset="100%"></stop>
        </linearGradient>
        <linearGradient x1="85265.5906%" y1="60199.8624%" x2="85265.5906%" y2="19499.9685%" id="linearGradient-4">
            <stop stop-color="#808080" stop-opacity="0.25" offset="0%"></stop>
            <stop stop-color="#808080" stop-opacity="0.12" offset="54%"></stop>
            <stop stop-color="#808080" stop-opacity="0.1" offset="100%"></stop>
        </linearGradient>
    </defs>
    <g id="Page-1" stroke="none" stroke-width="1" fill="none" fill-rule="evenodd">
        <g id="Group-115" transform="translate(-1.000000, 0.000000)">
            <g id="Group">
                <path d="M51.079,59.1934 C64.5954,59.1934 75.553,48.2436 75.553,34.7363 C75.553,21.2291 64.5954,10.2793 51.079,10.2793 C37.5627,10.2793 26.6055,21.2291 26.6055,34.7363 C26.6055,48.2436 37.5627,59.1934 51.079,59.1934 Z" id="Shape" fill="#006AD8" fill-rule="nonzero"></path>
                <path d="M48.0891,84.5239 C58.3649,107.718 45.2569,134.427 29.8273,154.539 C24.6631,161.283 18.9619,168.353 18.2459,176.813 C17.3826,187.16 24.3946,196.672 32.7121,202.89 C47.8837,214.221 68.6039,217.725 86.66,212.007 C102.264,207.067 115.382,195.909 131.122,191.411 C157.444,183.878 185.344,196.367 207.886,211.928 C223.842,222.928 240.93,236.332 260.165,233.975 C273.7,232.318 285.186,222.823 292.983,211.644 C296.747,206.246 300.021,200.196 305.501,196.556 C308.76,194.389 312.587,193.242 316.414,192.421 C351.363,184.956 388.455,203.174 422.942,193.805 C446.236,187.492 464.808,169.079 476.358,147.894 C487.908,126.71 493.298,102.789 497.789,79.0896 C500.979,62.2553 503.627,44.069 496.294,28.5868 C488.534,12.1944 470.573,2.2569 452.521,0.394612 C434.47,-1.46768 416.366,3.67204 399.737,10.9213 C378.959,20.0013 358.591,32.7112 335.913,32.7532 C320.467,32.7848 305.738,26.8612 290.972,22.3423 C266.282,14.7932 240.608,11.0423 215.024,7.58074 C190.53,4.26649 165.793,1.18372 141.151,3.1407 C123.715,4.52427 108.318,11.1843 91.398,14.2671 C80.37,16.2767 69.2882,14.7932 58.4649,18.16 C45.1358,22.3265 31.4277,31.9799 30.6907,47.1834 C29.9958,61.6556 42.6405,72.2191 48.0891,84.5239 Z" id="Shape" fill="#006AD8" fill-rule="nonzero" opacity="0.1"></path>
                <path d="M317.856,105.177 C315.608,99.322 309.812,85.56 305.996,88.2903 C301.174,91.7413 310.818,106.987 310.818,106.987 C311.091,109.786 305.669,115.609 302.763,118.513 C302.763,118.282 302.763,118.15 302.763,118.15 C302.736,118.261 302.693,118.367 302.637,118.466 L302.395,118.334 C302.33,118.566 302.213,118.78 302.053,118.96 C302.053,118.566 302.026,118.334 302.026,118.334 C301.468,120.696 291.729,123.69 291.729,123.69 C291.729,123.69 291.466,123.69 291.014,123.69 C288.308,123.69 281.264,123.079 278,117.861 C276.312,115.034 274.153,112.516 271.615,110.417 C270.746,109.736 269.69,109.336 268.588,109.27 C259.57,108.691 252.269,104.13 250.81,103.157 L250.542,102.973 L250.484,103.141 C250.142,102.652 249.81,102.131 249.5,101.595 L249.342,101.305 C251.524,100.21 253.361,98.5326 254.648,96.4581 C255.935,94.3837 256.622,91.9936 256.633,89.5529 C256.633,89.4634 256.633,89.3688 256.633,89.2793 C257.426,87.9091 257.844,86.354 257.843,84.7709 L257.843,83.1927 L259.902,81.3619 C260.844,80.5255 261.818,79.6417 262.297,78.4896 C262.489,78.0234 262.576,77.5203 262.55,77.0166 C262.596,76.5851 262.531,76.149 262.362,75.7495 C262.192,75.35 261.923,75.0003 261.581,74.7334 C260.002,73.6445 257.37,74.7335 256.227,73.2184 C255.701,72.5345 255.796,71.6033 255.538,70.7984 C255.011,69.1624 253.116,68.2786 251.363,68.2523 C249.61,68.226 247.931,68.8625 246.246,69.3412 C242.707,70.3453 239.013,70.6912 235.349,70.3618 C234.358,70.1855 233.341,70.2214 232.364,70.467 C231.768,70.7133 231.238,71.0965 230.817,71.5854 C230.397,72.0744 230.097,72.6554 229.943,73.2815 C229.813,73.752 229.735,74.2354 229.711,74.7229 C228.242,76.3783 227.43,78.5131 227.426,80.7254 L227.426,84.7709 C227.43,86.9306 228.204,89.0181 229.611,90.6576 C229.777,92.5611 230.356,94.4056 231.308,96.0628 C232.26,97.7199 233.562,99.1499 235.123,100.253 C235.123,100.358 235.123,100.465 235.123,100.574 L235.191,100.616 C235.106,101.87 234.912,103.115 234.612,104.335 L234.612,104.067 C234.612,104.067 227.242,107.986 219.346,108.081 L218.477,108.081 C216.92,108.029 215.405,108.596 214.266,109.659 C211.928,111.858 207.833,115.336 205.316,115.336 C204.79,115.336 191.503,117.929 189.303,118.361 L185.191,114.336 L185.065,114.573 L184.823,114.336 C184.373,114.371 183.926,114.436 183.486,114.531 C181.38,112.037 177.168,106.24 176.195,98.4592 C176.195,98.4592 185.286,88.1114 181.943,78.4686 C179.09,70.2513 171.23,87.8642 168.998,93.1722 C168.608,94.0985 168.559,95.1332 168.861,96.0919 L176.247,119.881 C175.544,121.724 175.342,123.721 175.663,125.668 L175.579,125.668 L180.959,132.564 C180.959,132.564 185.007,134.29 191.34,134.258 C195.981,134.266 200.581,133.384 204.89,131.66 L206.138,131.66 L205.901,131.749 L212.307,131.749 L216.382,144.064 C216.245,145.185 214.276,160.825 212.697,164.323 C212.228,165.492 212.017,166.748 212.076,168.006 C212.159,170.422 212.553,172.818 213.25,175.134 L216.819,175.003 L216.682,175.281 C213.66,181.473 208.612,192.505 205.627,202.816 L200.431,213.337 L204.327,260.526 L204.485,260.526 L204.785,260.573 C205.206,260.636 205.838,260.731 206.669,260.836 L206.364,261.362 L197.778,275.566 C197.778,275.566 191.656,288.092 205.201,285.73 C205.201,285.73 210.207,284.278 212.25,275.735 L221.157,267.386 C221.157,267.386 221.573,261.841 219.051,259.626 C218.893,257.064 218.493,249.584 219.109,247.785 C219.851,245.607 215.95,220.56 215.95,220.56 C215.95,220.56 230.048,191.337 238.587,190.611 C239.213,190.567 239.841,190.649 240.434,190.853 C247.452,193.136 255.954,210.092 258.454,215.368 L258.57,215.61 L258.57,215.657 L258.665,215.863 L258.665,215.92 L258.749,216.099 L258.749,216.147 L258.823,216.31 L258.823,216.347 L258.886,216.478 L258.886,216.531 L258.933,216.631 L258.933,216.673 L258.965,216.746 L258.965,216.788 L258.965,216.836 L258.991,216.899 L260.102,249.752 L260.212,249.81 L260.265,249.81 L260.17,250.489 L259.686,253.882 C259.686,253.882 265.808,266.77 265.434,268.401 C265.061,270.032 269.514,276.571 275.821,274.756 C282.127,272.941 278.374,262.709 278.374,262.709 L272.299,250.199 L272.031,249.642 C272.636,249.27 273.207,248.846 273.736,248.374 C273.736,248.374 271.883,234.943 273.736,232.039 C275.589,229.135 276.147,215.884 276.147,215.884 C276.147,215.884 274.847,206.809 272.62,202.816 L263.292,169.542 C266.087,172.141 268.261,173.156 270.078,173.088 L270.378,173.088 C271.176,173.103 271.964,172.907 272.662,172.52 C273.037,172.308 273.39,172.06 273.715,171.778 C273.777,171.724 273.835,171.666 273.889,171.604 C276.484,169.426 270.92,160.893 267.767,155.822 C264.729,150.93 268.914,137.636 269.23,136.647 C269.511,136.441 269.813,136.264 270.13,136.121 C270.783,135.841 271.484,135.689 272.194,135.674 C275.215,135.779 278.932,137.515 283.533,138.388 C286.731,138.932 289.971,139.183 293.214,139.14 L293.404,139.14 C294.693,139.14 295.862,139.114 296.81,139.077 C297.674,139.043 298.52,138.815 299.284,138.409 C299.939,138.028 300.531,137.549 301.042,136.989 L309.117,127.872 L308.907,127.972 C309.298,126.938 309.298,125.797 308.907,124.763 L317.44,110.033 C317.871,109.307 318.132,108.493 318.204,107.653 C318.276,106.812 318.157,105.966 317.856,105.177 Z" id="Shape" fill="url(#linearGradient-1)" fill-rule="nonzero"></path>
                <path d="M221.984,266.139 L213.387,274.372 C211.418,282.789 206.58,284.215 206.58,284.215 C193.509,286.54 199.416,274.22 199.416,274.22 L207.707,260.2 L208.728,258.469 C208.728,258.469 214.64,256.68 218.577,257.754 C219.075,257.89 219.534,258.138 219.92,258.48 C222.389,260.621 221.984,266.139 221.984,266.139 Z" id="Shape" fill="#444176" fill-rule="nonzero"></path>
                <path d="M274.989,273.478 C268.899,275.267 264.603,268.828 264.987,267.213 C265.371,265.598 259.423,252.914 259.423,252.914 L259.886,249.568 L260.318,246.47 L270.32,247.185 L271.262,249.163 L277.127,261.5 C277.127,261.5 281.08,271.69 274.989,273.478 Z" id="Shape" fill="#444176" fill-rule="nonzero"></path>
                <path d="M220.015,259.879 C219.072,261.494 211.434,260.679 207.712,260.173 L208.733,258.443 C208.733,258.443 214.645,256.654 218.583,257.727 C219.08,257.863 219.539,258.112 219.925,258.453 C219.978,259.326 220.015,259.879 220.015,259.879 Z" id="Shape" fill="#000000" fill-rule="nonzero" opacity="0.1"></path>
                <path d="M271.273,249.152 C266.151,252.561 260.697,249.984 259.875,249.558 L260.307,246.459 L270.309,247.174 L271.273,249.152 Z" id="Shape" fill="#000000" fill-rule="nonzero" opacity="0.1"></path>
                <path d="M272.662,231.245 C270.872,234.107 272.662,247.353 272.662,247.353 C266.751,252.725 259.77,248.784 259.77,248.784 L258.717,216.394 C258.717,216.394 247.078,189.728 238.839,190.443 C230.601,191.158 216.993,219.971 216.993,219.971 C216.993,219.971 220.751,244.665 220.035,246.801 C219.319,248.937 220.035,259.327 220.035,259.327 C218.783,261.473 205.711,259.327 205.711,259.327 L201.953,212.796 L206.943,202.411 C209.812,192.247 214.687,181.368 217.603,175.266 C219.051,172.23 220.02,170.379 220.02,170.379 L229.548,168.395 L260.476,161.988 L271.588,202.411 C273.736,206.346 274.989,215.295 274.989,215.295 C274.989,215.295 274.452,228.383 272.662,231.245 Z" id="Shape" fill="#565387" fill-rule="nonzero"></path>
                <g opacity="0.1" transform="translate(201.000000, 161.000000)" fill="#000000" fill-rule="nonzero" id="Shape">
                    <path d="M61.634,87.784 L60.581,55.394 C60.581,55.394 48.942,28.727 40.703,29.443 C40.335,29.479 39.972,29.56 39.624,29.685 C47.657,32.352 57.717,55.394 57.717,55.394 L58.77,87.784 C60.967,88.902 63.443,89.354 65.893,89.084 C64.407,88.905 62.966,88.465 61.634,87.784 Z"></path>
                    <path d="M7.554,98.342 L3.795,51.812 L8.807,41.411 C11.676,31.247 16.551,20.368 19.467,14.266 C20.915,11.23 21.883,9.379 21.883,9.379 L31.412,7.395 L59.644,1.53 L59.491,0.967 L28.548,7.395 L19.02,9.379 C19.02,9.379 18.051,11.23 16.603,14.266 C13.676,20.368 8.812,31.268 5.943,41.411 L0.932,51.79 L4.69,98.321 C4.69,98.321 11.829,99.495 16.061,99.237 C13.212,99.082 10.373,98.784 7.554,98.342 Z"></path>
                </g>
                <path d="M186.776,115.194 C186.776,115.194 176.569,115.72 178,126.468 L180.864,126.825 L185.16,122.175 L187.308,118.24 L187.308,117.345 L186.776,115.194 Z" id="Shape" fill="#CED2DF" fill-rule="nonzero"></path>
                <path d="M186.776,115.194 C186.776,115.194 176.569,115.72 178,126.468 L180.864,126.825 L185.16,122.175 L187.308,118.24 L187.308,117.345 L186.776,115.194 Z" id="Shape" fill="#000000" fill-rule="nonzero" opacity="0.1"></path>
                <path d="M300.331,119.129 C300.331,119.129 308.754,123.601 306.601,128.793 L303.916,129.845 L300.336,127.877 L299.81,123.227 L300.168,120.007 L300.331,119.129 Z" id="Shape" fill="#CED2DF" fill-rule="nonzero"></path>
                <path d="M300.331,119.129 C300.331,119.129 308.754,123.601 306.601,128.793 L303.916,129.845 L300.336,127.877 L299.81,123.227 L300.168,120.007 L300.331,119.129 Z" id="Shape" fill="#000000" fill-rule="nonzero" opacity="0.1"></path>
                <path d="M246.251,72.9556 L239.087,72.9556 C232.955,72.9556 227.984,77.9229 227.984,84.0504 C227.984,90.1779 232.955,95.1452 239.087,95.1452 L246.251,95.1452 C252.383,95.1452 257.354,90.1779 257.354,84.0504 C257.354,77.9229 252.383,72.9556 246.251,72.9556 Z" id="Shape" fill="#88455E" fill-rule="nonzero"></path>
                <path d="M186.707,116.714 L180.438,126.71 L179.911,124.931 L171.394,97.197 C171.102,96.2515 171.149,95.2343 171.525,94.3193 C173.678,89.0902 181.269,71.6983 184.023,79.8261 C187.244,89.2954 178.469,99.5117 178.469,99.5117 C179.469,107.803 184.128,113.81 185.96,115.894 C186.423,116.435 186.707,116.714 186.707,116.714 Z" id="Shape" fill="#EC8C9C" fill-rule="nonzero"></path>
                <path d="M298.989,121.007 C298.989,121.007 308.838,111.701 308.464,107.945 C308.464,107.945 299.152,92.9149 303.811,89.5322 C307.496,86.8387 313.092,100.411 315.261,106.182 C315.547,106.951 315.662,107.773 315.598,108.591 C315.533,109.409 315.291,110.203 314.887,110.917 L303.116,131.744 L298.989,121.007 Z" id="Shape" fill="#EC8C9C" fill-rule="nonzero"></path>
                <path d="M235.233,95.0611 C235.233,95.0611 237.023,106.514 231.833,110.812 C226.642,115.11 246.699,115.083 246.699,115.083 L253.864,108.46 C253.864,108.46 245.625,100.764 248.131,95.04 L235.233,95.0611 Z" id="Shape" fill="#EC8C9C" fill-rule="nonzero"></path>
                <path d="M234.876,108.123 C234.876,108.123 242.577,113.852 250.273,107.408 L262.808,133.359 L262.092,165.034 C262.092,165.034 236.123,178.454 225.379,170.226 C214.634,161.998 223.589,157.7 223.589,157.7 L221.083,133.364 L223.768,117.613 C223.768,117.613 228.601,110.096 228.964,110.096 C229.327,110.096 234.876,108.123 234.876,108.123 Z" id="Shape" fill="#000000" fill-rule="nonzero" opacity="0.1"></path>
                <path d="M234.876,107.766 C234.876,107.766 242.577,113.505 250.279,107.05 L262.813,133.001 L262.097,164.676 C262.097,164.676 236.129,178.096 225.384,169.868 C214.64,161.641 223.594,157.343 223.594,157.343 L221.089,133.007 L223.773,117.256 C223.773,117.256 228.606,109.739 228.969,109.739 C229.332,109.739 234.876,107.766 234.876,107.766 Z" id="Shape" fill="#EBF1F6" fill-rule="nonzero"></path>
                <path d="M234.876,105.088 C234.876,105.088 227.574,109.244 219.646,109.039 C218.902,109.015 218.161,109.14 217.466,109.406 C216.771,109.671 216.136,110.072 215.598,110.585 C213.339,112.753 209.386,116.183 206.938,116.183 C206.412,116.183 191.177,119.223 191.177,119.223 L187.15,115.199 C187.15,115.199 181.148,126.92 178.285,126.383 L183.48,133.185 C183.48,133.185 193.33,137.478 206.222,132.291 L213.745,132.291 L217.682,144.459 C217.682,144.459 215.714,160.925 214.103,164.502 C212.492,168.08 214.629,175.061 214.629,175.061 L228.774,174.535 C228.774,174.535 229.49,167.554 230.564,166.643 C231.638,165.733 226.805,134.969 226.805,134.969 C226.805,134.969 223.584,117.608 235.402,111.348 L234.876,105.088 Z" id="Shape" fill="#000000" fill-rule="nonzero" opacity="0.1"></path>
                <path d="M229.543,168.417 C229.022,170.539 228.651,172.696 228.432,174.871 L217.604,175.282 C219.051,172.246 220.02,170.395 220.02,170.395 L229.543,168.417 Z" id="Shape" fill="#000000" fill-rule="nonzero" opacity="0.1"></path>
                <path d="M186.707,116.714 L180.438,126.709 L179.911,124.931 C182.212,122.648 184.907,117.877 185.981,115.888 C186.423,116.435 186.707,116.714 186.707,116.714 Z" id="Shape" fill="#000000" fill-rule="nonzero" opacity="0.1"></path>
                <path d="M234.876,105.088 C234.876,105.088 227.211,109.244 219.288,109.039 C218.545,109.015 217.804,109.14 217.109,109.406 C216.414,109.671 215.779,110.072 215.24,110.585 C212.982,112.753 209.028,116.183 206.58,116.183 C206.054,116.183 190.819,119.223 190.819,119.223 L186.776,115.194 C186.776,115.194 180.775,126.915 177.911,126.378 L183.107,133.18 C183.107,133.18 192.956,137.473 205.849,132.286 L213.371,132.286 L217.309,144.449 C217.309,144.449 215.34,160.915 213.729,164.492 C212.118,168.069 214.256,175.05 214.256,175.05 L228.401,174.524 C228.401,174.524 229.117,167.543 230.191,166.633 C231.264,165.723 226.432,134.958 226.432,134.958 C226.432,134.958 223.21,117.598 235.028,111.338 L234.876,105.088 Z" id="Shape" fill="#CED2DF" fill-rule="nonzero"></path>
                <path d="M250.279,104.004 C250.279,104.004 257.586,109.57 267.34,110.212 C268.408,110.279 269.428,110.674 270.262,111.343 C272.722,113.429 274.807,115.92 276.427,118.708 C280.364,125.152 290.035,124.437 290.035,124.437 C290.035,124.437 299.437,121.486 299.974,119.176 C299.974,119.176 300.242,131.802 306.154,128.751 L298.379,137.704 C297.888,138.27 297.288,138.729 296.613,139.054 C295.939,139.379 295.205,139.562 294.457,139.593 C291.535,139.709 286.46,139.746 282.175,138.914 C275.726,137.662 271.073,134.622 267.672,137.305 C267.672,137.305 263.198,151.261 266.24,156.275 C269.283,161.288 274.663,169.695 272.152,171.846 C269.641,173.998 266.598,173.814 261.587,168.627 C256.575,163.44 256.033,154.67 256.033,154.67 L257.286,132.123 C257.286,132.123 252.453,115.12 247.81,111.722 L250.279,104.004 Z" id="Shape" fill="#000000" fill-rule="nonzero" opacity="0.1"></path>
                <path d="M306.865,128.524 L299.068,137.515 C298.55,138.111 297.909,138.589 297.189,138.914 C296.549,139.203 295.859,139.365 295.157,139.393 C292.235,139.514 287.16,139.551 282.875,138.714 C276.842,137.541 272.378,134.806 269.041,136.652 C268.804,136.782 268.579,136.932 268.367,137.099 C268.367,137.099 263.892,151.056 266.935,156.069 C269.978,161.083 275.358,169.49 272.847,171.641 C272.427,172.011 271.955,172.317 271.447,172.551 C269.193,173.567 266.398,172.688 262.281,168.422 C257.27,163.229 256.728,154.465 256.728,154.465 L257.981,131.917 C257.981,131.917 253.148,114.915 248.505,111.516 L250.553,104.178 C251.964,105.135 259.007,109.633 267.714,110.207 C268.781,110.273 269.802,110.669 270.636,111.338 C273.096,113.424 275.181,115.914 276.8,118.703 C280.738,125.147 290.408,124.431 290.408,124.431 C292.727,123.692 294.991,122.792 297.184,121.738 C298.558,121.065 299.768,120.328 300.342,119.634 C300.503,119.452 300.62,119.236 300.684,119.002 C300.684,119.002 300.958,131.565 306.865,128.524 Z" id="Shape" fill="#000000" fill-rule="nonzero" opacity="0.1"></path>
                <path d="M306.506,128.703 L298.715,137.704 C298.287,138.198 297.773,138.611 297.199,138.925 C296.463,139.324 295.646,139.549 294.809,139.582 C291.887,139.703 286.813,139.74 282.528,138.904 C276.711,137.773 272.346,135.184 269.056,136.662 C268.68,136.826 268.327,137.036 268.003,137.289 C268.003,137.289 263.529,151.245 266.572,156.259 C269.614,161.272 274.994,169.679 272.483,171.83 C272.159,172.11 271.806,172.355 271.431,172.562 C269.114,173.84 266.25,173.088 261.907,168.611 C256.896,163.418 256.354,154.654 256.354,154.654 L257.607,132.107 C257.607,132.107 252.774,115.104 248.131,111.706 L250.279,104.009 L250.537,104.188 C251.947,105.146 258.991,109.643 267.698,110.217 C268.765,110.284 269.786,110.679 270.62,111.348 C273.08,113.434 275.165,115.925 276.784,118.713 C280.722,125.157 290.392,124.442 290.392,124.442 C292.711,123.703 294.975,122.803 297.167,121.748 C298.794,120.917 300.121,120.007 300.326,119.176 C300.326,119.176 300.326,119.339 300.326,119.628 C300.484,121.801 301.274,131.391 306.506,128.703 Z" id="Shape" fill="#CED2DF" fill-rule="nonzero"></path>
                <path d="M248.289,95.3291 L235.128,95.3291 C235.418,97.4202 235.501,99.5347 235.376,101.642 C237.385,103.055 239.741,103.894 242.191,104.07 C244.641,104.246 247.093,103.752 249.284,102.641 C248.021,100.306 247.252,97.6543 248.289,95.3291 Z" id="Shape" fill="#000000" fill-rule="nonzero" opacity="0.1"></path>
                <path d="M243.114,103.825 C250.333,103.825 256.185,97.9772 256.185,90.763 C256.185,83.5489 250.333,77.7007 243.114,77.7007 C235.895,77.7007 230.043,83.5489 230.043,90.763 C230.043,97.9772 235.895,103.825 243.114,103.825 Z" id="Shape" fill="#EC8C9C" fill-rule="nonzero"></path>
                <path d="M240.398,88.4376 C241.856,88.264 243.314,87.7484 244.751,88.0377 C246.057,88.3008 247.167,89.2004 248.473,89.4739 C250.989,90 253.327,88.1482 255.227,86.4227 L259.333,82.6876 C260.244,81.8617 261.181,80.9937 261.649,79.8573 C262.118,78.721 261.955,77.227 260.955,76.5115 C259.454,75.4594 256.87,76.5115 255.785,75.0175 C255.295,74.3441 255.369,73.4393 255.117,72.6344 C254.59,71.0246 252.779,70.1461 251.084,70.125 C249.389,70.104 247.768,70.7248 246.146,71.1772 C242.731,72.1673 239.159,72.5082 235.618,72.182 C234.662,72.0071 233.68,72.0412 232.738,72.2819 C232.159,72.5291 231.645,72.9087 231.239,73.3902 C230.834,73.8717 230.546,74.4417 230.401,75.0543 C229.59,77.9161 230.975,82.5298 232.364,85.0917 C233.754,87.6537 237.623,88.7795 240.398,88.4376 Z" id="Shape" fill="#000000" fill-rule="nonzero" opacity="0.1"></path>
                <path d="M240.398,88.0802 C241.856,87.9065 243.314,87.391 244.751,87.6803 C246.057,87.9434 247.167,88.843 248.473,89.1165 C250.989,89.6426 253.327,87.7908 255.227,86.0653 L259.333,82.3302 C260.244,81.5043 261.181,80.6362 261.649,79.4999 C262.118,78.3636 261.955,76.8696 260.955,76.1541 C259.454,75.102 256.87,76.1541 255.785,74.6601 C255.295,73.9867 255.369,73.0819 255.117,72.277 C254.59,70.6672 252.779,69.7887 251.084,69.7676 C249.389,69.7466 247.768,70.3673 246.146,70.8198 C242.731,71.8099 239.159,72.1507 235.618,71.8246 C234.662,71.6497 233.68,71.6838 232.738,71.9245 C232.159,72.1717 231.645,72.5513 231.239,73.0328 C230.834,73.5143 230.546,74.0843 230.401,74.6969 C229.59,77.5587 230.975,82.1724 232.364,84.7343 C233.754,87.2963 237.623,88.3958 240.398,88.0802 Z" id="Shape" fill="#88455E" fill-rule="nonzero"></path>
                <path d="M217.598,144.543 C217.598,144.543 220.462,144.901 221.894,146.69 C223.326,148.478 225.831,149.015 225.831,149.015" id="Shape" fill="#000000" fill-rule="nonzero" opacity="0.1"></path>
                <path d="M191.808,120.917 C191.808,120.917 194.146,126.131 192.703,126.657 C191.261,127.183 191.808,130.95 191.808,130.95" id="Shape" fill="#000000" fill-rule="nonzero" opacity="0.1"></path>
                <g opacity="0.1" transform="translate(192.000000, 105.000000)" fill="#000000" fill-rule="nonzero" id="Shape">
                    <path d="M0.614,14.129 C0.614,14.129 15.833,11.088 16.359,11.088 C18.812,11.088 22.761,7.658 25.019,5.491 C25.706,4.833 26.551,4.364 27.472,4.128 L27.277,4.128 C26.534,4.105 25.793,4.23 25.098,4.495 C24.403,4.761 23.768,5.162 23.229,5.675 C20.971,7.842 17.017,11.272 14.569,11.272 C14.143,11.272 4.404,13.203 0.451,13.987 L0.614,14.129 Z"></path>
                    <path d="M42.897,0.84 L42.897,0.172 C39.235,2.038 35.296,3.297 31.231,3.902 C35.264,3.544 39.208,2.508 42.897,0.84 Z"></path>
                    <path d="M24.077,69.961 C24.077,69.961 21.929,62.98 23.55,59.403 C25.172,55.825 27.13,39.359 27.13,39.359 L23.203,27.191 L15.659,27.191 L15.201,27.37 L21.387,27.37 L25.309,39.544 C25.309,39.544 23.34,56.01 21.729,59.587 C20.118,63.164 22.255,70.145 22.255,70.145 L36.4,69.619 L36.4,69.509 L24.077,69.961 Z"></path>
                </g>
                <g opacity="0.1" transform="translate(256.000000, 128.000000)" fill="#000000" fill-rule="nonzero" id="Shape">
                    <path d="M16.662,40.969 C16.338,41.248 15.985,41.493 15.61,41.7 C13.293,42.979 10.43,42.226 6.087,37.749 C2.107,33.63 0.949,27.228 0.638,24.803 L0.533,26.655 C0.533,26.655 1.059,35.424 6.087,40.611 C10.43,45.104 13.293,45.84 15.61,44.562 C15.985,44.355 16.338,44.11 16.662,43.831 C17.415,43.184 17.457,41.968 17.063,40.453 C16.965,40.65 16.829,40.825 16.662,40.969 Z"></path>
                    <path d="M47.974,0.972 L42.905,6.827 C42.476,7.321 41.963,7.734 41.389,8.047 C40.653,8.447 39.835,8.672 38.999,8.705 C36.077,8.826 31.002,8.863 26.717,8.026 C20.9,6.895 16.536,4.307 13.246,5.785 C12.87,5.949 12.516,6.159 12.193,6.411 C12.193,6.411 9.303,15.428 9.745,21.567 C10.087,15.828 12.193,9.273 12.193,9.273 C12.516,9.021 12.87,8.811 13.246,8.647 C16.541,7.169 20.9,9.757 26.717,10.888 C31.002,11.719 36.072,11.682 38.999,11.567 C39.835,11.533 40.653,11.308 41.389,10.909 C41.962,10.601 42.475,10.193 42.905,9.704 L50.701,0.714 C50.298,0.965 49.841,1.119 49.368,1.164 C48.895,1.208 48.418,1.143 47.974,0.972 Z"></path>
                </g>
                <path d="M75.037,193.41 C75.099,193.471 75.18,193.51 75.266,193.521 C75.352,193.533 75.44,193.516 75.516,193.473 C75.354,193.476 75.193,193.455 75.037,193.41 Z" id="Shape" fill="url(#linearGradient-2)" fill-rule="nonzero"></path>
                <path d="M128.685,106.267 C127.737,105.993 126.384,105.546 124.758,104.978 C126.448,102.804 127.685,100.314 128.395,97.6548 L128.258,97.7074 C128.306,97.5443 128.353,97.3865 128.395,97.2181 C125.274,98.486 121.82,96.3396 119.62,93.583 C117.419,90.8264 115.935,87.4069 113.524,84.8712 C112.519,83.8625 111.438,82.9322 110.291,82.0883 C109.581,81.5623 108.817,80.9678 107.949,80.9415 C106.543,80.8994 105.443,82.2777 104.09,82.6828 C103.2,82.883 102.273,82.8486 101.4,82.5828 C97.91,81.7832 94.557,80.3049 90.993,79.9157 C89.086,79.6803 87.151,79.8984 85.344,80.5522 C83.554,81.2308 82.738,82.5828 81.291,83.6665 C79.711,84.8292 76.626,84.8028 74.789,85.008 C72.5598,85.2625 70.3149,85.3557 68.0721,85.2868 C66.7831,85.1751 65.4853,85.2229 64.2081,85.4289 C61.5391,86.0128 59.3965,88.1329 57.3961,90.1635 C56.8501,90.6229 56.4571,91.2376 56.2696,91.9259 C56.2439,92.1197 56.2439,92.316 56.2696,92.5098 C56.2494,93.0402 56.3409,93.5689 56.5381,94.0617 C57.1538,95.8877 58.024,97.618 59.1228,99.2014 C59.9388,100.369 60.8916,101.469 61.3549,102.852 C61.5744,103.533 61.6898,104.242 61.697,104.957 C61.6743,105.715 61.5951,106.472 61.4601,107.219 C61.1069,109.284 60.5261,111.304 59.7282,113.242 C59.2329,114.237 58.8921,115.301 58.7175,116.399 C58.7024,116.623 58.7024,116.848 58.7175,117.072 C58.5859,120.544 62.0919,123.043 62.7709,126.494 C62.8267,126.78 62.8602,127.07 62.871,127.362 C62.7973,129.514 61.5707,131.618 59.7598,132.454 C59.9177,132.517 60.0809,132.57 60.2441,132.623 C60.0883,132.72 59.9266,132.808 59.7598,132.886 C60.0914,133.012 60.4283,133.122 60.7705,133.212 C58.7124,135.003 56.9827,137.14 55.6589,139.525 C49.5682,150.856 8.3174,173.051 8.3174,173.051 L8.928,173.398 L8.4332,173.719 C4.864,176.092 -3.5114,183.01 4.0586,191.758 C4.0586,191.758 9.9704,182.436 14.1133,178.465 C14.2976,178.286 14.4818,178.123 14.6398,177.97 C14.7308,178.11 14.7918,178.267 14.819,178.432 C14.8462,178.597 14.8389,178.766 14.7977,178.927 L41.9192,163.698 C41.9192,163.698 51.5581,156.953 54.2481,155.433 C56.1415,154.254 58.2019,153.368 60.3599,152.803 L60.044,152.934 C61.0581,152.656 62.1036,152.507 63.1552,152.492 C67.9562,152.566 73.157,156.08 74.868,169.995 C77.163,188.628 76.1,191.99 75.363,192.447 C75.272,192.441 75.182,192.425 75.095,192.4 C75.117,192.42 75.142,192.438 75.168,192.453 C75.068,192.446 74.97,192.428 74.873,192.4 C74.927,192.449 74.991,192.483 75.061,192.5 C75.131,192.516 75.204,192.515 75.274,192.495 C75.323,192.51 75.376,192.514 75.427,192.508 C75.479,192.502 75.529,192.485 75.574,192.458 C75.695,192.465 75.816,192.465 75.937,192.458 C75.937,192.63 75.925,192.805 75.9,192.984 C75.863,192.984 75.684,193.084 75.9,193.095 C75.842,194.147 75.847,195.288 75.9,196.482 C73.515,196.614 71.1306,196.756 69.0565,196.882 L69.2407,195.899 L69.325,195.457 C71.1569,195.309 72.8941,194.773 73.099,193.289 C73.547,190.028 69.067,188.286 65.2557,188.071 C61.4443,187.855 38.5869,189.375 38.5869,189.375 C38.5869,189.375 35.1599,193.81 46.0306,195.162 C46.3535,195.33 46.6886,195.506 47.0361,195.688 C51.2948,198.113 57.0697,202.58 59.8387,204.779 L60.223,205.084 L58.9807,206.094 C65.7031,207.614 72.2045,233.286 75.789,245.023 C79.374,256.76 87.218,256.334 93.72,254.592 C99.81,252.961 100.563,235.285 100.663,233.065 L100.663,232.839 L111.497,246.212 L112.318,247.227 C112.634,247.392 112.946,247.546 113.255,247.69 C121.457,251.588 130.517,244.113 127.943,235.591 C125.337,227 121.294,214.295 118.598,208.924 C116.34,204.426 113.424,196.956 111.655,192.279 C111.885,192.187 112.108,192.08 112.323,191.958 C112.323,191.958 112.281,191.748 112.213,191.364 L112.323,191.306 C112.323,191.306 109.691,177.775 109.576,168.159 C109.576,167.99 109.576,167.815 109.576,167.633 C109.576,167.528 109.576,167.422 109.576,167.322 C111.534,166.875 112.776,166.702 112.776,166.702 L112.813,166.281 L112.587,166.328 L113.676,153.865 C113.676,153.865 117.677,145.359 114.613,141.818 C113.682,140.783 113.06,139.507 112.818,138.136 C112.292,134.88 112.818,129.445 119.951,124.932 C130.933,117.972 135.218,112.306 135.218,112.306 C135.218,112.306 135.407,108.245 128.685,106.267 Z M106.875,114.915 L106.875,109.155 C108.912,109.055 110.992,109.291 113.039,109.155 C114.045,109.084 115.041,108.917 116.014,108.655 L116.509,108.997 C113.513,111.3 110.284,113.283 106.875,114.915 Z M75.737,205.21 C76.542,205.768 77.353,206.346 78.148,206.93 C78.643,209.771 79.08,211.775 79.111,211.917 C78.203,209.579 77.073,207.333 75.737,205.21 Z" id="Shape" fill="url(#linearGradient-3)" fill-rule="nonzero"></path>
                <path d="M93.141,200.475 L92.667,203.048 L92.304,205.015 L91.64,208.613 L85.207,213.111 C85.207,213.111 84.628,212.617 83.67,211.833 C81.038,209.666 75.495,205.268 71.4254,202.89 C70.3797,202.222 69.248,201.7 68.0615,201.338 L93.141,200.475 Z" id="Shape" fill="#FFBDC6" fill-rule="nonzero"></path>
                <path d="M93.14,200.475 L92.667,203.048 C91.249,203.126 89.826,203.054 88.424,202.832 L73.415,203.048 C72.7045,203.005 72.0412,202.948 71.42,202.884 C70.3743,202.217 69.2426,201.695 68.0562,201.333 L93.14,200.475 Z" id="Shape" fill="#000000" fill-rule="nonzero" opacity="0.1"></path>
                <path d="M88.424,202.411 C88.424,202.411 95.93,203.695 96.357,200.48 C96.783,197.266 92.498,195.572 88.86,195.33 C85.223,195.088 63.3393,196.624 63.3393,196.624 C63.3393,196.624 59.4806,201.764 73.415,202.621 L88.424,202.411 Z" id="Shape" fill="#7679B4" fill-rule="nonzero"></path>
                <path d="M93.141,200.475 L92.667,203.048 L92.304,205.015 L91.64,208.613 L85.207,213.111 C85.207,213.111 84.628,212.617 83.67,211.833 C81.038,209.666 75.495,205.268 71.4254,202.89 C70.3797,202.222 69.248,201.7 68.0615,201.338 L93.141,200.475 Z" id="Shape" fill="#000000" fill-rule="nonzero" opacity="0.1"></path>
                <path d="M93.14,200.475 L92.667,203.048 C91.249,203.126 89.826,203.054 88.424,202.832 L73.415,203.048 C72.7045,203.005 72.0412,202.948 71.42,202.884 C70.3743,202.217 69.2426,201.695 68.0562,201.333 L93.14,200.475 Z" id="Shape" fill="#000000" fill-rule="nonzero" opacity="0.1"></path>
                <path d="M88.424,202.411 C88.424,202.411 95.93,203.695 96.357,200.48 C96.783,197.266 92.498,195.572 88.86,195.33 C85.223,195.088 63.3393,196.624 63.3393,196.624 C63.3393,196.624 59.4806,201.764 73.415,202.621 L88.424,202.411 Z" id="Shape" fill="#000000" fill-rule="nonzero" opacity="0.1"></path>
                <polygon id="Shape" fill="#A66477" fill-rule="nonzero" points="104.822 96.771 65.5874 96.771 65.5874 143.265 104.822 143.265"></polygon>
                <polygon id="Shape" fill="#000000" fill-rule="nonzero" opacity="0.1" points="104.822 96.771 65.5874 96.771 65.5874 143.265 104.822 143.265"></polygon>
                <path d="M19.5988,176.371 C18.9513,176.534 18.1301,177.154 17.2089,178.059 C13.2449,181.973 7.591,191.153 7.591,191.153 C0.3474,182.536 8.3649,175.724 11.8025,173.383 C12.6342,172.814 13.1922,172.509 13.1922,172.509 L19.5988,176.371 Z" id="Shape" fill="#FFBDC6" fill-rule="nonzero"></path>
                <path d="M92.714,111.448 C92.714,111.448 94.646,124.947 101.29,128.162 C107.933,131.376 92.714,137.373 92.714,137.373 L71.915,129.661 C71.915,129.661 83.707,125.805 81.349,114.447 L92.714,111.448 Z" id="Shape" fill="#FFBDC6" fill-rule="nonzero"></path>
                <path d="M70.4359,192.652 L69.9621,195.225 L69.5989,197.192 L68.9356,200.791 L62.5026,205.289 C62.5026,205.289 61.9236,204.794 60.9655,204.01 C58.3333,201.843 52.7901,197.445 48.7208,195.067 C47.6751,194.4 46.5434,193.878 45.3569,193.515 L70.4359,192.652 Z" id="Shape" fill="#FFBDC6" fill-rule="nonzero"></path>
                <path d="M70.4358,192.652 L69.962,195.225 C68.544,195.304 67.1217,195.231 65.719,195.009 L50.7106,195.225 C49.9999,195.183 49.3366,195.125 48.7154,195.062 C47.6697,194.394 46.5381,193.872 45.3516,193.51 L70.4358,192.652 Z" id="Shape" fill="#000000" fill-rule="nonzero" opacity="0.1"></path>
                <path d="M65.6979,194.583 C65.6979,194.583 73.205,195.867 73.631,192.652 C74.058,189.438 69.7724,187.723 66.1243,187.512 C62.4761,187.302 40.6084,188.796 40.6084,188.796 C40.6084,188.796 36.7497,193.936 50.6842,194.793 L65.6979,194.583 Z" id="Shape" fill="#7679B4" fill-rule="nonzero"></path>
                <path d="M69.5777,197.198 L68.9145,200.796 L62.4815,205.294 C62.4815,205.294 61.9024,204.8 60.9443,204.016 L69.4514,197.045 L69.5777,197.198 Z" id="Shape" fill="#000000" fill-rule="nonzero" opacity="0.1"></path>
                <path d="M112.023,246.249 C111.728,246.105 111.43,245.952 111.128,245.791 L110.344,244.791 L99.984,231.64 L99.984,231.871 C99.915,234.054 99.168,251.467 93.346,253.072 C87.129,254.787 79.622,255.213 76.195,243.645 C72.7676,232.076 66.5452,206.793 60.1123,205.294 L69.6512,197.471 C69.6512,197.471 75.968,204.836 78.548,211.928 C78.453,211.475 74.089,191.111 77.69,187.513 L108.991,187.513 C108.991,187.513 113.813,201.264 117.14,208.082 C119.72,213.374 123.589,225.884 126.089,234.349 C128.564,242.724 119.92,250.089 112.023,246.249 Z" id="Shape" fill="#7679B4" fill-rule="nonzero"></path>
                <path d="M111.149,191.363 C106.322,194.22 85.097,193.057 78.179,192.594 L76.3,192.458 C76.095,192.458 76.332,192.342 76.332,192.342 L76.526,190.396 L81.67,177.328 L109.223,161.377 C108.665,163.056 108.475,165.628 108.523,168.579 C108.659,178.038 111.149,191.363 111.149,191.363 Z" id="Shape" fill="#000000" fill-rule="nonzero" opacity="0.1"></path>
                <path d="M111.149,190.727 C106.322,193.584 85.096,192.421 78.179,191.958 L76.3,191.821 L75.989,191.821 L76.331,191.732 L78.027,191.285 L81.669,176.712 L109.223,160.751 C108.665,162.43 108.475,165.002 108.522,167.953 C108.659,177.396 111.149,190.727 111.149,190.727 Z" id="Shape" fill="#F2F1F2" fill-rule="nonzero"></path>
                <path d="M108.523,167.932 C102.921,169.221 90.592,173.014 85.855,182.136 C82.696,188.228 80.064,190.843 78.185,191.937 L76.305,191.8 L76.337,191.684 L78.032,191.237 L81.675,176.665 L109.228,160.704 C108.659,162.43 108.475,164.981 108.523,167.932 Z" id="Shape" fill="#000000" fill-rule="nonzero" opacity="0.1"></path>
                <path d="M13.1656,172.515 L19.5986,176.371 C18.9511,176.534 18.1298,177.155 17.2086,178.059 C16.6822,176.481 13.3025,174.314 11.7759,173.388 C12.6076,172.82 13.1656,172.515 13.1656,172.515 Z" id="Shape" fill="#000000" fill-rule="nonzero" opacity="0.1"></path>
                <path d="M75.174,192.069 C75.102,192.109 75.02,192.125 74.938,192.114 C74.856,192.104 74.78,192.068 74.721,192.011 C74.868,192.052 75.021,192.072 75.174,192.069 Z" id="Shape" fill="#000000" fill-rule="nonzero" opacity="0.1"></path>
                <path d="M89.708,127.304 C89.708,127.304 83.917,127.946 79.843,123.664 C79.843,123.664 62.6919,128.593 56.9012,139.735 C51.1106,150.877 11.6602,172.73 11.6602,172.73 C11.6602,172.73 18.5037,176.586 17.8773,178.517 L43.8196,163.519 C43.8196,163.519 53.0373,156.874 55.6115,155.375 C58.1857,153.876 72.3361,144.664 75.337,169.732 C78.337,194.799 75.337,191.827 75.337,191.827 C75.337,191.827 79.627,193.326 85.865,181.305 C92.103,169.284 111.381,166.523 111.381,166.523 L112.434,153.897 C112.434,153.897 116.261,145.522 113.329,142.029 C112.435,141.001 111.841,139.747 111.613,138.404 C111.123,135.195 111.613,129.845 118.456,125.4 C128.985,118.561 133.038,112.974 133.038,112.974 C133.038,112.974 133.254,108.902 126.821,106.977 C120.388,105.051 94.23,94.5508 94.23,94.5508 L93.372,98.1912 L113.955,112.763 C113.955,112.763 103.664,121.117 95.53,120.907 C95.499,120.87 96.999,127.088 89.708,127.304 Z" id="Shape" fill="#565388" fill-rule="nonzero"></path>
                <path d="M93.682,117.324 C93.176,115.598 92.78,113.841 92.498,112.063 L81.132,115.083 C81.63,117.25 81.541,119.511 80.875,121.633 C83.197,122.252 85.651,122.173 87.929,121.406 C90.208,120.638 92.209,119.217 93.682,117.319 L93.682,117.324 Z" id="Shape" fill="#000000" fill-rule="nonzero" opacity="0.1"></path>
                <path d="M84.244,121.412 C90.995,121.412 96.467,115.943 96.467,109.196 C96.467,102.45 90.995,96.981 84.244,96.981 C77.493,96.981 72.02,102.45 72.02,109.196 C72.02,115.943 77.493,121.412 84.244,121.412 Z" id="Shape" fill="#FFBDC6" fill-rule="nonzero"></path>
                <path d="M90.74,81.4148 C94.13,81.7989 97.357,83.2561 100.695,84.0452 C101.529,84.3065 102.417,84.341 103.269,84.1451 C104.564,83.7453 105.617,82.388 106.954,82.4301 C107.78,82.4301 108.533,83.0193 109.196,83.5612 C110.295,84.3943 111.328,85.3106 112.286,86.302 C114.587,88.8009 116.019,92.1677 118.119,94.8822 C120.22,97.5968 123.531,99.7116 126.516,98.4648 C124.489,106.356 117.835,112.39 110.644,112.879 C107.775,113.074 104.853,112.479 102.058,113.321 C101.365,113.603 100.634,113.781 99.889,113.847 C98.31,113.847 97.004,112.379 96.004,110.954 C93.667,107.597 91.793,103.789 89.161,100.732 C88.292,99.7221 87.265,98.7594 86.039,98.5753 C84.812,98.3911 83.68,98.9751 82.586,99.5432 C80.78,100.48 78.932,101.448 77.532,103.047 C76.132,104.646 75.247,107.04 75.826,109.207 C76.137,110.375 76.853,111.427 76.879,112.653 C76.879,114.599 75.184,116.025 74.842,117.914 C74.766,118.711 74.738,119.512 74.758,120.313 C74.605,122.911 72.9098,125.047 71.1305,126.673 C70.4409,127.309 69.6723,127.988 69.4722,128.972 C69.3354,129.64 69.4722,130.35 69.3827,131.029 C69.1248,132.717 67.4402,133.569 65.9504,133.79 C64.2105,134.045 62.434,133.835 60.802,133.18 C62.9077,132.196 64.1659,129.392 63.6815,126.867 C63.0182,123.39 59.5228,120.896 59.8176,117.351 C59.9824,116.265 60.3089,115.21 60.7862,114.221 C61.549,112.308 62.1032,110.318 62.4392,108.287 C62.7836,106.723 62.7493,105.1 62.3391,103.552 C61.8917,102.189 60.981,101.106 60.2019,99.9536 C59.1467,98.3873 58.3141,96.6824 57.7277,94.8875 C57.5152,94.357 57.4339,93.7831 57.4908,93.2146 C57.6605,92.5439 58.0272,91.9393 58.5436,91.4786 C60.4598,89.4742 62.5129,87.3857 65.0608,86.807 C66.2782,86.6044 67.5164,86.5567 68.7458,86.665 C70.8921,86.7333 73.041,86.6418 75.173,86.3914 C76.932,86.1863 79.911,86.2126 81.396,85.0658 C82.78,84.0136 83.565,82.6721 85.276,81.9988 C87.022,81.3599 88.898,81.1594 90.74,81.4148 Z" id="Shape" fill="#000000" fill-rule="nonzero" opacity="0.1"></path>
                <path d="M97.536,207.545 C97.536,207.545 104.611,221.471 102.469,225.758 L97.536,207.545 Z" id="Shape" fill="#000000" fill-rule="nonzero" opacity="0.1"></path>
                <path d="M110.365,244.791 L100.005,231.639 L100.005,231.871 C100.005,231.871 99.405,227.62 101.379,229.051 C105.701,232.176 112.618,237.3 112.765,238.184 C112.913,239.068 111.365,242.613 110.365,244.791 Z" id="Shape" fill="#000000" fill-rule="nonzero" opacity="0.1"></path>
                <g opacity="0.1" transform="translate(11.000000, 94.000000)" fill="#000000" fill-rule="nonzero" id="Shape">
                    <path d="M84.704,26.87 C84.704,26.87 85.578,30.489 82.751,32.299 C87.105,31.552 87.294,28.169 87.162,26.696 C86.35,26.828 85.527,26.886 84.704,26.87 Z"></path>
                    <path d="M3.2396,77.872 C3.2396,77.872 42.69,56.019 48.4807,44.877 C52.6342,36.881 62.642,32.088 67.959,30.016 C64.079,31.315 51.0234,36.297 46.1171,45.735 C40.3264,56.877 0.876,78.73 0.876,78.73 L3.2396,77.872 Z"></path>
                    <path d="M92.379,25.171 C99.091,23.066 105.509,17.874 105.509,17.874 L84.925,3.3019 L85.394,1.3028 L83.425,0.5137 L82.567,4.1541 L103.15,18.726 C99.847,21.321 96.228,23.486 92.379,25.171 Z"></path>
                    <path d="M92.511,74.548 C95.141,73.65 97.84,72.97 100.581,72.512 L100.618,72.096 C97.856,72.702 95.146,73.522 92.511,74.548 Z"></path>
                    <path d="M67.564,96.995 L67.374,96.995 C67.303,97.035 67.22,97.051 67.139,97.041 C67.057,97.03 66.981,96.994 66.922,96.937 C67.069,96.978 67.221,96.998 67.374,96.995 C68.08,96.585 69.138,93.386 66.922,74.869 C64.553,55.099 55.2561,56.651 50.1655,58.923 C55.3666,57.493 62.526,58.729 64.563,75.726 C66.78,94.244 65.721,97.448 65.016,97.853 C65.93,97.819 66.815,97.521 67.564,96.995 Z"></path>
                    <path d="M65.016,97.858 C64.863,97.861 64.711,97.841 64.563,97.8 C64.622,97.857 64.699,97.893 64.78,97.904 C64.862,97.914 64.945,97.898 65.016,97.858 Z"></path>
                </g>
                <path d="M90.74,80.9993 C94.13,81.3833 97.357,82.8405 100.695,83.6296 C101.529,83.891 102.417,83.9255 103.269,83.7296 C104.564,83.3298 105.617,81.9725 106.954,82.0146 C107.78,82.0146 108.533,82.6038 109.196,83.1457 C110.295,83.9788 111.328,84.8951 112.286,85.8865 C114.587,88.3853 116.019,91.7522 118.119,94.4667 C120.22,97.1812 123.531,99.296 126.516,98.0493 C124.489,105.94 117.835,111.974 110.644,112.464 C107.775,112.658 104.853,112.064 102.058,112.905 C101.365,113.188 100.634,113.365 99.889,113.432 C98.31,113.432 97.004,111.964 96.004,110.538 C93.667,107.182 91.793,103.373 89.161,100.317 C88.292,99.3066 87.265,98.3438 86.039,98.1597 C84.812,97.9756 83.68,98.5596 82.586,99.1277 C80.78,100.064 78.932,101.032 77.532,102.631 C76.132,104.231 75.247,106.624 75.826,108.792 C76.137,109.96 76.853,111.012 76.879,112.237 C76.879,114.184 75.184,115.61 74.842,117.498 C74.766,118.295 74.738,119.096 74.758,119.897 C74.605,122.496 72.9098,124.632 71.1305,126.257 C70.4409,126.894 69.6723,127.572 69.4722,128.556 C69.3354,129.224 69.4722,129.934 69.3827,130.613 C69.1248,132.302 67.4402,133.154 65.9504,133.375 C64.2105,133.63 62.434,133.419 60.802,132.765 C62.9077,131.781 64.1659,128.977 63.6815,126.452 C63.0182,122.974 59.5228,120.481 59.8176,116.935 C59.9824,115.849 60.3089,114.794 60.7862,113.805 C61.549,111.892 62.1032,109.903 62.4392,107.871 C62.7836,106.307 62.7493,104.684 62.3391,103.136 C61.8917,101.774 60.981,100.69 60.2019,99.538 C59.1467,97.9718 58.3141,96.2668 57.7277,94.472 C57.5152,93.9415 57.4339,93.3676 57.4908,92.7991 C57.6605,92.1284 58.0272,91.5238 58.5436,91.063 C60.4598,89.0587 62.5129,86.9702 65.0608,86.3915 C66.2782,86.1889 67.5164,86.1411 68.7458,86.2495 C70.8921,86.3177 73.041,86.2263 75.173,85.9759 C76.932,85.7708 79.911,85.7971 81.396,84.6502 C82.78,83.5981 83.565,82.2566 85.276,81.5832 C87.022,80.9444 88.898,80.7439 90.74,80.9993 Z" id="Shape" fill="#A66477" fill-rule="nonzero"></path>
                <path d="M439.777,53.5801 C439.777,53.5117 439.777,53.4486 439.777,53.3855 C439.777,53.3223 439.777,53.2487 439.745,53.1856 L439.661,53.1856 C439.661,53.0435 439.661,52.9015 439.661,52.7489 C439.45,47.8722 432.701,37.4929 429.996,40.523 C427.627,43.1849 431.201,49.9187 433.022,52.9488 L433.186,53.2224 L433.096,53.1645 C433.096,53.1645 425.563,75.6172 424.673,76.4905 C423.784,77.3638 417.582,95.0187 409.407,97.0073 C407.791,97.3913 406.449,97.7385 405.322,98.0594 L405.411,97.7596 C405.938,96.0393 406.585,94.4138 406.849,92.4989 C407.112,90.584 406.849,88.264 405.88,87.3328 C405.406,86.8699 404.827,86.8068 404.438,86.0703 C404.185,85.4243 404.049,84.7384 404.037,84.0449 L403.343,75.5331 L403.827,75.3858 C406.754,74.4494 409.591,72.2293 409.923,69.2413 C409.821,69.2799 409.717,69.3133 409.612,69.3412 C409.651,69.1675 409.681,68.9919 409.702,68.8151 C407.243,69.7831 404.964,67.2369 402.595,66.0953 C398.694,64.1857 394.235,65.9849 390.208,66.4215 C385.644,66.9213 381.312,65.0274 376.648,65.3694 C374.11,65.564 371.289,67.2843 371.425,69.7831 C371.504,71.1561 372.478,72.3188 372.878,73.6339 C373.889,76.8167 371.641,80.0099 369.672,82.7244 C368.377,84.5078 367.135,86.6805 366.914,88.7743 C362.381,84.0396 357.48,78.5685 356.912,76.5115 L343.799,54.0588 C343.799,54.0588 343.488,54.3903 342.988,54.8795 C342.909,54.6375 342.814,54.3534 342.709,54.0694 C341.035,49.3821 336.297,38.0242 330.29,40.1074 C324.284,42.1907 332.78,53.8326 336.476,58.4726 L337.002,59.1144 C336.692,59.1905 336.367,59.1759 336.065,59.0723 L350.689,84.1396 C350.689,84.1396 353.348,88.9374 355.785,90.242 C355.785,90.242 373.952,113.131 374.173,117.708 C374.394,122.285 382.343,134.495 382.343,134.495 C382.343,134.495 385.002,154.333 380.348,157.821 L380.406,157.821 L380.443,157.821 L380.501,157.821 L380.554,157.821 L380.659,157.821 L380.727,157.821 L380.796,157.821 L380.885,157.821 L380.959,157.821 L381.064,157.821 L381.117,157.821 C380.896,158.037 380.669,158.274 380.438,158.531 C376.99,162.351 372.584,170.536 378.606,184.456 C387.466,204.973 388.797,213.011 388.797,213.011 C388.797,213.011 371.952,213.885 368.635,214.537 C365.698,215.116 354.28,215.521 351.669,215.589 C350.737,214.505 347.984,212.106 344.267,215.589 C339.613,219.95 336.292,234.528 336.292,234.528 C336.292,234.528 334.518,246.301 340.503,243.245 C340.503,243.245 347.594,233.433 349.584,232.997 C350.574,232.781 351.621,231.324 352.421,229.919 L352.464,229.945 C352.511,229.945 352.706,229.84 353.022,229.714 C354.496,229.13 358.554,227.725 361.755,228.425 C363.508,228.809 371.025,228.899 378.906,228.878 C377.127,233.139 373.936,244.134 373.936,244.134 C373.936,244.134 372.605,254.387 377.027,253.966 C380.185,253.656 385.028,245.591 387.555,240.988 C389.387,239.646 394.635,234.838 398.515,235.201 L424.658,225.174 C424.658,225.174 430.859,221.686 427.537,210.134 C424.905,200.948 417.414,182.147 414.455,174.818 L414.366,174.629 C413.65,172.856 413.218,171.804 413.218,171.804 C412.003,168.459 411.205,164.976 410.844,161.435 C410.818,161.156 410.797,160.872 410.776,160.594 C411.142,160.44 411.487,160.24 411.802,159.999 C411.802,159.999 409.365,135.368 411.802,132.749 L411.844,132.701 L411.844,132.67 L411.886,132.617 L411.981,132.496 L412.097,132.349 C412.229,132.175 412.387,131.959 412.566,131.696 C413.961,129.655 416.561,124.994 415.814,119.492 C415.782,119.253 415.743,119.013 415.698,118.771 C415.411,117.279 414.9,115.838 414.182,114.499 C414.076,113.942 414.011,113.377 413.987,112.81 C413.987,112.49 413.987,112.137 413.987,111.758 L413.987,111.695 C413.987,111.593 413.987,111.492 413.987,111.39 L413.987,111.316 C413.987,111.069 414.029,110.79 414.066,110.559 L414.066,110.464 C414.066,110.369 414.082,110.273 414.113,110.175 L414.113,110.054 C414.113,109.959 414.155,109.864 414.176,109.77 L414.176,109.67 C414.208,109.544 414.24,109.417 414.282,109.291 L414.282,109.228 C414.313,109.123 414.348,109.019 414.387,108.918 L414.434,108.797 L414.54,108.544 L414.592,108.418 C414.634,108.323 414.682,108.228 414.729,108.134 L414.766,108.055 C414.829,107.939 414.896,107.825 414.966,107.713 L415.024,107.623 L415.198,107.376 L415.282,107.266 L415.466,107.045 L415.55,106.95 C415.645,106.85 415.74,106.75 415.845,106.655 C418.725,104.025 431.575,84.6394 431.575,84.6394 C431.575,84.6394 434.675,80.2782 434.675,77.448 C434.849,77.3848 440.329,59.1302 439.777,53.5801 Z M405.28,216.531 C404.964,213.543 404.648,209.839 404.359,206.009 L409.37,213.816 C409.37,213.816 408.896,216.194 405.28,216.531 Z" id="Shape" fill="url(#linearGradient-4)" fill-rule="nonzero"></path>
                <path d="M353.027,214.879 C353.027,214.879 350.026,210.144 345.52,214.453 C341.014,218.761 337.803,233.092 337.803,233.092 C337.803,233.092 336.086,244.665 341.877,241.661 C341.877,241.661 348.721,232.018 350.669,231.592 C352.616,231.166 354.743,225.806 354.743,225.806 L353.027,214.879 Z" id="Shape" fill="#493545" fill-rule="nonzero"></path>
                <path d="M385.186,226.447 C385.186,226.447 381.112,224.516 379.827,226.021 C378.543,227.525 374.252,242.519 374.252,242.519 C374.252,242.519 372.968,252.377 377.253,251.946 C381.538,251.514 389.045,236.079 389.045,236.079 L385.186,226.447 Z" id="Shape" fill="#493545" fill-rule="nonzero"></path>
                <path d="M385.186,226.447 C385.186,226.447 381.112,224.516 379.827,226.021 C378.543,227.525 374.252,242.519 374.252,242.519 C374.252,242.519 372.968,252.377 377.253,251.946 C381.538,251.514 389.045,236.079 389.045,236.079 L385.186,226.447 Z" id="Shape" fill="#000000" fill-rule="nonzero" opacity="0.05"></path>
                <path d="M399.336,197.308 L408.554,211.665 C408.554,211.665 407.912,214.879 402.337,214.237 L383.254,226.237 C383.254,226.237 381.596,240.846 386.897,239.52 C387.755,239.304 393.74,233.092 398.047,233.523 L423.352,223.664 C423.352,223.664 429.353,220.234 426.137,208.882 C422.92,197.529 412.286,171.205 412.286,171.205 L395.478,180.6 L399.336,197.308 Z" id="Shape" fill="#3E3D77" fill-rule="nonzero"></path>
                <path d="M399.336,197.308 L408.554,211.665 C408.554,211.665 407.912,214.879 402.337,214.237 L383.254,226.237 C383.254,226.237 381.596,240.846 386.897,239.52 C387.755,239.304 393.74,233.092 398.047,233.523 L423.352,223.664 C423.352,223.664 429.353,220.234 426.137,208.882 C422.92,197.529 412.286,171.205 412.286,171.205 L395.478,180.6 L399.336,197.308 Z" id="Shape" fill="#000000" fill-rule="nonzero" opacity="0.05"></path>
                <path d="M405.127,218.519 C406.412,226.663 399.126,227.305 399.126,227.305 C399.126,227.305 366.319,227.947 362.46,227.089 C358.602,226.232 353.453,228.588 353.453,228.588 C346.804,224.517 352.169,214.448 352.169,214.448 C352.169,214.448 365.893,214.021 369.109,213.395 C372.326,212.769 388.618,211.88 388.618,211.88 C388.618,211.88 387.334,203.952 378.753,183.814 C372.926,170.137 377.174,162.088 380.527,158.337 C381.383,157.342 382.373,156.47 383.47,155.749 L409.844,157.032 C409.816,158.361 409.865,159.691 409.991,161.015 C410.442,165.558 411.624,169.999 413.492,174.166 C411.992,174.166 402.342,183.167 402.342,183.167 C402.342,183.167 403.837,210.381 405.127,218.519 Z" id="Shape" fill="#3E3D77" fill-rule="nonzero"></path>
                <path d="M354.096,215.305 C354.096,215.305 367.82,214.879 371.036,214.253 C374.252,213.627 390.545,212.753 390.545,212.753 C390.545,212.753 389.261,204.826 380.68,184.688 C374.853,171.01 379.101,162.961 382.454,159.21 C383.31,158.215 384.3,157.343 385.397,156.622 L409.834,157.811 C409.834,157.558 409.834,157.285 409.834,157.048 L383.46,155.764 C382.363,156.486 381.373,157.357 380.517,158.352 C377.179,162.109 372.915,170.152 378.743,183.83 C387.345,203.952 388.619,211.88 388.619,211.88 C388.619,211.88 372.299,212.738 369.109,213.379 C365.919,214.021 352.169,214.432 352.169,214.432 C352.169,214.432 346.81,224.506 353.453,228.593 C353.453,228.593 353.653,228.499 353.98,228.362 C349.563,223.822 354.096,215.305 354.096,215.305 Z" id="Shape" fill="#000000" fill-rule="nonzero" opacity="0.1"></path>
                <polygon id="Shape" fill="#493545" fill-rule="nonzero" points="393.33 77.1064 380.038 77.1064 380.038 110.743 393.33 110.743"></polygon>
                <polygon id="Shape" fill="#000000" fill-rule="nonzero" opacity="0.1" points="393.33 77.1064 380.038 77.1064 380.038 110.743 393.33 110.743"></polygon>
                <path d="M400.932,72.1717 C401.39,72.2979 401.905,72.3137 402.216,72.945 C402.409,73.4495 402.514,73.9833 402.527,74.5232 L403.364,84.9184 C403.375,85.599 403.507,86.2722 403.753,86.907 C404.106,87.6119 404.69,87.6961 405.148,88.1485 C406.069,89.0638 406.338,91.3575 406.085,93.2251 C405.833,95.0926 405.196,96.6919 404.695,98.3806 C403.98,100.8 403.506,103.52 402.5,105.561 C401.495,107.603 399.668,108.718 398.489,107.003 C397.31,105.288 397.468,101.826 397.247,98.9908 C396.878,94.2562 395.03,90.1739 394.904,85.4076 C394.799,81.5515 395.836,77.9532 396.483,74.297 C396.946,71.7877 396.973,68.7417 397.647,66.4849 C398.21,69.1678 399.284,71.7193 400.932,72.1717 Z" id="Shape" fill="#493545" fill-rule="nonzero"></path>
                <path d="M400.932,72.1717 C401.39,72.2979 401.905,72.3137 402.216,72.945 C402.409,73.4495 402.514,73.9833 402.527,74.5232 L403.364,84.9184 C403.375,85.599 403.507,86.2722 403.753,86.907 C404.106,87.6119 404.69,87.6961 405.148,88.1485 C406.069,89.0638 406.338,91.3575 406.085,93.2251 C405.833,95.0926 405.196,96.6919 404.695,98.3806 C403.98,100.8 403.506,103.52 402.5,105.561 C401.495,107.603 399.668,108.718 398.489,107.003 C397.31,105.288 397.468,101.826 397.247,98.9908 C396.878,94.2562 395.03,90.1739 394.904,85.4076 C394.799,81.5515 395.836,77.9532 396.483,74.297 C396.946,71.7877 396.973,68.7417 397.647,66.4849 C398.21,69.1678 399.284,71.7193 400.932,72.1717 Z" id="Shape" fill="#000000" fill-rule="nonzero" opacity="0.1"></path>
                <path d="M344.662,57.3945 L339.519,61.682 C339.519,61.682 338.908,60.9665 337.997,59.8092 C334.423,55.2482 326.205,43.8061 332.012,41.7597 C337.818,39.7133 342.409,50.8712 344.03,55.4796 C344.441,56.6475 344.662,57.3945 344.662,57.3945 Z" id="Shape" fill="#C77485" fill-rule="nonzero"></path>
                <path d="M437.502,55.895 C435.36,59.1093 432.359,55.895 432.359,55.895 C432.359,55.895 431.975,55.3216 431.433,54.3957 C429.669,51.4129 426.21,44.8002 428.5,42.1803 C431.132,39.187 437.655,49.4033 437.855,54.1958 C437.917,54.7851 437.794,55.379 437.502,55.895 Z" id="Shape" fill="#C77485" fill-rule="nonzero"></path>
                <path d="M384.754,90.605 C384.754,90.605 389.045,104.32 387.755,108.386 C386.465,112.453 396.978,117.187 396.978,117.187 L408.986,117.187 C408.986,117.187 413.276,108.402 412.202,105.829 C411.128,103.257 401.911,101.332 401.911,101.332 C401.911,101.332 396.552,101.332 396.767,86.9751 L384.754,90.605 Z" id="Shape" fill="#C77485" fill-rule="nonzero"></path>
                <path d="M344.662,57.3944 L339.518,61.6819 C339.518,61.6819 338.908,60.9664 337.997,59.809 C339.866,59.4776 342.767,56.7526 344.035,55.4795 C344.441,56.6474 344.662,57.3944 344.662,57.3944 Z" id="Shape" fill="#000000" fill-rule="nonzero" opacity="0.1"></path>
                <path d="M437.502,55.8952 C435.36,59.1095 432.359,55.8952 432.359,55.8952 C432.359,55.8952 431.975,55.3218 431.433,54.3959 L431.501,54.1802 C432.891,55.1744 437.213,54.3275 437.855,54.1802 C437.92,54.7747 437.797,55.3746 437.502,55.8952 Z" id="Shape" fill="#000000" fill-rule="nonzero" opacity="0.1"></path>
                <path d="M409.981,161.01 C403.348,164.034 381.796,158.647 380.501,158.327 C381.357,157.331 382.347,156.46 383.444,155.738 L409.818,157.022 C409.794,158.353 409.849,159.685 409.981,161.01 Z" id="Shape" fill="#000000" fill-rule="nonzero" opacity="0.1"></path>
                <path d="M387.544,102.389 C387.544,102.389 382.401,104.104 375.11,97.4601 C375.11,97.4601 358.791,81.3887 357.738,77.5326 L345.104,55.4376 C345.104,55.4376 339.745,61.2244 337.597,60.3669 L351.748,85.008 C351.748,85.008 354.322,89.7427 356.68,91.0052 C356.68,91.0052 374.263,113.505 374.473,118.003 C374.684,122.501 382.396,134.548 382.396,134.548 C382.396,134.548 384.97,154.044 380.464,157.474 C380.464,157.474 405.548,163.903 410.907,159.615 C410.907,159.615 408.549,135.416 410.907,132.833 C410.907,132.833 418.198,124.263 413.266,114.836 C413.266,114.836 412.213,109.697 414.982,107.124 C417.751,104.552 430.206,85.4815 430.206,85.4815 C430.206,85.4815 433.207,81.194 433.207,78.4111 C433.207,78.4111 438.782,59.5567 437.945,54.6274 C437.945,54.6274 433.012,55.6796 431.512,54.6274 C431.512,54.6274 424.221,76.7224 423.363,77.5536 C422.504,78.3848 416.519,95.7662 408.57,97.6969 C400.621,99.6276 399.352,100.48 399.352,100.48 C399.352,100.48 414.787,110.123 407.285,114.405 C399.784,118.687 387.544,102.389 387.544,102.389 Z" id="Shape" fill="#FFAAC4" fill-rule="nonzero"></path>
                <path d="M397.289,93.9035 C397.034,91.8852 396.93,89.8507 396.978,87.8169 L384.97,91.4573 C385.286,92.2567 385.538,93.0799 385.723,93.9193 C387.097,94.5243 388.95,95.9552 390.545,95.9552 C392.958,96.034 395.329,95.3126 397.289,93.9035 Z" id="Shape" fill="#000000" fill-rule="nonzero" opacity="0.1"></path>
                <path d="M390.329,95.319 C396.487,95.319 401.479,90.3305 401.479,84.1768 C401.479,78.0232 396.487,73.0347 390.329,73.0347 C384.172,73.0347 379.18,78.0232 379.18,84.1768 C379.18,90.3305 384.172,95.319 390.329,95.319 Z" id="Shape" fill="#C77485" fill-rule="nonzero"></path>
                <path d="M377.064,67.011 C374.611,67.2003 371.873,68.8943 372.01,71.351 C372.084,72.703 373.01,73.8446 373.416,75.1388 C374.389,78.2689 372.221,81.4095 370.315,84.082 C368.409,86.7544 366.63,90.2949 368.262,93.1251 C368.727,93.8065 369.23,94.4616 369.767,95.0874 C371.784,97.8071 371.757,101.479 372.652,104.746 C373.795,108.925 376.497,112.509 380.202,114.759 C383.907,117.01 388.333,117.756 392.572,116.846 C390.976,114.81 390.181,112.262 390.335,109.681 C390.456,107.808 391.061,105.851 390.335,104.12 C389.398,101.895 386.65,101.016 385.234,99.0697 C383.818,97.1233 383.912,94.4245 384.597,92.1045 C385.281,89.7846 386.466,87.6329 387.034,85.2656 C387.175,84.5749 387.35,83.8919 387.561,83.2192 C388.55,80.41 391.509,78.7792 394.404,78.0795 C397.299,77.3798 400.342,77.3377 403.169,76.4171 C405.996,75.4965 408.744,73.3396 409.07,70.3778 C406.691,71.33 404.485,68.847 402.19,67.7054 C398.41,65.8326 394.099,67.5949 390.203,68.0263 C385.765,68.5208 381.554,66.6848 377.064,67.011 Z" id="Shape" fill="#000000" fill-rule="nonzero" opacity="0.1"></path>
                <path d="M376.848,66.5847 C374.395,66.7741 371.657,68.468 371.794,70.9248 C371.868,72.2768 372.794,73.4184 373.2,74.7125 C374.174,77.8426 372.005,80.9833 370.099,83.6557 C368.193,86.3282 366.414,89.8686 368.046,92.6989 C368.511,93.3803 369.014,94.0354 369.552,94.6611 C371.568,97.3809 371.541,101.053 372.436,104.32 C373.579,108.499 376.281,112.082 379.986,114.333 C383.691,116.583 388.118,117.33 392.356,116.419 C390.761,114.384 389.965,111.836 390.119,109.254 C390.24,107.382 390.845,105.425 390.119,103.694 C389.182,101.468 386.434,100.59 385.018,98.6435 C383.602,96.697 383.697,93.9983 384.381,91.6783 C385.065,89.3583 386.25,87.2067 386.818,84.8394 C386.959,84.1487 387.134,83.4656 387.345,82.7929 C388.334,79.9837 391.293,78.3529 394.188,77.6532 C397.084,76.9536 400.126,76.9115 402.953,75.9908 C405.78,75.0702 408.528,72.9133 408.854,69.9516 C406.475,70.9037 404.269,68.4207 401.974,67.2791 C398.194,65.4063 393.883,67.1686 389.987,67.6 C385.56,68.0893 381.365,66.2322 376.848,66.5847 Z" id="Shape" fill="#493545" fill-rule="nonzero"></path>
                <path d="M401.374,108.928 C401.374,108.928 405.838,112.911 406.717,114.668 L401.374,108.928 Z" id="Shape" fill="#000000" fill-rule="nonzero" opacity="0.1"></path>
                <path d="M411.034,132.712 C411.034,132.712 405.459,132.712 402.885,133.354 C400.31,133.996 394.093,133.354 394.093,133.354" id="Shape" fill="#000000" fill-rule="nonzero" opacity="0.1"></path>
                <g opacity="0.1" transform="translate(337.000000, 54.000000)" fill="#000000" fill-rule="nonzero" id="Shape">
                    <path d="M70.27,60.389 C69.789,60.664 69.269,60.863 68.727,60.978 C70.125,61.288 71.589,61.079 72.844,60.389 C80.351,56.102 64.911,46.464 64.911,46.464 L62.336,46.464 C62.336,46.464 77.776,56.107 70.27,60.389 Z"></path>
                    <path d="M100.982,1.0006 C100.982,0.8638 100.95,0.7323 100.929,0.6113 C100.047,0.7939 99.156,0.9292 98.26,1.0164 C99.165,1.1159 100.078,1.1106 100.982,1.0006 Z"></path>
                    <path d="M46.043,103.458 C50.544,100.028 47.975,80.532 47.975,80.532 C47.975,80.532 40.258,68.532 40.042,64.034 C39.826,59.536 22.249,37.0363 22.249,37.0363 C19.891,35.7527 17.316,31.0391 17.316,31.0391 C17.316,31.0391 2.734,7.2554 0.592,6.3979 L14.742,31.0391 C14.742,31.0391 17.316,35.7738 19.675,37.0363 C19.675,37.0363 37.257,59.536 37.468,64.034 C37.679,68.532 45.396,80.548 45.396,80.548 C45.396,80.548 47.97,100.044 43.464,103.474 C43.464,103.474 58.883,107.425 68.127,107.067 C58.862,106.741 46.043,103.458 46.043,103.458 Z"></path>
                    <path d="M50.67,48.558 L50.544,48.395 C50.397,48.438 50.248,48.471 50.097,48.494 C50.297,48.521 50.486,48.542 50.67,48.558 Z"></path>
                </g>
                <g opacity="0.1" transform="translate(410.000000, 54.000000)" fill="#000000" fill-rule="nonzero" id="Shape">
                    <path d="M27.929,0.585 L27.797,0.6113 C27.571,7.1924 23.002,22.6536 23.002,22.6536 C23.002,25.4366 20.001,29.724 20.001,29.724 C20.001,29.724 7.567,48.794 4.777,51.367 C1.987,53.939 3.061,59.079 3.061,59.079 L3.087,59.131 C3.003,57.401 3.213,54.718 4.987,53.076 C7.772,50.504 20.212,31.4338 20.212,31.4338 C20.212,31.4338 23.212,27.1463 23.212,24.3634 C23.212,24.3949 28.787,5.5405 27.929,0.585 Z"></path>
                    <path d="M0.702,77.102 C1.023,78.922 0.807,76.997 0.918,78.817 C0.918,78.817 6.182,72.646 4.745,65.018 C5.177,71.836 0.702,77.102 0.702,77.102 Z"></path>
                </g>
                <path d="M248.31,348.007 C372.649,348.007 473.447,338.331 473.447,326.396 C473.447,314.46 372.649,304.785 248.31,304.785 C123.97,304.785 23.1729,314.46 23.1729,326.396 C23.1729,338.331 123.97,348.007 248.31,348.007 Z" id="Shape" fill="#006AD8" fill-rule="nonzero" opacity="0.1"></path>
                <path d="M161.039,304.469 C161.039,304.469 153.374,278.454 162.476,259.311 C166.347,251.304 167.515,242.259 165.803,233.533 C164.958,229.397 163.735,225.347 162.15,221.434" id="Shape" stroke="#535461" stroke-width="2"></path>
                <path d="M167.825,209.345 C167.825,212.533 162.034,221.776 162.034,221.776 C162.034,221.776 156.243,212.533 156.243,209.345 C156.185,208.551 156.29,207.754 156.554,207.003 C156.817,206.252 157.233,205.563 157.775,204.98 C158.317,204.396 158.974,203.931 159.704,203.613 C160.434,203.295 161.222,203.131 162.018,203.131 C162.815,203.131 163.603,203.295 164.333,203.613 C165.063,203.931 165.719,204.396 166.261,204.98 C166.803,205.563 167.219,206.252 167.483,207.003 C167.746,207.754 167.852,208.551 167.793,209.345 L167.825,209.345 Z" id="Shape" fill="#006AD8" fill-rule="nonzero"></path>
                <path d="M177.358,227 C175.626,229.677 165.75,234.296 165.75,234.296 C165.75,234.296 165.929,223.401 167.661,220.724 C168.046,220.028 168.569,219.42 169.199,218.935 C169.828,218.451 170.551,218.101 171.322,217.908 C172.092,217.715 172.895,217.682 173.679,217.812 C174.463,217.943 175.211,218.232 175.878,218.664 C176.545,219.096 177.116,219.66 177.556,220.322 C177.995,220.983 178.293,221.728 178.432,222.51 C178.571,223.292 178.547,224.094 178.362,224.867 C178.178,225.639 177.836,226.365 177.358,227 Z" id="Shape" fill="#006AD8" fill-rule="nonzero"></path>
                <path d="M176.942,257.18 C174.094,258.617 163.255,257.622 163.255,257.622 C163.255,257.622 168.914,248.306 171.762,246.869 C172.445,246.46 173.205,246.195 173.995,246.092 C174.784,245.99 175.587,246.051 176.352,246.272 C177.117,246.493 177.828,246.869 178.441,247.377 C179.054,247.885 179.555,248.514 179.914,249.225 C180.272,249.935 180.48,250.712 180.525,251.507 C180.569,252.301 180.449,253.096 180.173,253.843 C179.896,254.589 179.468,255.27 178.916,255.843 C178.364,256.417 177.699,256.87 176.963,257.175 L176.942,257.18 Z" id="Shape" fill="#006AD8" fill-rule="nonzero"></path>
                <path d="M171.483,279.938 C168.919,281.832 158.043,282.689 158.043,282.689 C158.043,282.689 162.044,272.552 164.613,270.653 C165.85,269.902 167.322,269.641 168.741,269.921 C170.161,270.201 171.424,271.001 172.282,272.165 C173.14,273.329 173.531,274.772 173.379,276.209 C173.226,277.647 172.54,278.975 171.457,279.933 L171.483,279.938 Z" id="Shape" fill="#006AD8" fill-rule="nonzero"></path>
                <path d="M153.611,234.917 C155.901,237.137 166.561,239.441 166.561,239.441 C166.561,239.441 163.929,228.862 161.66,226.637 C161.131,226.044 160.485,225.566 159.762,225.233 C159.04,224.901 158.257,224.72 157.462,224.703 C156.667,224.687 155.877,224.834 155.141,225.135 C154.405,225.437 153.74,225.887 153.185,226.457 C152.631,227.027 152.201,227.705 151.92,228.449 C151.64,229.192 151.516,229.986 151.556,230.78 C151.596,231.573 151.799,232.35 152.152,233.062 C152.506,233.774 153.003,234.405 153.611,234.917 Z" id="Shape" fill="#006AD8" fill-rule="nonzero"></path>
                <path d="M147.573,261.621 C150.421,263.057 161.26,262.062 161.26,262.062 C161.26,262.062 155.622,252.746 152.774,251.336 C151.424,250.776 149.911,250.747 148.541,251.255 C147.17,251.763 146.042,252.77 145.384,254.074 C144.725,255.379 144.585,256.884 144.991,258.288 C145.397,259.691 146.32,260.89 147.573,261.642 L147.573,261.621 Z" id="Shape" fill="#006AD8" fill-rule="nonzero"></path>
                <path d="M145.257,288.377 C147.82,290.27 158.696,291.128 158.696,291.128 C158.696,291.128 154.696,280.991 152.127,279.091 C151.525,278.559 150.818,278.158 150.052,277.914 C149.287,277.669 148.478,277.587 147.679,277.671 C146.88,277.756 146.107,278.006 145.409,278.406 C144.712,278.806 144.106,279.346 143.629,279.993 C143.152,280.64 142.815,281.378 142.639,282.162 C142.464,282.946 142.453,283.758 142.609,284.546 C142.765,285.334 143.083,286.082 143.543,286.74 C144.004,287.399 144.596,287.954 145.283,288.371 L145.257,288.377 Z" id="Shape" fill="#006AD8" fill-rule="nonzero"></path>
                <path d="M167.825,209.345 C167.825,212.533 162.034,221.776 162.034,221.776 C162.034,221.776 156.243,212.533 156.243,209.345 C156.185,208.551 156.29,207.754 156.554,207.003 C156.817,206.252 157.233,205.563 157.775,204.98 C158.317,204.396 158.974,203.931 159.704,203.613 C160.434,203.295 161.222,203.131 162.018,203.131 C162.815,203.131 163.603,203.295 164.333,203.613 C165.063,203.931 165.719,204.396 166.261,204.98 C166.803,205.563 167.219,206.252 167.483,207.003 C167.746,207.754 167.852,208.551 167.793,209.345 L167.825,209.345 Z" id="Shape" fill="#006AD8" fill-rule="nonzero" opacity="0.1"></path>
                <path d="M177.358,227 C175.626,229.677 165.75,234.296 165.75,234.296 C165.75,234.296 165.929,223.401 167.661,220.724 C168.046,220.028 168.569,219.42 169.199,218.935 C169.828,218.451 170.551,218.101 171.322,217.908 C172.092,217.715 172.895,217.682 173.679,217.812 C174.463,217.943 175.211,218.232 175.878,218.664 C176.545,219.096 177.116,219.66 177.556,220.322 C177.995,220.983 178.293,221.728 178.432,222.51 C178.571,223.292 178.547,224.094 178.362,224.867 C178.178,225.639 177.836,226.365 177.358,227 Z" id="Shape" fill="#006AD8" fill-rule="nonzero" opacity="0.1"></path>
                <path d="M176.942,257.18 C174.094,258.617 163.255,257.622 163.255,257.622 C163.255,257.622 168.914,248.306 171.762,246.869 C172.445,246.46 173.205,246.195 173.995,246.092 C174.784,245.99 175.587,246.051 176.352,246.272 C177.117,246.493 177.828,246.869 178.441,247.377 C179.054,247.885 179.555,248.514 179.914,249.225 C180.272,249.935 180.48,250.712 180.525,251.507 C180.569,252.301 180.449,253.096 180.173,253.843 C179.896,254.589 179.468,255.27 178.916,255.843 C178.364,256.417 177.699,256.87 176.963,257.175 L176.942,257.18 Z" id="Shape" fill="#006AD8" fill-rule="nonzero" opacity="0.1"></path>
                <path d="M171.483,279.938 C168.919,281.832 158.043,282.689 158.043,282.689 C158.043,282.689 162.044,272.552 164.613,270.653 C165.85,269.902 167.322,269.641 168.741,269.921 C170.161,270.201 171.424,271.001 172.282,272.165 C173.14,273.329 173.531,274.772 173.379,276.209 C173.226,277.647 172.54,278.975 171.457,279.933 L171.483,279.938 Z" id="Shape" fill="#006AD8" fill-rule="nonzero" opacity="0.1"></path>
                <path d="M153.611,234.917 C155.901,237.137 166.561,239.441 166.561,239.441 C166.561,239.441 163.929,228.862 161.66,226.637 C161.131,226.044 160.485,225.566 159.762,225.233 C159.04,224.901 158.257,224.72 157.462,224.703 C156.667,224.687 155.877,224.834 155.141,225.135 C154.405,225.437 153.74,225.887 153.185,226.457 C152.631,227.027 152.201,227.705 151.92,228.449 C151.64,229.192 151.516,229.986 151.556,230.78 C151.596,231.573 151.799,232.35 152.152,233.062 C152.506,233.774 153.003,234.405 153.611,234.917 Z" id="Shape" fill="#006AD8" fill-rule="nonzero" opacity="0.1"></path>
                <path d="M147.573,261.621 C150.421,263.057 161.26,262.062 161.26,262.062 C161.26,262.062 155.622,252.746 152.774,251.336 C151.424,250.776 149.911,250.747 148.541,251.255 C147.17,251.763 146.042,252.77 145.384,254.074 C144.725,255.379 144.585,256.884 144.991,258.288 C145.397,259.691 146.32,260.89 147.573,261.642 L147.573,261.621 Z" id="Shape" fill="#006AD8" fill-rule="nonzero" opacity="0.1"></path>
                <path d="M145.257,288.377 C147.82,290.27 158.696,291.128 158.696,291.128 C158.696,291.128 154.696,280.991 152.127,279.091 C151.525,278.559 150.818,278.158 150.052,277.914 C149.287,277.669 148.478,277.587 147.679,277.671 C146.88,277.756 146.107,278.006 145.409,278.406 C144.712,278.806 144.106,279.346 143.629,279.993 C143.152,280.64 142.815,281.378 142.639,282.162 C142.464,282.946 142.453,283.758 142.609,284.546 C142.765,285.334 143.083,286.082 143.543,286.74 C144.004,287.399 144.596,287.954 145.283,288.371 L145.257,288.377 Z" id="Shape" fill="#006AD8" fill-rule="nonzero" opacity="0.1"></path>
                <path d="M316.145,304.842 C316.145,304.842 308.481,278.828 317.583,259.684 C321.454,251.678 322.621,242.633 320.91,233.907 C320.064,229.77 318.841,225.72 317.256,221.807" id="Shape" stroke="#535461" stroke-width="2"></path>
                <path d="M322.92,209.713 C322.92,212.901 317.13,222.144 317.13,222.144 C317.13,222.144 311.339,212.901 311.339,209.713 C311.447,208.256 312.102,206.894 313.173,205.9 C314.244,204.906 315.652,204.354 317.114,204.354 C318.576,204.354 319.983,204.906 321.054,205.9 C322.126,206.894 322.781,208.256 322.889,209.713 L322.92,209.713 Z" id="Shape" fill="#006AD8" fill-rule="nonzero"></path>
                <path d="M332.47,227.368 C330.738,230.046 320.862,234.664 320.862,234.664 C320.862,234.664 321.041,223.77 322.773,221.092 C323.157,220.397 323.681,219.788 324.31,219.304 C324.94,218.819 325.663,218.47 326.434,218.276 C327.204,218.083 328.007,218.051 328.791,218.181 C329.574,218.311 330.323,218.601 330.99,219.032 C331.657,219.464 332.228,220.028 332.667,220.69 C333.107,221.352 333.405,222.097 333.544,222.878 C333.683,223.66 333.659,224.462 333.474,225.235 C333.29,226.007 332.948,226.733 332.47,227.368 Z" id="Shape" fill="#006AD8" fill-rule="nonzero"></path>
                <path d="M332.07,257.549 C329.222,258.985 318.383,257.99 318.383,257.99 C318.383,257.99 324.042,248.674 326.89,247.238 C327.573,246.824 328.335,246.557 329.127,246.452 C329.919,246.347 330.724,246.407 331.492,246.628 C332.26,246.849 332.973,247.226 333.588,247.736 C334.203,248.247 334.705,248.878 335.063,249.592 C335.422,250.305 335.629,251.085 335.671,251.883 C335.713,252.68 335.59,253.477 335.309,254.225 C335.027,254.972 334.595,255.653 334.037,256.225 C333.48,256.797 332.81,257.248 332.07,257.549 Z" id="Shape" fill="#006AD8" fill-rule="nonzero"></path>
                <path d="M326.59,280.306 C324.026,282.2 313.15,283.058 313.15,283.058 C313.15,283.058 317.151,272.92 319.72,271.021 C320.956,270.27 322.429,270.009 323.848,270.289 C325.267,270.569 326.53,271.37 327.388,272.533 C328.247,273.697 328.638,275.14 328.485,276.577 C328.333,278.015 327.647,279.343 326.563,280.301 L326.59,280.306 Z" id="Shape" fill="#006AD8" fill-rule="nonzero"></path>
                <path d="M308.728,235.285 C311.018,237.505 321.678,239.809 321.678,239.809 C321.678,239.809 319.046,229.23 316.777,227.005 C316.247,226.412 315.601,225.934 314.879,225.601 C314.157,225.269 313.374,225.088 312.579,225.072 C311.784,225.055 310.994,225.202 310.258,225.503 C309.522,225.805 308.856,226.255 308.302,226.825 C307.748,227.395 307.317,228.073 307.037,228.817 C306.756,229.56 306.632,230.354 306.672,231.148 C306.712,231.941 306.915,232.718 307.269,233.43 C307.623,234.142 308.119,234.774 308.728,235.285 Z" id="Shape" fill="#006AD8" fill-rule="nonzero"></path>
                <path d="M302.679,261.989 C305.527,263.425 316.366,262.431 316.366,262.431 C316.366,262.431 310.707,253.114 307.859,251.678 C306.509,251.117 304.996,251.088 303.626,251.596 C302.255,252.104 301.127,253.112 300.469,254.416 C299.81,255.721 299.67,257.226 300.076,258.63 C300.482,260.033 301.405,261.231 302.658,261.983 L302.679,261.989 Z" id="Shape" fill="#006AD8" fill-rule="nonzero"></path>
                <path d="M300.368,288.745 C302.932,290.639 313.808,291.496 313.808,291.496 C313.808,291.496 309.807,281.359 307.238,279.46 C306.002,278.709 304.529,278.448 303.11,278.728 C301.691,279.008 300.428,279.808 299.57,280.972 C298.711,282.136 298.32,283.578 298.473,285.016 C298.625,286.453 299.311,287.782 300.395,288.74 L300.368,288.745 Z" id="Shape" fill="#006AD8" fill-rule="nonzero"></path>
                <path d="M322.92,209.713 C322.92,212.901 317.13,222.144 317.13,222.144 C317.13,222.144 311.339,212.901 311.339,209.713 C311.447,208.256 312.102,206.894 313.173,205.9 C314.244,204.906 315.652,204.354 317.114,204.354 C318.576,204.354 319.983,204.906 321.054,205.9 C322.126,206.894 322.781,208.256 322.889,209.713 L322.92,209.713 Z" id="Shape" fill="#006AD8" fill-rule="nonzero" opacity="0.1"></path>
                <path d="M332.47,227.368 C330.738,230.046 320.862,234.664 320.862,234.664 C320.862,234.664 321.041,223.77 322.773,221.092 C323.157,220.397 323.681,219.788 324.31,219.304 C324.94,218.819 325.663,218.47 326.434,218.276 C327.204,218.083 328.007,218.051 328.791,218.181 C329.574,218.311 330.323,218.601 330.99,219.032 C331.657,219.464 332.228,220.028 332.667,220.69 C333.107,221.352 333.405,222.097 333.544,222.878 C333.683,223.66 333.659,224.462 333.474,225.235 C333.29,226.007 332.948,226.733 332.47,227.368 Z" id="Shape" fill="#006AD8" fill-rule="nonzero" opacity="0.1"></path>
                <path d="M332.07,257.549 C329.222,258.985 318.383,257.99 318.383,257.99 C318.383,257.99 324.042,248.674 326.89,247.238 C327.573,246.824 328.335,246.557 329.127,246.452 C329.919,246.347 330.724,246.407 331.492,246.628 C332.26,246.849 332.973,247.226 333.588,247.736 C334.203,248.247 334.705,248.878 335.063,249.592 C335.422,250.305 335.629,251.085 335.671,251.883 C335.713,252.68 335.59,253.477 335.309,254.225 C335.027,254.972 334.595,255.653 334.037,256.225 C333.48,256.797 332.81,257.248 332.07,257.549 Z" id="Shape" fill="#006AD8" fill-rule="nonzero" opacity="0.1"></path>
                <path d="M326.59,280.306 C324.026,282.2 313.15,283.058 313.15,283.058 C313.15,283.058 317.151,272.92 319.72,271.021 C320.956,270.27 322.429,270.009 323.848,270.289 C325.267,270.569 326.53,271.37 327.388,272.533 C328.247,273.697 328.638,275.14 328.485,276.577 C328.333,278.015 327.647,279.343 326.563,280.301 L326.59,280.306 Z" id="Shape" fill="#006AD8" fill-rule="nonzero" opacity="0.1"></path>
                <path d="M308.728,235.285 C311.018,237.505 321.678,239.809 321.678,239.809 C321.678,239.809 319.046,229.23 316.777,227.005 C316.247,226.412 315.601,225.934 314.879,225.601 C314.157,225.269 313.374,225.088 312.579,225.072 C311.784,225.055 310.994,225.202 310.258,225.503 C309.522,225.805 308.856,226.255 308.302,226.825 C307.748,227.395 307.317,228.073 307.037,228.817 C306.756,229.56 306.632,230.354 306.672,231.148 C306.712,231.941 306.915,232.718 307.269,233.43 C307.623,234.142 308.119,234.774 308.728,235.285 Z" id="Shape" fill="#006AD8" fill-rule="nonzero" opacity="0.1"></path>
                <path d="M302.679,261.989 C305.527,263.425 316.366,262.431 316.366,262.431 C316.366,262.431 310.707,253.114 307.859,251.678 C306.509,251.117 304.996,251.088 303.626,251.596 C302.255,252.104 301.127,253.112 300.469,254.416 C299.81,255.721 299.67,257.226 300.076,258.63 C300.482,260.033 301.405,261.231 302.658,261.983 L302.679,261.989 Z" id="Shape" fill="#006AD8" fill-rule="nonzero" opacity="0.1"></path>
                <path d="M300.368,288.745 C302.932,290.639 313.808,291.496 313.808,291.496 C313.808,291.496 309.807,281.359 307.238,279.46 C306.002,278.709 304.529,278.448 303.11,278.728 C301.691,279.008 300.428,279.808 299.57,280.972 C298.711,282.136 298.32,283.578 298.473,285.016 C298.625,286.453 299.311,287.782 300.395,288.74 L300.368,288.745 Z" id="Shape" fill="#006AD8" fill-rule="nonzero" opacity="0.1"></path>
                <path d="M353.653,8.05404 L350.347,8.05404 C350.66,8.06897 350.973,8.02023 351.267,7.91077 C351.561,7.80132 351.829,7.63343 352.056,7.41726 C352.283,7.20109 352.463,6.94116 352.587,6.65319 C352.71,6.36522 352.774,6.05522 352.774,5.74196 C352.774,5.4287 352.71,5.1187 352.587,4.83073 C352.463,4.54277 352.283,4.28283 352.056,4.06666 C351.829,3.85049 351.561,3.6826 351.267,3.57314 C350.973,3.46369 350.66,3.41495 350.347,3.42988 L323.541,3.42988 C322.947,3.45822 322.386,3.71419 321.975,4.14469 C321.565,4.57518 321.336,5.14716 321.336,5.74196 C321.336,6.33676 321.565,6.90873 321.975,7.33923 C322.386,7.76972 322.947,8.02569 323.541,8.05404 L326.847,8.05404 C326.253,8.08239 325.692,8.33836 325.281,8.76886 C324.871,9.19935 324.642,9.77133 324.642,10.3661 C324.642,10.9609 324.871,11.5329 325.281,11.9634 C325.692,12.3939 326.253,12.6499 326.847,12.6782 L322.22,12.6782 C321.907,12.6633 321.594,12.712 321.3,12.8215 C321.007,12.9309 320.738,13.0988 320.511,13.315 C320.285,13.5312 320.104,13.7911 319.98,14.0791 C319.857,14.367 319.793,14.677 319.793,14.9903 C319.793,15.3036 319.857,15.6135 319.98,15.9015 C320.104,16.1895 320.285,16.4494 320.511,16.6656 C320.738,16.8818 321.007,17.0496 321.3,17.1591 C321.594,17.2686 321.907,17.3173 322.22,17.3024 L349.005,17.3024 C349.318,17.3173 349.631,17.2686 349.924,17.1591 C350.218,17.0496 350.487,16.8818 350.713,16.6656 C350.94,16.4494 351.121,16.1895 351.244,15.9015 C351.368,15.6135 351.431,15.3036 351.431,14.9903 C351.431,14.677 351.368,14.367 351.244,14.0791 C351.121,13.7911 350.94,13.5312 350.713,13.315 C350.487,13.0988 350.218,12.9309 349.924,12.8215 C349.631,12.712 349.318,12.6633 349.005,12.6782 L353.653,12.6782 C354.248,12.6499 354.808,12.3939 355.219,11.9634 C355.63,11.5329 355.859,10.9609 355.859,10.3661 C355.859,9.77133 355.63,9.19935 355.219,8.76886 C354.808,8.33836 354.248,8.08239 353.653,8.05404 Z" id="Shape" fill="#DEE3F3" fill-rule="nonzero" opacity="0.5"></path>
                <path d="M198.768,21.5426 L196.252,21.5426 C196.491,21.5556 196.73,21.5198 196.955,21.4373 C197.18,21.3548 197.386,21.2273 197.56,21.0626 C197.734,20.8979 197.873,20.6995 197.968,20.4794 C198.062,20.2594 198.111,20.0224 198.111,19.7828 C198.111,19.5433 198.062,19.3063 197.968,19.0863 C197.873,18.8662 197.734,18.6678 197.56,18.5031 C197.386,18.3384 197.18,18.2109 196.955,18.1284 C196.73,18.0459 196.491,18.0101 196.252,18.0231 L175.868,18.0231 C175.418,18.0478 174.994,18.2439 174.684,18.5712 C174.374,18.8985 174.201,19.3321 174.201,19.7828 C174.201,20.2336 174.374,20.6672 174.684,20.9945 C174.994,21.3218 175.418,21.5179 175.868,21.5426 L178.385,21.5426 C178.145,21.5295 177.906,21.5653 177.681,21.6478 C177.456,21.7303 177.25,21.8578 177.076,22.0225 C176.902,22.1872 176.763,22.3856 176.668,22.6057 C176.574,22.8257 176.525,23.0627 176.525,23.3023 C176.525,23.5418 176.574,23.7788 176.668,23.9989 C176.763,24.2189 176.902,24.4173 177.076,24.582 C177.25,24.7467 177.456,24.8742 177.681,24.9567 C177.906,25.0392 178.145,25.0751 178.385,25.062 L174.863,25.062 C174.623,25.0489 174.384,25.0847 174.159,25.1672 C173.934,25.2497 173.728,25.3772 173.554,25.5419 C173.38,25.7066 173.241,25.905 173.147,26.1251 C173.052,26.3451 173.003,26.5821 173.003,26.8217 C173.003,27.0612 173.052,27.2982 173.147,27.5183 C173.241,27.7383 173.38,27.9367 173.554,28.1014 C173.728,28.2661 173.934,28.3936 174.159,28.4761 C174.384,28.5586 174.623,28.5945 174.863,28.5814 L195.246,28.5814 C195.485,28.5945 195.725,28.5586 195.95,28.4761 C196.175,28.3936 196.381,28.2661 196.555,28.1014 C196.729,27.9367 196.868,27.7383 196.962,27.5183 C197.057,27.2982 197.106,27.0612 197.106,26.8217 C197.106,26.5821 197.057,26.3451 196.962,26.1251 C196.868,25.905 196.729,25.7066 196.555,25.5419 C196.381,25.3772 196.175,25.2497 195.95,25.1672 C195.725,25.0847 195.485,25.0489 195.246,25.062 L198.768,25.062 C199.218,25.0374 199.642,24.8412 199.952,24.5139 C200.262,24.1866 200.435,23.753 200.435,23.3023 C200.435,22.8515 200.262,22.4179 199.952,22.0906 C199.642,21.7633 199.218,21.5672 198.768,21.5426 Z" id="Shape" fill="#DEE3F3" fill-rule="nonzero" opacity="0.5"></path>
                <path d="M27.6794,270.8 C27.6794,270.8 36.8919,288.871 29.385,298.756 C21.8782,308.641 30.0694,335.581 30.0694,335.581" id="Shape" stroke="#006AD8"></path>
                <path d="M30.4274,265.15 C30.4274,268.633 27.869,271.463 27.869,271.463 C27.869,271.463 25.3105,268.638 25.3105,265.15 C25.3105,261.662 27.869,258.837 27.869,258.837 C27.869,258.837 30.4274,261.668 30.4274,265.15 Z" id="Shape" fill="#006AD8" fill-rule="nonzero"></path>
                <path d="M32.454,270.8 C32.454,270.8 23.2415,288.871 30.7483,298.756 C38.2552,308.641 30.064,335.581 30.064,335.581" id="Shape" stroke="#006AD8"></path>
                <path d="M29.7271,265.15 C29.7271,268.633 32.2855,271.463 32.2855,271.463 C32.2855,271.463 34.8439,268.638 34.8439,265.15 C34.8439,261.662 32.2855,258.837 32.2855,258.837 C32.2855,258.837 29.7271,261.668 29.7271,265.15 Z" id="Shape" fill="#006AD8" fill-rule="nonzero"></path>
                <path d="M29.7271,265.15 C29.7271,268.633 32.2855,271.463 32.2855,271.463 C32.2855,271.463 34.8439,268.638 34.8439,265.15 C34.8439,261.662 32.2855,258.837 32.2855,258.837 C32.2855,258.837 29.7271,261.668 29.7271,265.15 Z" id="Shape" fill="#000000" fill-rule="nonzero" opacity="0.1"></path>
                <path d="M36.218,270.8 C36.218,270.8 45.4305,288.871 37.9236,298.756 C30.4168,308.641 38.608,335.581 38.608,335.581" id="Shape" stroke="#006AD8"></path>
                <path d="M38.9396,265.15 C38.9396,268.633 36.3812,271.463 36.3812,271.463 C36.3812,271.463 33.8228,268.638 33.8228,265.15 C33.8228,261.662 36.3812,258.837 36.3812,258.837 C36.3812,258.837 38.9396,261.668 38.9396,265.15 Z" id="Shape" fill="#006AD8" fill-rule="nonzero"></path>
                <path d="M37.5026,279.628 C35.0863,282.137 31.2803,282.4 31.2803,282.4 C31.2803,282.4 31.3961,278.591 33.8124,276.087 C36.2287,273.583 40.0347,273.315 40.0347,273.315 C40.0347,273.315 39.9031,277.113 37.5026,279.628 Z" id="Shape" fill="#006AD8" fill-rule="nonzero"></path>
                <path d="M37.7448,292.096 C35.3285,294.605 31.5225,294.868 31.5225,294.868 C31.5225,294.868 31.6383,291.059 34.0546,288.555 C36.4709,286.051 40.2769,285.783 40.2769,285.783 C40.2769,285.783 40.1611,289.581 37.7448,292.096 Z" id="Shape" fill="#006AD8" fill-rule="nonzero"></path>
                <path d="M24.6364,298.95 C26.9211,301.581 26.8422,305.389 26.8422,305.389 C26.8422,305.389 23.0572,304.932 20.7725,302.301 C18.4878,299.671 18.5667,295.862 18.5667,295.862 C18.5667,295.862 22.3517,296.32 24.6364,298.95 Z" id="Shape" fill="#006AD8" fill-rule="nonzero"></path>
                <path d="M26.7425,272.379 C29.6483,274.304 30.5906,277.997 30.5906,277.997 C30.5906,277.997 26.8214,278.57 23.9156,276.645 C21.0097,274.719 20.0674,271.027 20.0674,271.027 C20.0674,271.027 23.8524,270.443 26.7425,272.379 Z" id="Shape" fill="#006AD8" fill-rule="nonzero"></path>
                <path d="M26.7425,272.379 C29.6483,274.304 30.5906,277.997 30.5906,277.997 C30.5906,277.997 26.8214,278.57 23.9156,276.645 C21.0097,274.719 20.0674,271.027 20.0674,271.027 C20.0674,271.027 23.8524,270.443 26.7425,272.379 Z" id="Shape" fill="#000000" fill-rule="nonzero" opacity="0.1"></path>
                <path d="M40.9823,270.8 C40.9823,270.8 31.7698,288.871 39.2767,298.756 C46.7835,308.641 38.5923,335.581 38.5923,335.581" id="Shape" stroke="#006AD8"></path>
                <path d="M38.2554,265.15 C38.2554,268.633 40.8138,271.463 40.8138,271.463 C40.8138,271.463 43.3722,268.638 43.3722,265.15 C43.3722,261.662 40.8138,258.837 40.8138,258.837 C40.8138,258.837 38.2554,261.668 38.2554,265.15 Z" id="Shape" fill="#006AD8" fill-rule="nonzero"></path>
                <path d="M38.2554,265.15 C38.2554,268.633 40.8138,271.463 40.8138,271.463 C40.8138,271.463 43.3722,268.638 43.3722,265.15 C43.3722,261.662 40.8138,258.837 40.8138,258.837 C40.8138,258.837 38.2554,261.668 38.2554,265.15 Z" id="Shape" fill="#000000" fill-rule="nonzero" opacity="0.1"></path>
                <path d="M38.992,279.896 C36.5441,282.379 36.3599,286.209 36.3599,286.209 C36.3599,286.209 40.1659,285.993 42.6138,283.51 C45.0617,281.027 45.2459,277.197 45.2459,277.197 C45.2459,277.197 41.4399,277.413 38.992,279.896 Z" id="Shape" fill="#006AD8" fill-rule="nonzero"></path>
                <path d="M38.992,279.896 C36.5441,282.379 36.3599,286.209 36.3599,286.209 C36.3599,286.209 40.1659,285.993 42.6138,283.51 C45.0617,281.027 45.2459,277.197 45.2459,277.197 C45.2459,277.197 41.4399,277.413 38.992,279.896 Z" id="Shape" fill="#000000" fill-rule="nonzero" opacity="0.1"></path>
                <path d="M43.7879,297.157 C41.34,299.64 41.1558,303.47 41.1558,303.47 C41.1558,303.47 44.9618,303.254 47.4097,300.771 C49.8576,298.288 50.0418,294.458 50.0418,294.458 C50.0418,294.458 46.22,294.674 43.7879,297.157 Z" id="Shape" fill="#006AD8" fill-rule="nonzero"></path>
                <path d="M36.7446,293.364 C36.7446,293.364 42.2879,284.631 50.0738,284.42" id="Shape" stroke="#006AD8"></path>
                <path d="M32.4117,288.087 C32.4117,288.087 26.8684,279.354 19.0825,279.144" id="Shape" stroke="#006AD8"></path>
                <path d="M31.6909,300.555 C31.6909,300.555 37.2342,291.822 45.02,291.612" id="Shape" stroke="#006AD8"></path>
                <path d="M49.8048,285.809 C50.5985,285.809 51.242,285.166 51.242,284.373 C51.242,283.58 50.5985,282.937 49.8048,282.937 C49.0111,282.937 48.3677,283.58 48.3677,284.373 C48.3677,285.166 49.0111,285.809 49.8048,285.809 Z" id="Shape" fill="#006AD8" fill-rule="nonzero"></path>
                <path d="M19.2199,280.654 C20.0136,280.654 20.657,280.011 20.657,279.217 C20.657,278.424 20.0136,277.781 19.2199,277.781 C18.4261,277.781 17.7827,278.424 17.7827,279.217 C17.7827,280.011 18.4261,280.654 19.2199,280.654 Z" id="Shape" fill="#006AD8" fill-rule="nonzero"></path>
                <path d="M35.7705,303.417 C35.7705,303.417 30.2273,294.684 22.4414,294.474" id="Shape" stroke="#006AD8"></path>
                <path d="M22.5783,295.994 C23.372,295.994 24.0154,295.351 24.0154,294.558 C24.0154,293.765 23.372,293.122 22.5783,293.122 C21.7845,293.122 21.1411,293.765 21.1411,294.558 C21.1411,295.351 21.7845,295.994 22.5783,295.994 Z" id="Shape" fill="#006AD8" fill-rule="nonzero"></path>
                <path d="M45.1251,293.121 C45.9189,293.121 46.5623,292.478 46.5623,291.685 C46.5623,290.892 45.9189,290.249 45.1251,290.249 C44.3314,290.249 43.688,290.892 43.688,291.685 C43.688,292.478 44.3314,293.121 45.1251,293.121 Z" id="Shape" fill="#006AD8" fill-rule="nonzero"></path>
                <path d="M66.4244,325.065 C66.4244,325.065 53.0637,322.392 49.4945,318.831 C45.9253,315.269 29.9009,309.041 28.1163,313.491 C26.3317,317.942 4.0639,333.077 19.2092,335.749 C34.3545,338.422 54.843,339.311 59.2966,337.527 C63.7501,335.744 66.4244,325.065 66.4244,325.065 Z" id="Shape" fill="#A8A8A8" fill-rule="nonzero"></path>
                <path d="M19.2089,334.092 C34.3542,336.764 54.8428,337.653 59.2963,335.87 C62.6865,334.513 65.0449,327.979 65.9767,324.97 L66.4241,325.064 C66.4241,325.064 63.7499,335.749 59.2963,337.527 C54.8428,339.305 34.3542,338.416 19.2089,335.749 C14.8396,334.976 13.5867,333.166 14.0605,330.878 C14.429,332.351 15.9556,333.518 19.2089,334.092 Z" id="Shape" fill="#000000" fill-rule="nonzero" opacity="0.2"></path>
                <path d="M472.062,274.893 C472.062,274.893 476.474,280.68 470.025,289.36 C463.576,298.04 458.26,305.41 460.413,310.839 C460.413,310.839 470.141,294.673 478.058,294.447 C485.976,294.221 480.775,284.61 472.062,274.893 Z" id="Shape" fill="#006AD8" fill-rule="nonzero"></path>
                <path d="M472.063,274.893 C472.447,275.451 472.75,276.06 472.963,276.703 C480.691,285.772 484.802,294.237 477.379,294.452 C470.462,294.652 462.166,307.01 460.176,310.134 C460.241,310.375 460.321,310.612 460.413,310.845 C460.413,310.845 470.141,294.679 478.059,294.452 C485.976,294.226 480.775,284.61 472.063,274.893 Z" id="Shape" fill="#000000" fill-rule="nonzero" opacity="0.1"></path>
                <path d="M480.264,282.237 C480.264,284.268 480.038,285.919 479.738,285.919 C479.438,285.919 479.211,284.273 479.211,282.237 C479.211,280.201 479.496,281.185 479.775,281.185 C480.054,281.185 480.264,280.212 480.264,282.237 Z" id="Shape" fill="#FFD037" fill-rule="nonzero"></path>
                <path d="M483.081,284.663 C481.296,285.636 479.743,286.241 479.612,285.972 C479.48,285.704 480.812,284.736 482.596,283.768 C484.381,282.8 483.676,283.505 483.812,283.768 C483.949,284.031 484.86,283.689 483.081,284.663 Z" id="Shape" fill="#FFD037" fill-rule="nonzero"></path>
                <path d="M448.763,274.893 C448.763,274.893 444.351,280.68 450.8,289.36 C457.248,298.04 462.565,305.41 460.412,310.839 C460.412,310.839 450.684,294.673 442.767,294.447 C434.849,294.221 440.05,284.61 448.763,274.893 Z" id="Shape" fill="#006AD8" fill-rule="nonzero"></path>
                <path d="M448.763,274.893 C448.378,275.451 448.075,276.06 447.862,276.703 C440.134,285.772 436.023,294.237 443.446,294.452 C450.363,294.652 458.659,307.01 460.649,310.134 C460.584,310.375 460.504,310.612 460.412,310.845 C460.412,310.845 450.684,294.679 442.767,294.452 C434.849,294.226 440.05,284.61 448.763,274.893 Z" id="Shape" fill="#000000" fill-rule="nonzero" opacity="0.1"></path>
                <path d="M440.561,282.237 C440.561,284.268 440.787,285.919 441.087,285.919 C441.387,285.919 441.614,284.273 441.614,282.237 C441.614,280.201 441.329,281.185 441.051,281.185 C440.772,281.185 440.561,280.212 440.561,282.237 Z" id="Shape" fill="#FFD037" fill-rule="nonzero"></path>
                <path d="M437.744,284.663 C439.529,285.636 441.082,286.241 441.214,285.972 C441.345,285.704 440.013,284.736 438.229,283.768 C436.444,282.8 437.149,283.505 437.013,283.768 C436.876,284.031 435.96,283.689 437.744,284.663 Z" id="Shape" fill="#FFD037" fill-rule="nonzero"></path>
                <path d="M441.966,310.082 C441.966,310.082 454.301,309.703 458.017,307.057 C461.734,304.411 476.969,301.27 477.911,305.479 C478.853,309.687 496.446,326.58 482.522,326.69 C468.598,326.801 450.168,324.523 446.457,322.266 C442.745,320.009 441.966,310.082 441.966,310.082 Z" id="Shape" fill="#A8A8A8" fill-rule="nonzero"></path>
                <path d="M482.77,325.233 C468.846,325.343 450.416,323.065 446.704,320.808 C443.877,319.088 442.751,312.917 442.377,310.071 L441.966,310.071 C441.966,310.071 442.745,320.014 446.457,322.271 C450.168,324.528 468.598,326.811 482.522,326.695 C486.544,326.664 487.929,325.233 487.855,323.118 C487.297,324.407 485.786,325.206 482.77,325.233 Z" id="Shape" fill="#000000" fill-rule="nonzero" opacity="0.2"></path>
                <path d="M94.62,39.266 L91.314,39.266 C91.627,39.2809 91.94,39.2321 92.233,39.1227 C92.527,39.0132 92.796,38.8453 93.022,38.6292 C93.249,38.413 93.43,38.1531 93.553,37.8651 C93.677,37.5771 93.74,37.2671 93.74,36.9539 C93.74,36.6406 93.677,36.3306 93.553,36.0426 C93.43,35.7547 93.249,35.4947 93.022,35.2786 C92.796,35.0624 92.527,34.8945 92.233,34.7851 C91.94,34.6756 91.627,34.6269 91.314,34.6418 L64.5292,34.6418 C63.9346,34.6701 63.3739,34.9261 62.9631,35.3566 C62.5524,35.7871 62.3233,36.3591 62.3233,36.9539 C62.3233,37.5487 62.5524,38.1207 62.9631,38.5511 C63.3739,38.9816 63.9346,39.2376 64.5292,39.266 L67.8351,39.266 C67.2406,39.2943 66.6798,39.5503 66.2691,39.9808 C65.8584,40.4113 65.6292,40.9832 65.6292,41.578 C65.6292,42.1728 65.8584,42.7448 66.2691,43.1753 C66.6798,43.6058 67.2406,43.8618 67.8351,43.8901 L63.2078,43.8901 C62.6133,43.9185 62.0525,44.1744 61.6418,44.6049 C61.2311,45.0354 61.002,45.6074 61.002,46.2022 C61.002,46.797 61.2311,47.369 61.6418,47.7995 C62.0525,48.23 62.6133,48.4859 63.2078,48.5143 L89.992,48.5143 C90.306,48.5292 90.618,48.4805 90.912,48.371 C91.206,48.2616 91.474,48.0937 91.701,47.8775 C91.928,47.6613 92.109,47.4014 92.232,47.1134 C92.355,46.8255 92.419,46.5155 92.419,46.2022 C92.419,45.8889 92.355,45.5789 92.232,45.291 C92.109,45.003 91.928,44.7431 91.701,44.5269 C91.474,44.3107 91.206,44.1428 90.912,44.0334 C90.618,43.9239 90.306,43.8752 89.992,43.8901 L94.62,43.8901 C95.214,43.8618 95.775,43.6058 96.186,43.1753 C96.596,42.7448 96.826,42.1728 96.826,41.578 C96.826,40.9832 96.596,40.4113 96.186,39.9808 C95.775,39.5503 95.214,39.2943 94.62,39.266 Z" id="Shape" fill="#DEE3F3" fill-rule="nonzero" opacity="0.5"></path>
            </g>
        </g>
    </g>
</svg>