<?xml version="1.0" encoding="UTF-8"?>
<svg width="161px" height="112px" viewBox="0 0 161 112" version="1.1" xmlns="http://www.w3.org/2000/svg" xmlns:xlink="http://www.w3.org/1999/xlink">
    <!-- Generator: Sketch 51.3 (57544) - http://www.bohemiancoding.com/sketch -->
    <title>Group</title>
    <desc>Created with Sketch.</desc>
    <defs></defs>
    <g id="Page-1" stroke="none" stroke-width="1" fill="none" fill-rule="evenodd">
        <g id="Group-148" fill-rule="nonzero">
            <g id="Group">
                <path d="M30.544,24.044 C35.6224,24.044 39.7392,19.9186 39.7392,14.8296 C39.7392,9.74065 35.6224,5.61523 30.544,5.61523 C25.4657,5.61523 21.3489,9.74065 21.3489,14.8296 C21.3489,19.9186 25.4657,24.044 30.544,24.044 Z" id="Shape" fill="#FF6584"></path>
                <path d="M75.2818,49.4008 C75.2818,71.1425 62.3836,78.734 46.4729,78.734 C30.5622,78.734 17.6641,71.1425 17.6641,49.4008 C17.6641,27.659 46.4729,0 46.4729,0 C46.4729,0 75.2818,27.659 75.2818,49.4008 Z" id="Shape" fill="#F2F2F2"></path>
                <polygon id="Shape" fill="#3F3D56" points="45.4234 75.4082 45.7185 57.2123 57.9975 34.7013 45.7648 54.3578 45.8974 46.1762 54.3601 29.8898 45.9325 44.0111 46.171 29.2961 55.2331 16.33 46.2086 26.9821 46.3576 0 45.4209 35.7195 45.4979 34.2459 36.2845 20.1138 45.3502 37.0746 44.4917 53.5087 44.4661 53.0726 33.8446 38.2006 44.434 54.6135 44.3266 56.6688 44.3074 56.6997 44.3161 56.8685 42.1382 98.5633 45.0482 98.5633 45.3973 77.027 55.9605 60.6543"></polygon>
                <path d="M161,58.305 C161,76.1017 150.442,82.3157 137.419,82.3157 C124.395,82.3157 113.837,76.1017 113.837,58.305 C113.837,40.5084 137.419,17.8682 137.419,17.8682 C137.419,17.8682 161,40.5084 161,58.305 Z" id="Shape" fill="#F2F2F2"></path>
                <polygon id="Shape" fill="#3F3D56" points="136.56 79.5933 136.801 64.6992 146.852 46.2729 136.839 62.3626 136.948 55.6656 143.875 42.3343 136.976 53.8933 137.172 41.8484 144.589 31.235 137.202 39.9544 137.324 17.8682 136.558 47.1062 136.621 45.9001 129.079 34.3322 136.5 48.2155 135.797 61.6676 135.776 61.3106 127.082 49.1371 135.75 62.5719 135.662 64.2543 135.646 64.2796 135.653 64.4177 133.87 98.5468 136.252 98.5468 136.538 80.9185 145.185 67.5166"></polygon>
                <path d="M79.6805,102.008 C123.687,102.008 159.361,100.201 159.361,97.9718 C159.361,95.7426 123.687,93.9355 79.6805,93.9355 C35.6742,93.9355 0,95.7426 0,97.9718 C0,100.201 35.6742,102.008 79.6805,102.008 Z" id="Shape" fill="#3F3D56"></path>
                <path d="M128.221,105.331 C135.758,105.331 141.869,105.021 141.869,104.64 C141.869,104.258 135.758,103.948 128.221,103.948 C120.684,103.948 114.574,104.258 114.574,104.64 C114.574,105.021 120.684,105.331 128.221,105.331 Z" id="Shape" fill="#3F3D56"></path>
                <path d="M78.8368,112 C86.3741,112 92.4842,111.69 92.4842,111.308 C92.4842,110.927 86.3741,110.617 78.8368,110.617 C71.2996,110.617 65.1895,110.927 65.1895,111.308 C65.1895,111.69 71.2996,112 78.8368,112 Z" id="Shape" fill="#3F3D56"></path>
                <path d="M41.3701,107.297 C58.59,107.297 72.5494,106.59 72.5494,105.718 C72.5494,104.846 58.59,104.139 41.3701,104.139 C24.1503,104.139 10.1908,104.846 10.1908,105.718 C10.1908,106.59 24.1503,107.297 41.3701,107.297 Z" id="Shape" fill="#3F3D56"></path>
                <path d="M13.9484,92.9023 C20.217,92.9023 25.2986,87.81 25.2986,81.5283 C25.2986,75.2466 20.217,70.1543 13.9484,70.1543 C7.67982,70.1543 2.59814,75.2466 2.59814,81.5283 C2.59814,87.81 7.67982,92.9023 13.9484,92.9023 Z" id="Shape" fill="#2F2E41"></path>
                <polygon id="Shape" fill="#2F2E41" points="12.1196 90.4333 8.67163 90.3926 8.59884 96.583 12.0468 96.6238"></polygon>
                <polygon id="Shape" fill="#2F2E41" points="19.0153 90.5153 15.5674 90.4746 15.4946 96.6651 18.9425 96.7058"></polygon>
                <path d="M14.3445,96.7235 C14.3515,96.1271 13.0707,95.6285 11.4839,95.6098 C9.89701,95.591 8.60491,96.0593 8.5979,96.6556 C8.59089,97.2519 9.87162,97.7505 11.4585,97.7693 C13.0454,97.788 14.3375,97.3198 14.3445,96.7235 Z" id="Shape" fill="#2F2E41"></path>
                <path d="M21.2419,96.661 C21.2489,96.0647 19.9682,95.5661 18.3813,95.5473 C16.7945,95.5286 15.5024,95.9968 15.4954,96.5931 C15.4884,97.1894 16.7691,97.688 18.3559,97.7068 C19.9428,97.7255 21.2349,97.2573 21.2419,96.661 Z" id="Shape" fill="#2F2E41"></path>
                <path d="M14.2696,82.5393 C16.412,82.5393 18.1488,80.7989 18.1488,78.652 C18.1488,76.5051 16.412,74.7646 14.2696,74.7646 C12.1272,74.7646 10.3904,76.5051 10.3904,78.652 C10.3904,80.7989 12.1272,82.5393 14.2696,82.5393 Z" id="Shape" fill="#FFFFFF"></path>
                <path d="M14.2695,79.948 C14.9836,79.948 15.5626,79.3679 15.5626,78.6522 C15.5626,77.9366 14.9836,77.3564 14.2695,77.3564 C13.5554,77.3564 12.9764,77.9366 12.9764,78.6522 C12.9764,79.3679 13.5554,79.948 14.2695,79.948 Z" id="Shape" fill="#3F3D56"></path>
                <path d="M3.06335,70.8223 C2.19529,66.6987 5.17357,62.5776 9.71553,61.6175 C14.2575,60.6573 18.6432,63.2218 19.5112,67.3453 C20.3793,71.4688 17.3592,72.9502 12.8173,73.9104 C8.27532,74.8705 3.93141,74.9458 3.06335,70.8223 Z" id="Shape" fill="#2D47FE"></path>
                <path d="M31.2623,87.8745 C31.2623,95.804 26.5584,98.5727 20.7554,98.5727 C20.621,98.5727 20.4868,98.5712 20.3528,98.5682 C20.0839,98.5624 19.8176,98.5496 19.5545,98.5316 C14.3174,98.1602 10.2485,95.2491 10.2485,87.8745 C10.2485,80.2426 19.9808,70.6125 20.7119,69.8998 L20.7132,69.8985 C20.7413,69.8709 20.7554,69.8574 20.7554,69.8574 C20.7554,69.8574 31.2623,79.9449 31.2623,87.8745 Z" id="Shape" fill="#2D47FE"></path>
                <path d="M20.3727,97.3586 L24.2155,91.9778 L20.363,97.9494 L20.3528,98.5672 C20.0839,98.5614 19.8176,98.5486 19.5545,98.5306 L19.9687,90.5973 L19.9655,90.5357 L19.9726,90.5241 L20.0116,89.7749 L16.1495,83.7884 L20.0238,89.2129 L20.0327,89.372 L20.3458,83.3779 L17.0394,77.1919 L20.3861,82.3258 L20.7119,69.8988 L20.7132,69.8564 L20.7132,69.8975 L20.6588,79.697 L23.9505,75.8121 L20.6454,80.5412 L20.5583,85.9079 L23.6317,80.7574 L20.5455,86.6976 L20.4969,89.6812 L24.9587,82.5125 L20.4802,90.7224 L20.3727,97.3586 Z" id="Shape" fill="#3F3D56"></path>
                <path d="M102.366,92.7792 C108.634,92.7792 113.716,87.6869 113.716,81.4052 C113.716,75.1236 108.634,70.0312 102.366,70.0312 C96.0969,70.0312 91.0153,75.1236 91.0153,81.4052 C91.0153,87.6869 96.0969,92.7792 102.366,92.7792 Z" id="Shape" fill="#2F2E41"></path>
                <polygon id="Shape" fill="#2F2E41" points="103.334 90.4459 100.038 91.4609 101.853 97.3786 105.149 96.3636"></polygon>
                <polygon id="Shape" fill="#2F2E41" points="109.926 88.4166 106.63 89.4316 108.445 95.3494 111.741 94.3343"></polygon>
                <path d="M104.938,97.6335 C106.455,97.1663 107.543,96.3255 107.368,95.7554 C107.193,95.1854 105.822,95.102 104.305,95.5692 C102.788,96.0363 101.7,96.8771 101.874,97.4472 C102.049,98.0172 103.421,98.1006 104.938,97.6335 Z" id="Shape" fill="#2F2E41"></path>
                <path d="M111.487,95.4655 C113.004,94.9983 114.092,94.1575 113.918,93.5874 C113.743,93.0174 112.371,92.934 110.854,93.4012 C109.337,93.8683 108.249,94.7092 108.424,95.2792 C108.599,95.8493 109.971,95.9327 111.487,95.4655 Z" id="Shape" fill="#2F2E41"></path>
                <path d="M101.796,82.4563 C103.939,82.4563 105.675,80.7158 105.675,78.5689 C105.675,76.422 103.939,74.6816 101.796,74.6816 C99.6538,74.6816 97.917,76.422 97.917,78.5689 C97.917,80.7158 99.6538,82.4563 101.796,82.4563 Z" id="Shape" fill="#FFFFFF"></path>
                <path d="M101.796,79.864 C102.51,79.864 103.089,79.2839 103.089,78.5682 C103.089,77.8526 102.51,77.2725 101.796,77.2725 C101.082,77.2725 100.503,77.8526 100.503,78.5682 C100.503,79.2839 101.082,79.864 101.796,79.864 Z" id="Shape" fill="#3F3D56"></path>
                <path d="M88.7405,74.5356 C86.6587,70.8738 88.2407,66.0388 92.274,63.7362 C96.3073,61.4335 101.265,62.5353 103.346,66.1971 C105.428,69.8588 103.003,72.1927 98.9696,74.4953 C94.9363,76.7979 90.8223,78.1973 88.7405,74.5356 Z" id="Shape" fill="#2D47FE"></path>
                <path d="M82.1229,86.4216 C82.1229,93.7005 77.805,96.2421 72.4781,96.2421 C72.3547,96.2421 72.2315,96.2407 72.1085,96.238 C71.8617,96.2327 71.6172,96.2209 71.3757,96.2044 C66.5683,95.8634 62.8333,93.1912 62.8333,86.4216 C62.8333,79.4159 71.7671,70.5759 72.4381,69.9217 L72.4393,69.9205 C72.4652,69.8952 72.4781,69.8828 72.4781,69.8828 C72.4781,69.8828 82.1229,79.1427 82.1229,86.4216 Z" id="Shape" fill="#2D47FE"></path>
                <path d="M72.1267,95.1285 L75.6543,90.1892 L72.1179,95.6709 L72.1085,96.238 C71.8617,96.2327 71.6172,96.2209 71.3757,96.2044 L71.7559,88.9219 L71.753,88.8654 L71.7595,88.8548 L71.7953,88.167 L68.2501,82.6717 L71.8065,87.6512 L71.8147,87.7972 L72.1021,82.2949 L69.0669,76.6165 L72.1391,81.3291 L72.4382,69.9217 L72.4393,69.8828 L72.4393,69.9205 L72.3894,78.916 L75.411,75.3498 L72.3771,79.6909 L72.2971,84.6173 L75.1184,79.8894 L72.2854,85.3422 L72.2407,88.081 L76.3365,81.5005 L72.2254,89.0368 L72.1267,95.1285 Z" id="Shape" fill="#3F3D56"></path>
                <path d="M120.053,89.4574 C120.053,97.387 115.349,100.156 109.546,100.156 C109.412,100.156 109.277,100.154 109.143,100.151 C108.875,100.145 108.608,100.133 108.345,100.115 C103.108,99.7432 99.0392,96.8321 99.0392,89.4574 C99.0392,81.8256 108.771,72.1955 109.503,71.4828 L109.504,71.4815 C109.532,71.4539 109.546,71.4404 109.546,71.4404 C109.546,71.4404 120.053,81.5279 120.053,89.4574 Z" id="Shape" fill="#2D47FE"></path>
                <path d="M109.163,98.9426 L113.006,93.5617 L109.154,99.5334 L109.143,100.151 C108.875,100.145 108.608,100.133 108.345,100.115 L108.759,92.1812 L108.756,92.1196 L108.763,92.1081 L108.802,91.3588 L104.94,85.3724 L108.814,90.7969 L108.823,90.956 L109.136,84.9618 L105.83,78.7759 L109.177,83.9098 L109.503,71.4828 L109.504,71.4404 L109.504,71.4815 L109.449,81.281 L112.741,77.3961 L109.436,82.1252 L109.349,87.4919 L112.422,82.3413 L109.336,88.2816 L109.287,91.2652 L113.749,84.0965 L109.271,92.3063 L109.163,98.9426 Z" id="Shape" fill="#3F3D56"></path>
                <path d="M103.086,88.2141 C103.508,87.3232 101.554,85.5099 98.7223,84.164 C95.8904,82.818 93.2529,82.4492 92.8312,83.34 C92.4096,84.2309 94.3635,86.0442 97.1954,87.3902 C100.027,88.7361 102.665,89.105 103.086,88.2141 Z" id="Shape" fill="#2F2E41"></path>
                <path d="M15.7291,87.1731 C16.0951,86.2579 14.0335,84.5686 11.1242,83.4001 C8.21487,82.2316 5.55967,82.0263 5.19359,82.9415 C4.82752,83.8567 6.88921,85.5459 9.7985,86.7144 C12.7078,87.883 15.363,88.0883 15.7291,87.1731 Z" id="Shape" fill="#2F2E41"></path>
            </g>
        </g>
    </g>
</svg>