<svg width="413" height="344" viewBox="0 0 413 344" fill="none" xmlns="http://www.w3.org/2000/svg">
<g clip-path="url(#clip0)">
<path d="M390.157 110.044C390.157 124.362 386.761 136.148 380.87 146.244C378.925 149.569 376.718 152.734 374.269 155.709C352.613 182.158 312.35 196.635 275.959 220.084C168.542 289.3 156.906 178.389 161.758 110.044C163.715 82.4669 174.47 57.2061 191.556 37.8647C195.144 33.7968 199.02 29.9915 203.155 26.478C222.552 9.98217 247.613 0 275.959 0C324.593 0 366.124 29.2911 382.59 70.5673C387.596 83.128 390.164 96.5251 390.157 110.044Z" fill="#2D47FE"/>
<path d="M300.291 24.8008L191.556 37.8647C195.145 33.7969 199.021 29.9915 203.155 26.478L300.291 24.8008Z" fill="#D0CDE1"/>
<path d="M380.87 146.244C378.926 149.569 376.719 152.734 374.27 155.709L281.129 144.522L380.87 146.244Z" fill="#D0CDE1"/>
<path d="M386.39 81.9173L228.537 61.4726L382.59 70.5673C384.07 74.2762 385.338 78.0655 386.39 81.9173Z" fill="#D0CDE1"/>
<path d="M172.466 29.3124C172.466 29.5933 172.458 29.8702 172.433 30.1429C172.31 31.8335 171.81 33.4754 170.971 34.9488C170.132 36.4223 168.974 37.6902 167.582 38.6604C166.19 39.6305 164.599 40.2784 162.924 40.5568C161.25 40.8353 159.534 40.7372 157.902 40.2699C156.271 39.8025 154.764 38.9776 153.492 37.8552C152.22 36.7329 151.214 35.3413 150.549 33.7819C149.883 32.2224 149.575 30.5344 149.645 28.8408C149.716 27.1472 150.163 25.4905 150.956 23.9916C151.202 23.5219 151.482 23.0714 151.796 22.6441C153.161 20.7534 155.074 19.3263 157.277 18.5552C159.48 17.7841 161.866 17.7061 164.115 18.3318C166.363 18.9574 168.366 20.2566 169.852 22.0542C171.338 23.8517 172.236 26.0611 172.425 28.3843C172.454 28.6896 172.466 28.999 172.466 29.3124Z" fill="#2D47FE"/>
<path d="M172.466 29.3124C172.466 29.5933 172.458 29.8701 172.433 30.1429L155.343 28.0911L172.425 28.3842C172.453 28.6895 172.466 28.9989 172.466 29.3124Z" fill="#D0CDE1"/>
<path d="M168.389 35.0564L152.579 36.9576C152.13 36.458 151.726 35.9199 151.372 35.3495L168.389 35.0564Z" fill="#D0CDE1"/>
<path d="M163.904 22.4362L150.956 23.9914C151.201 23.5216 151.482 23.0712 151.796 22.6438L163.904 22.4362Z" fill="#D0CDE1"/>
<path d="M328.909 234.543C328.777 234.792 328.64 235.032 328.49 235.262C327.587 236.697 326.375 237.914 324.942 238.822C323.509 239.731 321.891 240.309 320.206 240.514C318.521 240.72 316.812 240.547 315.202 240.009C313.592 239.471 312.123 238.582 310.901 237.405C309.679 236.229 308.735 234.795 308.138 233.208C307.541 231.621 307.307 229.921 307.451 228.232C307.595 226.543 308.115 224.907 308.972 223.444C309.83 221.981 311.003 220.728 312.407 219.775C312.844 219.475 313.304 219.208 313.781 218.978C315.875 217.947 318.234 217.581 320.542 217.931C322.85 218.281 324.995 219.33 326.687 220.935C328.38 222.54 329.538 224.625 330.007 226.908C330.476 229.192 330.232 231.564 329.309 233.704C329.19 233.988 329.056 234.267 328.909 234.543Z" fill="#2D47FE"/>
<path d="M328.909 234.544C328.777 234.792 328.64 235.032 328.49 235.262L314.357 225.45L329.309 233.705C329.191 233.988 329.056 234.267 328.909 234.544Z" fill="#D0CDE1"/>
<path d="M322.611 237.709L307.753 231.988C307.592 231.336 307.487 230.672 307.442 230.002L322.611 237.709Z" fill="#D0CDE1"/>
<path d="M324.574 224.462L312.407 219.775C312.844 219.475 313.304 219.208 313.781 218.977L324.574 224.462Z" fill="#D0CDE1"/>
<path d="M409.758 38.0449C409.955 38.246 410.142 38.4498 410.316 38.6622C411.409 39.9586 412.2 41.4822 412.629 43.1222C413.058 44.7621 413.116 46.4771 412.798 48.1422C412.48 49.8072 411.794 51.3804 410.789 52.7472C409.785 54.114 408.489 55.2399 406.994 56.043C405.499 56.846 403.843 57.306 402.148 57.3894C400.452 57.4728 398.76 57.1775 397.193 56.5251C395.626 55.8726 394.225 54.8794 393.091 53.6178C391.957 52.3561 391.12 50.8579 390.639 49.2321C390.486 48.7247 390.372 48.2065 390.298 47.6819C389.954 45.3766 390.325 43.0212 391.363 40.9334C392.401 38.8456 394.055 37.1258 396.102 36.006C398.149 34.8863 400.491 34.4204 402.812 34.6712C405.132 34.9221 407.32 35.8775 409.08 37.4088C409.314 37.6075 409.539 37.8205 409.758 38.0449Z" fill="#2D47FE"/>
<path d="M409.759 38.0451C409.955 38.2462 410.143 38.4501 410.316 38.6624L396.646 49.1088L409.08 37.409C409.314 37.6077 409.539 37.8207 409.759 38.0451Z" fill="#D0CDE1"/>
<path d="M410.856 44.9994L400.867 57.3833C400.196 57.3385 399.531 57.2348 398.878 57.0734L410.856 44.9994Z" fill="#D0CDE1"/>
<path d="M398.822 39.0911L390.639 49.2319C390.487 48.7245 390.373 48.2063 390.298 47.6817L398.822 39.0911Z" fill="#D0CDE1"/>
<path d="M195.601 248.11C195.601 248.11 220.651 249.153 220.651 255.406C220.651 261.66 192.469 255.406 192.469 255.406L195.601 248.11Z" fill="#A0616A"/>
<path d="M158.025 344L111.055 340.873L108.967 315.858L98.5297 337.746L52.6035 331.493C53.6473 291.886 70.3477 253.322 71.3915 248.11C72.4352 242.899 74.9299 221.365 74.9299 221.365C79.4912 211.704 103.394 210.797 122.129 211.672C129.895 212.027 136.784 212.694 141.032 213.173C143.84 213.486 145.5 213.715 145.5 213.715C152.983 221.418 157.806 231.913 160.77 243.639C171.458 285.883 158.025 344 158.025 344Z" fill="#2F2E41"/>
<path d="M105.836 102.191C120.247 102.191 131.93 90.5254 131.93 76.1345C131.93 61.7437 120.247 50.0775 105.836 50.0775C91.4243 50.0775 79.7415 61.7437 79.7415 76.1345C79.7415 90.5254 91.4243 102.191 105.836 102.191Z" fill="#A0616A"/>
<path d="M88.0916 82.3882C88.0916 82.3882 80.7852 114.699 69.3037 124.079C57.8221 133.46 114.186 124.079 114.186 124.079C114.186 124.079 101.661 103.234 111.055 93.8533C120.449 84.4728 88.0916 82.3882 88.0916 82.3882Z" fill="#A0616A"/>
<path d="M141.325 215.8L124.008 217.717L75.5666 223.096C75.5666 223.096 75.337 222.481 74.9299 221.365C71.4124 211.787 54.472 165.176 52.6036 151.178C50.516 135.544 72.4353 116.783 72.4353 116.783C72.4353 116.783 93.3108 112.614 99.5735 112.614C105.836 112.614 130.887 121.995 130.887 121.995L140.229 205.908L141.032 213.173L141.325 215.8Z" fill="#D0CDE1"/>
<path opacity="0.15" d="M160.77 243.639L125.668 223.096C125.668 223.096 125.052 221.095 124.008 217.718C123.486 216.029 122.85 213.986 122.129 211.673C118.08 198.686 111.285 177.256 105.836 161.601C97.4858 137.629 138.193 204.335 138.193 204.335L140.228 205.909L141.032 213.173C143.84 213.486 145.5 213.715 145.5 213.715C152.983 221.418 157.806 231.914 160.77 243.639Z" fill="black"/>
<path d="M114.186 124.079C114.186 124.079 103.748 137.629 112.099 161.601C120.449 185.574 131.93 223.096 131.93 223.096L192.469 258.533L200.82 248.11L144.456 204.335C144.456 204.335 142.368 125.121 131.93 121.995C121.493 118.868 114.186 124.079 114.186 124.079Z" fill="#D0CDE1"/>
<path d="M62.5193 215.278C62.5193 215.278 77.1321 245.504 83.3948 242.378C89.6574 239.251 67.7382 207.982 67.7382 207.982L62.5193 215.278Z" fill="#A0616A"/>
<path d="M60.9536 132.417L5.63346 178.278C5.63346 178.278 -15.2421 192.869 23.3777 203.292C61.9974 213.715 65.1287 219.969 65.1287 219.969C65.1287 219.969 69.3038 206.419 74.5227 208.504L29.6403 186.616L66.1725 164.728L60.9536 132.417Z" fill="#D0CDE1"/>
<path d="M38.7201 97.5209C41.6235 96.0851 48.0349 93.1874 53.4961 89.6963C53.1131 78.3391 54.5137 68.0292 58.6135 62.5643C60.9147 57.3466 65.7472 52.1228 69.5319 48.009C78.8264 37.9066 99.3786 32.2675 103.024 37.315C130.594 37.8586 133.496 59.4383 133.496 59.4383C133.353 68.4645 123.958 68.7501 115.728 68.4212C116.465 74.5833 114.501 80.9861 108.814 83.8257C97.9388 89.2556 94.6761 96.3145 100.114 101.202C105.552 106.089 115.34 119.12 102.289 122.378C89.2384 125.636 87.6071 132.152 91.4135 134.867C95.22 137.582 82.7131 129.98 82.7131 129.98C82.7131 129.98 80.538 143.012 69.1187 139.754C68.0954 139.462 67.0726 138.714 66.067 137.595C62.9829 140.979 60.2316 142.98 58.158 142.991C46.2819 143.054 47.7061 129.919 47.7061 129.919C47.7061 129.919 33.6098 133.872 38.0084 132.282C42.4069 130.693 42.5953 123.979 30.9077 117.328C19.2201 110.677 32.1642 100.763 38.7201 97.5209Z" fill="#2F2E41"/>
<path d="M184.431 131.568L184.242 131.543L184.704 133.296C185.141 135.742 185.775 138.149 186.6 140.493L200.146 191.913C200.578 193.554 201.481 195.033 202.743 196.17C204.006 197.306 205.573 198.049 207.252 198.308L234.877 202.576C236.663 202.852 238.491 202.567 240.108 201.761C241.726 200.955 243.052 199.668 243.906 198.077L270.158 149.112C270.978 147.755 271.728 146.357 272.404 144.923L273.295 143.261L273.156 143.243C275.939 136.669 277.164 129.542 276.736 122.418C276.307 115.294 274.237 108.365 270.686 102.171C267.135 95.9766 262.2 90.6852 256.265 86.7088C250.329 82.7324 243.555 80.1785 236.469 79.2461C229.383 78.3137 222.177 79.028 215.412 81.3334C208.648 83.6387 202.509 87.4729 197.472 92.5369C192.436 97.6009 188.639 103.758 186.377 110.528C184.115 117.298 183.449 124.499 184.431 131.568H184.431Z" fill="#3F3D56"/>
<path d="M236.572 205.935C236.085 205.935 235.6 205.898 235.119 205.823L206.243 201.362C204.409 201.079 202.698 200.268 201.319 199.027C199.941 197.786 198.955 196.171 198.483 194.378L184.324 140.63C183.459 138.17 182.794 135.643 182.335 133.076L181.977 130.725C181.014 123.213 181.812 115.58 184.309 108.429C186.806 101.278 190.934 94.8047 196.366 89.5197C201.798 84.2348 208.386 80.283 215.61 77.9763C222.834 75.6697 230.495 75.0713 237.991 76.2285L237.866 77.0331C230.452 75.8924 222.874 76.4974 215.737 78.8001C208.599 81.1027 202.099 85.0392 196.755 90.2954C191.411 95.5517 187.372 101.982 184.958 109.074C182.545 116.166 181.825 123.723 182.856 131.142L183.131 132.901C183.586 135.447 184.245 137.952 185.103 140.392L199.272 194.171C199.703 195.81 200.605 197.288 201.865 198.422C203.126 199.557 204.691 200.299 206.368 200.558L235.243 205.019C237.027 205.292 238.852 205.007 240.466 204.203C242.081 203.398 243.406 202.114 244.259 200.526L244.978 200.91C244.162 202.428 242.95 203.696 241.47 204.581C239.99 205.466 238.297 205.934 236.572 205.935Z" fill="#D0CDE1"/>
<path d="M243.897 143.256L226.327 191.16L227.317 191.522L244.887 143.618L243.897 143.256Z" fill="#D0CDE1"/>
<path d="M215.21 138.823L214.156 138.869L216.399 189.836L217.452 189.79L215.21 138.823Z" fill="#D0CDE1"/>
<path d="M234.131 230.303L197.131 224.587C196.856 224.543 196.609 224.391 196.445 224.166C196.281 223.941 196.213 223.661 196.256 223.386C196.298 223.111 196.448 222.864 196.673 222.699C196.897 222.534 197.178 222.464 197.453 222.505L234.454 228.221C234.591 228.241 234.724 228.289 234.843 228.36C234.962 228.432 235.066 228.526 235.148 228.638C235.23 228.75 235.29 228.877 235.323 229.012C235.356 229.146 235.362 229.287 235.341 229.424C235.32 229.561 235.272 229.693 235.199 229.811C235.127 229.93 235.032 230.033 234.919 230.114C234.807 230.196 234.679 230.255 234.544 230.287C234.409 230.319 234.269 230.325 234.131 230.303Z" fill="#3F3D56"/>
<path d="M235.08 222.456L198.079 216.74C197.942 216.72 197.81 216.673 197.69 216.601C197.571 216.529 197.468 216.435 197.385 216.323C197.303 216.211 197.243 216.085 197.21 215.95C197.177 215.815 197.171 215.675 197.192 215.538C197.213 215.4 197.262 215.269 197.334 215.15C197.406 215.032 197.501 214.929 197.614 214.847C197.726 214.765 197.854 214.707 197.989 214.674C198.124 214.642 198.264 214.637 198.402 214.659L235.402 220.375C235.54 220.395 235.672 220.443 235.791 220.514C235.91 220.586 236.014 220.68 236.096 220.792C236.179 220.904 236.238 221.031 236.271 221.165C236.305 221.3 236.311 221.44 236.29 221.577C236.268 221.715 236.22 221.846 236.148 221.965C236.075 222.083 235.98 222.186 235.868 222.268C235.755 222.35 235.628 222.408 235.493 222.441C235.357 222.473 235.217 222.478 235.08 222.456Z" fill="#3F3D56"/>
<path d="M236.029 214.61L199.028 208.894C198.753 208.85 198.507 208.699 198.343 208.474C198.179 208.249 198.111 207.969 198.153 207.694C198.196 207.419 198.346 207.172 198.57 207.007C198.794 206.842 199.075 206.772 199.351 206.813L236.351 212.529C236.627 212.573 236.873 212.724 237.037 212.949C237.201 213.174 237.269 213.455 237.226 213.73C237.184 214.005 237.034 214.252 236.81 214.417C236.585 214.582 236.305 214.651 236.029 214.61H236.029Z" fill="#3F3D56"/>
<path d="M214.481 234.868C221.82 236.002 228.402 232.837 229.183 227.798L202.605 223.692C201.825 228.731 207.141 233.734 214.481 234.868Z" fill="#3F3D56"/>
<path d="M227.781 133.163C226.202 132.919 224.896 131.673 224.18 130.838C223.945 130.564 223.717 130.28 223.487 129.996C222.654 128.959 221.866 127.98 220.77 127.47C218.349 126.342 215.497 127.917 213.028 129.607L212.432 128.738C215.146 126.88 218.312 125.163 221.216 126.515C222.534 127.129 223.437 128.251 224.31 129.336C224.532 129.612 224.754 129.887 224.981 130.153C225.726 131.021 227.211 132.428 228.802 132.104C229.472 131.909 230.096 131.579 230.634 131.135C231.045 130.829 231.478 130.556 231.931 130.318C232.85 129.878 233.879 129.719 234.888 129.862C235.896 130.004 236.84 130.441 237.601 131.118C237.872 131.374 238.129 131.646 238.371 131.93C238.845 132.47 239.293 132.98 239.876 133.165C240.738 133.441 241.649 132.949 242.614 132.429C243.61 131.892 244.639 131.337 245.806 131.474C245.844 131.479 245.883 131.484 245.92 131.49C247.998 131.811 248.955 134.105 249.497 135.817L248.491 136.134C247.755 133.807 246.858 132.649 245.683 132.52C244.847 132.422 244.006 132.876 243.115 133.355C241.999 133.957 240.844 134.579 239.556 134.169C238.694 133.895 238.126 133.249 237.578 132.625C237.362 132.37 237.132 132.126 236.889 131.895C236.283 131.365 235.536 131.023 234.739 130.911C233.942 130.798 233.129 130.92 232.4 131.261C231.996 131.476 231.609 131.721 231.243 131.995C230.589 132.528 229.829 132.917 229.013 133.136C228.608 133.218 228.19 133.227 227.781 133.163Z" fill="#D0CDE1"/>
</g>
<defs>
<clipPath id="clip0">
<rect width="413" height="344" fill="white"/>
</clipPath>
</defs>
</svg>
